G04 Layer_Color=32896*
%FSLAX44Y44*%
%MOMM*%
G71*
G01*
G75*
%ADD35C,0.2000*%
%ADD90C,0.1800*%
D35*
X338000Y72000D02*
Y80000D01*
X550422Y189422D02*
X556078Y195078D01*
X567921Y171078D02*
X573578Y165422D01*
X762000Y170000D02*
Y178000D01*
D90*
X335000Y89000D02*
Y93000D01*
Y102000D02*
Y106000D01*
X150000Y113000D02*
X154000D01*
X192000Y179000D02*
X196000D01*
X604197Y110475D02*
X607025Y113303D01*
X551586Y58086D02*
X554414Y60914D01*
X514336Y92164D02*
X517164Y89336D01*
X493086Y113414D02*
X495914Y110586D01*
X493086Y136586D02*
X495914Y139414D01*
X538336Y182086D02*
X541164Y184914D01*
X582836Y160664D02*
X585664Y157836D01*
X599836Y143664D02*
X602664Y140836D01*
X577086Y83586D02*
X579914Y86414D01*
X561586Y68086D02*
X564414Y70914D01*
X522836Y83664D02*
X525664Y80836D01*
X476336Y130164D02*
X479164Y127336D01*
X504336Y147836D02*
X507164Y150664D01*
X529836Y173336D02*
X532664Y176164D01*
X591336Y152164D02*
X594164Y149336D01*
X612586Y130914D02*
X615414Y128086D01*
X599086Y97086D02*
X601914Y99914D01*
X590086Y88336D02*
X592914Y91164D01*
X904000Y71000D02*
X908000D01*
X946000Y137000D02*
X950000D01*
X765000Y144000D02*
Y148000D01*
Y157000D02*
Y161000D01*
X158003Y221000D02*
X164668D01*
X168000Y217668D01*
X164668Y214335D01*
X158003D01*
Y211003D02*
Y207671D01*
Y209337D01*
X168000D01*
Y211003D01*
Y207671D01*
Y202673D02*
X158003D01*
X168000Y196008D01*
X158003D01*
X183669Y214335D02*
X182003Y216002D01*
Y219334D01*
X183669Y221000D01*
X190334D01*
X192000Y219334D01*
Y216002D01*
X190334Y214335D01*
X187002D01*
Y217668D01*
X192000Y211003D02*
X182003D01*
X192000Y204339D01*
X182003D01*
Y201006D02*
X192000D01*
Y196008D01*
X190334Y194342D01*
X183669D01*
X182003Y196008D01*
Y201006D01*
X13664Y11003D02*
X7000D01*
Y21000D01*
X13664D01*
X7000Y16002D02*
X10332D01*
X16997Y11003D02*
X23661D01*
X20329D01*
Y21000D01*
X31992D02*
Y11003D01*
X26994Y16002D01*
X33658D01*
X36990Y12669D02*
X38656Y11003D01*
X41989D01*
X43655Y12669D01*
Y14336D01*
X41989Y16002D01*
X40323D01*
X41989D01*
X43655Y17668D01*
Y19334D01*
X41989Y21000D01*
X38656D01*
X36990Y19334D01*
X46987D02*
X48653Y21000D01*
X51986D01*
X53652Y19334D01*
Y12669D01*
X51986Y11003D01*
X48653D01*
X46987Y12669D01*
Y14336D01*
X48653Y16002D01*
X53652D01*
X56984Y11003D02*
X63648D01*
Y12669D01*
X56984Y19334D01*
Y21000D01*
X66981Y11003D02*
X70313D01*
X68647D01*
Y21000D01*
X66981D01*
X70313D01*
X75311D02*
Y11003D01*
X81976Y21000D01*
Y11003D01*
X85308Y16002D02*
X91973D01*
X101969Y21000D02*
X95305D01*
X101969Y14336D01*
Y12669D01*
X100303Y11003D01*
X96971D01*
X95305Y12669D01*
X105302D02*
X106968Y11003D01*
X110300D01*
X111966Y12669D01*
Y19334D01*
X110300Y21000D01*
X106968D01*
X105302Y19334D01*
Y12669D01*
X115298Y21000D02*
X118631D01*
X116965D01*
Y11003D01*
X115298Y12669D01*
X123629Y11003D02*
X130294D01*
Y12669D01*
X123629Y19334D01*
Y21000D01*
X281500Y189169D02*
X283166Y187503D01*
X286498D01*
X288165Y189169D01*
Y190835D01*
X286498Y192502D01*
X284832D01*
X286498D01*
X288165Y194168D01*
Y195834D01*
X286498Y197500D01*
X283166D01*
X281500Y195834D01*
X291497Y187503D02*
Y194168D01*
X294829Y197500D01*
X298161Y194168D01*
Y187503D01*
X301494Y189169D02*
X303160Y187503D01*
X306492D01*
X308158Y189169D01*
Y190835D01*
X306492Y192502D01*
X304826D01*
X306492D01*
X308158Y194168D01*
Y195834D01*
X306492Y197500D01*
X303160D01*
X301494Y195834D01*
X355000Y198000D02*
X358332D01*
X356666D01*
Y188003D01*
X355000Y189669D01*
X363331Y188003D02*
Y194668D01*
X366663Y198000D01*
X369995Y194668D01*
Y188003D01*
X373327Y198000D02*
X376660D01*
X374994D01*
Y188003D01*
X373327Y189669D01*
M02*
