G04 Layer_Physical_Order=4*
G04 Layer_Color=16711680*
%FSLAX44Y44*%
%MOMM*%
G71*
G01*
G75*
%ADD11R,0.6000X0.6000*%
%ADD12R,0.6000X0.6000*%
%ADD14P,0.8485X4X270.0*%
%ADD18P,0.8485X4X360.0*%
%ADD24R,0.8000X1.0000*%
%ADD31C,0.3000*%
%ADD34C,0.1500*%
%ADD35C,0.2000*%
%ADD36C,0.5500*%
%ADD37C,0.4000*%
%ADD61C,1.4500*%
%ADD62O,1.4000X2.1000*%
%ADD63R,1.5000X1.5000*%
%ADD64C,1.6000*%
%ADD65C,1.7000*%
%ADD66C,2.2000*%
%ADD67C,2.9500*%
%ADD68C,1.5000*%
%ADD69C,2.9500*%
%ADD70C,1.5000*%
%ADD71C,0.4000*%
%ADD72R,1.5000X1.5000*%
G04:AMPARAMS|DCode=73|XSize=1.5mm|YSize=1.5mm|CornerRadius=0.375mm|HoleSize=0mm|Usage=FLASHONLY|Rotation=0.000|XOffset=0mm|YOffset=0mm|HoleType=Round|Shape=RoundedRectangle|*
%AMROUNDEDRECTD73*
21,1,1.5000,0.7500,0,0,0.0*
21,1,0.7500,1.5000,0,0,0.0*
1,1,0.7500,0.3750,-0.3750*
1,1,0.7500,-0.3750,-0.3750*
1,1,0.7500,-0.3750,0.3750*
1,1,0.7500,0.3750,0.3750*
%
%ADD73ROUNDEDRECTD73*%
%ADD75C,0.5500*%
G04:AMPARAMS|DCode=81|XSize=1mm|YSize=0.8mm|CornerRadius=0mm|HoleSize=0mm|Usage=FLASHONLY|Rotation=45.000|XOffset=0mm|YOffset=0mm|HoleType=Round|Shape=Rectangle|*
%AMROTATEDRECTD81*
4,1,4,-0.0707,-0.6364,-0.6364,-0.0707,0.0707,0.6364,0.6364,0.0707,-0.0707,-0.6364,0.0*
%
%ADD81ROTATEDRECTD81*%

G04:AMPARAMS|DCode=82|XSize=1mm|YSize=0.8mm|CornerRadius=0mm|HoleSize=0mm|Usage=FLASHONLY|Rotation=315.000|XOffset=0mm|YOffset=0mm|HoleType=Round|Shape=Rectangle|*
%AMROTATEDRECTD82*
4,1,4,-0.6364,0.0707,-0.0707,0.6364,0.6364,-0.0707,0.0707,-0.6364,-0.6364,0.0707,0.0*
%
%ADD82ROTATEDRECTD82*%

%ADD83C,0.7500*%
%ADD84C,0.5000*%
%ADD85P,4.2426X4X270.0*%
G36*
X874055Y245063D02*
X872674Y244491D01*
X871399Y243709D01*
X870262Y242738D01*
X869291Y241601D01*
X868509Y240326D01*
X867937Y238945D01*
X867588Y237491D01*
X867471Y236000D01*
X867588Y234509D01*
X867937Y233055D01*
X868509Y231674D01*
X869291Y230399D01*
X870262Y229262D01*
X871399Y228291D01*
X872674Y227509D01*
X874055Y226937D01*
X874226Y226896D01*
Y223149D01*
X861851Y210774D01*
X823149D01*
X814778Y219144D01*
X814194Y220500D01*
X814778Y221856D01*
X822149Y229226D01*
X842100D01*
Y226500D01*
X861100D01*
Y245500D01*
X862449Y246941D01*
X873497D01*
X874055Y245063D01*
D02*
G37*
G36*
X649172Y90295D02*
X649231Y90201D01*
X649623Y89468D01*
X650216Y88744D01*
X650939Y88151D01*
X651765Y87710D01*
X652660Y87438D01*
X653591Y87347D01*
X654041Y87391D01*
X680658Y60774D01*
X679829Y58774D01*
X662575D01*
X649449Y71900D01*
X649525Y72674D01*
X649434Y73605D01*
X649162Y74501D01*
X648721Y75326D01*
X648127Y76049D01*
X647404Y76643D01*
X646579Y77084D01*
X645683Y77355D01*
X644752Y77447D01*
X643821Y77355D01*
X642926Y77084D01*
X642101Y76643D01*
X641891Y76471D01*
X641634Y76396D01*
X639941Y76586D01*
X639623Y76705D01*
X639443Y76845D01*
X638935Y77463D01*
X638212Y78057D01*
X637479Y78449D01*
X637384Y78507D01*
X636866Y80661D01*
X636866Y80664D01*
X647015Y90813D01*
X647019Y90814D01*
X649172Y90295D01*
D02*
G37*
G36*
X716300Y37541D02*
X716804Y36226D01*
X716590Y35826D01*
X716319Y34931D01*
X716227Y34000D01*
X716319Y33069D01*
X716590Y32174D01*
X717031Y31348D01*
X717625Y30625D01*
X718226Y30132D01*
Y27149D01*
X711851Y20774D01*
X704309D01*
X703544Y22622D01*
X705961Y25039D01*
X706402Y25613D01*
X706679Y26282D01*
X706774Y27000D01*
Y30132D01*
X707375Y30625D01*
X707969Y31348D01*
X708410Y32174D01*
X708681Y33069D01*
X708773Y34000D01*
X708681Y34931D01*
X708410Y35826D01*
X708196Y36226D01*
X708700Y37541D01*
X709264Y38226D01*
X715736D01*
X716300Y37541D01*
D02*
G37*
G36*
X842100Y245500D02*
Y234774D01*
X821000D01*
X820282Y234679D01*
X819613Y234402D01*
X819039Y233961D01*
X810851Y225774D01*
X710149D01*
X698961Y236961D01*
X698387Y237402D01*
X697718Y237679D01*
X697000Y237774D01*
X650000D01*
X649282Y237679D01*
X648613Y237402D01*
X648039Y236961D01*
X648039Y236961D01*
X637841Y226764D01*
X637401Y226189D01*
X637123Y225520D01*
X637029Y224802D01*
Y175537D01*
X636428Y175044D01*
X635834Y174321D01*
X635393Y173496D01*
X635121Y172600D01*
X635030Y171669D01*
X635121Y170738D01*
X635393Y169842D01*
X635834Y169017D01*
X636428Y168294D01*
X637151Y167701D01*
X637976Y167259D01*
X638871Y166988D01*
X639239Y166952D01*
X639867Y166832D01*
X640975Y165723D01*
X641096Y165096D01*
X641132Y164727D01*
X641403Y163832D01*
X641844Y163007D01*
X642438Y162284D01*
X643161Y161690D01*
X643986Y161249D01*
X644882Y160977D01*
X645250Y160941D01*
X645878Y160821D01*
X646057Y160641D01*
X646097Y159473D01*
X644428Y157724D01*
X640349D01*
X569817Y228256D01*
X569191Y228737D01*
X568461Y229039D01*
X567678Y229142D01*
X533736D01*
X532953Y229039D01*
X532224Y228737D01*
X531597Y228256D01*
X443916Y140575D01*
X443435Y139948D01*
X443133Y139218D01*
X443029Y138435D01*
Y110858D01*
X443133Y110075D01*
X443435Y109345D01*
X443916Y108718D01*
X472374Y80260D01*
Y63674D01*
X463726Y55026D01*
X341250D01*
X340467Y54923D01*
X339737Y54620D01*
X339110Y54140D01*
X334860Y49890D01*
X334380Y49263D01*
X334077Y48533D01*
X333974Y47750D01*
Y31003D01*
X332497Y29526D01*
X290750D01*
X289967Y29423D01*
X289237Y29121D01*
X288610Y28640D01*
X284360Y24390D01*
X283880Y23763D01*
X283577Y23033D01*
X283474Y22250D01*
Y11253D01*
X281247Y9026D01*
X275579D01*
X275121Y9635D01*
X274704Y11026D01*
X274969Y11348D01*
X275410Y12174D01*
X275681Y13069D01*
X275773Y14000D01*
X275681Y14931D01*
X275410Y15826D01*
X274969Y16652D01*
X274503Y17219D01*
X274375Y17492D01*
Y19508D01*
X274503Y19781D01*
X274969Y20348D01*
X275410Y21174D01*
X275681Y22069D01*
X275773Y23000D01*
X275681Y23931D01*
X275410Y24827D01*
X274969Y25652D01*
X274375Y26375D01*
X273652Y26969D01*
X272826Y27410D01*
X271931Y27681D01*
X271000Y27773D01*
X270550Y27729D01*
X269140Y29140D01*
X268513Y29620D01*
X267783Y29923D01*
X267000Y30026D01*
X91253D01*
X83026Y38253D01*
Y47500D01*
X122875D01*
X122984Y45849D01*
X123316Y44178D01*
X123864Y42564D01*
X124618Y41036D01*
X125564Y39619D01*
X126688Y38338D01*
X127969Y37214D01*
X129386Y36267D01*
X130914Y35514D01*
X132528Y34966D01*
X134199Y34634D01*
X134900Y34588D01*
Y47550D01*
X135900D01*
Y48550D01*
X148862D01*
X148816Y49250D01*
X148484Y50922D01*
X147936Y52536D01*
X147183Y54064D01*
X146236Y55481D01*
X145112Y56762D01*
X143831Y57886D01*
X142414Y58833D01*
X140886Y59586D01*
X139272Y60134D01*
X137600Y60466D01*
X135900Y60578D01*
X135000Y61421D01*
Y188579D01*
X135900Y189422D01*
X137600Y189534D01*
X139272Y189866D01*
X140886Y190414D01*
X142414Y191168D01*
X143831Y192114D01*
X145112Y193238D01*
X146236Y194519D01*
X147183Y195936D01*
X147936Y197465D01*
X148484Y199078D01*
X148816Y200749D01*
X148862Y201450D01*
X135900D01*
Y202450D01*
X134900D01*
Y215412D01*
X134199Y215366D01*
X132528Y215034D01*
X130914Y214486D01*
X129386Y213732D01*
X127969Y212786D01*
X126688Y211662D01*
X125564Y210381D01*
X124618Y208964D01*
X123864Y207436D01*
X123316Y205822D01*
X122984Y204151D01*
X122875Y202500D01*
X3059D01*
Y246941D01*
X235796D01*
X236325Y245053D01*
X236315Y244941D01*
X235625Y244375D01*
X235031Y243652D01*
X234590Y242826D01*
X234319Y241931D01*
X234227Y241000D01*
X234319Y240069D01*
X234590Y239174D01*
X235031Y238348D01*
X235296Y238026D01*
X234879Y236635D01*
X234421Y236026D01*
X215000D01*
X214217Y235923D01*
X213487Y235620D01*
X212860Y235140D01*
X207860Y230140D01*
X207379Y229513D01*
X207077Y228783D01*
X206974Y228000D01*
Y217411D01*
X206625Y217125D01*
X206031Y216402D01*
X205590Y215576D01*
X205319Y214681D01*
X205227Y213750D01*
X205319Y212819D01*
X205590Y211924D01*
X206031Y211098D01*
X206500Y210528D01*
X206394Y209901D01*
X205723Y208528D01*
X179893D01*
X167378Y221043D01*
Y224500D01*
X171100D01*
Y243500D01*
X152100D01*
Y224500D01*
X155822D01*
Y218650D01*
X155933Y217523D01*
X156262Y216439D01*
X156796Y215440D01*
X157514Y214564D01*
X173414Y198664D01*
X174290Y197946D01*
X175289Y197412D01*
X176373Y197083D01*
X177500Y196972D01*
X211733D01*
Y186250D01*
X211801Y185728D01*
X212003Y185241D01*
X212324Y184824D01*
X212741Y184503D01*
X213228Y184301D01*
X213750Y184233D01*
X250817D01*
X250850Y184237D01*
X250883Y184234D01*
X251110Y184271D01*
X251339Y184301D01*
X251369Y184314D01*
X251402Y184320D01*
X251612Y184415D01*
X251825Y184503D01*
X251852Y184523D01*
X251882Y184537D01*
X252060Y184683D01*
X252243Y184824D01*
X252263Y184850D01*
X252289Y184871D01*
X252423Y185058D01*
X252564Y185241D01*
X252576Y185272D01*
X252596Y185299D01*
X252717Y185526D01*
X253058Y185942D01*
X253157Y186023D01*
X253189Y186057D01*
X253227Y186083D01*
X253369Y186249D01*
X253517Y186407D01*
X253539Y186448D01*
X253569Y186484D01*
X253663Y186680D01*
X253766Y186872D01*
X253776Y186917D01*
X253796Y186959D01*
X253924Y187353D01*
X253934Y187405D01*
X253954Y187454D01*
X253982Y187668D01*
X254020Y187871D01*
X254030Y187874D01*
X255000Y187925D01*
X255970Y187874D01*
X255980Y187871D01*
X256018Y187668D01*
X256046Y187454D01*
X256066Y187405D01*
X256076Y187353D01*
X256204Y186959D01*
X256224Y186917D01*
X256234Y186872D01*
X256337Y186680D01*
X256431Y186484D01*
X256461Y186448D01*
X256483Y186407D01*
X256631Y186249D01*
X256773Y186083D01*
X256811Y186057D01*
X256843Y186023D01*
X256942Y185942D01*
X257283Y185526D01*
X257404Y185299D01*
X257424Y185272D01*
X257436Y185241D01*
X257577Y185058D01*
X257711Y184871D01*
X257737Y184850D01*
X257757Y184824D01*
X257940Y184683D01*
X258118Y184537D01*
X258148Y184523D01*
X258175Y184503D01*
X258388Y184415D01*
X258598Y184320D01*
X258631Y184314D01*
X258661Y184301D01*
X258890Y184271D01*
X259117Y184234D01*
X259150Y184237D01*
X259183Y184233D01*
X289574D01*
X290123Y183724D01*
X290910Y182233D01*
X290819Y181931D01*
X290727Y181000D01*
X290819Y180069D01*
X291090Y179174D01*
X291531Y178348D01*
X292125Y177625D01*
X292848Y177031D01*
X293673Y176590D01*
X294569Y176319D01*
X295500Y176227D01*
X296431Y176319D01*
X297327Y176590D01*
X298152Y177031D01*
X298719Y177497D01*
X298992Y177625D01*
X301008D01*
X301281Y177497D01*
X301848Y177031D01*
X302673Y176590D01*
X303569Y176319D01*
X304500Y176227D01*
X305431Y176319D01*
X306327Y176590D01*
X307152Y177031D01*
X307875Y177625D01*
X308469Y178348D01*
X308910Y179174D01*
X309181Y180069D01*
X309273Y181000D01*
X309181Y181931D01*
X309090Y182233D01*
X309877Y183724D01*
X310426Y184233D01*
X313472D01*
Y180250D01*
X313583Y179123D01*
X313912Y178039D01*
X314446Y177040D01*
X315165Y176164D01*
X316040Y175446D01*
X317039Y174912D01*
X318123Y174583D01*
X319250Y174472D01*
X326750D01*
X327877Y174583D01*
X328961Y174912D01*
X329960Y175446D01*
X330835Y176164D01*
X331326Y176763D01*
X332500Y176916D01*
X333674Y176763D01*
X334165Y176164D01*
X335040Y175446D01*
X336039Y174912D01*
X337123Y174583D01*
X338250Y174472D01*
X345750D01*
X345929Y172487D01*
X345673Y172410D01*
X344848Y171969D01*
X344125Y171375D01*
X343531Y170652D01*
X343090Y169827D01*
X342819Y168931D01*
X342727Y168000D01*
X342819Y167069D01*
X343008Y166445D01*
X342441Y165517D01*
X341603Y164714D01*
X341000Y164773D01*
X340069Y164681D01*
X339174Y164410D01*
X338348Y163969D01*
X337625Y163375D01*
X337031Y162652D01*
X336590Y161826D01*
X336319Y160931D01*
X336227Y160000D01*
X336319Y159069D01*
X336590Y158174D01*
X337031Y157348D01*
X337625Y156625D01*
X338226Y156132D01*
Y152000D01*
X338321Y151282D01*
X338598Y150613D01*
X339039Y150039D01*
X343039Y146039D01*
X343613Y145598D01*
X344282Y145321D01*
X345000Y145226D01*
X370736D01*
X371300Y144541D01*
X371804Y143226D01*
X371590Y142826D01*
X371319Y141931D01*
X371227Y141000D01*
X371319Y140069D01*
X371590Y139173D01*
X372031Y138348D01*
X372625Y137625D01*
X373348Y137031D01*
X374174Y136590D01*
X375069Y136319D01*
X376000Y136227D01*
X376931Y136319D01*
X377826Y136590D01*
X378652Y137031D01*
X379375Y137625D01*
X379969Y138348D01*
X380410Y139173D01*
X380681Y140069D01*
X380773Y141000D01*
X380681Y141931D01*
X380410Y142826D01*
X380196Y143226D01*
X380700Y144541D01*
X381264Y145226D01*
X415000D01*
X415718Y145321D01*
X416387Y145598D01*
X416961Y146039D01*
X432393Y161471D01*
X441760D01*
X443343Y159881D01*
X443435Y158949D01*
X443706Y158054D01*
X444147Y157229D01*
X444741Y156505D01*
X445464Y155912D01*
X446289Y155471D01*
X447185Y155199D01*
X448116Y155107D01*
X449047Y155199D01*
X449943Y155471D01*
X450768Y155912D01*
X451491Y156505D01*
X452085Y157229D01*
X452526Y158054D01*
X452797Y158949D01*
X452889Y159881D01*
X452797Y160812D01*
X452526Y161707D01*
X452452Y161845D01*
X453930Y163323D01*
X454068Y163249D01*
X454963Y162977D01*
X455894Y162886D01*
X456825Y162977D01*
X457721Y163249D01*
X458546Y163690D01*
X459269Y164284D01*
X459863Y165007D01*
X460304Y165832D01*
X460575Y166728D01*
X460667Y167659D01*
X460575Y168590D01*
X460304Y169485D01*
X459863Y170310D01*
X459269Y171034D01*
X458650Y171542D01*
X458510Y171722D01*
X458391Y172040D01*
X458202Y173733D01*
X458276Y173990D01*
X458448Y174199D01*
X458890Y175025D01*
X459161Y175920D01*
X459253Y176851D01*
X459161Y177782D01*
X458890Y178678D01*
X458448Y179503D01*
X457855Y180226D01*
X457132Y180820D01*
X456306Y181261D01*
X455411Y181532D01*
X454699Y181602D01*
X454192Y182064D01*
X454081Y182233D01*
X455162Y184233D01*
X466250D01*
X466772Y184301D01*
X467259Y184503D01*
X467676Y184824D01*
X467997Y185241D01*
X468199Y185728D01*
X468267Y186250D01*
Y246941D01*
X482946D01*
X483684Y244941D01*
X483616Y244884D01*
X482696Y243806D01*
X481956Y242599D01*
X481414Y241290D01*
X481083Y239912D01*
X480972Y238500D01*
Y231500D01*
X481083Y230088D01*
X481414Y228710D01*
X481956Y227402D01*
X482696Y226194D01*
X483616Y225116D01*
X484694Y224196D01*
X485901Y223456D01*
X487210Y222914D01*
X488588Y222583D01*
X490000Y222472D01*
X491412Y222583D01*
X492790Y222914D01*
X494099Y223456D01*
X495306Y224196D01*
X496384Y225116D01*
X497304Y226194D01*
X498044Y227402D01*
X498586Y228710D01*
X498917Y230088D01*
X499028Y231500D01*
Y238500D01*
X498917Y239912D01*
X498586Y241290D01*
X498044Y242599D01*
X497304Y243806D01*
X496384Y244884D01*
X496316Y244941D01*
X497054Y246941D01*
X840751D01*
X842100Y245500D01*
D02*
G37*
G36*
X466250Y186250D02*
X446008D01*
X445660Y186617D01*
X445183Y187750D01*
X445410Y188174D01*
X445681Y189069D01*
X445773Y190000D01*
X445681Y190931D01*
X445410Y191826D01*
X444969Y192652D01*
X444375Y193375D01*
X443652Y193969D01*
X442826Y194410D01*
X441931Y194681D01*
X441000Y194773D01*
X440069Y194681D01*
X439174Y194410D01*
X438348Y193969D01*
X437625Y193375D01*
X437418Y193123D01*
X437024Y192994D01*
X435976D01*
X435582Y193123D01*
X435375Y193375D01*
X434652Y193969D01*
X433826Y194410D01*
X432931Y194681D01*
X432000Y194773D01*
X431069Y194681D01*
X430173Y194410D01*
X429348Y193969D01*
X428625Y193375D01*
X428115Y192754D01*
X427444Y192652D01*
X427056D01*
X426385Y192754D01*
X425875Y193375D01*
X425152Y193969D01*
X424327Y194410D01*
X423431Y194681D01*
X422500Y194773D01*
X421569Y194681D01*
X420673Y194410D01*
X419848Y193969D01*
X419125Y193375D01*
X418531Y192652D01*
X418090Y191826D01*
X417819Y190931D01*
X417727Y190000D01*
X417819Y189069D01*
X418090Y188174D01*
X418317Y187750D01*
X417840Y186617D01*
X417492Y186250D01*
X351528D01*
Y187750D01*
X351417Y188877D01*
X351088Y189961D01*
X350554Y190960D01*
X349836Y191835D01*
X348960Y192554D01*
X347961Y193088D01*
X346877Y193417D01*
X345750Y193528D01*
X338250D01*
X337123Y193417D01*
X336039Y193088D01*
X335040Y192554D01*
X334165Y191835D01*
X333446Y190960D01*
X333350Y190781D01*
X331650D01*
X331554Y190960D01*
X330835Y191835D01*
X329960Y192554D01*
X328961Y193088D01*
X327877Y193417D01*
X326750Y193528D01*
X319250D01*
X318123Y193417D01*
X317039Y193088D01*
X316040Y192554D01*
X315165Y191835D01*
X314446Y190960D01*
X313912Y189961D01*
X313583Y188877D01*
X313472Y187750D01*
Y186250D01*
X259183D01*
X258969Y186652D01*
X258375Y187375D01*
X258123Y187582D01*
X257994Y187976D01*
Y189024D01*
X258123Y189418D01*
X258375Y189625D01*
X258969Y190348D01*
X259410Y191173D01*
X259681Y192069D01*
X259773Y193000D01*
X259681Y193931D01*
X259410Y194827D01*
X258969Y195652D01*
X258375Y196375D01*
X257652Y196969D01*
X256826Y197410D01*
X255931Y197681D01*
X255000Y197773D01*
X254069Y197681D01*
X253174Y197410D01*
X252348Y196969D01*
X251625Y196375D01*
X251031Y195652D01*
X250590Y194827D01*
X250319Y193931D01*
X250227Y193000D01*
X250319Y192069D01*
X250590Y191173D01*
X251031Y190348D01*
X251625Y189625D01*
X251877Y189418D01*
X252006Y189024D01*
Y187976D01*
X251877Y187582D01*
X251625Y187375D01*
X251031Y186652D01*
X250817Y186250D01*
X213750D01*
Y210832D01*
X213969Y211098D01*
X214410Y211924D01*
X214681Y212819D01*
X214773Y213750D01*
X214681Y214681D01*
X214410Y215576D01*
X213969Y216402D01*
X213750Y216668D01*
Y227471D01*
X216253Y229974D01*
X255000D01*
X255783Y230077D01*
X256290Y230287D01*
X256827Y230210D01*
X257961Y229600D01*
X258090Y229174D01*
X258531Y228348D01*
X259125Y227625D01*
X259848Y227031D01*
X260674Y226590D01*
X261569Y226319D01*
X262500Y226227D01*
X263431Y226319D01*
X264326Y226590D01*
X265152Y227031D01*
X265875Y227625D01*
X266082Y227878D01*
X266476Y228006D01*
X267524D01*
X267918Y227878D01*
X268125Y227625D01*
X268848Y227031D01*
X269674Y226590D01*
X270569Y226319D01*
X271500Y226227D01*
X272431Y226319D01*
X273327Y226590D01*
X274152Y227031D01*
X274875Y227625D01*
X275469Y228348D01*
X275910Y229174D01*
X276181Y230069D01*
X276273Y231000D01*
X276181Y231931D01*
X275910Y232826D01*
X275469Y233652D01*
X274875Y234375D01*
X274526Y234662D01*
Y235500D01*
X274423Y236283D01*
X274344Y236474D01*
X275002Y237748D01*
X275274Y237974D01*
X300747D01*
X307860Y230860D01*
X308487Y230380D01*
X309217Y230077D01*
X310000Y229974D01*
X349000D01*
X349783Y230077D01*
X350513Y230380D01*
X351140Y230860D01*
X358768Y238489D01*
X359827Y238134D01*
X360243Y237842D01*
X360319Y237069D01*
X360590Y236173D01*
X361031Y235348D01*
X361625Y234625D01*
X361878Y234418D01*
X362006Y234024D01*
Y232976D01*
X361878Y232582D01*
X361625Y232375D01*
X361031Y231652D01*
X360590Y230826D01*
X360319Y229931D01*
X360227Y229000D01*
Y222629D01*
X360013Y222339D01*
X358727Y221591D01*
X358431Y221681D01*
X357500Y221773D01*
X356569Y221681D01*
X355673Y221410D01*
X354848Y220969D01*
X354125Y220375D01*
X352875D01*
X352152Y220969D01*
X351327Y221410D01*
X350431Y221681D01*
X349500Y221773D01*
X348569Y221681D01*
X347673Y221410D01*
X346848Y220969D01*
X346125Y220375D01*
X345531Y219652D01*
X345090Y218827D01*
X344819Y217931D01*
X344727Y217000D01*
X344819Y216069D01*
X345090Y215173D01*
X345531Y214348D01*
X346125Y213625D01*
X346193Y213569D01*
X346283Y213384D01*
Y211866D01*
X346193Y211681D01*
X346125Y211625D01*
X345531Y210902D01*
X345090Y210077D01*
X344819Y209181D01*
X344727Y208250D01*
X344819Y207319D01*
X345090Y206423D01*
X345531Y205598D01*
X346125Y204875D01*
X346848Y204281D01*
X347673Y203840D01*
X348569Y203569D01*
X349500Y203477D01*
X361250D01*
X362181Y203569D01*
X363077Y203840D01*
X363902Y204281D01*
X364625Y204875D01*
X368375Y208625D01*
X368969Y209348D01*
X369410Y210173D01*
X369681Y211069D01*
X369773Y212000D01*
Y229000D01*
X369681Y229931D01*
X369410Y230826D01*
X368969Y231652D01*
X368375Y232375D01*
X368122Y232582D01*
X367994Y232976D01*
Y234024D01*
X368122Y234418D01*
X368375Y234625D01*
X368969Y235348D01*
X369410Y236173D01*
X369681Y237069D01*
X369773Y238000D01*
X369681Y238931D01*
X369410Y239827D01*
X369063Y240474D01*
X369268Y241114D01*
X369824Y241974D01*
X389747D01*
X396974Y234747D01*
Y228661D01*
X396625Y228375D01*
X396031Y227652D01*
X395590Y226826D01*
X395319Y225931D01*
X395227Y225000D01*
X395319Y224069D01*
X395590Y223174D01*
X396031Y222348D01*
X396625Y221625D01*
X397348Y221031D01*
X398173Y220590D01*
X399069Y220319D01*
X400000Y220227D01*
X400931Y220319D01*
X401827Y220590D01*
X402652Y221031D01*
X403375Y221625D01*
X403969Y222348D01*
X404410Y223174D01*
X404681Y224069D01*
X404773Y225000D01*
X404681Y225931D01*
X404410Y226826D01*
X403969Y227652D01*
X403375Y228375D01*
X403026Y228661D01*
Y236000D01*
X402923Y236783D01*
X402621Y237513D01*
X402140Y238140D01*
X394724Y245555D01*
X395298Y246941D01*
X413716D01*
X414269Y245441D01*
X413616Y244884D01*
X412696Y243806D01*
X411956Y242599D01*
X411414Y241290D01*
X411083Y239912D01*
X410972Y238500D01*
Y231500D01*
X411083Y230088D01*
X411414Y228710D01*
X411956Y227402D01*
X412696Y226194D01*
X413616Y225116D01*
X414694Y224196D01*
X415901Y223456D01*
X417210Y222914D01*
X418588Y222583D01*
X420000Y222472D01*
X421412Y222583D01*
X422790Y222914D01*
X424099Y223456D01*
X425306Y224196D01*
X426384Y225116D01*
X427304Y226194D01*
X428044Y227402D01*
X428586Y228710D01*
X428917Y230088D01*
X429028Y231500D01*
Y238500D01*
X428917Y239912D01*
X428586Y241290D01*
X428044Y242599D01*
X427304Y243806D01*
X426384Y244884D01*
X425731Y245441D01*
X426284Y246941D01*
X466250D01*
Y186250D01*
D02*
G37*
G36*
X636956Y145488D02*
X637583Y145007D01*
X638312Y144705D01*
X639095Y144601D01*
X651823D01*
X652607Y144705D01*
X653336Y145007D01*
X653963Y145488D01*
X657384Y148909D01*
X657834Y148865D01*
X658765Y148957D01*
X659660Y149228D01*
X660232Y149534D01*
X661132Y149242D01*
X662233Y148516D01*
Y143931D01*
X639122Y120821D01*
X638703Y120745D01*
X636721Y121248D01*
X636700Y121288D01*
X636106Y122011D01*
X635383Y122605D01*
X634558Y123046D01*
X633663Y123317D01*
X632732Y123409D01*
X631800Y123317D01*
X630905Y123046D01*
X630080Y122605D01*
X629356Y122011D01*
X628763Y121288D01*
X628322Y120463D01*
X628050Y119567D01*
X627958Y118636D01*
X628031Y117900D01*
X627410Y117064D01*
X627232Y116887D01*
X626397Y116265D01*
X625660Y116338D01*
X624729Y116246D01*
X623834Y115975D01*
X623009Y115534D01*
X622285Y114940D01*
X621692Y114217D01*
X621251Y113392D01*
X620979Y112496D01*
X620887Y111565D01*
X620979Y110634D01*
X621251Y109738D01*
X621692Y108913D01*
X622285Y108190D01*
X623009Y107596D01*
X623834Y107155D01*
X624729Y106884D01*
X625660Y106792D01*
X626592Y106884D01*
X627487Y107155D01*
X628147Y107508D01*
X628425Y107567D01*
X628641Y107511D01*
X629248Y105289D01*
X612958Y88999D01*
X611110Y89765D01*
Y90705D01*
X611110Y90705D01*
X611016Y91423D01*
X610738Y92092D01*
X610298Y92667D01*
X611190Y94341D01*
X611460Y94611D01*
X605096Y100975D01*
X604389Y101682D01*
X602975Y103096D01*
X596611Y109460D01*
X596611D01*
X594869Y110083D01*
X594566Y110243D01*
X594361Y110917D01*
X593920Y111742D01*
X593326Y112465D01*
X592603Y113059D01*
X591778Y113500D01*
X590883Y113771D01*
X589952Y113863D01*
X589020Y113771D01*
X588125Y113500D01*
X587300Y113059D01*
X586576Y112465D01*
X585983Y111742D01*
X585542Y110917D01*
X585270Y110021D01*
X585179Y109090D01*
X585270Y108159D01*
X585542Y107264D01*
X585983Y106438D01*
X586576Y105715D01*
X587300Y105121D01*
X588125Y104681D01*
X588798Y104476D01*
X588967Y104157D01*
X589540Y102389D01*
Y102389D01*
X589540Y102389D01*
X595904Y96025D01*
X596611Y95318D01*
X598025Y93904D01*
X603525Y88404D01*
X603190Y87285D01*
X601456Y86866D01*
X596096Y92225D01*
X595389Y92932D01*
X593975Y94346D01*
X587611Y100710D01*
X587611D01*
X585928Y101476D01*
X585668Y101596D01*
X585522Y102078D01*
X585081Y102903D01*
X584488Y103626D01*
X583764Y104220D01*
X582939Y104661D01*
X582044Y104932D01*
X581113Y105024D01*
X580182Y104932D01*
X579286Y104661D01*
X578461Y104220D01*
X577738Y103626D01*
X577144Y102903D01*
X576703Y102078D01*
X576431Y101182D01*
X576340Y100251D01*
X576431Y99320D01*
X576703Y98425D01*
X577144Y97600D01*
X577738Y96876D01*
X578461Y96283D01*
X579286Y95842D01*
X579768Y95695D01*
X579904Y95401D01*
X580540Y93639D01*
Y93639D01*
X580540Y93639D01*
X586904Y87275D01*
X587611Y86568D01*
X591888Y82291D01*
X591858Y81677D01*
X590360Y80628D01*
X589616Y80826D01*
X589460Y81111D01*
Y81111D01*
X583096Y87475D01*
X582389Y88182D01*
X580975Y89596D01*
X578854Y91718D01*
X575318Y88182D01*
X571782Y84646D01*
X573904Y82525D01*
X574611Y81818D01*
X576025Y80404D01*
X582389Y74040D01*
X582414Y74065D01*
X584403Y73226D01*
X584481Y72969D01*
X584922Y72144D01*
X585516Y71420D01*
X586239Y70827D01*
X587064Y70386D01*
X587960Y70114D01*
X588891Y70022D01*
X589822Y70114D01*
X590615Y70355D01*
X590727Y70380D01*
X592615Y69222D01*
X592615Y69221D01*
Y54865D01*
X590112Y52362D01*
X589671Y51787D01*
X589394Y51118D01*
X589299Y50400D01*
Y33430D01*
X589394Y32712D01*
X589671Y32043D01*
X590112Y31468D01*
X597958Y23621D01*
X597193Y21774D01*
X520677D01*
X499189Y43262D01*
X499265Y44036D01*
X499173Y44967D01*
X498902Y45863D01*
X498461Y46688D01*
X497867Y47411D01*
X497144Y48005D01*
X496319Y48446D01*
X495423Y48717D01*
X494492Y48809D01*
X494231Y48783D01*
X493573Y49169D01*
X492907Y49835D01*
X492522Y50492D01*
X492548Y50754D01*
X492456Y51685D01*
X492184Y52580D01*
X491743Y53405D01*
X491150Y54129D01*
X490426Y54722D01*
X489601Y55163D01*
X488706Y55435D01*
X487775Y55527D01*
X486843Y55435D01*
X485948Y55163D01*
X485123Y54722D01*
X484400Y54129D01*
X483806Y53405D01*
X483365Y52580D01*
X483093Y51685D01*
X483002Y50754D01*
X483046Y50304D01*
X481039Y48297D01*
X480558Y47670D01*
X480256Y46941D01*
X480153Y46158D01*
Y44432D01*
X464450Y28729D01*
X464000Y28773D01*
X463069Y28681D01*
X462174Y28410D01*
X461348Y27969D01*
X460625Y27375D01*
X460031Y26652D01*
X459590Y25826D01*
X459319Y24931D01*
X459227Y24000D01*
X459319Y23069D01*
X459590Y22174D01*
X460031Y21348D01*
X460625Y20625D01*
X461348Y20031D01*
X462174Y19590D01*
X463069Y19319D01*
X464000Y19227D01*
X464931Y19319D01*
X465827Y19590D01*
X466652Y20031D01*
X467375Y20625D01*
X467969Y21348D01*
X468410Y22174D01*
X468681Y23069D01*
X468773Y24000D01*
X468729Y24450D01*
X485318Y41039D01*
X485799Y41665D01*
X486101Y42395D01*
X486204Y43178D01*
Y44529D01*
X487758Y45982D01*
X487775Y45981D01*
X488036Y46007D01*
X488694Y45622D01*
X489360Y44955D01*
X489745Y44298D01*
X489719Y44036D01*
X489811Y43105D01*
X490083Y42210D01*
X490523Y41385D01*
X491117Y40661D01*
X491840Y40068D01*
X492666Y39627D01*
X493561Y39355D01*
X494492Y39263D01*
X495266Y39340D01*
X517567Y17039D01*
X517567Y17039D01*
X518142Y16598D01*
X518811Y16321D01*
X519528Y16226D01*
X629132D01*
X629625Y15625D01*
X630348Y15031D01*
X631174Y14590D01*
X632069Y14319D01*
X633000Y14227D01*
X633931Y14319D01*
X634827Y14590D01*
X635652Y15031D01*
X636375Y15625D01*
X636969Y16348D01*
X637293Y16956D01*
X638095Y17271D01*
X639594Y17484D01*
X645051Y12026D01*
X644223Y10026D01*
X370253D01*
X361026Y19253D01*
Y38338D01*
X361375Y38625D01*
X361969Y39348D01*
X362410Y40174D01*
X362681Y41069D01*
X362773Y42000D01*
X362681Y42931D01*
X362410Y43826D01*
X361969Y44652D01*
X361375Y45375D01*
X360652Y45969D01*
X359827Y46410D01*
X358931Y46681D01*
X358000Y46773D01*
X357069Y46681D01*
X356174Y46410D01*
X355348Y45969D01*
X354781Y45503D01*
X354508Y45375D01*
X352492D01*
X352219Y45503D01*
X351652Y45969D01*
X350826Y46410D01*
X349931Y46681D01*
X349000Y46773D01*
X348069Y46681D01*
X347173Y46410D01*
X346348Y45969D01*
X345625Y45375D01*
X345031Y44652D01*
X344590Y43826D01*
X344319Y42931D01*
X344227Y42000D01*
X344319Y41069D01*
X344590Y40174D01*
X345031Y39348D01*
X345625Y38625D01*
X346348Y38031D01*
X347173Y37590D01*
X348069Y37319D01*
X349000Y37227D01*
X349931Y37319D01*
X350826Y37590D01*
X351652Y38031D01*
X352219Y38497D01*
X352492Y38625D01*
X353093D01*
X354974Y36818D01*
Y18000D01*
X355077Y17217D01*
X355379Y16487D01*
X355860Y15860D01*
X366662Y5059D01*
X366551Y4265D01*
X365923Y3059D01*
X286667D01*
X285838Y5059D01*
X288640Y7860D01*
X289121Y8487D01*
X289423Y9217D01*
X289526Y10000D01*
Y20997D01*
X292003Y23474D01*
X333750D01*
X334533Y23577D01*
X335263Y23879D01*
X335890Y24360D01*
X339140Y27610D01*
X339621Y28237D01*
X339923Y28967D01*
X340026Y29750D01*
Y46497D01*
X342503Y48974D01*
X459463D01*
X459883Y48448D01*
X460353Y46974D01*
X460118Y46688D01*
X459677Y45863D01*
X459405Y44967D01*
X459314Y44036D01*
X459405Y43105D01*
X459677Y42210D01*
X460118Y41385D01*
X460712Y40661D01*
X461435Y40068D01*
X462260Y39627D01*
X463155Y39355D01*
X464086Y39263D01*
X465018Y39355D01*
X465913Y39627D01*
X466738Y40068D01*
X467462Y40661D01*
X468055Y41385D01*
X468496Y42210D01*
X468768Y43105D01*
X468859Y44036D01*
X468815Y44486D01*
X482843Y58514D01*
X483324Y59140D01*
X483626Y59870D01*
X483729Y60653D01*
Y83281D01*
X483626Y84064D01*
X483324Y84794D01*
X482843Y85420D01*
X454031Y114233D01*
Y135060D01*
X537465Y218494D01*
X563949D01*
X636956Y145488D01*
D02*
G37*
G36*
X441536Y192693D02*
X442051Y192537D01*
X442525Y192283D01*
X442942Y191942D01*
X443283Y191526D01*
X443537Y191051D01*
X443693Y190536D01*
X443746Y190000D01*
X443693Y189464D01*
X443537Y188949D01*
X443404Y188701D01*
X443367Y188603D01*
X443315Y188511D01*
X443275Y188357D01*
X443219Y188208D01*
X443208Y188103D01*
X443182Y188002D01*
X443183Y187843D01*
X443167Y187684D01*
X443111Y187397D01*
X443073Y187302D01*
X442600Y186566D01*
X442360Y186277D01*
X441657Y185774D01*
X426000D01*
X425282Y185679D01*
X424613Y185402D01*
X424039Y184961D01*
X409851Y170774D01*
X363868D01*
X363375Y171375D01*
X362652Y171969D01*
X361827Y172410D01*
X360931Y172681D01*
X360000Y172773D01*
X359069Y172681D01*
X358173Y172410D01*
X357348Y171969D01*
X356625Y171375D01*
X356031Y170652D01*
X355590Y169827D01*
X355319Y168931D01*
X355227Y168000D01*
X355319Y167069D01*
X354024Y165432D01*
X353710Y165351D01*
X353525Y165399D01*
X352181Y167069D01*
X352273Y168000D01*
X352181Y168931D01*
X351910Y169827D01*
X351469Y170652D01*
X350875Y171375D01*
X350152Y171969D01*
X349327Y172410D01*
X348431Y172681D01*
X347500Y172773D01*
X347387Y174738D01*
X347961Y174912D01*
X348960Y175446D01*
X349836Y176164D01*
X350554Y177040D01*
X351088Y178039D01*
X351417Y179123D01*
X351528Y180250D01*
Y184233D01*
X417492D01*
X417520Y184236D01*
X417548Y184233D01*
X417781Y184271D01*
X418014Y184301D01*
X418040Y184312D01*
X418068Y184317D01*
X418283Y184413D01*
X418501Y184503D01*
X418523Y184520D01*
X418549Y184532D01*
X418732Y184680D01*
X418919Y184824D01*
X418936Y184846D01*
X418958Y184864D01*
X419305Y185231D01*
X419363Y185311D01*
X419433Y185380D01*
X419517Y185523D01*
X419614Y185658D01*
X419649Y185750D01*
X419699Y185835D01*
X420176Y186967D01*
X420204Y187069D01*
X420247Y187164D01*
X420273Y187321D01*
X420315Y187475D01*
X420316Y187580D01*
X420333Y187684D01*
X420317Y187843D01*
X420318Y188002D01*
X420292Y188103D01*
X420281Y188208D01*
X420225Y188357D01*
X420185Y188511D01*
X420133Y188603D01*
X420096Y188701D01*
X419963Y188949D01*
X419807Y189464D01*
X419754Y190000D01*
X419807Y190536D01*
X419963Y191051D01*
X420217Y191525D01*
X420558Y191942D01*
X420974Y192283D01*
X421449Y192537D01*
X421964Y192693D01*
X422500Y192746D01*
X423036Y192693D01*
X423551Y192537D01*
X424025Y192283D01*
X424442Y191942D01*
X424826Y191474D01*
X424980Y191330D01*
X425126Y191178D01*
X425171Y191150D01*
X425210Y191114D01*
X425396Y191014D01*
X425577Y190905D01*
X425628Y190891D01*
X425674Y190866D01*
X425880Y190818D01*
X426082Y190759D01*
X426754Y190657D01*
X426905Y190654D01*
X427056Y190634D01*
X427444D01*
X427595Y190654D01*
X427747Y190657D01*
X428418Y190759D01*
X428620Y190818D01*
X428826Y190866D01*
X428872Y190891D01*
X428923Y190905D01*
X429104Y191014D01*
X429290Y191114D01*
X429329Y191150D01*
X429374Y191178D01*
X429520Y191329D01*
X429674Y191474D01*
X430058Y191942D01*
X430474Y192283D01*
X430949Y192537D01*
X431464Y192693D01*
X432000Y192746D01*
X432536Y192693D01*
X433051Y192537D01*
X433526Y192283D01*
X433942Y191942D01*
X434023Y191843D01*
X434057Y191811D01*
X434083Y191773D01*
X434249Y191632D01*
X434407Y191483D01*
X434448Y191461D01*
X434484Y191431D01*
X434680Y191337D01*
X434872Y191234D01*
X434917Y191224D01*
X434959Y191204D01*
X435353Y191076D01*
X435405Y191066D01*
X435454Y191046D01*
X435663Y191019D01*
X435871Y190980D01*
X435924Y190984D01*
X435976Y190977D01*
X437024D01*
X437076Y190984D01*
X437129Y190980D01*
X437337Y191019D01*
X437546Y191046D01*
X437595Y191066D01*
X437647Y191076D01*
X438041Y191204D01*
X438083Y191224D01*
X438128Y191234D01*
X438320Y191337D01*
X438516Y191431D01*
X438552Y191461D01*
X438593Y191483D01*
X438751Y191631D01*
X438917Y191773D01*
X438943Y191811D01*
X438977Y191843D01*
X439058Y191942D01*
X439474Y192283D01*
X439949Y192537D01*
X440464Y192693D01*
X441000Y192746D01*
X441536Y192693D01*
D02*
G37*
G36*
X1096941Y202500D02*
X977125D01*
X977016Y204151D01*
X976684Y205822D01*
X976136Y207436D01*
X975383Y208964D01*
X974436Y210381D01*
X973312Y211662D01*
X972031Y212786D01*
X970614Y213732D01*
X969086Y214486D01*
X967472Y215034D01*
X965800Y215366D01*
X965100Y215412D01*
Y202450D01*
X964100D01*
Y201450D01*
X951138D01*
X951184Y200749D01*
X951516Y199078D01*
X952064Y197465D01*
X952818Y195936D01*
X953764Y194519D01*
X954888Y193238D01*
X956169Y192114D01*
X957586Y191168D01*
X959114Y190414D01*
X960728Y189866D01*
X962400Y189534D01*
X964100Y189422D01*
X965000Y188579D01*
Y61421D01*
X964100Y60578D01*
X962400Y60466D01*
X960728Y60134D01*
X959114Y59586D01*
X957586Y58833D01*
X956169Y57886D01*
X954888Y56762D01*
X953764Y55481D01*
X952818Y54064D01*
X952064Y52536D01*
X951516Y50922D01*
X951184Y49250D01*
X951138Y48550D01*
X964100D01*
Y47550D01*
X965100D01*
Y34588D01*
X965800Y34634D01*
X967472Y34966D01*
X969086Y35514D01*
X970614Y36267D01*
X972031Y37214D01*
X973312Y38338D01*
X974436Y39619D01*
X975383Y41036D01*
X976136Y42564D01*
X976684Y44178D01*
X977016Y45849D01*
X977125Y47500D01*
X1096941D01*
Y3059D01*
X769077D01*
X768449Y4265D01*
X768338Y5059D01*
X773550Y10271D01*
X774000Y10227D01*
X774931Y10319D01*
X775826Y10590D01*
X776652Y11031D01*
X777375Y11625D01*
X777969Y12348D01*
X778410Y13174D01*
X778681Y14069D01*
X778773Y15000D01*
X778681Y15931D01*
X778410Y16826D01*
X777969Y17652D01*
X777375Y18375D01*
X776652Y18969D01*
X775826Y19410D01*
X774931Y19681D01*
X774000Y19773D01*
X773069Y19681D01*
X772173Y19410D01*
X771348Y18969D01*
X770625Y18375D01*
X770031Y17652D01*
X769590Y16826D01*
X769319Y15931D01*
X769227Y15000D01*
X769271Y14550D01*
X764747Y10026D01*
X732777D01*
X731948Y12026D01*
X740961Y21039D01*
X741402Y21613D01*
X741679Y22282D01*
X741774Y23000D01*
Y30132D01*
X742375Y30625D01*
X742969Y31348D01*
X743410Y32174D01*
X743681Y33069D01*
X743773Y34000D01*
X743681Y34931D01*
X743410Y35826D01*
X743196Y36226D01*
X743700Y37541D01*
X744264Y38226D01*
X750825D01*
X750948Y38136D01*
X751954Y36226D01*
X751894Y36115D01*
X751580Y35078D01*
X751473Y34000D01*
X751580Y32922D01*
X751894Y31885D01*
X752405Y30930D01*
X753092Y30092D01*
X753930Y29405D01*
X754885Y28894D01*
X755922Y28580D01*
X757000Y28473D01*
X758078Y28580D01*
X759115Y28894D01*
X760070Y29405D01*
X760908Y30092D01*
X761595Y30930D01*
X762106Y31885D01*
X762420Y32922D01*
X762527Y34000D01*
X762420Y35078D01*
X762106Y36115D01*
X762046Y36226D01*
X763052Y38136D01*
X763176Y38226D01*
X775000D01*
X775718Y38321D01*
X776387Y38598D01*
X776961Y39039D01*
X786249Y48327D01*
X787079Y48190D01*
X788274Y47523D01*
X788319Y47069D01*
X788590Y46174D01*
X789031Y45348D01*
X789625Y44625D01*
X790348Y44031D01*
X791173Y43590D01*
X792069Y43319D01*
X793000Y43227D01*
X793931Y43319D01*
X794827Y43590D01*
X795652Y44031D01*
X796375Y44625D01*
X796969Y45348D01*
X797410Y46174D01*
X797681Y47069D01*
X797773Y48000D01*
X797681Y48931D01*
X797410Y49826D01*
X796969Y50652D01*
X796375Y51375D01*
X795652Y51969D01*
X794827Y52410D01*
X793931Y52681D01*
X793420Y52732D01*
X793372Y52775D01*
X792687Y53886D01*
X792450Y54728D01*
X792679Y55282D01*
X792774Y56000D01*
Y87000D01*
X792679Y87718D01*
X792402Y88387D01*
X791961Y88961D01*
X771961Y108961D01*
X771387Y109402D01*
X770718Y109679D01*
X770000Y109774D01*
X745000D01*
X744282Y109679D01*
X743613Y109402D01*
X743039Y108961D01*
X738039Y103961D01*
X737598Y103387D01*
X737321Y102718D01*
X737226Y102000D01*
Y85868D01*
X736625Y85375D01*
X736031Y84652D01*
X735590Y83827D01*
X735319Y82931D01*
X735227Y82000D01*
X735319Y81069D01*
X735590Y80173D01*
X736031Y79348D01*
X736625Y78625D01*
X737348Y78031D01*
X738174Y77590D01*
X739069Y77319D01*
X739531Y77273D01*
X739899Y76206D01*
X739910Y75269D01*
X739348Y74969D01*
X738625Y74375D01*
X738131Y73774D01*
X733149D01*
X731774Y75149D01*
Y90000D01*
X731679Y90718D01*
X731402Y91387D01*
X730961Y91961D01*
X726961Y95961D01*
X726387Y96402D01*
X725718Y96679D01*
X725000Y96774D01*
X701149D01*
X682697Y115226D01*
X682773Y116000D01*
X682681Y116931D01*
X682410Y117826D01*
X681969Y118652D01*
X681375Y119375D01*
X680652Y119969D01*
X679827Y120410D01*
X679530Y120500D01*
X678907Y122048D01*
X678896Y122694D01*
X685428Y129226D01*
X696132D01*
X696625Y128625D01*
X697348Y128031D01*
X698174Y127590D01*
X699069Y127319D01*
X700000Y127227D01*
X700931Y127319D01*
X701826Y127590D01*
X702652Y128031D01*
X703375Y128625D01*
X703969Y129348D01*
X704410Y130174D01*
X704681Y131069D01*
X704773Y132000D01*
X704681Y132931D01*
X704410Y133827D01*
X703969Y134652D01*
X703375Y135375D01*
X702652Y135969D01*
X701826Y136410D01*
X701677Y136455D01*
Y138545D01*
X701826Y138590D01*
X702652Y139031D01*
X703375Y139625D01*
X703969Y140348D01*
X704410Y141173D01*
X704681Y142069D01*
X704773Y143000D01*
X704681Y143931D01*
X704410Y144826D01*
X703969Y145652D01*
X703375Y146375D01*
X702652Y146969D01*
X701826Y147410D01*
X700931Y147681D01*
X700000Y147773D01*
X699069Y147681D01*
X698192Y147415D01*
X698145Y147435D01*
X696613Y148843D01*
X696681Y149069D01*
X696773Y150000D01*
X696681Y150931D01*
X696410Y151826D01*
X695969Y152652D01*
X695375Y153375D01*
X694652Y153969D01*
X693827Y154410D01*
X692931Y154681D01*
X692000Y154773D01*
X691069Y154681D01*
X690173Y154410D01*
X689348Y153969D01*
X688625Y153375D01*
X688131Y152774D01*
X685309D01*
X684591Y152679D01*
X683922Y152402D01*
X683347Y151961D01*
X683347Y151961D01*
X680026Y148640D01*
X678026Y149468D01*
Y204338D01*
X678375Y204625D01*
X678969Y205348D01*
X679410Y206173D01*
X679681Y207069D01*
X679773Y208000D01*
X679681Y208931D01*
X679410Y209827D01*
X678969Y210652D01*
X678375Y211375D01*
X677652Y211969D01*
X676826Y212410D01*
X675931Y212681D01*
X675000Y212773D01*
X674069Y212681D01*
X673174Y212410D01*
X672348Y211969D01*
X671625Y211375D01*
X671155Y210803D01*
X670126Y210652D01*
X669874D01*
X668845Y210803D01*
X668375Y211375D01*
X667652Y211969D01*
X666826Y212410D01*
X665931Y212681D01*
X665000Y212773D01*
X664069Y212681D01*
X663174Y212410D01*
X662348Y211969D01*
X661625Y211375D01*
X661031Y210652D01*
X660590Y209827D01*
X660319Y208931D01*
X660227Y208000D01*
X660319Y207069D01*
X660590Y206173D01*
X661031Y205348D01*
X661625Y204625D01*
X662233Y204126D01*
Y158760D01*
X661132Y158033D01*
X660232Y157742D01*
X659660Y158048D01*
X658765Y158319D01*
X658397Y158355D01*
X657769Y158475D01*
X656661Y159584D01*
X656541Y160211D01*
X656505Y160579D01*
X656233Y161475D01*
X655792Y162300D01*
X655198Y163023D01*
X654475Y163617D01*
X653650Y164058D01*
X652755Y164329D01*
X652387Y164366D01*
X651759Y164486D01*
X650650Y165594D01*
X650530Y166222D01*
X650494Y166590D01*
X650223Y167485D01*
X649781Y168310D01*
X649188Y169034D01*
X648587Y169527D01*
Y220664D01*
X654149Y226226D01*
X689851D01*
X700039Y216039D01*
X700613Y215598D01*
X701282Y215321D01*
X702000Y215226D01*
X810851D01*
X820039Y206039D01*
X820613Y205598D01*
X821282Y205321D01*
X822000Y205226D01*
X863000D01*
X863718Y205321D01*
X865265Y203978D01*
X865317Y203915D01*
X865227Y203000D01*
X865319Y202069D01*
X865590Y201173D01*
X866031Y200348D01*
X866625Y199625D01*
X867348Y199031D01*
X868174Y198590D01*
X869069Y198319D01*
X870000Y198227D01*
X870931Y198319D01*
X871827Y198590D01*
X872652Y199031D01*
X873375Y199625D01*
X873969Y200348D01*
X874410Y201173D01*
X874681Y202069D01*
X874773Y203000D01*
X874681Y203931D01*
X874410Y204827D01*
X873969Y205652D01*
X873375Y206375D01*
X872652Y206969D01*
X871827Y207410D01*
X870931Y207681D01*
X870000Y207773D01*
X869472Y207721D01*
X868787Y208654D01*
X868515Y209592D01*
X878961Y220039D01*
X879402Y220613D01*
X879679Y221282D01*
X879774Y222000D01*
X879774Y222000D01*
Y226896D01*
X879945Y226937D01*
X881326Y227509D01*
X882601Y228291D01*
X883738Y229262D01*
X884709Y230399D01*
X885491Y231674D01*
X886063Y233055D01*
X886412Y234509D01*
X886529Y236000D01*
X886412Y237491D01*
X886063Y238945D01*
X885491Y240326D01*
X884709Y241601D01*
X883738Y242738D01*
X882601Y243709D01*
X881326Y244491D01*
X879945Y245063D01*
X880503Y246941D01*
X898897D01*
X899455Y245063D01*
X898074Y244491D01*
X896799Y243709D01*
X895662Y242738D01*
X894691Y241601D01*
X893909Y240326D01*
X893337Y238945D01*
X892988Y237491D01*
X892949Y237000D01*
X911851D01*
X911812Y237491D01*
X911463Y238945D01*
X910891Y240326D01*
X910109Y241601D01*
X909138Y242738D01*
X908001Y243709D01*
X906726Y244491D01*
X905345Y245063D01*
X905903Y246941D01*
X1096941D01*
Y202500D01*
D02*
G37*
G36*
X734300Y37541D02*
X734804Y36226D01*
X734590Y35826D01*
X734319Y34931D01*
X734227Y34000D01*
X734319Y33069D01*
X734590Y32174D01*
X735031Y31348D01*
X735625Y30625D01*
X736226Y30132D01*
Y24149D01*
X727851Y15774D01*
X717525D01*
X716696Y17774D01*
X722961Y24039D01*
X723402Y24613D01*
X723679Y25282D01*
X723774Y26000D01*
Y30132D01*
X724375Y30625D01*
X724969Y31348D01*
X725410Y32174D01*
X725681Y33069D01*
X725773Y34000D01*
X725681Y34931D01*
X725410Y35826D01*
X725196Y36226D01*
X725700Y37541D01*
X726264Y38226D01*
X733736D01*
X734300Y37541D01*
D02*
G37*
%LPC*%
G36*
X324500Y109000D02*
X322851Y108152D01*
X322500Y108050D01*
X321827Y108410D01*
X320931Y108681D01*
X320000Y108773D01*
X319069Y108681D01*
X318174Y108410D01*
X317348Y107969D01*
X316625Y107375D01*
X316031Y106652D01*
X315590Y105827D01*
X315319Y104931D01*
X315227Y104000D01*
X315319Y103069D01*
X315590Y102174D01*
X316031Y101348D01*
X316625Y100625D01*
X317348Y100031D01*
X318174Y99590D01*
X319069Y99319D01*
X320000Y99227D01*
X320931Y99319D01*
X321827Y99590D01*
X322500Y99950D01*
X322850Y99849D01*
X324500Y99000D01*
X324500Y99000D01*
X324500Y99000D01*
X335000Y99000D01*
X336500Y99000D01*
X339500D01*
Y104000D01*
Y109000D01*
X335000Y109000D01*
X333500Y109000D01*
X324500D01*
Y109000D01*
D02*
G37*
G36*
X341500Y109000D02*
Y105000D01*
X345500D01*
Y109000D01*
X341500D01*
D02*
G37*
G36*
X400000Y122773D02*
X399069Y122681D01*
X398173Y122410D01*
X397348Y121969D01*
X396625Y121375D01*
X396132Y120774D01*
X395000D01*
X394282Y120679D01*
X393613Y120402D01*
X393039Y119961D01*
X386039Y112961D01*
X385598Y112387D01*
X385321Y111718D01*
X385226Y111000D01*
Y89000D01*
X385321Y88282D01*
X385598Y87613D01*
X386039Y87039D01*
X407039Y66039D01*
X407613Y65598D01*
X408282Y65321D01*
X409000Y65226D01*
X443503D01*
X444220Y65321D01*
X444889Y65598D01*
X445464Y66039D01*
X456241Y76816D01*
X457015Y76740D01*
X457947Y76832D01*
X458842Y77103D01*
X459667Y77544D01*
X460390Y78138D01*
X460984Y78861D01*
X461425Y79686D01*
X461697Y80582D01*
X461788Y81513D01*
X461697Y82444D01*
X461425Y83340D01*
X460984Y84165D01*
X460390Y84888D01*
X459667Y85482D01*
X458842Y85923D01*
X457947Y86194D01*
X457015Y86286D01*
X456084Y86194D01*
X455189Y85923D01*
X455051Y85849D01*
X453573Y87327D01*
X453647Y87465D01*
X453918Y88360D01*
X454010Y89291D01*
X453918Y90222D01*
X453647Y91118D01*
X453206Y91943D01*
X452612Y92666D01*
X451889Y93260D01*
X451064Y93701D01*
X450168Y93972D01*
X449237Y94064D01*
X448306Y93972D01*
X447411Y93701D01*
X446586Y93260D01*
X445862Y92666D01*
X445354Y92047D01*
X445174Y91907D01*
X444856Y91789D01*
X443163Y91599D01*
X442906Y91673D01*
X442697Y91846D01*
X441871Y92287D01*
X440976Y92558D01*
X440045Y92650D01*
X439114Y92558D01*
X438218Y92287D01*
X437393Y91846D01*
X436670Y91252D01*
X436176Y90651D01*
X416272D01*
X411325Y95598D01*
X411375Y96625D01*
X411969Y97348D01*
X412410Y98174D01*
X412681Y99069D01*
X412773Y100000D01*
X412681Y100931D01*
X412410Y101826D01*
X411969Y102652D01*
X411375Y103375D01*
X410652Y103969D01*
X409827Y104410D01*
X408931Y104681D01*
X408000Y104773D01*
X407460Y104720D01*
X406279Y105468D01*
X405503Y106241D01*
X405485Y106533D01*
X407027Y107831D01*
X407069Y107819D01*
X408000Y107727D01*
X408931Y107819D01*
X409827Y108090D01*
X410652Y108531D01*
X411375Y109125D01*
X411969Y109848D01*
X412410Y110674D01*
X412681Y111569D01*
X412773Y112500D01*
X412681Y113431D01*
X412410Y114326D01*
X411969Y115152D01*
X411375Y115875D01*
X410652Y116469D01*
X409827Y116910D01*
X408931Y117181D01*
X408000Y117273D01*
X407069Y117181D01*
X406691Y117066D01*
X405434Y117678D01*
X404733Y118407D01*
X404681Y118931D01*
X404410Y119826D01*
X403969Y120652D01*
X403375Y121375D01*
X402652Y121969D01*
X401827Y122410D01*
X400931Y122681D01*
X400000Y122773D01*
D02*
G37*
G36*
X341500Y96000D02*
Y92000D01*
X345500D01*
Y96000D01*
X341500D01*
D02*
G37*
G36*
X220000Y103273D02*
X219069Y103181D01*
X218174Y102910D01*
X217348Y102469D01*
X216625Y101875D01*
X216031Y101152D01*
X215590Y100326D01*
X215319Y99431D01*
X215227Y98500D01*
X215319Y97569D01*
X215590Y96673D01*
X216031Y95848D01*
X216625Y95125D01*
X217348Y94531D01*
X218174Y94090D01*
X219069Y93819D01*
X220000Y93727D01*
X220931Y93819D01*
X221826Y94090D01*
X222652Y94531D01*
X223375Y95125D01*
X223969Y95848D01*
X224410Y96673D01*
X224681Y97569D01*
X224773Y98500D01*
X224681Y99431D01*
X224410Y100326D01*
X223969Y101152D01*
X223375Y101875D01*
X222652Y102469D01*
X221826Y102910D01*
X220931Y103181D01*
X220000Y103273D01*
D02*
G37*
G36*
X345500Y103000D02*
X341500D01*
Y99000D01*
X345500D01*
Y103000D01*
D02*
G37*
G36*
X157000Y106500D02*
X153000D01*
Y102500D01*
X157000D01*
Y106500D01*
D02*
G37*
G36*
X178400Y178950D02*
X159400D01*
Y164229D01*
X156697Y161526D01*
X148550D01*
X147767Y161423D01*
X147037Y161120D01*
X146411Y160640D01*
X138360Y152589D01*
X137879Y151963D01*
X137577Y151233D01*
X137474Y150450D01*
Y82550D01*
X137577Y81767D01*
X137879Y81037D01*
X138360Y80411D01*
X156411Y62360D01*
X157037Y61880D01*
X157767Y61577D01*
X158550Y61474D01*
X241450D01*
X242233Y61577D01*
X242963Y61880D01*
X243589Y62360D01*
X252640Y71411D01*
X253120Y72037D01*
X253423Y72767D01*
X253526Y73550D01*
Y85247D01*
X255003Y86724D01*
X260254D01*
X260319Y86069D01*
X260590Y85174D01*
X261031Y84348D01*
X261625Y83625D01*
X262348Y83031D01*
X263174Y82590D01*
X264069Y82319D01*
X265000Y82227D01*
X265931Y82319D01*
X266826Y82590D01*
X267652Y83031D01*
X268375Y83625D01*
X268969Y84348D01*
X269410Y85174D01*
X269681Y86069D01*
X269773Y87000D01*
X269681Y87931D01*
X269410Y88827D01*
X268969Y89652D01*
X268503Y90219D01*
X268375Y90492D01*
Y92508D01*
X268503Y92781D01*
X268969Y93348D01*
X269410Y94173D01*
X269681Y95069D01*
X269773Y96000D01*
X269681Y96931D01*
X269410Y97827D01*
X268969Y98652D01*
X268375Y99375D01*
X267652Y99969D01*
X266826Y100410D01*
X265931Y100681D01*
X265000Y100773D01*
X264069Y100681D01*
X263174Y100410D01*
X262348Y99969D01*
X261625Y99375D01*
X261031Y98652D01*
X260590Y97827D01*
X260319Y96931D01*
X260254Y96276D01*
X252300D01*
X251517Y96173D01*
X250787Y95871D01*
X250161Y95390D01*
X244860Y90089D01*
X244380Y89463D01*
X244077Y88733D01*
X243974Y87950D01*
Y76253D01*
X238747Y71026D01*
X200768D01*
X200188Y72240D01*
X200118Y73026D01*
X201038Y73812D01*
X202010Y74949D01*
X202791Y76224D01*
X203363Y77605D01*
X203712Y79059D01*
X203751Y79550D01*
X194300D01*
X184849D01*
X184888Y79059D01*
X185237Y77605D01*
X185809Y76224D01*
X186591Y74949D01*
X187562Y73812D01*
X188482Y73026D01*
X188412Y72240D01*
X187832Y71026D01*
X161253D01*
X147026Y85253D01*
Y102500D01*
X151000D01*
Y107500D01*
X152000D01*
Y108500D01*
X157000D01*
Y112500D01*
X157000D01*
Y112983D01*
X158248Y114983D01*
X160136D01*
X160409Y114324D01*
X161191Y113049D01*
X162162Y111912D01*
X163299Y110941D01*
X164574Y110159D01*
X165955Y109587D01*
X167409Y109238D01*
X168900Y109121D01*
X170391Y109238D01*
X171845Y109587D01*
X173226Y110159D01*
X174501Y110941D01*
X175638Y111912D01*
X176609Y113049D01*
X177391Y114324D01*
X177963Y115705D01*
X178312Y117159D01*
X178430Y118650D01*
X178312Y120141D01*
X177963Y121595D01*
X177391Y122976D01*
X176609Y124251D01*
X175638Y125388D01*
X174501Y126359D01*
X173226Y127141D01*
X171845Y127713D01*
X170391Y128062D01*
X168900Y128179D01*
X167409Y128062D01*
X165955Y127713D01*
X164574Y127141D01*
X163299Y126359D01*
X162162Y125388D01*
X161191Y124251D01*
X160409Y122976D01*
X160012Y122017D01*
X157000D01*
Y123500D01*
X147026D01*
Y147747D01*
X151253Y151974D01*
X156697D01*
X160019Y148651D01*
X159642Y147885D01*
X159220Y146644D01*
X158964Y145358D01*
X158879Y144050D01*
X158964Y142742D01*
X159220Y141456D01*
X159642Y140215D01*
X160221Y139039D01*
X160949Y137949D01*
X161814Y136964D01*
X162799Y136099D01*
X163889Y135371D01*
X165065Y134791D01*
X166306Y134370D01*
X167592Y134114D01*
X168900Y134029D01*
X170208Y134114D01*
X171494Y134370D01*
X172735Y134791D01*
X173911Y135371D01*
X175001Y136099D01*
X175986Y136964D01*
X176851Y137949D01*
X177579Y139039D01*
X178159Y140215D01*
X178580Y141456D01*
X178836Y142742D01*
X178922Y144050D01*
X178836Y145358D01*
X178580Y146644D01*
X178159Y147885D01*
X177579Y149061D01*
X176851Y150151D01*
X175986Y151136D01*
X175001Y152001D01*
X173911Y152729D01*
X172735Y153309D01*
X171494Y153730D01*
X170208Y153986D01*
X168900Y154071D01*
X167592Y153986D01*
X166306Y153730D01*
X165065Y153309D01*
X164299Y152931D01*
X160479Y156750D01*
X163679Y159950D01*
X178400D01*
Y178950D01*
D02*
G37*
G36*
X221000Y44773D02*
X220069Y44681D01*
X219174Y44410D01*
X218348Y43969D01*
X217625Y43375D01*
X217031Y42652D01*
X216590Y41827D01*
X216319Y40931D01*
X216227Y40000D01*
X216319Y39069D01*
X216590Y38173D01*
X217031Y37348D01*
X217625Y36625D01*
X218348Y36031D01*
X219174Y35590D01*
X220069Y35319D01*
X221000Y35227D01*
X221931Y35319D01*
X222826Y35590D01*
X223652Y36031D01*
X224375Y36625D01*
X224969Y37348D01*
X225410Y38173D01*
X225681Y39069D01*
X225773Y40000D01*
X225681Y40931D01*
X225410Y41827D01*
X224969Y42652D01*
X224375Y43375D01*
X223652Y43969D01*
X222826Y44410D01*
X221931Y44681D01*
X221000Y44773D01*
D02*
G37*
G36*
X148862Y46550D02*
X136900D01*
Y34588D01*
X137600Y34634D01*
X139272Y34966D01*
X140886Y35514D01*
X142414Y36267D01*
X143831Y37214D01*
X145112Y38338D01*
X146236Y39619D01*
X147183Y41036D01*
X147936Y42564D01*
X148484Y44178D01*
X148816Y45849D01*
X148862Y46550D01*
D02*
G37*
G36*
X195300Y90001D02*
Y81550D01*
X203751D01*
X203712Y82041D01*
X203363Y83495D01*
X202791Y84876D01*
X202010Y86151D01*
X201038Y87288D01*
X199901Y88259D01*
X198626Y89041D01*
X197245Y89613D01*
X195791Y89962D01*
X195300Y90001D01*
D02*
G37*
G36*
X193300D02*
X192809Y89962D01*
X191355Y89613D01*
X189974Y89041D01*
X188699Y88259D01*
X187562Y87288D01*
X186591Y86151D01*
X185809Y84876D01*
X185237Y83495D01*
X184888Y82041D01*
X184849Y81550D01*
X193300D01*
Y90001D01*
D02*
G37*
G36*
X168890Y102849D02*
X167399Y102732D01*
X165945Y102383D01*
X164564Y101811D01*
X163289Y101029D01*
X162152Y100058D01*
X161181Y98921D01*
X160399Y97646D01*
X159827Y96265D01*
X159478Y94811D01*
X159361Y93320D01*
X159478Y91829D01*
X159827Y90375D01*
X160399Y88994D01*
X161181Y87719D01*
X162152Y86582D01*
X163289Y85611D01*
X164564Y84829D01*
X165945Y84257D01*
X167399Y83908D01*
X168890Y83791D01*
X170381Y83908D01*
X171835Y84257D01*
X173216Y84829D01*
X174491Y85611D01*
X175628Y86582D01*
X176599Y87719D01*
X177381Y88994D01*
X177953Y90375D01*
X178302Y91829D01*
X178419Y93320D01*
X178302Y94811D01*
X177953Y96265D01*
X177381Y97646D01*
X176599Y98921D01*
X175628Y100058D01*
X174491Y101029D01*
X173216Y101811D01*
X171835Y102383D01*
X170381Y102732D01*
X168890Y102849D01*
D02*
G37*
G36*
X345500Y90000D02*
X341500D01*
Y86000D01*
X345500D01*
Y90000D01*
D02*
G37*
G36*
X335000Y96000D02*
X333500Y96000D01*
X324500D01*
Y95247D01*
X324270Y95178D01*
X323488Y94760D01*
X322803Y94197D01*
X322803Y94197D01*
X317833Y89228D01*
X317348Y88969D01*
X316625Y88375D01*
X316031Y87652D01*
X315590Y86826D01*
X315319Y85931D01*
X315227Y85000D01*
X315319Y84069D01*
X315478Y83543D01*
Y78000D01*
X315478Y78000D01*
X315565Y77118D01*
X315822Y76270D01*
X316240Y75488D01*
X316803Y74803D01*
X318803Y72803D01*
X318803Y72803D01*
X319488Y72240D01*
X320270Y71822D01*
X321118Y71565D01*
X322000Y71478D01*
X324500D01*
Y69000D01*
X336500D01*
Y83000D01*
X328148D01*
X327234Y85000D01*
X328008Y86000D01*
X335000Y86000D01*
X336500Y86000D01*
X339500D01*
Y91000D01*
Y96000D01*
X335000Y96000D01*
D02*
G37*
G36*
X351500Y75000D02*
X346500D01*
Y69000D01*
X351500D01*
Y75000D01*
D02*
G37*
G36*
X344500D02*
X339500D01*
Y69000D01*
X344500D01*
Y75000D01*
D02*
G37*
G36*
X351500Y83000D02*
X346500D01*
Y77000D01*
X351500D01*
Y83000D01*
D02*
G37*
G36*
X344500D02*
X339500D01*
Y77000D01*
X344500D01*
Y83000D01*
D02*
G37*
G36*
X599851Y212858D02*
X598920Y212766D01*
X598024Y212495D01*
X597199Y212054D01*
X596476Y211460D01*
X595882Y210737D01*
X595441Y209912D01*
X595170Y209016D01*
X595078Y208085D01*
X595170Y207154D01*
X595441Y206259D01*
X595882Y205433D01*
X596476Y204710D01*
X597199Y204116D01*
X598024Y203675D01*
X598920Y203404D01*
X599851Y203312D01*
X600782Y203404D01*
X601678Y203675D01*
X602503Y204116D01*
X603226Y204710D01*
X603820Y205433D01*
X604261Y206259D01*
X604532Y207154D01*
X604624Y208085D01*
X604532Y209016D01*
X604261Y209912D01*
X603820Y210737D01*
X603226Y211460D01*
X602503Y212054D01*
X601678Y212495D01*
X600782Y212766D01*
X599851Y212858D01*
D02*
G37*
G36*
X136900Y215412D02*
Y203450D01*
X148862D01*
X148816Y204151D01*
X148484Y205822D01*
X147936Y207436D01*
X147183Y208964D01*
X146236Y210381D01*
X145112Y211662D01*
X143831Y212786D01*
X142414Y213732D01*
X140886Y214486D01*
X139272Y215034D01*
X137600Y215366D01*
X136900Y215412D01*
D02*
G37*
G36*
X480000Y217279D02*
X478549Y217164D01*
X477133Y216824D01*
X475788Y216267D01*
X474546Y215507D01*
X473439Y214561D01*
X472494Y213454D01*
X471733Y212212D01*
X471175Y210867D01*
X470836Y209452D01*
X470721Y208000D01*
X470836Y206549D01*
X471175Y205133D01*
X471733Y203788D01*
X472494Y202546D01*
X473439Y201439D01*
X474546Y200494D01*
X475788Y199733D01*
X477133Y199175D01*
X478549Y198836D01*
X480000Y198721D01*
X481451Y198836D01*
X482867Y199175D01*
X484212Y199733D01*
X485454Y200494D01*
X486561Y201439D01*
X487506Y202546D01*
X488267Y203788D01*
X488825Y205133D01*
X489164Y206549D01*
X489279Y208000D01*
X489164Y209452D01*
X488825Y210867D01*
X488267Y212212D01*
X487506Y213454D01*
X486561Y214561D01*
X485454Y215507D01*
X484212Y216267D01*
X482867Y216824D01*
X481451Y217164D01*
X480000Y217279D01*
D02*
G37*
G36*
X193000Y189500D02*
X189000D01*
Y185500D01*
X193000D01*
Y189500D01*
D02*
G37*
G36*
X199000D02*
X195000D01*
Y185500D01*
X199000D01*
Y189500D01*
D02*
G37*
G36*
X186000Y243451D02*
X185509Y243412D01*
X184055Y243063D01*
X182674Y242491D01*
X181399Y241709D01*
X180262Y240738D01*
X179291Y239601D01*
X178509Y238326D01*
X177937Y236945D01*
X177588Y235491D01*
X177549Y235000D01*
X186000D01*
Y243451D01*
D02*
G37*
G36*
X188000D02*
Y235000D01*
X196451D01*
X196412Y235491D01*
X196063Y236945D01*
X195491Y238326D01*
X194709Y239601D01*
X193738Y240738D01*
X192601Y241709D01*
X191326Y242491D01*
X189945Y243063D01*
X188491Y243412D01*
X188000Y243451D01*
D02*
G37*
G36*
X709000Y243773D02*
X708069Y243681D01*
X707173Y243410D01*
X706348Y242969D01*
X705625Y242375D01*
X705031Y241652D01*
X704590Y240826D01*
X704319Y239931D01*
X704227Y239000D01*
X704319Y238069D01*
X704590Y237174D01*
X705031Y236348D01*
X705625Y235625D01*
X706348Y235031D01*
X707173Y234590D01*
X708069Y234319D01*
X709000Y234227D01*
X709931Y234319D01*
X710826Y234590D01*
X711652Y235031D01*
X712375Y235625D01*
X712969Y236348D01*
X713410Y237174D01*
X713681Y238069D01*
X713773Y239000D01*
X713681Y239931D01*
X713410Y240826D01*
X712969Y241652D01*
X712375Y242375D01*
X711652Y242969D01*
X710826Y243410D01*
X709931Y243681D01*
X709000Y243773D01*
D02*
G37*
G36*
X790000Y244773D02*
X789069Y244681D01*
X788174Y244410D01*
X787348Y243969D01*
X786625Y243375D01*
X786031Y242652D01*
X785590Y241826D01*
X785319Y240931D01*
X785227Y240000D01*
X785319Y239069D01*
X785590Y238174D01*
X786031Y237348D01*
X786625Y236625D01*
X787348Y236031D01*
X788174Y235590D01*
X789069Y235319D01*
X790000Y235227D01*
X790931Y235319D01*
X791826Y235590D01*
X792652Y236031D01*
X793375Y236625D01*
X793969Y237348D01*
X794410Y238174D01*
X794681Y239069D01*
X794773Y240000D01*
X794681Y240931D01*
X794410Y241826D01*
X793969Y242652D01*
X793375Y243375D01*
X792652Y243969D01*
X791826Y244410D01*
X790931Y244681D01*
X790000Y244773D01*
D02*
G37*
G36*
X802000D02*
X801069Y244681D01*
X800173Y244410D01*
X799348Y243969D01*
X798625Y243375D01*
X798031Y242652D01*
X797590Y241826D01*
X797319Y240931D01*
X797227Y240000D01*
X797319Y239069D01*
X797590Y238174D01*
X798031Y237348D01*
X798625Y236625D01*
X799348Y236031D01*
X800173Y235590D01*
X801069Y235319D01*
X802000Y235227D01*
X802931Y235319D01*
X803827Y235590D01*
X804652Y236031D01*
X805375Y236625D01*
X805969Y237348D01*
X806410Y238174D01*
X806681Y239069D01*
X806773Y240000D01*
X806681Y240931D01*
X806410Y241826D01*
X805969Y242652D01*
X805375Y243375D01*
X804652Y243969D01*
X803827Y244410D01*
X802931Y244681D01*
X802000Y244773D01*
D02*
G37*
G36*
X766000D02*
X765069Y244681D01*
X764174Y244410D01*
X763348Y243969D01*
X762625Y243375D01*
X762031Y242652D01*
X761590Y241826D01*
X761319Y240931D01*
X761227Y240000D01*
X761319Y239069D01*
X761590Y238174D01*
X762031Y237348D01*
X762625Y236625D01*
X763348Y236031D01*
X764174Y235590D01*
X765069Y235319D01*
X766000Y235227D01*
X766931Y235319D01*
X767827Y235590D01*
X768652Y236031D01*
X769375Y236625D01*
X769969Y237348D01*
X770410Y238174D01*
X770681Y239069D01*
X770773Y240000D01*
X770681Y240931D01*
X770410Y241826D01*
X769969Y242652D01*
X769375Y243375D01*
X768652Y243969D01*
X767827Y244410D01*
X766931Y244681D01*
X766000Y244773D01*
D02*
G37*
G36*
X778000D02*
X777069Y244681D01*
X776173Y244410D01*
X775348Y243969D01*
X774625Y243375D01*
X774031Y242652D01*
X773590Y241826D01*
X773319Y240931D01*
X773227Y240000D01*
X773319Y239069D01*
X773590Y238174D01*
X774031Y237348D01*
X774625Y236625D01*
X775348Y236031D01*
X776173Y235590D01*
X777069Y235319D01*
X778000Y235227D01*
X778931Y235319D01*
X779827Y235590D01*
X780652Y236031D01*
X781375Y236625D01*
X781969Y237348D01*
X782410Y238174D01*
X782681Y239069D01*
X782773Y240000D01*
X782681Y240931D01*
X782410Y241826D01*
X781969Y242652D01*
X781375Y243375D01*
X780652Y243969D01*
X779827Y244410D01*
X778931Y244681D01*
X778000Y244773D01*
D02*
G37*
G36*
X196451Y233000D02*
X188000D01*
Y224549D01*
X188491Y224588D01*
X189945Y224937D01*
X191326Y225509D01*
X192601Y226291D01*
X193738Y227262D01*
X194709Y228399D01*
X195491Y229674D01*
X196063Y231055D01*
X196412Y232509D01*
X196451Y233000D01*
D02*
G37*
G36*
X186000D02*
X177549D01*
X177588Y232509D01*
X177937Y231055D01*
X178509Y229674D01*
X179291Y228399D01*
X180262Y227262D01*
X181399Y226291D01*
X182674Y225509D01*
X184055Y224937D01*
X185509Y224588D01*
X186000Y224549D01*
Y233000D01*
D02*
G37*
G36*
X199000Y183500D02*
X194000D01*
X189000D01*
X189000Y179000D01*
X189000Y177500D01*
Y168500D01*
X190483D01*
Y165452D01*
X189974Y165241D01*
X188699Y164459D01*
X187562Y163488D01*
X186591Y162351D01*
X185809Y161076D01*
X185237Y159695D01*
X184888Y158241D01*
X184771Y156750D01*
X184888Y155259D01*
X185237Y153805D01*
X185809Y152424D01*
X186591Y151149D01*
X187562Y150012D01*
X188699Y149041D01*
X189974Y148259D01*
X191355Y147687D01*
X192809Y147338D01*
X194300Y147221D01*
X195791Y147338D01*
X197245Y147687D01*
X198626Y148259D01*
X199901Y149041D01*
X201038Y150012D01*
X202009Y151149D01*
X202791Y152424D01*
X203363Y153805D01*
X203712Y155259D01*
X203829Y156750D01*
X203712Y158241D01*
X203363Y159695D01*
X202791Y161076D01*
X202009Y162351D01*
X201038Y163488D01*
X199901Y164459D01*
X198626Y165241D01*
X197517Y165700D01*
Y168500D01*
X199000D01*
X199000Y179000D01*
X199000Y180500D01*
Y183500D01*
D02*
G37*
G36*
X231000Y167773D02*
X230069Y167681D01*
X229174Y167410D01*
X228348Y166969D01*
X227625Y166375D01*
X227031Y165652D01*
X226590Y164827D01*
X226319Y163931D01*
X226227Y163000D01*
X226319Y162069D01*
X226590Y161173D01*
X227031Y160348D01*
X227625Y159625D01*
X228348Y159031D01*
X229174Y158590D01*
X230069Y158319D01*
X231000Y158227D01*
X231931Y158319D01*
X232826Y158590D01*
X233652Y159031D01*
X234375Y159625D01*
X234969Y160348D01*
X235410Y161173D01*
X235681Y162069D01*
X235773Y163000D01*
X235681Y163931D01*
X235410Y164827D01*
X234969Y165652D01*
X234375Y166375D01*
X233652Y166969D01*
X232826Y167410D01*
X231931Y167681D01*
X231000Y167773D01*
D02*
G37*
G36*
X296000Y155273D02*
X295069Y155181D01*
X294174Y154910D01*
X293348Y154469D01*
X292625Y153875D01*
X292155Y153303D01*
X291125Y153152D01*
X290875D01*
X289844Y153303D01*
X289375Y153875D01*
X288652Y154469D01*
X287827Y154910D01*
X286931Y155181D01*
X286000Y155273D01*
X285069Y155181D01*
X284174Y154910D01*
X283348Y154469D01*
X282625Y153875D01*
X282031Y153152D01*
X281590Y152326D01*
X281319Y151431D01*
X281227Y150500D01*
X281319Y149569D01*
X281590Y148673D01*
X282031Y147848D01*
X282625Y147125D01*
X283348Y146531D01*
X284174Y146090D01*
X284323Y146045D01*
Y143955D01*
X284174Y143910D01*
X283348Y143469D01*
X282625Y142875D01*
X282031Y142152D01*
X281590Y141327D01*
X281319Y140431D01*
X281258Y139816D01*
X280615Y139348D01*
X279265Y139014D01*
X271640Y146640D01*
X271013Y147121D01*
X270283Y147423D01*
X269500Y147526D01*
X224550D01*
X223767Y147423D01*
X223037Y147121D01*
X222411Y146640D01*
X213077Y137305D01*
X212860Y137140D01*
X212694Y136923D01*
X212360Y136589D01*
X211880Y135963D01*
X211577Y135233D01*
X211474Y134450D01*
Y125703D01*
X209197Y123426D01*
X206504D01*
X202824Y127105D01*
X203363Y128405D01*
X203712Y129859D01*
X203829Y131350D01*
X203712Y132841D01*
X203363Y134295D01*
X202791Y135676D01*
X202010Y136951D01*
X201038Y138088D01*
X199901Y139059D01*
X198626Y139841D01*
X197245Y140413D01*
X195791Y140762D01*
X194300Y140879D01*
X192809Y140762D01*
X191355Y140413D01*
X189974Y139841D01*
X188699Y139059D01*
X187562Y138088D01*
X186591Y136951D01*
X185809Y135676D01*
X185237Y134295D01*
X184888Y132841D01*
X184771Y131350D01*
X184888Y129859D01*
X185237Y128405D01*
X185809Y127024D01*
X186591Y125749D01*
X187562Y124612D01*
X188699Y123641D01*
X189974Y122859D01*
X191355Y122287D01*
X192809Y121938D01*
X194300Y121821D01*
X195791Y121938D01*
X197245Y122287D01*
X198545Y122826D01*
X202721Y118650D01*
X198545Y114474D01*
X197245Y115013D01*
X195791Y115362D01*
X194300Y115479D01*
X192809Y115362D01*
X191355Y115013D01*
X189974Y114441D01*
X188699Y113659D01*
X187562Y112688D01*
X186591Y111551D01*
X185809Y110276D01*
X185237Y108895D01*
X184888Y107441D01*
X184771Y105950D01*
X184888Y104459D01*
X185237Y103005D01*
X185809Y101624D01*
X186591Y100349D01*
X187562Y99212D01*
X188699Y98241D01*
X189974Y97459D01*
X191355Y96887D01*
X192809Y96538D01*
X194300Y96421D01*
X195791Y96538D01*
X197245Y96887D01*
X198626Y97459D01*
X199901Y98241D01*
X201038Y99212D01*
X202010Y100349D01*
X202791Y101624D01*
X203363Y103005D01*
X203712Y104459D01*
X203829Y105950D01*
X203712Y107441D01*
X203363Y108895D01*
X202824Y110195D01*
X206503Y113874D01*
X211900D01*
X212683Y113977D01*
X213413Y114279D01*
X214040Y114760D01*
X220140Y120860D01*
X220620Y121487D01*
X220923Y122217D01*
X221026Y123000D01*
Y131747D01*
X223292Y134013D01*
X223332Y134013D01*
X225306Y133198D01*
X225319Y133069D01*
X225590Y132174D01*
X226031Y131348D01*
X226625Y130625D01*
X227348Y130031D01*
X228174Y129590D01*
X229069Y129319D01*
X230000Y129227D01*
X230931Y129319D01*
X231826Y129590D01*
X232652Y130031D01*
X233375Y130625D01*
X233969Y131348D01*
X234410Y132174D01*
X234681Y133069D01*
X234773Y134000D01*
X234681Y134931D01*
X234410Y135827D01*
X234331Y135974D01*
X235128Y137673D01*
X235471Y137974D01*
X266797D01*
X270974Y133797D01*
Y128142D01*
X268974Y127641D01*
X268969Y127652D01*
X268375Y128375D01*
X267652Y128969D01*
X266826Y129410D01*
X265931Y129681D01*
X265000Y129773D01*
X264069Y129681D01*
X263174Y129410D01*
X262348Y128969D01*
X261625Y128375D01*
X261031Y127652D01*
X260590Y126826D01*
X260319Y125931D01*
X260227Y125000D01*
X260319Y124069D01*
X260590Y123174D01*
X261031Y122348D01*
X261497Y121781D01*
X261625Y121508D01*
Y119492D01*
X261497Y119219D01*
X261031Y118652D01*
X260590Y117826D01*
X260319Y116931D01*
X260227Y116000D01*
X260319Y115069D01*
X260590Y114173D01*
X261031Y113348D01*
X261625Y112625D01*
X262348Y112031D01*
X263174Y111590D01*
X264069Y111319D01*
X265000Y111227D01*
X265931Y111319D01*
X266826Y111590D01*
X267652Y112031D01*
X268375Y112625D01*
X268969Y113348D01*
X269410Y114173D01*
X269681Y115069D01*
X269746Y115724D01*
X272450D01*
X273233Y115827D01*
X273963Y116130D01*
X274589Y116610D01*
X279640Y121661D01*
X280121Y122287D01*
X280423Y123017D01*
X280526Y123800D01*
Y135530D01*
X282526Y136246D01*
X282625Y136125D01*
X283348Y135531D01*
X284174Y135090D01*
X285069Y134819D01*
X286000Y134727D01*
X286931Y134819D01*
X287827Y135090D01*
X288652Y135531D01*
X289375Y136125D01*
X289844Y136697D01*
X290875Y136848D01*
X291125D01*
X292155Y136697D01*
X292625Y136125D01*
X293348Y135531D01*
X294174Y135090D01*
X295069Y134819D01*
X296000Y134727D01*
X296931Y134819D01*
X297826Y135090D01*
X298652Y135531D01*
X299375Y136125D01*
X299969Y136848D01*
X300410Y137674D01*
X300681Y138569D01*
X300773Y139500D01*
X300681Y140431D01*
X300410Y141327D01*
X299969Y142152D01*
X299375Y142875D01*
X298652Y143469D01*
X297826Y143910D01*
X297677Y143955D01*
Y146045D01*
X297826Y146090D01*
X298652Y146531D01*
X299375Y147125D01*
X299969Y147848D01*
X300410Y148673D01*
X300681Y149569D01*
X300773Y150500D01*
X300681Y151431D01*
X300410Y152326D01*
X299969Y153152D01*
X299375Y153875D01*
X298652Y154469D01*
X297826Y154910D01*
X296931Y155181D01*
X296000Y155273D01*
D02*
G37*
G36*
X430000Y217279D02*
X428549Y217164D01*
X427133Y216824D01*
X425788Y216267D01*
X424546Y215507D01*
X423439Y214561D01*
X422494Y213454D01*
X421733Y212212D01*
X421175Y210867D01*
X420836Y209452D01*
X420721Y208000D01*
X420836Y206549D01*
X421175Y205133D01*
X421733Y203788D01*
X422494Y202546D01*
X423439Y201439D01*
X424546Y200494D01*
X425788Y199733D01*
X427133Y199175D01*
X428549Y198836D01*
X430000Y198721D01*
X431451Y198836D01*
X432867Y199175D01*
X434212Y199733D01*
X435454Y200494D01*
X436561Y201439D01*
X437506Y202546D01*
X438267Y203788D01*
X438825Y205133D01*
X439164Y206549D01*
X439279Y208000D01*
X439164Y209452D01*
X438825Y210867D01*
X438267Y212212D01*
X437506Y213454D01*
X436561Y214561D01*
X435454Y215507D01*
X434212Y216267D01*
X432867Y216824D01*
X431451Y217164D01*
X430000Y217279D01*
D02*
G37*
G36*
X270500Y218523D02*
X269569Y218431D01*
X268673Y218160D01*
X267848Y217719D01*
X267125Y217125D01*
X265875D01*
X265152Y217719D01*
X264326Y218160D01*
X263431Y218431D01*
X262500Y218523D01*
X261569Y218431D01*
X260674Y218160D01*
X259848Y217719D01*
X259125Y217125D01*
X258531Y216402D01*
X258090Y215576D01*
X257819Y214681D01*
X257727Y213750D01*
X257819Y212819D01*
X258090Y211924D01*
X258531Y211098D01*
X259125Y210375D01*
X259193Y210319D01*
X259283Y210134D01*
Y208616D01*
X259193Y208431D01*
X259125Y208375D01*
X258531Y207652D01*
X258090Y206826D01*
X257819Y205931D01*
X257727Y205000D01*
X257819Y204069D01*
X258090Y203174D01*
X258531Y202348D01*
X259125Y201625D01*
X259848Y201031D01*
X260674Y200590D01*
X261569Y200319D01*
X262500Y200227D01*
X263431Y200319D01*
X264326Y200590D01*
X265152Y201031D01*
X265875Y201625D01*
X267125D01*
X267848Y201031D01*
X268673Y200590D01*
X269569Y200319D01*
X270500Y200227D01*
X271431Y200319D01*
X272327Y200590D01*
X273152Y201031D01*
X273875Y201625D01*
X274469Y202348D01*
X274910Y203174D01*
X275181Y204069D01*
X275273Y205000D01*
X275181Y205931D01*
X274910Y206826D01*
X274469Y207652D01*
X273875Y208375D01*
X273807Y208431D01*
X273717Y208616D01*
Y210134D01*
X273807Y210319D01*
X273875Y210375D01*
X274469Y211098D01*
X274910Y211924D01*
X275181Y212819D01*
X275273Y213750D01*
X275181Y214681D01*
X274910Y215576D01*
X274469Y216402D01*
X273875Y217125D01*
X273152Y217719D01*
X272327Y218160D01*
X271431Y218431D01*
X270500Y218523D01*
D02*
G37*
G36*
X324500Y211773D02*
X323569Y211681D01*
X322673Y211410D01*
X321848Y210969D01*
X321125Y210375D01*
X320918Y210123D01*
X320524Y209995D01*
X319476D01*
X319082Y210123D01*
X318875Y210375D01*
X318152Y210969D01*
X317327Y211410D01*
X316431Y211681D01*
X315500Y211773D01*
X314569Y211681D01*
X313673Y211410D01*
X312848Y210969D01*
X312125Y210375D01*
X311531Y209652D01*
X311090Y208827D01*
X310819Y207931D01*
X310727Y207000D01*
X310819Y206069D01*
X311090Y205173D01*
X311531Y204348D01*
X312125Y203625D01*
X312848Y203031D01*
X313673Y202590D01*
X314569Y202319D01*
X315500Y202227D01*
X316431Y202319D01*
X317327Y202590D01*
X318152Y203031D01*
X318875Y203625D01*
X319082Y203878D01*
X319476Y204006D01*
X320524D01*
X320918Y203878D01*
X321125Y203625D01*
X321848Y203031D01*
X322673Y202590D01*
X323569Y202319D01*
X324500Y202227D01*
X325431Y202319D01*
X326327Y202590D01*
X327152Y203031D01*
X327875Y203625D01*
X328469Y204348D01*
X328910Y205173D01*
X329181Y206069D01*
X329273Y207000D01*
X329181Y207931D01*
X328910Y208827D01*
X328469Y209652D01*
X327875Y210375D01*
X327152Y210969D01*
X326327Y211410D01*
X325431Y211681D01*
X324500Y211773D01*
D02*
G37*
G36*
X304500Y219773D02*
X303569Y219681D01*
X302673Y219410D01*
X301848Y218969D01*
X301125Y218375D01*
X300918Y218123D01*
X300524Y217994D01*
X299476D01*
X299082Y218123D01*
X298875Y218375D01*
X298152Y218969D01*
X297327Y219410D01*
X296431Y219681D01*
X295500Y219773D01*
X294569Y219681D01*
X293673Y219410D01*
X292848Y218969D01*
X292125Y218375D01*
X291531Y217652D01*
X291090Y216826D01*
X290819Y215931D01*
X290727Y215000D01*
X290819Y214069D01*
X291090Y213174D01*
X291531Y212348D01*
X292125Y211625D01*
X292848Y211031D01*
X293673Y210590D01*
X294569Y210319D01*
X295500Y210227D01*
X296431Y210319D01*
X297327Y210590D01*
X298152Y211031D01*
X298875Y211625D01*
X299082Y211877D01*
X299476Y212006D01*
X300524D01*
X300918Y211877D01*
X301125Y211625D01*
X301848Y211031D01*
X302673Y210590D01*
X303569Y210319D01*
X304500Y210227D01*
X305431Y210319D01*
X306327Y210590D01*
X307152Y211031D01*
X307875Y211625D01*
X308469Y212348D01*
X308910Y213174D01*
X309181Y214069D01*
X309273Y215000D01*
X309181Y215931D01*
X308910Y216826D01*
X308469Y217652D01*
X307875Y218375D01*
X307152Y218969D01*
X306327Y219410D01*
X305431Y219681D01*
X304500Y219773D01*
D02*
G37*
G36*
X494146Y118717D02*
X492025Y116596D01*
X491318Y115889D01*
X489904Y114475D01*
X483540Y108111D01*
Y108111D01*
X482669Y106153D01*
X482412Y106075D01*
X481587Y105634D01*
X480864Y105041D01*
X480271Y104317D01*
X479829Y103492D01*
X479558Y102597D01*
X479466Y101665D01*
X479558Y100734D01*
X479829Y99839D01*
X480271Y99014D01*
X480864Y98291D01*
X481587Y97697D01*
X482412Y97256D01*
X483308Y96984D01*
X484239Y96892D01*
X485170Y96984D01*
X486066Y97256D01*
X486891Y97697D01*
X487614Y98291D01*
X488208Y99014D01*
X488649Y99839D01*
X488727Y100096D01*
X490611Y101040D01*
X490611D01*
X496975Y107404D01*
X497682Y108111D01*
X499096Y109525D01*
X501217Y111646D01*
X497682Y115182D01*
X494146Y118717D01*
D02*
G37*
G36*
X523882Y97467D02*
X521053Y94639D01*
X523882Y91811D01*
X526710Y94639D01*
X523882Y97467D01*
D02*
G37*
G36*
X528139Y93210D02*
X525311Y90382D01*
X528139Y87553D01*
X530967Y90382D01*
X528139Y93210D01*
D02*
G37*
G36*
X574611Y95960D02*
X571783Y93132D01*
X574611Y90303D01*
X577439Y93132D01*
X574611Y95960D01*
D02*
G37*
G36*
X519639Y101710D02*
X516811Y98882D01*
X519639Y96053D01*
X522467Y98882D01*
X519639Y101710D01*
D02*
G37*
G36*
X605964Y118607D02*
X602429Y115071D01*
X598893Y111536D01*
X601015Y109414D01*
X601722Y108707D01*
X603136Y107293D01*
X609500Y100929D01*
X609500D01*
X611325Y99925D01*
X611351Y99839D01*
X611792Y99014D01*
X612386Y98291D01*
X613109Y97697D01*
X613934Y97256D01*
X614830Y96984D01*
X615761Y96892D01*
X616692Y96984D01*
X617587Y97256D01*
X618413Y97697D01*
X619136Y98291D01*
X619729Y99014D01*
X620171Y99839D01*
X620442Y100734D01*
X620534Y101665D01*
X620442Y102597D01*
X620171Y103492D01*
X619729Y104317D01*
X619136Y105041D01*
X618413Y105634D01*
X617587Y106075D01*
X617501Y106101D01*
X616571Y108000D01*
Y108000D01*
X610207Y114364D01*
X609146Y115425D01*
X608086Y116485D01*
X605964Y118607D01*
D02*
G37*
G36*
X485882Y135468D02*
X483053Y132639D01*
X485882Y129811D01*
X488710Y132639D01*
X485882Y135468D01*
D02*
G37*
G36*
X498389Y132697D02*
X495561Y129868D01*
X498389Y127040D01*
X501217Y129868D01*
X498389Y132697D01*
D02*
G37*
G36*
X472925Y141794D02*
X471994Y141702D01*
X471099Y141431D01*
X470274Y140989D01*
X469550Y140396D01*
X468957Y139672D01*
X468516Y138847D01*
X468244Y137952D01*
X468152Y137021D01*
X468244Y136090D01*
X468516Y135194D01*
X468957Y134369D01*
X469550Y133646D01*
X470274Y133052D01*
X471099Y132611D01*
X471569Y132469D01*
X472122Y131261D01*
X472235Y130306D01*
X466790Y124861D01*
Y124861D01*
X465699Y123124D01*
X465442Y123046D01*
X464617Y122605D01*
X463894Y122011D01*
X463300Y121288D01*
X462859Y120463D01*
X462587Y119567D01*
X462495Y118636D01*
X462587Y117705D01*
X462859Y116810D01*
X463300Y115984D01*
X463894Y115261D01*
X464617Y114668D01*
X465442Y114226D01*
X466337Y113955D01*
X467268Y113863D01*
X468200Y113955D01*
X469095Y114226D01*
X469920Y114668D01*
X470644Y115261D01*
X471237Y115984D01*
X471678Y116810D01*
X471756Y117066D01*
X473670Y117981D01*
X473861Y117790D01*
X480225Y124154D01*
X480932Y124861D01*
X482346Y126275D01*
X484468Y128397D01*
X480932Y131932D01*
X481639Y132639D01*
X480932Y133346D01*
X484468Y136882D01*
X481639Y139710D01*
X479640Y137711D01*
X478685Y137824D01*
X477478Y138377D01*
X477335Y138847D01*
X476894Y139672D01*
X476300Y140396D01*
X475577Y140989D01*
X474752Y141431D01*
X473857Y141702D01*
X472925Y141794D01*
D02*
G37*
G36*
X484239Y153108D02*
X483308Y153016D01*
X482412Y152744D01*
X481587Y152303D01*
X480864Y151709D01*
X480271Y150986D01*
X479829Y150161D01*
X479558Y149266D01*
X479466Y148335D01*
X479558Y147403D01*
X479829Y146508D01*
X480271Y145683D01*
X480864Y144959D01*
X481587Y144366D01*
X482412Y143925D01*
X482669Y143847D01*
X483540Y141889D01*
Y141889D01*
X489904Y135525D01*
X490611Y134818D01*
X492025Y133404D01*
X494146Y131283D01*
X497682Y134818D01*
X501217Y138354D01*
X499096Y140475D01*
X498389Y141182D01*
X496975Y142596D01*
X490611Y148960D01*
X490611D01*
X488727Y149904D01*
X488649Y150161D01*
X488208Y150986D01*
X487614Y151709D01*
X486891Y152303D01*
X486066Y152744D01*
X485170Y153016D01*
X484239Y153108D01*
D02*
G37*
G36*
X597361Y136947D02*
X594533Y134118D01*
X597361Y131290D01*
X600189Y134118D01*
X597361Y136947D01*
D02*
G37*
G36*
X502632Y136939D02*
X499803Y134111D01*
X502632Y131283D01*
X505460Y134111D01*
X502632Y136939D01*
D02*
G37*
G36*
X624246Y144622D02*
X623315Y144530D01*
X622420Y144259D01*
X621595Y143818D01*
X620871Y143224D01*
X620278Y142501D01*
X619837Y141676D01*
X619759Y141419D01*
X617889Y140460D01*
X617889D01*
X611525Y134096D01*
X610818Y133389D01*
X609404Y131975D01*
X607282Y129854D01*
X610818Y126318D01*
X614354Y122782D01*
X616475Y124904D01*
X617182Y125611D01*
X618596Y127025D01*
X624960Y133389D01*
X624911Y133438D01*
X625816Y135362D01*
X626073Y135440D01*
X626898Y135881D01*
X627621Y136474D01*
X628215Y137198D01*
X628656Y138023D01*
X628927Y138918D01*
X629019Y139849D01*
X628927Y140780D01*
X628656Y141676D01*
X628215Y142501D01*
X627621Y143224D01*
X626898Y143818D01*
X626073Y144259D01*
X625177Y144530D01*
X624246Y144622D01*
D02*
G37*
G36*
X601722Y122849D02*
X598893Y120021D01*
X601722Y117192D01*
X604550Y120021D01*
X601722Y122849D01*
D02*
G37*
G36*
X502632Y118717D02*
X499803Y115889D01*
X502632Y113061D01*
X505460Y115889D01*
X502632Y118717D01*
D02*
G37*
G36*
X597479Y118607D02*
X594651Y115778D01*
X597479Y112950D01*
X600308Y115778D01*
X597479Y118607D01*
D02*
G37*
G36*
X498389Y122960D02*
X495561Y120132D01*
X498389Y117303D01*
X501217Y120132D01*
X498389Y122960D01*
D02*
G37*
G36*
X605868Y128439D02*
X603040Y125611D01*
X605868Y122782D01*
X608697Y125611D01*
X605868Y128439D01*
D02*
G37*
G36*
X610111Y124197D02*
X607282Y121368D01*
X610111Y118540D01*
X612939Y121368D01*
X610111Y124197D01*
D02*
G37*
G36*
X515396Y97467D02*
X513275Y95346D01*
X512568Y94639D01*
X511154Y93225D01*
X505132Y87203D01*
X503884Y87405D01*
X503137Y87699D01*
X503062Y88455D01*
X502791Y89350D01*
X502350Y90175D01*
X501756Y90898D01*
X501033Y91492D01*
X500208Y91933D01*
X499312Y92205D01*
X498381Y92296D01*
X497450Y92205D01*
X496555Y91933D01*
X495729Y91492D01*
X495006Y90898D01*
X494413Y90175D01*
X493972Y89350D01*
X493700Y88455D01*
X493608Y87523D01*
X493700Y86592D01*
X493972Y85697D01*
X494413Y84872D01*
X495006Y84148D01*
X495729Y83555D01*
X496555Y83114D01*
X497450Y82842D01*
X498381Y82750D01*
X499118Y82823D01*
X499953Y82201D01*
X500130Y82024D01*
X500752Y81189D01*
X500679Y80452D01*
X500771Y79521D01*
X501043Y78626D01*
X501484Y77801D01*
X502077Y77077D01*
X502800Y76484D01*
X503626Y76043D01*
X504521Y75771D01*
X505452Y75679D01*
X506189Y75752D01*
X507024Y75131D01*
X507201Y74953D01*
X507823Y74118D01*
X507750Y73381D01*
X507842Y72450D01*
X508114Y71555D01*
X508555Y70729D01*
X509148Y70006D01*
X509872Y69413D01*
X510697Y68972D01*
X511592Y68700D01*
X512523Y68608D01*
X513455Y68700D01*
X514350Y68972D01*
X515080Y69362D01*
X515381D01*
X516165Y69439D01*
X516919Y69668D01*
X517614Y70039D01*
X518223Y70539D01*
X519668Y71983D01*
X520361Y71290D01*
X526725Y77654D01*
X527432Y78361D01*
X528846Y79775D01*
X530967Y81896D01*
X527432Y85432D01*
X523896Y88968D01*
X521775Y86846D01*
X521068Y86139D01*
X519654Y84725D01*
X514345Y79416D01*
X514323Y79423D01*
X513774Y81703D01*
X518225Y86154D01*
X518932Y86861D01*
X520346Y88275D01*
X522467Y90396D01*
X518932Y93932D01*
X515396Y97467D01*
D02*
G37*
G36*
X523837Y66841D02*
X522906Y66749D01*
X522010Y66477D01*
X521185Y66036D01*
X520462Y65443D01*
X519869Y64719D01*
X519427Y63894D01*
X519156Y62999D01*
X519064Y62067D01*
X519156Y61136D01*
X519427Y60241D01*
X519869Y59416D01*
X520462Y58692D01*
X521185Y58099D01*
X522010Y57658D01*
X522906Y57386D01*
X523837Y57295D01*
X524768Y57386D01*
X525664Y57658D01*
X526489Y58099D01*
X527212Y58692D01*
X527806Y59416D01*
X528247Y60241D01*
X528518Y61136D01*
X528610Y62067D01*
X528518Y62999D01*
X528247Y63894D01*
X527806Y64719D01*
X527212Y65443D01*
X526489Y66036D01*
X525664Y66477D01*
X524768Y66749D01*
X523837Y66841D01*
D02*
G37*
G36*
X563354Y76217D02*
X559818Y72682D01*
X556283Y69146D01*
X558404Y67025D01*
X559111Y66318D01*
X560525Y64904D01*
X566889Y58540D01*
X566889D01*
X568847Y57669D01*
X568925Y57413D01*
X569366Y56587D01*
X569959Y55864D01*
X570683Y55271D01*
X571508Y54829D01*
X572403Y54558D01*
X573335Y54466D01*
X574266Y54558D01*
X575161Y54829D01*
X575986Y55271D01*
X576710Y55864D01*
X577303Y56587D01*
X577744Y57413D01*
X578016Y58308D01*
X578107Y59239D01*
X578016Y60170D01*
X577744Y61066D01*
X577303Y61891D01*
X576710Y62614D01*
X575986Y63208D01*
X575161Y63649D01*
X574904Y63727D01*
X573960Y65611D01*
Y65611D01*
X567596Y71975D01*
X566535Y73035D01*
X565475Y74096D01*
X563354Y76217D01*
D02*
G37*
G36*
X553354Y66217D02*
X549818Y62682D01*
X546283Y59146D01*
X548404Y57025D01*
X549111Y56318D01*
X550525Y54904D01*
X556889Y48540D01*
X556958Y48609D01*
X558947Y47770D01*
X559025Y47513D01*
X559466Y46688D01*
X560060Y45965D01*
X560783Y45371D01*
X561609Y44930D01*
X562504Y44658D01*
X563435Y44567D01*
X564366Y44658D01*
X565261Y44930D01*
X566087Y45371D01*
X566810Y45965D01*
X567404Y46688D01*
X567845Y47513D01*
X568116Y48408D01*
X568208Y49340D01*
X568116Y50271D01*
X567845Y51166D01*
X567404Y51991D01*
X566810Y52715D01*
X566087Y53308D01*
X565261Y53749D01*
X565005Y53827D01*
X563960Y55611D01*
Y55611D01*
X557596Y61975D01*
X556536Y63036D01*
X555475Y64096D01*
X553354Y66217D01*
D02*
G37*
G36*
X549111Y70460D02*
X546283Y67632D01*
X549111Y64803D01*
X551939Y67632D01*
X549111Y70460D01*
D02*
G37*
G36*
X544868Y66217D02*
X542040Y63389D01*
X544868Y60561D01*
X547697Y63389D01*
X544868Y66217D01*
D02*
G37*
G36*
X537979Y52698D02*
X537048Y52607D01*
X536153Y52335D01*
X535327Y51894D01*
X534604Y51300D01*
X534011Y50577D01*
X533569Y49752D01*
X533298Y48857D01*
X533206Y47925D01*
X533298Y46994D01*
X533569Y46099D01*
X534011Y45274D01*
X534604Y44550D01*
X535327Y43957D01*
X536153Y43516D01*
X537048Y43244D01*
X537979Y43152D01*
X538910Y43244D01*
X539806Y43516D01*
X540631Y43957D01*
X541354Y44550D01*
X541948Y45274D01*
X542389Y46099D01*
X542660Y46994D01*
X542752Y47925D01*
X542660Y48857D01*
X542389Y49752D01*
X541948Y50577D01*
X541354Y51300D01*
X540631Y51894D01*
X539806Y52335D01*
X538910Y52607D01*
X537979Y52698D01*
D02*
G37*
G36*
X322000Y14773D02*
X321069Y14681D01*
X320173Y14410D01*
X319348Y13969D01*
X318625Y13375D01*
X318031Y12652D01*
X317590Y11826D01*
X317319Y10931D01*
X317227Y10000D01*
X317319Y9069D01*
X317590Y8173D01*
X318031Y7348D01*
X318625Y6625D01*
X319348Y6031D01*
X320173Y5590D01*
X321069Y5319D01*
X322000Y5227D01*
X322931Y5319D01*
X323826Y5590D01*
X324652Y6031D01*
X325375Y6625D01*
X325969Y7348D01*
X326410Y8173D01*
X326681Y9069D01*
X326773Y10000D01*
X326681Y10931D01*
X326410Y11826D01*
X325969Y12652D01*
X325375Y13375D01*
X324652Y13969D01*
X323826Y14410D01*
X322931Y14681D01*
X322000Y14773D01*
D02*
G37*
G36*
X310000D02*
X309069Y14681D01*
X308174Y14410D01*
X307348Y13969D01*
X306625Y13375D01*
X306031Y12652D01*
X305590Y11826D01*
X305319Y10931D01*
X305227Y10000D01*
X305319Y9069D01*
X305590Y8173D01*
X306031Y7348D01*
X306625Y6625D01*
X307348Y6031D01*
X308174Y5590D01*
X309069Y5319D01*
X310000Y5227D01*
X310931Y5319D01*
X311826Y5590D01*
X312652Y6031D01*
X313375Y6625D01*
X313969Y7348D01*
X314410Y8173D01*
X314681Y9069D01*
X314773Y10000D01*
X314681Y10931D01*
X314410Y11826D01*
X313969Y12652D01*
X313375Y13375D01*
X312652Y13969D01*
X311826Y14410D01*
X310931Y14681D01*
X310000Y14773D01*
D02*
G37*
G36*
X298000D02*
X297069Y14681D01*
X296173Y14410D01*
X295348Y13969D01*
X294625Y13375D01*
X294031Y12652D01*
X293590Y11826D01*
X293319Y10931D01*
X293227Y10000D01*
X293319Y9069D01*
X293590Y8173D01*
X294031Y7348D01*
X294625Y6625D01*
X295348Y6031D01*
X296173Y5590D01*
X297069Y5319D01*
X298000Y5227D01*
X298931Y5319D01*
X299827Y5590D01*
X300652Y6031D01*
X301375Y6625D01*
X301969Y7348D01*
X302410Y8173D01*
X302681Y9069D01*
X302773Y10000D01*
X302681Y10931D01*
X302410Y11826D01*
X301969Y12652D01*
X301375Y13375D01*
X300652Y13969D01*
X299827Y14410D01*
X298931Y14681D01*
X298000Y14773D01*
D02*
G37*
G36*
X334000D02*
X333069Y14681D01*
X332174Y14410D01*
X331348Y13969D01*
X330625Y13375D01*
X330031Y12652D01*
X329590Y11826D01*
X329319Y10931D01*
X329227Y10000D01*
X329319Y9069D01*
X329590Y8173D01*
X330031Y7348D01*
X330625Y6625D01*
X331348Y6031D01*
X332174Y5590D01*
X333069Y5319D01*
X334000Y5227D01*
X334931Y5319D01*
X335826Y5590D01*
X336652Y6031D01*
X337375Y6625D01*
X337969Y7348D01*
X338410Y8173D01*
X338681Y9069D01*
X338773Y10000D01*
X338681Y10931D01*
X338410Y11826D01*
X337969Y12652D01*
X337375Y13375D01*
X336652Y13969D01*
X335826Y14410D01*
X334931Y14681D01*
X334000Y14773D01*
D02*
G37*
G36*
X532382Y88968D02*
X529553Y86139D01*
X532382Y83311D01*
X535210Y86139D01*
X532382Y88968D01*
D02*
G37*
G36*
X570368Y91718D02*
X567540Y88889D01*
X570368Y86061D01*
X573197Y88889D01*
X570368Y91718D01*
D02*
G37*
G36*
X554868Y76217D02*
X552040Y73389D01*
X554868Y70561D01*
X557697Y73389D01*
X554868Y76217D01*
D02*
G37*
G36*
X559111Y80460D02*
X556283Y77632D01*
X559111Y74803D01*
X561939Y77632D01*
X559111Y80460D01*
D02*
G37*
G36*
X528787Y197655D02*
X527856Y197563D01*
X526960Y197292D01*
X526135Y196851D01*
X525412Y196257D01*
X524818Y195534D01*
X524377Y194709D01*
X524106Y193813D01*
X524014Y192882D01*
X524106Y191951D01*
X524377Y191056D01*
X524451Y190918D01*
X522973Y189440D01*
X522835Y189514D01*
X521940Y189785D01*
X521009Y189877D01*
X520077Y189785D01*
X519182Y189514D01*
X518357Y189073D01*
X517634Y188479D01*
X517040Y187756D01*
X516599Y186931D01*
X516327Y186035D01*
X516236Y185104D01*
X516327Y184173D01*
X516599Y183277D01*
X517040Y182452D01*
X517634Y181729D01*
X518357Y181136D01*
X519182Y180694D01*
X519439Y180616D01*
X520290Y178639D01*
Y178639D01*
X526654Y172275D01*
X527361Y171568D01*
X528775Y170154D01*
X530896Y168032D01*
X534432Y171568D01*
X537967Y175103D01*
X535846Y177225D01*
X535139Y177932D01*
X533725Y179346D01*
X527361Y185710D01*
X527361D01*
X527001Y185896D01*
X526956Y186186D01*
X528790Y187389D01*
X535154Y181025D01*
X535861Y180318D01*
X537275Y178904D01*
X539396Y176782D01*
X542932Y180318D01*
X546468Y183854D01*
X544346Y185975D01*
X543639Y186682D01*
X542225Y188096D01*
X535861Y194460D01*
X535438Y194037D01*
X533750Y195724D01*
X533141Y196224D01*
X532446Y196596D01*
X531692Y196824D01*
X531441Y196849D01*
X531438Y196851D01*
X530613Y197292D01*
X529718Y197563D01*
X528787Y197655D01*
D02*
G37*
G36*
X559260Y196139D02*
X555018Y191896D01*
X558553Y188361D01*
X562796Y192604D01*
X559260Y196139D01*
D02*
G37*
G36*
X573335Y195534D02*
X572403Y195442D01*
X571508Y195171D01*
X570683Y194729D01*
X569959Y194136D01*
X569366Y193413D01*
X568925Y192588D01*
X568653Y191692D01*
X568562Y190761D01*
X568653Y189830D01*
X568764Y189464D01*
X567009Y188411D01*
X566485Y188915D01*
X566446Y188953D01*
X566446Y188953D01*
X566441Y188959D01*
X564210Y191189D01*
X559967Y186947D01*
X563503Y183411D01*
X566563Y186471D01*
X567482Y187390D01*
X567771Y187500D01*
X569614Y187641D01*
X570683Y186792D01*
X571508Y186351D01*
X572403Y186080D01*
X573335Y185988D01*
X574266Y186080D01*
X575161Y186351D01*
X575986Y186792D01*
X576710Y187386D01*
X577303Y188109D01*
X577744Y188934D01*
X578016Y189830D01*
X578107Y190761D01*
X578016Y191692D01*
X577744Y192588D01*
X577303Y193413D01*
X576710Y194136D01*
X575986Y194729D01*
X575161Y195171D01*
X574266Y195442D01*
X573335Y195534D01*
D02*
G37*
G36*
X559192Y209676D02*
X558261Y209584D01*
X557366Y209313D01*
X556541Y208872D01*
X555817Y208278D01*
X555224Y207555D01*
X554783Y206730D01*
X554511Y205834D01*
X554419Y204903D01*
X554511Y203972D01*
X554622Y203606D01*
X552854Y202546D01*
X548654Y206746D01*
X547079Y205171D01*
X544869Y207381D01*
X544776Y207555D01*
X544183Y208278D01*
X543459Y208872D01*
X542634Y209313D01*
X541739Y209584D01*
X540808Y209676D01*
X539876Y209584D01*
X538981Y209313D01*
X538156Y208872D01*
X537433Y208278D01*
X536839Y207555D01*
X536398Y206730D01*
X536126Y205834D01*
X536035Y204903D01*
Y204692D01*
X536126Y203761D01*
X536398Y202866D01*
X536839Y202041D01*
X537433Y201317D01*
X540329Y198421D01*
X538754Y196846D01*
X547240Y188361D01*
X557139Y198260D01*
X556835Y198564D01*
X557895Y200333D01*
X558261Y200222D01*
X559192Y200130D01*
X560123Y200222D01*
X561019Y200493D01*
X561844Y200935D01*
X562567Y201528D01*
X563161Y202251D01*
X563602Y203076D01*
X563874Y203972D01*
X563965Y204903D01*
X563874Y205834D01*
X563602Y206730D01*
X563161Y207555D01*
X562567Y208278D01*
X561844Y208872D01*
X561019Y209313D01*
X560123Y209584D01*
X559192Y209676D01*
D02*
G37*
G36*
X547882Y182439D02*
X545053Y179611D01*
X547882Y176782D01*
X550710Y179611D01*
X547882Y182439D01*
D02*
G37*
G36*
X543639Y178197D02*
X540811Y175368D01*
X543639Y172540D01*
X546468Y175368D01*
X543639Y178197D01*
D02*
G37*
G36*
X558553Y185532D02*
X554311Y181290D01*
X557846Y177754D01*
X562089Y181997D01*
X558553Y185532D01*
D02*
G37*
G36*
X553604Y190482D02*
X549361Y186240D01*
X552896Y182704D01*
X557139Y186947D01*
X553604Y190482D01*
D02*
G37*
G36*
X584618Y149689D02*
X581790Y146861D01*
X584618Y144032D01*
X587447Y146861D01*
X584618Y149689D01*
D02*
G37*
G36*
X576118Y158189D02*
X573290Y155361D01*
X576118Y152533D01*
X578947Y155361D01*
X576118Y158189D01*
D02*
G37*
G36*
X580361Y153947D02*
X577533Y151118D01*
X580361Y148290D01*
X583189Y151118D01*
X580361Y153947D01*
D02*
G37*
G36*
X509639Y143947D02*
X506811Y141118D01*
X509639Y138290D01*
X512467Y141118D01*
X509639Y143947D01*
D02*
G37*
G36*
X588861Y145447D02*
X586032Y142618D01*
X588861Y139790D01*
X591689Y142618D01*
X588861Y145447D01*
D02*
G37*
G36*
X593118Y141189D02*
X590290Y138361D01*
X593118Y135533D01*
X595947Y138361D01*
X593118Y141189D01*
D02*
G37*
G36*
X575346Y182746D02*
X566861Y174260D01*
X576760Y164361D01*
X581180Y168780D01*
X583881D01*
X584616Y167515D01*
X584731Y166802D01*
X581775Y163846D01*
X581068Y163139D01*
X579654Y161725D01*
X577533Y159604D01*
X581068Y156068D01*
X584604Y152533D01*
X586725Y154654D01*
X587432Y155361D01*
X588846Y156775D01*
X593297Y161226D01*
X595577Y160677D01*
X595584Y160655D01*
X590275Y155346D01*
X589568Y154639D01*
X588154Y153225D01*
X586032Y151103D01*
X589568Y147568D01*
X593103Y144032D01*
X595225Y146154D01*
X595932Y146861D01*
X597346Y148275D01*
X601786Y152715D01*
X604071Y152181D01*
X604060Y152132D01*
X598775Y146846D01*
X598068Y146139D01*
X596654Y144725D01*
X594533Y142604D01*
X598068Y139068D01*
X601604Y135533D01*
X603725Y137654D01*
X604432Y138361D01*
X605846Y139775D01*
X612210Y146139D01*
X611517Y146833D01*
X612946Y148262D01*
X613446Y148871D01*
X613817Y149566D01*
X614046Y150320D01*
X614123Y151104D01*
Y151435D01*
X614514Y152165D01*
X614785Y153060D01*
X614877Y153991D01*
X614785Y154923D01*
X614514Y155818D01*
X614073Y156643D01*
X613479Y157366D01*
X612756Y157960D01*
X611931Y158401D01*
X611035Y158673D01*
X610104Y158764D01*
X609173Y158673D01*
X608453Y158454D01*
X608065Y158507D01*
X606341Y159369D01*
X606223Y159518D01*
X605941Y160487D01*
X606028Y160650D01*
X606300Y161546D01*
X606392Y162477D01*
X606300Y163408D01*
X606028Y164303D01*
X605587Y165128D01*
X604994Y165852D01*
X604271Y166445D01*
X603445Y166886D01*
X602550Y167158D01*
X601619Y167250D01*
X600882Y167177D01*
X600047Y167799D01*
X599869Y167976D01*
X599248Y168811D01*
X599321Y169548D01*
X599229Y170479D01*
X598957Y171374D01*
X598516Y172199D01*
X597923Y172923D01*
X597199Y173516D01*
X596374Y173957D01*
X595479Y174229D01*
X594548Y174321D01*
X593811Y174248D01*
X592976Y174870D01*
X592799Y175047D01*
X592177Y175882D01*
X592250Y176619D01*
X592158Y177550D01*
X591886Y178445D01*
X591445Y179270D01*
X590852Y179994D01*
X590128Y180587D01*
X589303Y181028D01*
X588408Y181300D01*
X587477Y181392D01*
X586545Y181300D01*
X585650Y181028D01*
X584825Y180587D01*
X584102Y179994D01*
X582434Y178326D01*
X579766D01*
X575346Y182746D01*
D02*
G37*
G36*
X513882Y148189D02*
X511053Y145361D01*
X513882Y142533D01*
X516710Y145361D01*
X513882Y148189D01*
D02*
G37*
G36*
X495553Y164421D02*
X494622Y164329D01*
X493726Y164058D01*
X492901Y163617D01*
X492178Y163023D01*
X491584Y162300D01*
X491143Y161475D01*
X490872Y160579D01*
X490780Y159648D01*
X490872Y158717D01*
X491143Y157822D01*
X491584Y156996D01*
X492178Y156273D01*
X492901Y155680D01*
X493726Y155239D01*
X493983Y155161D01*
X494951Y153300D01*
X494790Y153139D01*
X501154Y146775D01*
X501861Y146068D01*
X503275Y144654D01*
X505396Y142533D01*
X508932Y146068D01*
X512467Y149604D01*
X510346Y151725D01*
X509639Y152432D01*
X508225Y153846D01*
X501861Y160210D01*
X501861D01*
X500040Y161218D01*
X499962Y161475D01*
X499521Y162300D01*
X498928Y163023D01*
X498204Y163617D01*
X497379Y164058D01*
X496484Y164329D01*
X495553Y164421D01*
D02*
G37*
G36*
X535139Y169447D02*
X532311Y166618D01*
X535139Y163790D01*
X537967Y166618D01*
X535139Y169447D01*
D02*
G37*
G36*
X504038Y172906D02*
X503107Y172815D01*
X502211Y172543D01*
X501386Y172102D01*
X500663Y171509D01*
X500070Y170785D01*
X499628Y169960D01*
X499357Y169065D01*
X499265Y168134D01*
X499357Y167202D01*
X499628Y166307D01*
X500070Y165482D01*
X500663Y164758D01*
X501386Y164165D01*
X502211Y163724D01*
X503107Y163452D01*
X504038Y163361D01*
X504969Y163452D01*
X505865Y163724D01*
X506690Y164165D01*
X507413Y164758D01*
X508007Y165482D01*
X508448Y166307D01*
X508719Y167202D01*
X508811Y168134D01*
X508719Y169065D01*
X508448Y169960D01*
X508007Y170785D01*
X507413Y171509D01*
X506690Y172102D01*
X505865Y172543D01*
X504969Y172815D01*
X504038Y172906D01*
D02*
G37*
G36*
X539382Y173689D02*
X536553Y170861D01*
X539382Y168032D01*
X542210Y170861D01*
X539382Y173689D01*
D02*
G37*
G36*
X564740Y172139D02*
X561204Y168603D01*
X565447Y164361D01*
X568982Y167896D01*
X564740Y172139D01*
D02*
G37*
G36*
X565447Y161532D02*
X561911Y157997D01*
X566154Y153754D01*
X569689Y157290D01*
X565447Y161532D01*
D02*
G37*
G36*
X570396Y166482D02*
X566861Y162947D01*
X571104Y158704D01*
X574639Y162240D01*
X570396Y166482D01*
D02*
G37*
G36*
X559790Y167189D02*
X556254Y163654D01*
X560497Y159411D01*
X564033Y162947D01*
X559790Y167189D01*
D02*
G37*
G36*
X724000Y113773D02*
X723069Y113681D01*
X722173Y113410D01*
X721348Y112969D01*
X720625Y112375D01*
X720031Y111652D01*
X719590Y110827D01*
X719319Y109931D01*
X719227Y109000D01*
X719319Y108069D01*
X719590Y107174D01*
X720031Y106348D01*
X720625Y105625D01*
X721348Y105031D01*
X722173Y104590D01*
X723069Y104319D01*
X724000Y104227D01*
X724931Y104319D01*
X725826Y104590D01*
X726652Y105031D01*
X727375Y105625D01*
X727969Y106348D01*
X728410Y107174D01*
X728681Y108069D01*
X728773Y109000D01*
X728681Y109931D01*
X728410Y110827D01*
X727969Y111652D01*
X727375Y112375D01*
X726652Y112969D01*
X725826Y113410D01*
X724931Y113681D01*
X724000Y113773D01*
D02*
G37*
G36*
X905700Y153579D02*
X904209Y153462D01*
X902755Y153113D01*
X901374Y152541D01*
X900099Y151759D01*
X898962Y150788D01*
X897990Y149651D01*
X897209Y148376D01*
X896637Y146995D01*
X896288Y145541D01*
X896171Y144050D01*
X896288Y142559D01*
X896637Y141105D01*
X897176Y139805D01*
X893496Y136126D01*
X888100D01*
X887317Y136023D01*
X886587Y135721D01*
X885960Y135240D01*
X879860Y129140D01*
X879380Y128513D01*
X879077Y127783D01*
X878974Y127000D01*
Y114253D01*
X876981Y112261D01*
X875455Y112535D01*
X874477Y114397D01*
X874681Y115069D01*
X874773Y116000D01*
X874681Y116931D01*
X874410Y117826D01*
X873969Y118652D01*
X873375Y119375D01*
X872652Y119969D01*
X871827Y120410D01*
X870931Y120681D01*
X870000Y120773D01*
X869069Y120681D01*
X868174Y120410D01*
X867348Y119969D01*
X866625Y119375D01*
X866031Y118652D01*
X865590Y117826D01*
X865319Y116931D01*
X865227Y116000D01*
X865319Y115069D01*
X865590Y114173D01*
X865669Y114026D01*
X864872Y112327D01*
X864529Y112026D01*
X831253D01*
X829026Y114253D01*
Y121858D01*
X831026Y122359D01*
X831031Y122348D01*
X831625Y121625D01*
X832348Y121031D01*
X833174Y120590D01*
X834069Y120319D01*
X835000Y120227D01*
X835931Y120319D01*
X836826Y120590D01*
X837652Y121031D01*
X838375Y121625D01*
X838969Y122348D01*
X839410Y123174D01*
X839681Y124069D01*
X839773Y125000D01*
X839681Y125931D01*
X839410Y126826D01*
X838969Y127652D01*
X838503Y128219D01*
X838375Y128492D01*
Y130508D01*
X838503Y130781D01*
X838969Y131348D01*
X839410Y132174D01*
X839681Y133069D01*
X839773Y134000D01*
X839681Y134931D01*
X839410Y135827D01*
X838969Y136652D01*
X838375Y137375D01*
X837652Y137969D01*
X836826Y138410D01*
X835931Y138681D01*
X835000Y138773D01*
X834069Y138681D01*
X833174Y138410D01*
X832348Y137969D01*
X831625Y137375D01*
X831031Y136652D01*
X830590Y135827D01*
X830319Y134931D01*
X830254Y134276D01*
X826550D01*
X825767Y134173D01*
X825037Y133870D01*
X824411Y133390D01*
X820360Y129339D01*
X819880Y128713D01*
X819577Y127983D01*
X819474Y127200D01*
Y111550D01*
X819577Y110767D01*
X819880Y110037D01*
X820360Y109411D01*
X821695Y108076D01*
X821860Y107860D01*
X826360Y103360D01*
X826987Y102879D01*
X827717Y102577D01*
X828500Y102474D01*
X879450D01*
X880233Y102577D01*
X880963Y102879D01*
X881589Y103360D01*
X882089Y103860D01*
X882089Y103860D01*
X886140Y107911D01*
X886140Y107911D01*
X887640Y109411D01*
X888120Y110037D01*
X888423Y110767D01*
X888526Y111550D01*
Y124297D01*
X890803Y126574D01*
X893497D01*
X897176Y122895D01*
X896637Y121595D01*
X896288Y120141D01*
X896171Y118650D01*
X896288Y117159D01*
X896637Y115705D01*
X897209Y114324D01*
X897990Y113049D01*
X898962Y111912D01*
X900099Y110941D01*
X901374Y110159D01*
X902755Y109587D01*
X904209Y109238D01*
X905700Y109121D01*
X907191Y109238D01*
X908645Y109587D01*
X910026Y110159D01*
X911301Y110941D01*
X912438Y111912D01*
X913409Y113049D01*
X914191Y114324D01*
X914763Y115705D01*
X915112Y117159D01*
X915229Y118650D01*
X915112Y120141D01*
X914763Y121595D01*
X914191Y122976D01*
X913409Y124251D01*
X912438Y125388D01*
X911301Y126359D01*
X910026Y127141D01*
X908645Y127713D01*
X907191Y128062D01*
X905700Y128179D01*
X904209Y128062D01*
X902755Y127713D01*
X901455Y127174D01*
X897279Y131350D01*
X901455Y135526D01*
X902755Y134987D01*
X904209Y134638D01*
X905700Y134521D01*
X907191Y134638D01*
X908645Y134987D01*
X910026Y135559D01*
X911301Y136341D01*
X912438Y137312D01*
X913409Y138449D01*
X914191Y139724D01*
X914763Y141105D01*
X915112Y142559D01*
X915229Y144050D01*
X915112Y145541D01*
X914763Y146995D01*
X914191Y148376D01*
X913409Y149651D01*
X912438Y150788D01*
X911301Y151759D01*
X910026Y152541D01*
X908645Y153113D01*
X907191Y153462D01*
X905700Y153579D01*
D02*
G37*
G36*
X905000Y64500D02*
X901000D01*
Y60500D01*
X905000D01*
Y64500D01*
D02*
G37*
G36*
X911000D02*
X907000D01*
Y60500D01*
X911000D01*
Y64500D01*
D02*
G37*
G36*
X963100Y46550D02*
X951138D01*
X951184Y45849D01*
X951516Y44178D01*
X952064Y42564D01*
X952818Y41036D01*
X953764Y39619D01*
X954888Y38338D01*
X956169Y37214D01*
X957586Y36267D01*
X959114Y35514D01*
X960728Y34966D01*
X962400Y34634D01*
X963100Y34588D01*
Y46550D01*
D02*
G37*
G36*
X836000Y86773D02*
X835069Y86681D01*
X834174Y86410D01*
X833348Y85969D01*
X832625Y85375D01*
X832031Y84652D01*
X831590Y83827D01*
X831319Y82931D01*
X831227Y82000D01*
X831319Y81069D01*
X831590Y80173D01*
X832031Y79348D01*
X832625Y78625D01*
X833348Y78031D01*
X834174Y77590D01*
X835069Y77319D01*
X836000Y77227D01*
X836931Y77319D01*
X837827Y77590D01*
X838652Y78031D01*
X839375Y78625D01*
X839969Y79348D01*
X840410Y80173D01*
X840681Y81069D01*
X840773Y82000D01*
X840681Y82931D01*
X840410Y83827D01*
X839969Y84652D01*
X839375Y85375D01*
X838652Y85969D01*
X837827Y86410D01*
X836931Y86681D01*
X836000Y86773D01*
D02*
G37*
G36*
X905700Y102779D02*
X904209Y102662D01*
X902755Y102313D01*
X901374Y101741D01*
X900099Y100959D01*
X898962Y99988D01*
X897991Y98851D01*
X897209Y97576D01*
X896637Y96195D01*
X896288Y94741D01*
X896171Y93250D01*
X896288Y91759D01*
X896637Y90305D01*
X897209Y88924D01*
X897991Y87649D01*
X898962Y86512D01*
X900099Y85541D01*
X901374Y84759D01*
X902483Y84300D01*
Y81500D01*
X901000D01*
X901000Y71000D01*
X901000Y69500D01*
Y66500D01*
X911000D01*
X911000Y71000D01*
X911000Y72500D01*
Y81500D01*
X909517D01*
Y84548D01*
X910026Y84759D01*
X911301Y85541D01*
X912438Y86512D01*
X913410Y87649D01*
X914191Y88924D01*
X914763Y90305D01*
X915112Y91759D01*
X915229Y93250D01*
X915112Y94741D01*
X914763Y96195D01*
X914191Y97576D01*
X913410Y98851D01*
X912438Y99988D01*
X911301Y100959D01*
X910026Y101741D01*
X908645Y102313D01*
X907191Y102662D01*
X905700Y102779D01*
D02*
G37*
G36*
X880000Y198273D02*
X879069Y198181D01*
X878174Y197910D01*
X877348Y197469D01*
X876625Y196875D01*
X876031Y196152D01*
X875590Y195326D01*
X875319Y194431D01*
X875227Y193500D01*
X875319Y192569D01*
X875590Y191674D01*
X876031Y190848D01*
X876296Y190526D01*
X875879Y189135D01*
X875421Y188526D01*
X861550D01*
X860767Y188423D01*
X860037Y188120D01*
X859411Y187640D01*
X858911Y187140D01*
X858911Y187140D01*
X848860Y177089D01*
X848380Y176463D01*
X848077Y175733D01*
X847974Y174950D01*
Y161253D01*
X846997Y160276D01*
X839746D01*
X839681Y160931D01*
X839410Y161826D01*
X838969Y162652D01*
X838375Y163375D01*
X837652Y163969D01*
X836826Y164410D01*
X835931Y164681D01*
X835000Y164773D01*
X834069Y164681D01*
X833174Y164410D01*
X832348Y163969D01*
X831625Y163375D01*
X831031Y162652D01*
X830590Y161826D01*
X830319Y160931D01*
X830227Y160000D01*
X830319Y159069D01*
X830590Y158174D01*
X831031Y157348D01*
X831497Y156781D01*
X831625Y156508D01*
Y154492D01*
X831497Y154219D01*
X831031Y153652D01*
X830590Y152826D01*
X830319Y151931D01*
X830227Y151000D01*
X830319Y150069D01*
X830590Y149173D01*
X831031Y148348D01*
X831625Y147625D01*
X832348Y147031D01*
X833174Y146590D01*
X834069Y146319D01*
X835000Y146227D01*
X835931Y146319D01*
X836826Y146590D01*
X837652Y147031D01*
X838375Y147625D01*
X838969Y148348D01*
X839410Y149173D01*
X839681Y150069D01*
X839746Y150724D01*
X849700D01*
X850483Y150827D01*
X851213Y151130D01*
X851839Y151610D01*
X856640Y156411D01*
X857121Y157037D01*
X857423Y157767D01*
X857526Y158550D01*
Y172247D01*
X861140Y175860D01*
X861140Y175860D01*
X864253Y178974D01*
X874529D01*
X874872Y178673D01*
X875669Y176974D01*
X875590Y176826D01*
X875319Y175931D01*
X875227Y175000D01*
X875319Y174069D01*
X875590Y173174D01*
X876031Y172348D01*
X876497Y171781D01*
X876625Y171508D01*
Y169492D01*
X876497Y169219D01*
X876031Y168652D01*
X875590Y167826D01*
X875319Y166931D01*
X875227Y166000D01*
X875319Y165069D01*
X875590Y164174D01*
X876031Y163348D01*
X876625Y162625D01*
X877348Y162031D01*
X878174Y161590D01*
X879069Y161319D01*
X880000Y161227D01*
X880931Y161319D01*
X881826Y161590D01*
X882652Y162031D01*
X883375Y162625D01*
X883969Y163348D01*
X884410Y164174D01*
X884681Y165069D01*
X884773Y166000D01*
X884681Y166931D01*
X884410Y167826D01*
X883969Y168652D01*
X883503Y169219D01*
X883375Y169492D01*
Y171508D01*
X883503Y171781D01*
X883969Y172348D01*
X884410Y173174D01*
X884681Y174069D01*
X884773Y175000D01*
X884681Y175931D01*
X884410Y176826D01*
X884331Y176974D01*
X885128Y178673D01*
X885471Y178974D01*
X899232D01*
X899812Y177760D01*
X899882Y176974D01*
X898962Y176188D01*
X897990Y175051D01*
X897209Y173776D01*
X896637Y172395D01*
X896288Y170941D01*
X896249Y170450D01*
X905700D01*
X915151D01*
X915112Y170941D01*
X914763Y172395D01*
X914191Y173776D01*
X913409Y175051D01*
X912438Y176188D01*
X911518Y176974D01*
X911588Y177760D01*
X912168Y178974D01*
X937797D01*
X952974Y163797D01*
Y147500D01*
X949000D01*
Y142500D01*
X948000D01*
Y141500D01*
X943000D01*
Y137500D01*
X943000D01*
Y137017D01*
X941752Y135017D01*
X939864D01*
X939591Y135676D01*
X938809Y136951D01*
X937838Y138088D01*
X936701Y139059D01*
X935426Y139841D01*
X934045Y140413D01*
X932591Y140762D01*
X931100Y140879D01*
X929609Y140762D01*
X928155Y140413D01*
X926774Y139841D01*
X925499Y139059D01*
X924362Y138088D01*
X923391Y136951D01*
X922609Y135676D01*
X922037Y134295D01*
X921688Y132841D01*
X921571Y131350D01*
X921688Y129859D01*
X922037Y128405D01*
X922609Y127024D01*
X923391Y125749D01*
X924362Y124612D01*
X925499Y123641D01*
X926774Y122859D01*
X928155Y122287D01*
X929609Y121938D01*
X931100Y121821D01*
X932591Y121938D01*
X934045Y122287D01*
X935426Y122859D01*
X936701Y123641D01*
X937838Y124612D01*
X938809Y125749D01*
X939591Y127024D01*
X939988Y127983D01*
X943000D01*
Y126500D01*
X952974D01*
Y100253D01*
X950747Y98026D01*
X943303D01*
X939981Y101349D01*
X940359Y102115D01*
X940780Y103356D01*
X941036Y104642D01*
X941121Y105950D01*
X941036Y107258D01*
X940780Y108544D01*
X940359Y109785D01*
X939779Y110961D01*
X939051Y112051D01*
X938186Y113036D01*
X937201Y113901D01*
X936111Y114629D01*
X934935Y115209D01*
X933694Y115630D01*
X932408Y115886D01*
X931100Y115971D01*
X929792Y115886D01*
X928506Y115630D01*
X927265Y115209D01*
X926089Y114629D01*
X924999Y113901D01*
X924014Y113036D01*
X923149Y112051D01*
X922421Y110961D01*
X921841Y109785D01*
X921420Y108544D01*
X921164Y107258D01*
X921078Y105950D01*
X921164Y104642D01*
X921420Y103356D01*
X921841Y102115D01*
X922421Y100939D01*
X923149Y99849D01*
X924014Y98864D01*
X924999Y97999D01*
X926089Y97271D01*
X927265Y96691D01*
X928506Y96270D01*
X929792Y96014D01*
X931100Y95929D01*
X932408Y96014D01*
X933694Y96270D01*
X934935Y96691D01*
X935701Y97069D01*
X939521Y93250D01*
X936321Y90050D01*
X921600D01*
Y71050D01*
X940600D01*
Y85771D01*
X943303Y88474D01*
X953450D01*
X954233Y88577D01*
X954963Y88879D01*
X955589Y89360D01*
X961640Y95411D01*
X962121Y96037D01*
X962423Y96767D01*
X962526Y97550D01*
Y166500D01*
X962423Y167283D01*
X962121Y168013D01*
X961640Y168640D01*
X942640Y187640D01*
X942013Y188120D01*
X941283Y188423D01*
X940500Y188526D01*
X884579D01*
X884121Y189135D01*
X883704Y190526D01*
X883969Y190848D01*
X884410Y191674D01*
X884681Y192569D01*
X884773Y193500D01*
X884681Y194431D01*
X884410Y195326D01*
X883969Y196152D01*
X883375Y196875D01*
X882652Y197469D01*
X881826Y197910D01*
X880931Y198181D01*
X880000Y198273D01*
D02*
G37*
G36*
X760500Y181000D02*
X755500D01*
Y175000D01*
X760500D01*
Y181000D01*
D02*
G37*
G36*
X753500D02*
X748500D01*
Y175000D01*
X753500D01*
Y181000D01*
D02*
G37*
G36*
X911851Y235000D02*
X903400D01*
Y226549D01*
X903891Y226588D01*
X905345Y226937D01*
X906726Y227509D01*
X908001Y228291D01*
X909138Y229262D01*
X910109Y230399D01*
X910891Y231674D01*
X911463Y233055D01*
X911812Y234509D01*
X911851Y235000D01*
D02*
G37*
G36*
X751000Y212773D02*
X750069Y212681D01*
X749174Y212410D01*
X748348Y211969D01*
X747781Y211503D01*
X747508Y211375D01*
X745492D01*
X745219Y211503D01*
X744652Y211969D01*
X743827Y212410D01*
X742931Y212681D01*
X742000Y212773D01*
X741069Y212681D01*
X740173Y212410D01*
X739348Y211969D01*
X738625Y211375D01*
X738031Y210652D01*
X737590Y209827D01*
X737319Y208931D01*
X737227Y208000D01*
X737319Y207069D01*
X737590Y206173D01*
X738031Y205348D01*
X738625Y204625D01*
X738974Y204338D01*
Y200253D01*
X728860Y190140D01*
X728380Y189513D01*
X728077Y188783D01*
X727974Y188000D01*
Y125000D01*
X728077Y124217D01*
X728380Y123487D01*
X728860Y122860D01*
X732860Y118860D01*
X733487Y118379D01*
X734217Y118077D01*
X735000Y117974D01*
X780747D01*
X802271Y96449D01*
X802227Y96000D01*
X802319Y95069D01*
X802590Y94173D01*
X803031Y93348D01*
X803625Y92625D01*
X804348Y92031D01*
X805173Y91590D01*
X806069Y91319D01*
X807000Y91227D01*
X807931Y91319D01*
X808827Y91590D01*
X809652Y92031D01*
X810375Y92625D01*
X810969Y93348D01*
X811410Y94173D01*
X811681Y95069D01*
X811773Y96000D01*
X811681Y96931D01*
X811410Y97827D01*
X810969Y98652D01*
X810375Y99375D01*
X809652Y99969D01*
X808827Y100410D01*
X807931Y100681D01*
X807000Y100773D01*
X806551Y100729D01*
X784140Y123140D01*
X783513Y123621D01*
X782783Y123923D01*
X782000Y124026D01*
X736253D01*
X734026Y126253D01*
Y186747D01*
X744140Y196860D01*
X744621Y197487D01*
X744923Y198217D01*
X745026Y199000D01*
Y204338D01*
X745219Y204497D01*
X745492Y204625D01*
X747508D01*
X747781Y204497D01*
X748348Y204031D01*
X749174Y203590D01*
X750069Y203319D01*
X751000Y203227D01*
X751931Y203319D01*
X752827Y203590D01*
X753652Y204031D01*
X754375Y204625D01*
X754969Y205348D01*
X755410Y206173D01*
X755681Y207069D01*
X755773Y208000D01*
X755681Y208931D01*
X755410Y209827D01*
X754969Y210652D01*
X754375Y211375D01*
X753652Y211969D01*
X752827Y212410D01*
X751931Y212681D01*
X751000Y212773D01*
D02*
G37*
G36*
X963100Y215412D02*
X962400Y215366D01*
X960728Y215034D01*
X959114Y214486D01*
X957586Y213732D01*
X956169Y212786D01*
X954888Y211662D01*
X953764Y210381D01*
X952818Y208964D01*
X952064Y207436D01*
X951516Y205822D01*
X951184Y204151D01*
X951138Y203450D01*
X963100D01*
Y215412D01*
D02*
G37*
G36*
X901400Y235000D02*
X892949D01*
X892988Y234509D01*
X893337Y233055D01*
X893909Y231674D01*
X894691Y230399D01*
X895662Y229262D01*
X896799Y228291D01*
X898074Y227509D01*
X899455Y226937D01*
X900909Y226588D01*
X901400Y226549D01*
Y235000D01*
D02*
G37*
G36*
X758500Y151000D02*
X754500D01*
Y147000D01*
X758500D01*
Y151000D01*
D02*
G37*
G36*
X931110Y166209D02*
X929619Y166092D01*
X928165Y165743D01*
X926784Y165171D01*
X925509Y164389D01*
X924372Y163418D01*
X923401Y162281D01*
X922619Y161006D01*
X922047Y159625D01*
X921698Y158171D01*
X921581Y156680D01*
X921698Y155189D01*
X922047Y153735D01*
X922619Y152354D01*
X923401Y151079D01*
X924372Y149942D01*
X925509Y148971D01*
X926784Y148189D01*
X928165Y147617D01*
X929619Y147268D01*
X931110Y147151D01*
X932601Y147268D01*
X934055Y147617D01*
X935436Y148189D01*
X936711Y148971D01*
X937848Y149942D01*
X938819Y151079D01*
X939601Y152354D01*
X940173Y153735D01*
X940522Y155189D01*
X940639Y156680D01*
X940522Y158171D01*
X940173Y159625D01*
X939601Y161006D01*
X938819Y162281D01*
X937848Y163418D01*
X936711Y164389D01*
X935436Y165171D01*
X934055Y165743D01*
X932601Y166092D01*
X931110Y166209D01*
D02*
G37*
G36*
X880000Y156273D02*
X879069Y156181D01*
X878174Y155910D01*
X877348Y155469D01*
X876625Y154875D01*
X876031Y154152D01*
X875590Y153327D01*
X875319Y152431D01*
X875227Y151500D01*
X875319Y150569D01*
X875590Y149674D01*
X876031Y148848D01*
X876625Y148125D01*
X877348Y147531D01*
X878174Y147090D01*
X879069Y146819D01*
X880000Y146727D01*
X880931Y146819D01*
X881826Y147090D01*
X882652Y147531D01*
X883375Y148125D01*
X883969Y148848D01*
X884410Y149674D01*
X884681Y150569D01*
X884773Y151500D01*
X884681Y152431D01*
X884410Y153327D01*
X883969Y154152D01*
X883375Y154875D01*
X882652Y155469D01*
X881826Y155910D01*
X880931Y156181D01*
X880000Y156273D01*
D02*
G37*
G36*
X775500Y151000D02*
Y151000D01*
X765000Y151000D01*
X763500Y151000D01*
X760500D01*
Y146000D01*
Y141000D01*
X765000Y141000D01*
X766500Y141000D01*
X775500D01*
Y141000D01*
X777149Y141848D01*
X777500Y141950D01*
X778174Y141590D01*
X779069Y141319D01*
X780000Y141227D01*
X780931Y141319D01*
X781826Y141590D01*
X782652Y142031D01*
X783375Y142625D01*
X783969Y143348D01*
X784410Y144173D01*
X784681Y145069D01*
X784773Y146000D01*
X784681Y146931D01*
X784410Y147827D01*
X783969Y148652D01*
X783375Y149375D01*
X782652Y149969D01*
X781826Y150410D01*
X780931Y150681D01*
X780000Y150773D01*
X779069Y150681D01*
X778174Y150410D01*
X777500Y150050D01*
X777149Y150152D01*
X775500Y151000D01*
X775500Y151000D01*
D02*
G37*
G36*
X947000Y147500D02*
X943000D01*
Y143500D01*
X947000D01*
Y147500D01*
D02*
G37*
G36*
X758500Y145000D02*
X754500D01*
Y141000D01*
X758500D01*
Y145000D01*
D02*
G37*
G36*
X775500Y181000D02*
X763500D01*
Y167000D01*
X771852D01*
X772766Y165000D01*
X771992Y164000D01*
X765000Y164000D01*
X763500Y164000D01*
X760500D01*
Y159000D01*
Y154000D01*
X765000Y154000D01*
X766500Y154000D01*
X775500D01*
Y154753D01*
X775730Y154822D01*
X776512Y155240D01*
X777197Y155803D01*
X782167Y160772D01*
X782652Y161031D01*
X783375Y161625D01*
X783969Y162348D01*
X784410Y163174D01*
X784681Y164069D01*
X784773Y165000D01*
X784681Y165931D01*
X784522Y166457D01*
Y172000D01*
X784435Y172882D01*
X784178Y173730D01*
X783760Y174512D01*
X783197Y175197D01*
X783197Y175198D01*
X781197Y177197D01*
X780512Y177760D01*
X779730Y178178D01*
X778882Y178435D01*
X778000Y178522D01*
X778000Y178522D01*
X775500D01*
Y181000D01*
D02*
G37*
G36*
X758500Y164000D02*
X754500D01*
Y160000D01*
X758500D01*
Y164000D01*
D02*
G37*
G36*
X760500Y173000D02*
X755500D01*
Y167000D01*
X760500D01*
Y173000D01*
D02*
G37*
G36*
X753500D02*
X748500D01*
Y167000D01*
X753500D01*
Y173000D01*
D02*
G37*
G36*
X758500Y158000D02*
X754500D01*
Y154000D01*
X758500D01*
Y158000D01*
D02*
G37*
G36*
X915151Y168450D02*
X906700D01*
Y159999D01*
X907191Y160038D01*
X908645Y160387D01*
X910026Y160959D01*
X911301Y161741D01*
X912438Y162712D01*
X913409Y163849D01*
X914191Y165124D01*
X914763Y166505D01*
X915112Y167959D01*
X915151Y168450D01*
D02*
G37*
G36*
X904700D02*
X896249D01*
X896288Y167959D01*
X896637Y166505D01*
X897209Y165124D01*
X897990Y163849D01*
X898962Y162712D01*
X900099Y161741D01*
X901374Y160959D01*
X902755Y160387D01*
X904209Y160038D01*
X904700Y159999D01*
Y168450D01*
D02*
G37*
%LPD*%
D11*
X340500Y91000D02*
D03*
X329500D02*
D03*
X340500Y104000D02*
D03*
X329500D02*
D03*
X759500Y146000D02*
D03*
X770500D02*
D03*
X759500Y159000D02*
D03*
X770500D02*
D03*
D12*
X152000Y107500D02*
D03*
Y118500D02*
D03*
X194000Y184500D02*
D03*
Y173500D02*
D03*
X906000Y65500D02*
D03*
Y76500D02*
D03*
X948000Y142500D02*
D03*
Y131500D02*
D03*
D14*
X609500Y108000D02*
D03*
X601722Y115778D02*
D03*
X556889Y55611D02*
D03*
X549111Y63389D02*
D03*
X490611Y141889D02*
D03*
X498389Y134111D02*
D03*
X535861Y187389D02*
D03*
X543639Y179611D02*
D03*
X582389Y81111D02*
D03*
X574611Y88889D02*
D03*
X566889Y65611D02*
D03*
X559111Y73389D02*
D03*
X501861Y153139D02*
D03*
X509639Y145361D02*
D03*
X527361Y178639D02*
D03*
X535139Y170861D02*
D03*
X604389Y94611D02*
D03*
X596611Y102389D02*
D03*
X595389Y85861D02*
D03*
X587611Y93639D02*
D03*
D18*
X511861Y86861D02*
D03*
X519639Y94639D02*
D03*
X490611Y108111D02*
D03*
X498389Y115889D02*
D03*
X588139Y163139D02*
D03*
X580361Y155361D02*
D03*
X605139Y146139D02*
D03*
X597361Y138361D02*
D03*
X520361Y78361D02*
D03*
X528139Y86139D02*
D03*
X473861Y124861D02*
D03*
X481639Y132639D02*
D03*
X596639Y154639D02*
D03*
X588861Y146861D02*
D03*
X617889Y133389D02*
D03*
X610111Y125611D02*
D03*
D24*
X330500Y76000D02*
D03*
X345500D02*
D03*
X769500Y174000D02*
D03*
X754500D02*
D03*
D31*
X152000Y118500D02*
X168750D01*
X168900Y118650D01*
X194000Y157050D02*
Y173500D01*
Y157050D02*
X194300Y156750D01*
X320000Y104000D02*
X329500D01*
X770500Y146000D02*
X780000D01*
X906000Y76500D02*
Y92950D01*
X905700Y93250D02*
X906000Y92950D01*
X931250Y131500D02*
X948000D01*
X931100Y131350D02*
X931250Y131500D01*
D34*
X596669Y48632D02*
X599497Y51461D01*
X596669Y34490D02*
Y48632D01*
Y34490D02*
X604801Y26359D01*
X592073Y50400D02*
X595389Y53717D01*
X592073Y33430D02*
Y50400D01*
Y33430D02*
X602679Y22823D01*
X704000Y27000D02*
Y34000D01*
X699000Y22000D02*
X704000Y27000D01*
X669000Y22000D02*
X699000D01*
X664000Y27000D02*
X669000Y22000D01*
X659000Y27000D02*
X664000D01*
X713000Y18000D02*
X721000Y26000D01*
X648500Y18000D02*
X713000D01*
X636000Y30500D02*
X648500Y18000D01*
X729000Y13000D02*
X739000Y23000D01*
X648000Y13000D02*
X729000D01*
X635000Y26000D02*
X648000Y13000D01*
X674000Y26000D02*
X683000D01*
X665000Y35000D02*
X674000Y26000D01*
X686000Y29000D02*
Y34000D01*
X683000Y26000D02*
X686000Y29000D01*
X659000Y35000D02*
X665000D01*
X589952Y109049D02*
X596611Y102389D01*
X589952Y109049D02*
Y109090D01*
X581113Y100137D02*
X587611Y93639D01*
X581113Y100137D02*
Y100251D01*
X721000Y26000D02*
Y34000D01*
X739000Y23000D02*
Y34000D01*
X627000Y26000D02*
X635000D01*
X623823Y22823D02*
X627000Y26000D01*
X625500Y30500D02*
X636000D01*
X621359Y26359D02*
X625500Y30500D01*
X602679Y22823D02*
X623823D01*
X604801Y26359D02*
X621359D01*
X595389Y53717D02*
Y85861D01*
X605154Y93887D02*
X608336Y90705D01*
X599497Y51461D02*
Y77624D01*
X608336Y86463D01*
Y90705D01*
X519528Y19000D02*
X633000D01*
X494492Y44036D02*
X519528Y19000D01*
X612225Y46511D02*
X616468Y42269D01*
X639731D01*
X641000Y41000D01*
X812000Y218000D02*
X822000Y208000D01*
X702000Y218000D02*
X812000D01*
X691000Y229000D02*
X702000Y218000D01*
X812000Y223000D02*
X821000Y232000D01*
X709000Y223000D02*
X812000D01*
X697000Y235000D02*
X709000Y223000D01*
X400000Y94000D02*
Y107000D01*
Y94000D02*
X412000Y82000D01*
X395000Y118000D02*
X400000D01*
X396500Y112500D02*
X408000D01*
X877000Y222000D02*
Y232000D01*
X863000Y208000D02*
X877000Y222000D01*
X822000Y208000D02*
X863000D01*
X653000Y229000D02*
X691000D01*
X645813Y221813D02*
X653000Y229000D01*
X645813Y165659D02*
Y221813D01*
X650000Y235000D02*
X697000D01*
X639803Y224802D02*
X650000Y235000D01*
X821000Y232000D02*
X851600D01*
X639803Y171669D02*
Y224802D01*
X732000Y71000D02*
X742000D01*
X729000Y74000D02*
X732000Y71000D01*
X729000Y74000D02*
Y90000D01*
X725000Y94000D02*
X729000Y90000D01*
X700000Y94000D02*
X725000D01*
X678000Y116000D02*
X700000Y94000D01*
X667026Y105555D02*
X677446D01*
X700000Y83000D01*
X718000D01*
X722000Y79000D01*
Y71000D02*
Y79000D01*
X712000Y71000D02*
Y76000D01*
X710000Y78000D02*
X712000Y76000D01*
X694000Y78000D02*
X710000D01*
X667380Y91766D02*
X688146Y71000D01*
X702000D01*
X673163Y98837D02*
X694000Y78000D01*
X660309Y98837D02*
X673163D01*
X612933Y77624D02*
X685309Y150000D01*
X612933Y65603D02*
Y77624D01*
Y65603D02*
X620004Y58532D01*
X623893Y77270D02*
X684122Y137500D01*
X623893Y70199D02*
Y77270D01*
Y70199D02*
X627782Y66310D01*
X617882Y76917D02*
X683966Y143000D01*
X617882Y68432D02*
Y76917D01*
Y68432D02*
X629196Y57118D01*
X685309Y150000D02*
X692000D01*
X683966Y143000D02*
X700000D01*
X684122Y137500D02*
X692000D01*
X629196Y76917D02*
X684279Y132000D01*
X629196Y72674D02*
Y76917D01*
Y72674D02*
X636974Y64896D01*
X684279Y132000D02*
X700000D01*
X759000Y56000D02*
X770000Y67000D01*
X661426Y56000D02*
X759000D01*
X644752Y72674D02*
X661426Y56000D01*
X763000Y51000D02*
X775000Y63000D01*
X658648Y51000D02*
X763000D01*
X635560Y74088D02*
X658648Y51000D01*
X770000Y46000D02*
X785000Y61000D01*
X624757Y46000D02*
X770000D01*
X621418Y49340D02*
X624757Y46000D01*
X775000Y41000D02*
X790000Y56000D01*
X641000Y41000D02*
X775000D01*
X746000Y90000D02*
Y97000D01*
X752500Y82000D02*
Y93500D01*
X759000Y90000D02*
X770000Y79000D01*
X763000Y97000D02*
X775000Y85000D01*
X756000Y97000D02*
X763000D01*
X752500Y93500D02*
X756000Y97000D01*
X775000Y63000D02*
Y85000D01*
X770000Y67000D02*
Y79000D01*
X785000Y61000D02*
Y83000D01*
X790000Y56000D02*
Y87000D01*
X766000Y102000D02*
X785000Y83000D01*
X770000Y107000D02*
X790000Y87000D01*
X612225Y46511D02*
Y50754D01*
X745000Y107000D02*
X770000D01*
X740000Y102000D02*
X745000Y107000D01*
X740000Y82000D02*
Y102000D01*
X751000Y102000D02*
X766000D01*
X746000Y97000D02*
X751000Y102000D01*
X393000Y109000D02*
X396500Y112500D01*
X388000Y111000D02*
X395000Y118000D01*
X388000Y89000D02*
Y111000D01*
Y89000D02*
X409000Y68000D01*
X393000Y92000D02*
Y109000D01*
X440724Y73000D02*
X447823Y80099D01*
X412000Y73000D02*
X440724D01*
X393000Y92000D02*
X412000Y73000D01*
X409000Y68000D02*
X443503D01*
X408000Y95000D02*
X415123Y87877D01*
X408000Y95000D02*
Y100000D01*
X415123Y87877D02*
X440045D01*
X412000Y82000D02*
X441946D01*
X443503Y68000D02*
X457015Y81513D01*
X441946Y82000D02*
X449237Y89291D01*
X445553Y178000D02*
X455894Y167659D01*
X431000Y178000D02*
X445553D01*
X409000Y156000D02*
X431000Y178000D01*
X358000Y156000D02*
X409000D01*
X431244Y164244D02*
X443752D01*
X415000Y148000D02*
X431244Y164244D01*
X345000Y148000D02*
X415000D01*
X341000Y152000D02*
X345000Y148000D01*
X354000Y160000D02*
X358000Y156000D01*
X448331Y183000D02*
X454480Y176851D01*
X426000Y183000D02*
X448331D01*
X411000Y168000D02*
X426000Y183000D01*
X360000Y168000D02*
X411000D01*
X442775Y173000D02*
X446702Y169073D01*
X433000Y173000D02*
X442775D01*
X412000Y152000D02*
X433000Y173000D01*
X351000Y152000D02*
X412000D01*
X347500Y155500D02*
X351000Y152000D01*
X347500Y155500D02*
Y168000D01*
X443752Y164244D02*
X448116Y159881D01*
X341000Y152000D02*
Y160000D01*
D35*
X0Y0D02*
Y250000D01*
X1100000D01*
Y0D02*
Y250000D01*
X0Y0D02*
X1100000D01*
X600912Y45804D02*
X605154Y50047D01*
X600912Y36612D02*
Y45804D01*
Y36612D02*
X603033Y34490D01*
X766000Y7000D02*
X774000Y15000D01*
X369000Y7000D02*
X766000D01*
X358000Y18000D02*
X369000Y7000D01*
X605154Y50047D02*
Y76917D01*
X675000Y146762D01*
Y208000D01*
X621418Y38733D02*
X622901Y37250D01*
X613640Y38733D02*
X621418D01*
X609397Y34490D02*
X613640Y38733D01*
X622901Y37250D02*
X638750D01*
X645000Y31000D01*
X603033Y34490D02*
X609397D01*
X940500Y185500D02*
X959500Y166500D01*
X861550Y185500D02*
X940500D01*
X861050Y185000D02*
X861550Y185500D01*
X341250Y52000D02*
X464979D01*
X337000Y47750D02*
X341250Y52000D01*
X337000Y29750D02*
Y47750D01*
X333750Y26500D02*
X337000Y29750D01*
X290750Y26500D02*
X333750D01*
X286500Y10000D02*
Y22250D01*
X282500Y6000D02*
X286500Y10000D01*
X264000Y6000D02*
X282500D01*
X286500Y22250D02*
X290750Y26500D01*
X310000Y233000D02*
X349000D01*
X302000Y241000D02*
X310000Y233000D01*
X239000Y241000D02*
X302000D01*
X391000Y245000D02*
X400000Y236000D01*
X361000Y245000D02*
X391000D01*
X349000Y233000D02*
X361000Y245000D01*
X400000Y225000D02*
Y236000D01*
X270000Y237000D02*
X271500Y235500D01*
X259000Y237000D02*
X270000D01*
X255000Y233000D02*
X259000Y237000D01*
X271500Y231000D02*
Y235500D01*
X215000Y233000D02*
X255000D01*
X210000Y228000D02*
X215000Y233000D01*
X210000Y213750D02*
Y228000D01*
X742000Y199000D02*
Y208000D01*
X731000Y188000D02*
X742000Y199000D01*
X731000Y125000D02*
Y188000D01*
X358000Y18000D02*
Y42000D01*
X956000Y99000D02*
Y165050D01*
X939050Y182000D02*
X956000Y165050D01*
X863000Y182000D02*
X939050D01*
X959500Y97550D02*
Y166500D01*
X854500Y158550D02*
Y173500D01*
X849700Y153750D02*
X854500Y158550D01*
X837750Y153750D02*
X849700D01*
X851000Y160000D02*
Y174950D01*
X848250Y157250D02*
X851000Y160000D01*
X837750Y157250D02*
X848250D01*
X859000Y178000D02*
X859000D01*
X854500Y173500D02*
X859000Y178000D01*
X851000Y174950D02*
X861050Y185000D01*
X861050D01*
X859000Y178000D02*
X863000Y182000D01*
X835000Y160000D02*
X837750Y157250D01*
X835000Y151000D02*
X837750Y153750D01*
X953450Y91500D02*
X959500Y97550D01*
X952000Y95000D02*
X956000Y99000D01*
X942050Y95000D02*
X952000D01*
X931100Y105950D02*
X942050Y95000D01*
X885500Y125550D02*
X889550Y129600D01*
X882000Y127000D02*
X888100Y133100D01*
X942050Y91500D02*
X953450D01*
X931100Y80550D02*
X942050Y91500D01*
X894750Y133100D02*
X905700Y144050D01*
X889550Y129600D02*
X894750D01*
X885500Y111550D02*
Y125550D01*
X888100Y133100D02*
X894750D01*
X882000Y113000D02*
Y127000D01*
X884000Y110050D02*
X885500Y111550D01*
X884000Y110050D02*
Y110050D01*
X879950Y106000D02*
X884000Y110050D01*
X878000Y109000D02*
X882000Y113000D01*
X822500Y127200D02*
X826550Y131250D01*
X822500Y111550D02*
Y127200D01*
Y111550D02*
X824000Y110050D01*
Y110000D02*
Y110050D01*
Y110000D02*
X828500Y105500D01*
X879450D01*
X826000Y113000D02*
Y125750D01*
Y113000D02*
X830000Y109000D01*
X878000D01*
X826000Y125750D02*
X828000Y127750D01*
X879950Y106000D02*
X879950D01*
X879450Y105500D02*
X879950Y106000D01*
X639095Y154698D02*
X646874D01*
X567678Y226116D02*
X639095Y154698D01*
X533736Y226116D02*
X567678D01*
X446055Y138435D02*
X533736Y226116D01*
X446055Y110858D02*
Y138435D01*
Y110858D02*
X475400Y81513D01*
Y62421D02*
Y81513D01*
X464979Y52000D02*
X475400Y62421D01*
X262000Y8000D02*
X264000Y6000D01*
X262000Y8000D02*
Y14000D01*
X646874Y154698D02*
X651823Y159648D01*
X451005Y112979D02*
X480704Y83281D01*
X451005Y112979D02*
Y136314D01*
X536211Y221520D01*
X480704Y60653D02*
Y83281D01*
X536211Y221520D02*
X565203D01*
X639095Y147627D02*
X651823D01*
X565203Y221520D02*
X639095Y147627D01*
X267000Y27000D02*
X271000Y23000D01*
X90000Y27000D02*
X267000D01*
X80000Y37000D02*
X90000Y27000D01*
X265000Y20000D02*
X271000Y14000D01*
X79000Y20000D02*
X265000D01*
X64800Y34200D02*
X79000Y20000D01*
X64800Y34200D02*
Y58700D01*
X64840Y150160D02*
Y165900D01*
Y150160D02*
X80000Y135000D01*
Y37000D02*
Y135000D01*
X464086Y44036D02*
X480704Y60653D01*
X651823Y147627D02*
X657834Y153638D01*
X274000Y125250D02*
Y135050D01*
X268050Y141000D02*
X274000Y135050D01*
X226000Y141000D02*
X268050D01*
X277500Y123800D02*
Y136500D01*
X269500Y144500D02*
X277500Y136500D01*
X224550Y144500D02*
X269500D01*
X215050Y135000D02*
X224550Y144500D01*
X215000Y134950D02*
X215050Y135000D01*
X214500Y124450D02*
Y134450D01*
X218000Y133000D02*
X226000Y141000D01*
X210450Y120400D02*
X214500Y124450D01*
X205250Y120400D02*
X210450D01*
X218000Y123000D02*
Y133000D01*
X211900Y116900D02*
X218000Y123000D01*
X205250Y116900D02*
X211900D01*
X215000Y134950D02*
Y135000D01*
X214500Y134450D02*
X215000Y134950D01*
Y135000D02*
X215050D01*
X247000Y87950D02*
X252300Y93250D01*
X247000Y75000D02*
Y87950D01*
X250500Y86500D02*
X253750Y89750D01*
X252300Y93250D02*
X262250D01*
X265000Y96000D01*
X253750Y89750D02*
X262250D01*
X265000Y87000D01*
X157525Y65525D02*
X158550Y64500D01*
X140500Y82550D02*
X157525Y65525D01*
X250500Y73550D02*
Y86500D01*
X241450Y64500D02*
X250500Y73550D01*
X158550Y64500D02*
X241450D01*
X240000Y68000D02*
X247000Y75000D01*
X157525Y65525D02*
X158550Y64500D01*
X157525Y65525D02*
X157525D01*
X160000Y68000D02*
X240000D01*
X272450Y118750D02*
X277500Y123800D01*
X271000Y122250D02*
X274000Y125250D01*
X267750Y122250D02*
X271000D01*
X265000Y125000D02*
X267750Y122250D01*
Y118750D02*
X272450D01*
X265000Y116000D02*
X267750Y118750D01*
X483178Y43178D02*
Y46158D01*
X464000Y24000D02*
X483178Y43178D01*
Y46158D02*
X487775Y50754D01*
X683711Y62000D02*
X751000D01*
X653591Y92120D02*
X683711Y62000D01*
X665258Y142678D02*
Y208000D01*
X634146Y111565D02*
X665258Y142678D01*
X625660Y111565D02*
X634146D01*
X735000Y121000D02*
X782000D01*
X731000Y125000D02*
X735000Y121000D01*
X782000D02*
X807000Y96000D01*
X751000Y62000D02*
X761000Y72000D01*
X194300Y105950D02*
X205250Y116900D01*
X194300Y131350D02*
X205250Y120400D01*
X157950Y155000D02*
X168900Y144050D01*
X150000Y155000D02*
X157950D01*
X157950Y158500D02*
X168900Y169450D01*
X148550Y158500D02*
X157950D01*
X144000Y149000D02*
X150000Y155000D01*
X144000Y84000D02*
Y149000D01*
X140500Y150450D02*
X148550Y158500D01*
X140500Y82550D02*
Y150450D01*
X144000Y84000D02*
X160000Y68000D01*
X265000Y116000D02*
Y116750D01*
Y124250D02*
Y125000D01*
X894750Y129600D02*
X905700Y118650D01*
X832250Y127750D02*
X835000Y125000D01*
X828000Y127750D02*
X832250D01*
Y131250D02*
X835000Y134000D01*
X826550Y131250D02*
X832250D01*
D36*
X365000Y212000D02*
Y229000D01*
X357500Y208250D02*
X361250D01*
X349500D02*
X357500D01*
X361250D02*
X365000Y212000D01*
X584411Y173553D02*
X587477Y176619D01*
X576053Y173553D02*
X584411D01*
X540808Y204692D02*
X547947Y197553D01*
X540808Y204692D02*
Y204903D01*
D37*
X467386Y118636D02*
X474111Y125361D01*
X605139Y146139D02*
X610104Y151104D01*
Y153991D01*
X596639Y154639D02*
X601619Y159619D01*
Y162477D01*
X617889Y133389D02*
X624246Y139746D01*
X582389Y81111D02*
X582575D01*
X588891Y74795D01*
X566889Y65611D02*
X566963D01*
X573335Y59239D01*
X515381Y73381D02*
X520361Y78361D01*
X512523Y73381D02*
X515381D01*
X467268Y118636D02*
X467386D01*
X495553Y159447D02*
X501861Y153139D01*
X495553Y159447D02*
Y159648D01*
X527361Y178639D02*
Y178752D01*
X521009Y185104D02*
X527361Y178752D01*
X624246Y139746D02*
Y139849D01*
X535861Y187389D02*
Y187929D01*
X530908Y192882D02*
X535861Y187929D01*
X528787Y192882D02*
X530908D01*
X609500Y107926D02*
Y108000D01*
Y107926D02*
X615761Y101665D01*
X556889Y55611D02*
X557164D01*
X563435Y49340D01*
X505452Y80452D02*
X511861Y86861D01*
X490611Y108037D02*
Y108111D01*
X484239Y101665D02*
X490611Y108037D01*
Y141889D02*
Y141963D01*
X484239Y148335D02*
X490611Y141963D01*
X588139Y163139D02*
Y163139D01*
X594548Y169548D01*
D61*
X480000Y208000D02*
D03*
X430000D02*
D03*
D62*
X490000Y235000D02*
D03*
X420000D02*
D03*
D63*
X931100Y80550D02*
D03*
X168900Y169450D02*
D03*
D64*
X931100Y105950D02*
D03*
X168900Y144050D02*
D03*
D65*
X1035200Y165900D02*
D03*
Y58700D02*
D03*
Y191300D02*
D03*
X1035160Y84100D02*
D03*
X64800Y191300D02*
D03*
X64840Y165900D02*
D03*
X64800Y84100D02*
D03*
Y58700D02*
D03*
D66*
X964100Y202450D02*
D03*
Y47550D02*
D03*
X135900Y202450D02*
D03*
Y47550D02*
D03*
D67*
X994600Y182150D02*
D03*
X105400Y67850D02*
D03*
D68*
X905700Y169450D02*
D03*
X931110Y156680D02*
D03*
X905700Y144050D02*
D03*
X931100Y131350D02*
D03*
X905700Y118650D02*
D03*
X194300Y80550D02*
D03*
X168890Y93320D02*
D03*
X194300Y105950D02*
D03*
Y131350D02*
D03*
X168900Y118650D02*
D03*
D69*
X994600Y67850D02*
D03*
X105400Y182150D02*
D03*
D70*
X905700Y93250D02*
D03*
X194300Y156750D02*
D03*
X187000Y234000D02*
D03*
X902400Y236000D02*
D03*
X877000D02*
D03*
D71*
X677000Y34000D02*
D03*
X757000D02*
D03*
D72*
X161600Y234000D02*
D03*
X851600Y236000D02*
D03*
D73*
X323000Y184000D02*
D03*
X342000D02*
D03*
D75*
X659000Y35000D02*
D03*
Y27000D02*
D03*
X739000Y34000D02*
D03*
X721000D02*
D03*
X704000D02*
D03*
X686000D02*
D03*
X616468Y32369D02*
D03*
X607276Y41561D02*
D03*
X633000Y19000D02*
D03*
X581113Y100251D02*
D03*
X589952Y109090D02*
D03*
X526000Y242000D02*
D03*
X880000Y193500D02*
D03*
X870000Y203000D02*
D03*
X880000Y175000D02*
D03*
Y166000D02*
D03*
X221000Y40000D02*
D03*
X296000Y150500D02*
D03*
Y139500D02*
D03*
X286000D02*
D03*
Y150500D02*
D03*
X262500Y231000D02*
D03*
X67000Y234000D02*
D03*
X81000D02*
D03*
X432000Y190000D02*
D03*
X441000D02*
D03*
X452000D02*
D03*
X461000D02*
D03*
X422500D02*
D03*
X365000Y229000D02*
D03*
X400000Y225000D02*
D03*
X376000Y181000D02*
D03*
X271500Y231000D02*
D03*
X324500Y207000D02*
D03*
X239000Y241000D02*
D03*
X230000D02*
D03*
X231000Y163000D02*
D03*
X255000Y175000D02*
D03*
X304500Y224000D02*
D03*
X748000Y34000D02*
D03*
X730000D02*
D03*
X713000D02*
D03*
X695000D02*
D03*
X566264Y197832D02*
D03*
X780000Y132500D02*
D03*
X732500Y208000D02*
D03*
X367500Y42000D02*
D03*
X320000Y117500D02*
D03*
X262000Y14000D02*
D03*
X271000D02*
D03*
X310000Y10000D02*
D03*
X298000D02*
D03*
X271000Y23000D02*
D03*
X494492Y44036D02*
D03*
X400000Y118000D02*
D03*
X408000Y112500D02*
D03*
X400000Y107000D02*
D03*
X220000Y172000D02*
D03*
X265000Y87000D02*
D03*
Y96000D02*
D03*
Y116000D02*
D03*
Y125000D02*
D03*
X230000Y134000D02*
D03*
X829000Y218000D02*
D03*
X645813Y165659D02*
D03*
X464086Y44036D02*
D03*
X464000Y24000D02*
D03*
X405000Y61000D02*
D03*
X651823Y159648D02*
D03*
X657834Y153638D02*
D03*
X639803Y171669D02*
D03*
X742000Y71000D02*
D03*
X702000D02*
D03*
X678000Y116000D02*
D03*
X667380Y91766D02*
D03*
X722000Y71000D02*
D03*
X712000D02*
D03*
X660309Y98837D02*
D03*
X653591Y92120D02*
D03*
X631317Y209853D02*
D03*
X665000Y208000D02*
D03*
X675000D02*
D03*
X709000Y239000D02*
D03*
X655000Y218000D02*
D03*
Y242000D02*
D03*
X599851Y208085D02*
D03*
X575456Y241673D02*
D03*
X358000Y42000D02*
D03*
X742000Y208000D02*
D03*
X645000Y31000D02*
D03*
X774000Y27000D02*
D03*
X816000Y29000D02*
D03*
X825000D02*
D03*
X836000Y82000D02*
D03*
Y70000D02*
D03*
X746000Y90000D02*
D03*
X752500Y82000D02*
D03*
X759000Y90000D02*
D03*
X667026Y105555D02*
D03*
X625660Y111565D02*
D03*
X487775Y50754D02*
D03*
X588891Y74795D02*
D03*
X563435Y49340D02*
D03*
X505452Y80452D02*
D03*
X632732Y118636D02*
D03*
X615761Y101665D02*
D03*
X472925Y137021D02*
D03*
X601619Y162477D02*
D03*
X807000Y96000D02*
D03*
X774000Y15000D02*
D03*
X793000Y48000D02*
D03*
X761000Y72000D02*
D03*
X700000Y132000D02*
D03*
X692000Y137500D02*
D03*
X700000Y143000D02*
D03*
X692000Y150000D02*
D03*
X740000Y82000D02*
D03*
X636974Y64896D02*
D03*
X644752Y72674D02*
D03*
X635560Y74088D02*
D03*
X627782Y66310D02*
D03*
X629196Y57118D02*
D03*
X620004Y58532D02*
D03*
X621418Y49340D02*
D03*
X612225Y50754D02*
D03*
X447823Y80099D02*
D03*
X457015Y81513D02*
D03*
X449237Y89291D02*
D03*
X440045Y87877D02*
D03*
X408000Y100000D02*
D03*
X341000Y160000D02*
D03*
X347500Y168000D02*
D03*
X354000Y160000D02*
D03*
X360000Y168000D02*
D03*
X401500Y129000D02*
D03*
X454480Y176851D02*
D03*
X455894Y167659D02*
D03*
X446702Y169073D02*
D03*
X448116Y159881D02*
D03*
X315500Y241000D02*
D03*
X534444Y140556D02*
D03*
X518887Y125000D02*
D03*
X550000Y156113D02*
D03*
X534444Y109444D02*
D03*
X565556Y140556D02*
D03*
X581113Y125000D02*
D03*
X566264Y110151D02*
D03*
X550000Y93887D02*
D03*
X537979Y47925D02*
D03*
X255000Y184000D02*
D03*
X365000Y238000D02*
D03*
X484239Y148335D02*
D03*
X495553Y159648D02*
D03*
X504038Y168134D02*
D03*
X521009Y185104D02*
D03*
X528787Y192882D02*
D03*
X540808Y204903D02*
D03*
X559192D02*
D03*
X573335Y190761D02*
D03*
X587477Y176619D02*
D03*
X594548Y169548D02*
D03*
X610104Y153991D02*
D03*
X624246Y139849D02*
D03*
X573335Y59239D02*
D03*
X523837Y62067D02*
D03*
X512523Y73381D02*
D03*
X498381Y87523D02*
D03*
X484239Y101665D02*
D03*
X467268Y118636D02*
D03*
X324500Y198000D02*
D03*
X315500D02*
D03*
Y207000D02*
D03*
X324500Y241000D02*
D03*
X357500Y208250D02*
D03*
X349500D02*
D03*
Y217000D02*
D03*
X357500D02*
D03*
X210000Y213750D02*
D03*
X270500Y205000D02*
D03*
X295500Y224000D02*
D03*
Y181000D02*
D03*
X304500D02*
D03*
X295500Y215000D02*
D03*
X270500Y213750D02*
D03*
X262500Y205000D02*
D03*
X255000Y193000D02*
D03*
X304500Y215000D02*
D03*
X262500Y213750D02*
D03*
X322000Y10000D02*
D03*
X334000D02*
D03*
X349000Y42000D02*
D03*
X350000Y91000D02*
D03*
X320000Y95000D02*
D03*
X271000Y32000D02*
D03*
X320000Y104000D02*
D03*
X220000Y98500D02*
D03*
Y113500D02*
D03*
X230000Y78000D02*
D03*
X880000Y136500D02*
D03*
X870000Y116000D02*
D03*
X880000Y151500D02*
D03*
X870000Y172000D02*
D03*
X835000Y125000D02*
D03*
Y134000D02*
D03*
Y151000D02*
D03*
Y160000D02*
D03*
X766000Y240000D02*
D03*
X778000D02*
D03*
X790000D02*
D03*
X802000D02*
D03*
X751000Y208000D02*
D03*
X695000Y189000D02*
D03*
X734000Y229500D02*
D03*
X376000Y141000D02*
D03*
X698492Y121465D02*
D03*
X724000Y109000D02*
D03*
X320000Y85000D02*
D03*
X780000Y146000D02*
D03*
X750000Y159000D02*
D03*
X780000Y155000D02*
D03*
Y165000D02*
D03*
X510048Y15752D02*
D03*
X664000Y62000D02*
D03*
X312000Y166000D02*
D03*
D81*
X547947Y197553D02*
D03*
X558553Y186947D02*
D03*
D82*
X576053Y173553D02*
D03*
X565447Y162947D02*
D03*
D83*
X248500Y222250D02*
X288250D01*
X229000Y202750D02*
X248500Y222250D01*
X177500Y202750D02*
X229000D01*
X161600Y218650D02*
X177500Y202750D01*
X161600Y218650D02*
Y234000D01*
D84*
X322000Y76000D02*
X330500D01*
X320000Y78000D02*
X322000Y76000D01*
X320000Y78000D02*
Y85000D01*
X778000Y174000D02*
X780000Y172000D01*
Y165000D02*
Y172000D01*
X769500Y174000D02*
X778000D01*
X774000Y159000D02*
X780000Y165000D01*
X770500Y159000D02*
X774000D01*
X320000Y85000D02*
X326000Y91000D01*
X329500D01*
D85*
X550000Y125000D02*
D03*
M02*
