G04 Layer_Physical_Order=2*
G04 Layer_Color=36540*
%FSLAX44Y44*%
%MOMM*%
G71*
G01*
G75*
%ADD35C,0.2000*%
%ADD66C,2.2000*%
%ADD68C,1.5000*%
%ADD70C,1.5000*%
%ADD74P,7.0711X4X270.0*%
%ADD75C,0.5500*%
G36*
X1095922Y202500D02*
X965000D01*
Y47500D01*
X1095922D01*
Y4078D01*
X336009D01*
X335787Y5578D01*
X335826Y5590D01*
X336652Y6031D01*
X337375Y6625D01*
X337969Y7348D01*
X338410Y8173D01*
X338681Y9069D01*
X338773Y10000D01*
X338681Y10931D01*
X338410Y11826D01*
X337969Y12652D01*
X337375Y13375D01*
X336652Y13969D01*
X335826Y14410D01*
X334931Y14681D01*
X334000Y14773D01*
X333069Y14681D01*
X332174Y14410D01*
X331348Y13969D01*
X330625Y13375D01*
X330031Y12652D01*
X329590Y11826D01*
X329319Y10931D01*
X329227Y10000D01*
X329319Y9069D01*
X329590Y8173D01*
X330031Y7348D01*
X330625Y6625D01*
X331348Y6031D01*
X332174Y5590D01*
X332213Y5578D01*
X331991Y4078D01*
X324009D01*
X323787Y5578D01*
X323826Y5590D01*
X324652Y6031D01*
X325375Y6625D01*
X325969Y7348D01*
X326410Y8173D01*
X326681Y9069D01*
X326773Y10000D01*
X326681Y10931D01*
X326410Y11826D01*
X325969Y12652D01*
X325375Y13375D01*
X324652Y13969D01*
X323826Y14410D01*
X322931Y14681D01*
X322000Y14773D01*
X321069Y14681D01*
X320173Y14410D01*
X319348Y13969D01*
X318625Y13375D01*
X318031Y12652D01*
X317590Y11826D01*
X317319Y10931D01*
X317227Y10000D01*
X317319Y9069D01*
X317590Y8173D01*
X318031Y7348D01*
X318625Y6625D01*
X319348Y6031D01*
X320173Y5590D01*
X320213Y5578D01*
X319991Y4078D01*
X312009D01*
X311787Y5578D01*
X311826Y5590D01*
X312652Y6031D01*
X313375Y6625D01*
X313969Y7348D01*
X314410Y8173D01*
X314681Y9069D01*
X314773Y10000D01*
X314681Y10931D01*
X314410Y11826D01*
X313969Y12652D01*
X313375Y13375D01*
X312652Y13969D01*
X311826Y14410D01*
X310931Y14681D01*
X310000Y14773D01*
X309069Y14681D01*
X308174Y14410D01*
X307348Y13969D01*
X306625Y13375D01*
X306031Y12652D01*
X305590Y11826D01*
X305319Y10931D01*
X305227Y10000D01*
X305319Y9069D01*
X305590Y8173D01*
X306031Y7348D01*
X306625Y6625D01*
X307348Y6031D01*
X308174Y5590D01*
X308213Y5578D01*
X307990Y4078D01*
X300009D01*
X299787Y5578D01*
X299827Y5590D01*
X300652Y6031D01*
X301375Y6625D01*
X301969Y7348D01*
X302410Y8173D01*
X302681Y9069D01*
X302773Y10000D01*
X302681Y10931D01*
X302410Y11826D01*
X301969Y12652D01*
X301375Y13375D01*
X300652Y13969D01*
X299827Y14410D01*
X298931Y14681D01*
X298000Y14773D01*
X297069Y14681D01*
X296173Y14410D01*
X295348Y13969D01*
X294625Y13375D01*
X294031Y12652D01*
X293590Y11826D01*
X293319Y10931D01*
X293227Y10000D01*
X293319Y9069D01*
X293590Y8173D01*
X294031Y7348D01*
X294625Y6625D01*
X295348Y6031D01*
X296173Y5590D01*
X296213Y5578D01*
X295991Y4078D01*
X4078D01*
Y47500D01*
X135000D01*
Y202500D01*
X4078D01*
Y245922D01*
X235145D01*
X235682Y244422D01*
X235625Y244375D01*
X235031Y243652D01*
X234590Y242826D01*
X234319Y241931D01*
X234227Y241000D01*
X234319Y240069D01*
X234590Y239174D01*
X235031Y238348D01*
X235625Y237625D01*
X236348Y237031D01*
X237174Y236590D01*
X238069Y236319D01*
X239000Y236227D01*
X239931Y236319D01*
X240826Y236590D01*
X241652Y237031D01*
X242375Y237625D01*
X242969Y238348D01*
X243410Y239174D01*
X243681Y240069D01*
X243773Y241000D01*
X243681Y241931D01*
X243410Y242826D01*
X242969Y243652D01*
X242375Y244375D01*
X242318Y244422D01*
X242855Y245922D01*
X311645D01*
X312182Y244422D01*
X312125Y244375D01*
X311531Y243652D01*
X311090Y242826D01*
X310819Y241931D01*
X310727Y241000D01*
X310819Y240069D01*
X311090Y239174D01*
X311531Y238348D01*
X312125Y237625D01*
X312848Y237031D01*
X313673Y236590D01*
X314569Y236319D01*
X315500Y236227D01*
X316431Y236319D01*
X317327Y236590D01*
X318152Y237031D01*
X318875Y237625D01*
X319082Y237878D01*
X319476Y238006D01*
X320524D01*
X320918Y237878D01*
X321125Y237625D01*
X321848Y237031D01*
X322673Y236590D01*
X323569Y236319D01*
X324500Y236227D01*
X325431Y236319D01*
X326327Y236590D01*
X327152Y237031D01*
X327875Y237625D01*
X328469Y238348D01*
X328910Y239174D01*
X329181Y240069D01*
X329273Y241000D01*
X329181Y241931D01*
X328910Y242826D01*
X328469Y243652D01*
X327875Y244375D01*
X327818Y244422D01*
X328355Y245922D01*
X412590D01*
X412609Y245902D01*
X413222Y244422D01*
X412696Y243806D01*
X411956Y242599D01*
X411414Y241290D01*
X411083Y239912D01*
X410972Y238500D01*
Y231500D01*
X411083Y230088D01*
X411414Y228710D01*
X411956Y227402D01*
X412696Y226194D01*
X413616Y225116D01*
X414694Y224196D01*
X415901Y223456D01*
X417210Y222914D01*
X418588Y222583D01*
X420000Y222472D01*
X421412Y222583D01*
X422790Y222914D01*
X424099Y223456D01*
X425306Y224196D01*
X426384Y225116D01*
X427304Y226194D01*
X428044Y227402D01*
X428586Y228710D01*
X428917Y230088D01*
X429028Y231500D01*
Y238500D01*
X428917Y239912D01*
X428586Y241290D01*
X428044Y242599D01*
X427304Y243806D01*
X426778Y244422D01*
X427391Y245902D01*
X427410Y245922D01*
X482590D01*
X482609Y245902D01*
X483222Y244422D01*
X482696Y243806D01*
X481956Y242599D01*
X481414Y241290D01*
X481083Y239912D01*
X480972Y238500D01*
Y231500D01*
X481083Y230088D01*
X481414Y228710D01*
X481956Y227402D01*
X482696Y226194D01*
X483616Y225116D01*
X484694Y224196D01*
X485901Y223456D01*
X487210Y222914D01*
X488588Y222583D01*
X490000Y222472D01*
X491412Y222583D01*
X492790Y222914D01*
X494099Y223456D01*
X495306Y224196D01*
X496384Y225116D01*
X497304Y226194D01*
X498044Y227402D01*
X498586Y228710D01*
X498917Y230088D01*
X499028Y231500D01*
Y238500D01*
X498917Y239912D01*
X498586Y241290D01*
X498044Y242599D01*
X497304Y243806D01*
X496778Y244422D01*
X497391Y245902D01*
X497410Y245922D01*
X763990D01*
X764213Y244422D01*
X764174Y244410D01*
X763348Y243969D01*
X762625Y243375D01*
X762031Y242652D01*
X761590Y241826D01*
X761319Y240931D01*
X761227Y240000D01*
X761319Y239069D01*
X761590Y238174D01*
X762031Y237348D01*
X762625Y236625D01*
X763348Y236031D01*
X764174Y235590D01*
X765069Y235319D01*
X766000Y235227D01*
X766931Y235319D01*
X767827Y235590D01*
X768652Y236031D01*
X769375Y236625D01*
X769969Y237348D01*
X770410Y238174D01*
X770681Y239069D01*
X770773Y240000D01*
X770681Y240931D01*
X770410Y241826D01*
X769969Y242652D01*
X769375Y243375D01*
X768652Y243969D01*
X767827Y244410D01*
X767787Y244422D01*
X768009Y245922D01*
X775991D01*
X776213Y244422D01*
X776173Y244410D01*
X775348Y243969D01*
X774625Y243375D01*
X774031Y242652D01*
X773590Y241826D01*
X773319Y240931D01*
X773227Y240000D01*
X773319Y239069D01*
X773590Y238174D01*
X774031Y237348D01*
X774625Y236625D01*
X775348Y236031D01*
X776173Y235590D01*
X777069Y235319D01*
X778000Y235227D01*
X778931Y235319D01*
X779827Y235590D01*
X780652Y236031D01*
X781375Y236625D01*
X781969Y237348D01*
X782410Y238174D01*
X782681Y239069D01*
X782773Y240000D01*
X782681Y240931D01*
X782410Y241826D01*
X781969Y242652D01*
X781375Y243375D01*
X780652Y243969D01*
X779827Y244410D01*
X779787Y244422D01*
X780009Y245922D01*
X787990D01*
X788213Y244422D01*
X788174Y244410D01*
X787348Y243969D01*
X786625Y243375D01*
X786031Y242652D01*
X785590Y241826D01*
X785319Y240931D01*
X785227Y240000D01*
X785319Y239069D01*
X785590Y238174D01*
X786031Y237348D01*
X786625Y236625D01*
X787348Y236031D01*
X788174Y235590D01*
X789069Y235319D01*
X790000Y235227D01*
X790931Y235319D01*
X791826Y235590D01*
X792652Y236031D01*
X793375Y236625D01*
X793969Y237348D01*
X794410Y238174D01*
X794681Y239069D01*
X794773Y240000D01*
X794681Y240931D01*
X794410Y241826D01*
X793969Y242652D01*
X793375Y243375D01*
X792652Y243969D01*
X791826Y244410D01*
X791787Y244422D01*
X792009Y245922D01*
X799991D01*
X800213Y244422D01*
X800173Y244410D01*
X799348Y243969D01*
X798625Y243375D01*
X798031Y242652D01*
X797590Y241826D01*
X797319Y240931D01*
X797227Y240000D01*
X797319Y239069D01*
X797590Y238174D01*
X798031Y237348D01*
X798625Y236625D01*
X799348Y236031D01*
X800173Y235590D01*
X801069Y235319D01*
X802000Y235227D01*
X802931Y235319D01*
X803827Y235590D01*
X804652Y236031D01*
X805375Y236625D01*
X805969Y237348D01*
X806410Y238174D01*
X806681Y239069D01*
X806773Y240000D01*
X806681Y240931D01*
X806410Y241826D01*
X805969Y242652D01*
X805375Y243375D01*
X804652Y243969D01*
X803827Y244410D01*
X803787Y244422D01*
X804009Y245922D01*
X840775D01*
X842100Y245500D01*
X842100Y244422D01*
Y226500D01*
X861100D01*
Y244422D01*
X861100Y245500D01*
X862425Y245922D01*
X871768D01*
X871892Y245719D01*
X871417Y243720D01*
X871399Y243709D01*
X870262Y242738D01*
X869291Y241601D01*
X868509Y240326D01*
X867937Y238945D01*
X867588Y237491D01*
X867471Y236000D01*
X867588Y234509D01*
X867937Y233055D01*
X868509Y231674D01*
X869291Y230399D01*
X870262Y229262D01*
X871399Y228291D01*
X872674Y227509D01*
X874055Y226937D01*
X875509Y226588D01*
X877000Y226471D01*
X878491Y226588D01*
X879945Y226937D01*
X881326Y227509D01*
X882601Y228291D01*
X883738Y229262D01*
X884709Y230399D01*
X885491Y231674D01*
X886063Y233055D01*
X886412Y234509D01*
X886529Y236000D01*
X886412Y237491D01*
X886063Y238945D01*
X885491Y240326D01*
X884709Y241601D01*
X883738Y242738D01*
X882601Y243709D01*
X882583Y243720D01*
X882108Y245719D01*
X882232Y245922D01*
X1095922D01*
Y202500D01*
D02*
G37*
%LPC*%
G36*
X220000Y103273D02*
X219069Y103181D01*
X218174Y102910D01*
X217348Y102469D01*
X216625Y101875D01*
X216031Y101152D01*
X215590Y100326D01*
X215319Y99431D01*
X215227Y98500D01*
X215319Y97569D01*
X215590Y96673D01*
X216031Y95848D01*
X216625Y95125D01*
X217348Y94531D01*
X218174Y94090D01*
X219069Y93819D01*
X220000Y93727D01*
X220931Y93819D01*
X221826Y94090D01*
X222652Y94531D01*
X223375Y95125D01*
X223969Y95848D01*
X224410Y96673D01*
X224681Y97569D01*
X224773Y98500D01*
X224681Y99431D01*
X224410Y100326D01*
X223969Y101152D01*
X223375Y101875D01*
X222652Y102469D01*
X221826Y102910D01*
X220931Y103181D01*
X220000Y103273D01*
D02*
G37*
G36*
X449237Y94064D02*
X448306Y93972D01*
X447411Y93701D01*
X446586Y93260D01*
X445862Y92666D01*
X445269Y91943D01*
X445081Y91592D01*
X443534Y91241D01*
X443420Y91252D01*
X442697Y91846D01*
X441871Y92287D01*
X440976Y92558D01*
X440045Y92650D01*
X439114Y92558D01*
X438218Y92287D01*
X437393Y91846D01*
X436670Y91252D01*
X436076Y90529D01*
X435635Y89704D01*
X435364Y88808D01*
X435272Y87877D01*
X435364Y86946D01*
X435635Y86050D01*
X436076Y85225D01*
X436670Y84502D01*
X437393Y83908D01*
X438218Y83467D01*
X439114Y83196D01*
X440045Y83104D01*
X440976Y83196D01*
X441871Y83467D01*
X442583Y83847D01*
X442868Y83737D01*
X443683Y82921D01*
X443793Y82636D01*
X443413Y81925D01*
X443142Y81030D01*
X443050Y80099D01*
X443142Y79168D01*
X443413Y78272D01*
X443854Y77447D01*
X444448Y76724D01*
X445171Y76130D01*
X445997Y75689D01*
X446892Y75417D01*
X447823Y75326D01*
X448754Y75417D01*
X449650Y75689D01*
X450475Y76130D01*
X451198Y76724D01*
X451792Y77447D01*
X451979Y77798D01*
X453526Y78149D01*
X453641Y78138D01*
X454364Y77544D01*
X455189Y77103D01*
X456084Y76832D01*
X457015Y76740D01*
X457947Y76832D01*
X458842Y77103D01*
X459667Y77544D01*
X460390Y78138D01*
X460984Y78861D01*
X461425Y79686D01*
X461697Y80582D01*
X461788Y81513D01*
X461697Y82444D01*
X461425Y83340D01*
X460984Y84165D01*
X460390Y84888D01*
X459667Y85482D01*
X458842Y85923D01*
X457947Y86194D01*
X457015Y86286D01*
X456084Y86194D01*
X455189Y85923D01*
X454478Y85542D01*
X454193Y85653D01*
X453377Y86468D01*
X453267Y86754D01*
X453647Y87465D01*
X453918Y88360D01*
X454010Y89291D01*
X453918Y90222D01*
X453647Y91118D01*
X453206Y91943D01*
X452612Y92666D01*
X451889Y93260D01*
X451064Y93701D01*
X450168Y93972D01*
X449237Y94064D01*
D02*
G37*
G36*
X807000Y100773D02*
X806069Y100681D01*
X805173Y100410D01*
X804348Y99969D01*
X803625Y99375D01*
X803031Y98652D01*
X802590Y97827D01*
X802319Y96931D01*
X802227Y96000D01*
X802319Y95069D01*
X802590Y94173D01*
X803031Y93348D01*
X803625Y92625D01*
X804348Y92031D01*
X805173Y91590D01*
X806069Y91319D01*
X807000Y91227D01*
X807931Y91319D01*
X808827Y91590D01*
X809652Y92031D01*
X810375Y92625D01*
X810969Y93348D01*
X811410Y94173D01*
X811681Y95069D01*
X811773Y96000D01*
X811681Y96931D01*
X811410Y97827D01*
X810969Y98652D01*
X810375Y99375D01*
X809652Y99969D01*
X808827Y100410D01*
X807931Y100681D01*
X807000Y100773D01*
D02*
G37*
G36*
X931100Y115971D02*
X929792Y115886D01*
X928506Y115630D01*
X927265Y115209D01*
X926089Y114629D01*
X924999Y113901D01*
X924014Y113036D01*
X923149Y112051D01*
X922421Y110961D01*
X921841Y109785D01*
X921420Y108544D01*
X921164Y107258D01*
X921078Y105950D01*
X921164Y104642D01*
X921420Y103356D01*
X921841Y102115D01*
X922421Y100939D01*
X923149Y99849D01*
X924014Y98864D01*
X924999Y97999D01*
X926089Y97271D01*
X927265Y96691D01*
X928506Y96270D01*
X929792Y96014D01*
X931100Y95929D01*
X932408Y96014D01*
X933694Y96270D01*
X934935Y96691D01*
X936111Y97271D01*
X937201Y97999D01*
X938186Y98864D01*
X939051Y99849D01*
X939779Y100939D01*
X940359Y102115D01*
X940780Y103356D01*
X941036Y104642D01*
X941121Y105950D01*
X941036Y107258D01*
X940780Y108544D01*
X940359Y109785D01*
X939779Y110961D01*
X939051Y112051D01*
X938186Y113036D01*
X937201Y113901D01*
X936111Y114629D01*
X934935Y115209D01*
X933694Y115630D01*
X932408Y115886D01*
X931100Y115971D01*
D02*
G37*
G36*
X581113Y105024D02*
X580182Y104932D01*
X579286Y104661D01*
X578461Y104220D01*
X577738Y103626D01*
X577144Y102903D01*
X576703Y102078D01*
X576431Y101182D01*
X576340Y100251D01*
X576431Y99320D01*
X576703Y98425D01*
X577144Y97600D01*
X577738Y96876D01*
X578461Y96283D01*
X579286Y95842D01*
X580182Y95570D01*
X581113Y95478D01*
X582044Y95570D01*
X582939Y95842D01*
X583764Y96283D01*
X584488Y96876D01*
X585081Y97600D01*
X585522Y98425D01*
X585794Y99320D01*
X585886Y100251D01*
X585794Y101182D01*
X585522Y102078D01*
X585081Y102903D01*
X584488Y103626D01*
X583764Y104220D01*
X582939Y104661D01*
X582044Y104932D01*
X581113Y105024D01*
D02*
G37*
G36*
X194300Y115479D02*
X192809Y115362D01*
X191355Y115013D01*
X189974Y114441D01*
X188699Y113659D01*
X187562Y112688D01*
X186591Y111551D01*
X185809Y110276D01*
X185237Y108895D01*
X184888Y107441D01*
X184771Y105950D01*
X184888Y104459D01*
X185237Y103005D01*
X185809Y101624D01*
X186591Y100349D01*
X187562Y99212D01*
X188699Y98241D01*
X189974Y97459D01*
X191355Y96887D01*
X192809Y96538D01*
X194300Y96421D01*
X195791Y96538D01*
X197245Y96887D01*
X198626Y97459D01*
X199901Y98241D01*
X201038Y99212D01*
X202010Y100349D01*
X202791Y101624D01*
X203363Y103005D01*
X203712Y104459D01*
X203829Y105950D01*
X203712Y107441D01*
X203363Y108895D01*
X202791Y110276D01*
X202010Y111551D01*
X201038Y112688D01*
X199901Y113659D01*
X198626Y114441D01*
X197245Y115013D01*
X195791Y115362D01*
X194300Y115479D01*
D02*
G37*
G36*
X759000Y94773D02*
X758069Y94681D01*
X757173Y94410D01*
X756348Y93969D01*
X755625Y93375D01*
X755031Y92652D01*
X754590Y91826D01*
X754319Y90931D01*
X754227Y90000D01*
X754319Y89069D01*
X754590Y88174D01*
X754769Y87839D01*
X753794Y86571D01*
X753431Y86681D01*
X752500Y86773D01*
X751569Y86681D01*
X751206Y86571D01*
X750231Y87839D01*
X750410Y88174D01*
X750681Y89069D01*
X750773Y90000D01*
X750681Y90931D01*
X750410Y91826D01*
X749969Y92652D01*
X749375Y93375D01*
X748652Y93969D01*
X747827Y94410D01*
X746931Y94681D01*
X746000Y94773D01*
X745069Y94681D01*
X744174Y94410D01*
X743348Y93969D01*
X742625Y93375D01*
X742031Y92652D01*
X741590Y91826D01*
X741319Y90931D01*
X741227Y90000D01*
X741319Y89069D01*
X741590Y88174D01*
X741670Y88025D01*
X741254Y87268D01*
X740674Y86707D01*
X740000Y86773D01*
X739069Y86681D01*
X738174Y86410D01*
X737348Y85969D01*
X736625Y85375D01*
X736031Y84652D01*
X735590Y83827D01*
X735319Y82931D01*
X735227Y82000D01*
X735319Y81069D01*
X735590Y80173D01*
X736031Y79348D01*
X736625Y78625D01*
X737348Y78031D01*
X738174Y77590D01*
X739069Y77319D01*
X740000Y77227D01*
X740931Y77319D01*
X741826Y77590D01*
X742652Y78031D01*
X743375Y78625D01*
X743969Y79348D01*
X744410Y80173D01*
X744681Y81069D01*
X744773Y82000D01*
X744681Y82931D01*
X744410Y83827D01*
X744330Y83975D01*
X744746Y84733D01*
X745326Y85293D01*
X746000Y85227D01*
X746931Y85319D01*
X747294Y85429D01*
X748269Y84161D01*
X748090Y83827D01*
X747819Y82931D01*
X747727Y82000D01*
X747819Y81069D01*
X748090Y80173D01*
X748531Y79348D01*
X749125Y78625D01*
X749848Y78031D01*
X750674Y77590D01*
X751569Y77319D01*
X752500Y77227D01*
X753431Y77319D01*
X754327Y77590D01*
X755152Y78031D01*
X755875Y78625D01*
X756469Y79348D01*
X756910Y80173D01*
X757181Y81069D01*
X757273Y82000D01*
X757181Y82931D01*
X756910Y83827D01*
X756731Y84161D01*
X757706Y85429D01*
X758069Y85319D01*
X759000Y85227D01*
X759931Y85319D01*
X760826Y85590D01*
X761652Y86031D01*
X762375Y86625D01*
X762969Y87348D01*
X763410Y88174D01*
X763681Y89069D01*
X763773Y90000D01*
X763681Y90931D01*
X763410Y91826D01*
X762969Y92652D01*
X762375Y93375D01*
X761652Y93969D01*
X760826Y94410D01*
X759931Y94681D01*
X759000Y94773D01*
D02*
G37*
G36*
X320000Y89773D02*
X319069Y89681D01*
X318174Y89410D01*
X317348Y88969D01*
X316625Y88375D01*
X316031Y87652D01*
X315590Y86826D01*
X315319Y85931D01*
X315227Y85000D01*
X315319Y84069D01*
X315590Y83174D01*
X316031Y82348D01*
X316625Y81625D01*
X317348Y81031D01*
X318174Y80590D01*
X319069Y80319D01*
X320000Y80227D01*
X320931Y80319D01*
X321827Y80590D01*
X322652Y81031D01*
X323375Y81625D01*
X323969Y82348D01*
X324410Y83174D01*
X324681Y84069D01*
X324773Y85000D01*
X324681Y85931D01*
X324410Y86826D01*
X323969Y87652D01*
X323375Y88375D01*
X322652Y88969D01*
X321827Y89410D01*
X320931Y89681D01*
X320000Y89773D01*
D02*
G37*
G36*
X836000Y86773D02*
X835069Y86681D01*
X834174Y86410D01*
X833348Y85969D01*
X832625Y85375D01*
X832031Y84652D01*
X831590Y83827D01*
X831319Y82931D01*
X831227Y82000D01*
X831319Y81069D01*
X831590Y80173D01*
X832031Y79348D01*
X832625Y78625D01*
X833348Y78031D01*
X834174Y77590D01*
X835069Y77319D01*
X836000Y77227D01*
X836931Y77319D01*
X837827Y77590D01*
X838652Y78031D01*
X839375Y78625D01*
X839969Y79348D01*
X840410Y80173D01*
X840681Y81069D01*
X840773Y82000D01*
X840681Y82931D01*
X840410Y83827D01*
X839969Y84652D01*
X839375Y85375D01*
X838652Y85969D01*
X837827Y86410D01*
X836931Y86681D01*
X836000Y86773D01*
D02*
G37*
G36*
X722000Y75773D02*
X721069Y75681D01*
X720173Y75410D01*
X719348Y74969D01*
X718625Y74375D01*
X718031Y73652D01*
X717832Y73278D01*
X717463Y73161D01*
X716537D01*
X716168Y73278D01*
X715969Y73652D01*
X715375Y74375D01*
X714652Y74969D01*
X713827Y75410D01*
X712931Y75681D01*
X712000Y75773D01*
X711069Y75681D01*
X710173Y75410D01*
X709348Y74969D01*
X708625Y74375D01*
X708031Y73652D01*
X707832Y73278D01*
X707463Y73161D01*
X706537D01*
X706168Y73278D01*
X705969Y73652D01*
X705375Y74375D01*
X704652Y74969D01*
X703827Y75410D01*
X702931Y75681D01*
X702000Y75773D01*
X701069Y75681D01*
X700173Y75410D01*
X699348Y74969D01*
X698625Y74375D01*
X698031Y73652D01*
X697590Y72826D01*
X697319Y71931D01*
X697227Y71000D01*
X697319Y70069D01*
X697590Y69173D01*
X698031Y68348D01*
X698625Y67625D01*
X699348Y67031D01*
X700173Y66590D01*
X701069Y66319D01*
X702000Y66227D01*
X702931Y66319D01*
X703827Y66590D01*
X704652Y67031D01*
X705375Y67625D01*
X705969Y68348D01*
X706168Y68722D01*
X706537Y68839D01*
X707463D01*
X707832Y68722D01*
X708031Y68348D01*
X708625Y67625D01*
X709348Y67031D01*
X710173Y66590D01*
X711069Y66319D01*
X712000Y66227D01*
X712931Y66319D01*
X713827Y66590D01*
X714652Y67031D01*
X715375Y67625D01*
X715969Y68348D01*
X716168Y68722D01*
X716537Y68839D01*
X717463D01*
X717832Y68722D01*
X718031Y68348D01*
X718625Y67625D01*
X719348Y67031D01*
X720173Y66590D01*
X721069Y66319D01*
X722000Y66227D01*
X722931Y66319D01*
X723827Y66590D01*
X724652Y67031D01*
X725375Y67625D01*
X725969Y68348D01*
X726410Y69173D01*
X726681Y70069D01*
X726773Y71000D01*
X726681Y71931D01*
X726410Y72826D01*
X725969Y73652D01*
X725375Y74375D01*
X724652Y74969D01*
X723827Y75410D01*
X722931Y75681D01*
X722000Y75773D01*
D02*
G37*
G36*
X168890Y102849D02*
X167399Y102732D01*
X165945Y102383D01*
X164564Y101811D01*
X163289Y101029D01*
X162152Y100058D01*
X161181Y98921D01*
X160399Y97646D01*
X159827Y96265D01*
X159478Y94811D01*
X159361Y93320D01*
X159478Y91829D01*
X159827Y90375D01*
X160399Y88994D01*
X161181Y87719D01*
X162152Y86582D01*
X163289Y85611D01*
X164564Y84829D01*
X165945Y84257D01*
X167399Y83908D01*
X168890Y83791D01*
X170381Y83908D01*
X171835Y84257D01*
X173216Y84829D01*
X174491Y85611D01*
X175628Y86582D01*
X176599Y87719D01*
X177381Y88994D01*
X177953Y90375D01*
X178302Y91829D01*
X178419Y93320D01*
X178302Y94811D01*
X177953Y96265D01*
X177381Y97646D01*
X176599Y98921D01*
X175628Y100058D01*
X174491Y101029D01*
X173216Y101811D01*
X171835Y102383D01*
X170381Y102732D01*
X168890Y102849D01*
D02*
G37*
G36*
X905700Y102779D02*
X904209Y102662D01*
X902755Y102313D01*
X901374Y101741D01*
X900099Y100959D01*
X898962Y99988D01*
X897991Y98851D01*
X897209Y97576D01*
X896637Y96195D01*
X896288Y94741D01*
X896171Y93250D01*
X896288Y91759D01*
X896637Y90305D01*
X897209Y88924D01*
X897991Y87649D01*
X898962Y86512D01*
X900099Y85541D01*
X901374Y84759D01*
X902755Y84187D01*
X904209Y83838D01*
X905700Y83721D01*
X907191Y83838D01*
X908645Y84187D01*
X910026Y84759D01*
X911301Y85541D01*
X912438Y86512D01*
X913410Y87649D01*
X914191Y88924D01*
X914763Y90305D01*
X915112Y91759D01*
X915229Y93250D01*
X915112Y94741D01*
X914763Y96195D01*
X914191Y97576D01*
X913410Y98851D01*
X912438Y99988D01*
X911301Y100959D01*
X910026Y101741D01*
X908645Y102313D01*
X907191Y102662D01*
X905700Y102779D01*
D02*
G37*
G36*
X265000Y100773D02*
X264069Y100681D01*
X263174Y100410D01*
X262348Y99969D01*
X261625Y99375D01*
X261031Y98652D01*
X260590Y97827D01*
X260319Y96931D01*
X260227Y96000D01*
X260319Y95069D01*
X260590Y94173D01*
X261031Y93348D01*
X261625Y92625D01*
X261877Y92418D01*
X262006Y92024D01*
Y90976D01*
X261877Y90582D01*
X261625Y90375D01*
X261031Y89652D01*
X260590Y88827D01*
X260319Y87931D01*
X260227Y87000D01*
X260319Y86069D01*
X260590Y85174D01*
X261031Y84348D01*
X261625Y83625D01*
X262348Y83031D01*
X263174Y82590D01*
X264069Y82319D01*
X265000Y82227D01*
X265931Y82319D01*
X266826Y82590D01*
X267652Y83031D01*
X268375Y83625D01*
X268969Y84348D01*
X269410Y85174D01*
X269681Y86069D01*
X269773Y87000D01*
X269681Y87931D01*
X269410Y88827D01*
X268969Y89652D01*
X268375Y90375D01*
X268123Y90582D01*
X267994Y90976D01*
Y92024D01*
X268123Y92418D01*
X268375Y92625D01*
X268969Y93348D01*
X269410Y94173D01*
X269681Y95069D01*
X269773Y96000D01*
X269681Y96931D01*
X269410Y97827D01*
X268969Y98652D01*
X268375Y99375D01*
X267652Y99969D01*
X266826Y100410D01*
X265931Y100681D01*
X265000Y100773D01*
D02*
G37*
G36*
Y129773D02*
X264069Y129681D01*
X263174Y129410D01*
X262348Y128969D01*
X261625Y128375D01*
X261031Y127652D01*
X260590Y126826D01*
X260319Y125931D01*
X260227Y125000D01*
X260319Y124069D01*
X260590Y123174D01*
X261031Y122348D01*
X261625Y121625D01*
X261877Y121418D01*
X262006Y121024D01*
Y119976D01*
X261877Y119582D01*
X261625Y119375D01*
X261031Y118652D01*
X260590Y117826D01*
X260319Y116931D01*
X260227Y116000D01*
X260319Y115069D01*
X260590Y114173D01*
X261031Y113348D01*
X261625Y112625D01*
X262348Y112031D01*
X263174Y111590D01*
X264069Y111319D01*
X265000Y111227D01*
X265931Y111319D01*
X266826Y111590D01*
X267652Y112031D01*
X268375Y112625D01*
X268969Y113348D01*
X269410Y114173D01*
X269681Y115069D01*
X269773Y116000D01*
X269681Y116931D01*
X269410Y117826D01*
X268969Y118652D01*
X268375Y119375D01*
X268123Y119582D01*
X267994Y119976D01*
Y121024D01*
X268123Y121418D01*
X268375Y121625D01*
X268969Y122348D01*
X269410Y123174D01*
X269681Y124069D01*
X269773Y125000D01*
X269681Y125931D01*
X269410Y126826D01*
X268969Y127652D01*
X268375Y128375D01*
X267652Y128969D01*
X266826Y129410D01*
X265931Y129681D01*
X265000Y129773D01*
D02*
G37*
G36*
X905700Y128179D02*
X904209Y128062D01*
X902755Y127713D01*
X901374Y127141D01*
X900099Y126359D01*
X898962Y125388D01*
X897990Y124251D01*
X897209Y122976D01*
X896637Y121595D01*
X896288Y120141D01*
X896171Y118650D01*
X896288Y117159D01*
X896637Y115705D01*
X897209Y114324D01*
X897990Y113049D01*
X898962Y111912D01*
X900099Y110941D01*
X901374Y110159D01*
X902755Y109587D01*
X904209Y109238D01*
X905700Y109121D01*
X907191Y109238D01*
X908645Y109587D01*
X910026Y110159D01*
X911301Y110941D01*
X912438Y111912D01*
X913409Y113049D01*
X914191Y114324D01*
X914763Y115705D01*
X915112Y117159D01*
X915229Y118650D01*
X915112Y120141D01*
X914763Y121595D01*
X914191Y122976D01*
X913409Y124251D01*
X912438Y125388D01*
X911301Y126359D01*
X910026Y127141D01*
X908645Y127713D01*
X907191Y128062D01*
X905700Y128179D01*
D02*
G37*
G36*
X168900D02*
X167409Y128062D01*
X165955Y127713D01*
X164574Y127141D01*
X163299Y126359D01*
X162162Y125388D01*
X161191Y124251D01*
X160409Y122976D01*
X159837Y121595D01*
X159488Y120141D01*
X159371Y118650D01*
X159488Y117159D01*
X159837Y115705D01*
X160409Y114324D01*
X161191Y113049D01*
X162162Y111912D01*
X163299Y110941D01*
X164574Y110159D01*
X165955Y109587D01*
X167409Y109238D01*
X168900Y109121D01*
X170391Y109238D01*
X171845Y109587D01*
X173226Y110159D01*
X174501Y110941D01*
X175638Y111912D01*
X176609Y113049D01*
X177391Y114324D01*
X177963Y115705D01*
X178312Y117159D01*
X178430Y118650D01*
X178312Y120141D01*
X177963Y121595D01*
X177391Y122976D01*
X176609Y124251D01*
X175638Y125388D01*
X174501Y126359D01*
X173226Y127141D01*
X171845Y127713D01*
X170391Y128062D01*
X168900Y128179D01*
D02*
G37*
G36*
X467268Y123409D02*
X466337Y123317D01*
X465442Y123046D01*
X464617Y122605D01*
X463894Y122011D01*
X463300Y121288D01*
X462859Y120463D01*
X462587Y119567D01*
X462495Y118636D01*
X462587Y117705D01*
X462859Y116810D01*
X463300Y115984D01*
X463894Y115261D01*
X464617Y114668D01*
X465442Y114226D01*
X466337Y113955D01*
X467268Y113863D01*
X468200Y113955D01*
X469095Y114226D01*
X469920Y114668D01*
X470644Y115261D01*
X471237Y115984D01*
X471678Y116810D01*
X471950Y117705D01*
X472042Y118636D01*
X471950Y119567D01*
X471678Y120463D01*
X471237Y121288D01*
X470644Y122011D01*
X469920Y122605D01*
X469095Y123046D01*
X468200Y123317D01*
X467268Y123409D01*
D02*
G37*
G36*
X870000Y120773D02*
X869069Y120681D01*
X868174Y120410D01*
X867348Y119969D01*
X866625Y119375D01*
X866031Y118652D01*
X865590Y117826D01*
X865319Y116931D01*
X865227Y116000D01*
X865319Y115069D01*
X865590Y114173D01*
X866031Y113348D01*
X866625Y112625D01*
X867348Y112031D01*
X868174Y111590D01*
X869069Y111319D01*
X870000Y111227D01*
X870931Y111319D01*
X871827Y111590D01*
X872652Y112031D01*
X873375Y112625D01*
X873969Y113348D01*
X874410Y114173D01*
X874681Y115069D01*
X874773Y116000D01*
X874681Y116931D01*
X874410Y117826D01*
X873969Y118652D01*
X873375Y119375D01*
X872652Y119969D01*
X871827Y120410D01*
X870931Y120681D01*
X870000Y120773D01*
D02*
G37*
G36*
X678000D02*
X677069Y120681D01*
X676173Y120410D01*
X675348Y119969D01*
X674625Y119375D01*
X674031Y118652D01*
X673590Y117826D01*
X673319Y116931D01*
X673227Y116000D01*
X673319Y115069D01*
X673590Y114173D01*
X674031Y113348D01*
X674625Y112625D01*
X675348Y112031D01*
X676173Y111590D01*
X677069Y111319D01*
X678000Y111227D01*
X678931Y111319D01*
X679827Y111590D01*
X680652Y112031D01*
X681375Y112625D01*
X681969Y113348D01*
X682410Y114173D01*
X682681Y115069D01*
X682773Y116000D01*
X682681Y116931D01*
X682410Y117826D01*
X681969Y118652D01*
X681375Y119375D01*
X680652Y119969D01*
X679827Y120410D01*
X678931Y120681D01*
X678000Y120773D01*
D02*
G37*
G36*
X400000Y122773D02*
X399069Y122681D01*
X398173Y122410D01*
X397348Y121969D01*
X396625Y121375D01*
X396031Y120652D01*
X395590Y119826D01*
X395319Y118931D01*
X395227Y118000D01*
X395319Y117069D01*
X395590Y116173D01*
X396031Y115348D01*
X396625Y114625D01*
X397348Y114031D01*
X398173Y113590D01*
X398881Y113376D01*
X398946Y113355D01*
X399069Y113077D01*
Y111923D01*
X398946Y111645D01*
X398881Y111624D01*
X398173Y111410D01*
X397348Y110969D01*
X396625Y110375D01*
X396031Y109652D01*
X395590Y108827D01*
X395319Y107931D01*
X395227Y107000D01*
X395319Y106069D01*
X395590Y105173D01*
X396031Y104348D01*
X396625Y103625D01*
X397348Y103031D01*
X398173Y102590D01*
X399069Y102319D01*
X400000Y102227D01*
X400931Y102319D01*
X401827Y102590D01*
X402486Y102943D01*
X402637Y102871D01*
X403590Y101826D01*
X403319Y100931D01*
X403227Y100000D01*
X403319Y99069D01*
X403590Y98174D01*
X404031Y97348D01*
X404625Y96625D01*
X405348Y96031D01*
X406174Y95590D01*
X407069Y95319D01*
X408000Y95227D01*
X408931Y95319D01*
X409827Y95590D01*
X410652Y96031D01*
X411375Y96625D01*
X411969Y97348D01*
X412410Y98174D01*
X412681Y99069D01*
X412773Y100000D01*
X412681Y100931D01*
X412410Y101826D01*
X411969Y102652D01*
X411375Y103375D01*
X410652Y103969D01*
X409827Y104410D01*
X408931Y104681D01*
X408000Y104773D01*
X407069Y104681D01*
X406174Y104410D01*
X405514Y104057D01*
X405363Y104129D01*
X404410Y105174D01*
X404681Y106069D01*
X404773Y107000D01*
X404759Y107146D01*
X406165Y108095D01*
X406174Y108090D01*
X407069Y107819D01*
X408000Y107727D01*
X408931Y107819D01*
X409827Y108090D01*
X410652Y108531D01*
X411375Y109125D01*
X411969Y109848D01*
X412410Y110674D01*
X412681Y111569D01*
X412773Y112500D01*
X412681Y113431D01*
X412410Y114326D01*
X411969Y115152D01*
X411375Y115875D01*
X410652Y116469D01*
X409827Y116910D01*
X408931Y117181D01*
X408000Y117273D01*
X407069Y117181D01*
X406174Y116910D01*
X406165Y116905D01*
X404759Y117854D01*
X404773Y118000D01*
X404681Y118931D01*
X404410Y119826D01*
X403969Y120652D01*
X403375Y121375D01*
X402652Y121969D01*
X401827Y122410D01*
X400931Y122681D01*
X400000Y122773D01*
D02*
G37*
G36*
X320000Y108773D02*
X319069Y108681D01*
X318174Y108410D01*
X317348Y107969D01*
X316625Y107375D01*
X316031Y106652D01*
X315590Y105827D01*
X315319Y104931D01*
X315227Y104000D01*
X315319Y103069D01*
X315590Y102174D01*
X316031Y101348D01*
X316625Y100625D01*
X317348Y100031D01*
X318174Y99590D01*
X319069Y99319D01*
X320000Y99227D01*
X320931Y99319D01*
X321827Y99590D01*
X322652Y100031D01*
X323375Y100625D01*
X323969Y101348D01*
X324410Y102174D01*
X324681Y103069D01*
X324773Y104000D01*
X324681Y104931D01*
X324410Y105827D01*
X323969Y106652D01*
X323375Y107375D01*
X322652Y107969D01*
X321827Y108410D01*
X320931Y108681D01*
X320000Y108773D01*
D02*
G37*
G36*
X615761Y106439D02*
X614830Y106347D01*
X613934Y106075D01*
X613109Y105634D01*
X612386Y105041D01*
X611792Y104317D01*
X611351Y103492D01*
X611080Y102597D01*
X610988Y101665D01*
X611080Y100734D01*
X611351Y99839D01*
X611792Y99014D01*
X612386Y98291D01*
X613109Y97697D01*
X613934Y97256D01*
X614830Y96984D01*
X615761Y96892D01*
X616692Y96984D01*
X617587Y97256D01*
X618413Y97697D01*
X619136Y98291D01*
X619729Y99014D01*
X620171Y99839D01*
X620442Y100734D01*
X620534Y101665D01*
X620442Y102597D01*
X620171Y103492D01*
X619729Y104317D01*
X619136Y105041D01*
X618413Y105634D01*
X617587Y106075D01*
X616692Y106347D01*
X615761Y106439D01*
D02*
G37*
G36*
X484239Y106438D02*
X483308Y106347D01*
X482412Y106075D01*
X481587Y105634D01*
X480864Y105041D01*
X480271Y104317D01*
X479829Y103492D01*
X479558Y102597D01*
X479466Y101665D01*
X479558Y100734D01*
X479829Y99839D01*
X480271Y99014D01*
X480864Y98291D01*
X481587Y97697D01*
X482412Y97256D01*
X483308Y96984D01*
X484239Y96892D01*
X485170Y96984D01*
X486066Y97256D01*
X486891Y97697D01*
X487614Y98291D01*
X488208Y99014D01*
X488649Y99839D01*
X488920Y100734D01*
X489012Y101665D01*
X488920Y102597D01*
X488649Y103492D01*
X488208Y104317D01*
X487614Y105041D01*
X486891Y105634D01*
X486066Y106075D01*
X485170Y106347D01*
X484239Y106438D01*
D02*
G37*
G36*
X589952Y113863D02*
X589020Y113771D01*
X588125Y113500D01*
X587300Y113059D01*
X586576Y112465D01*
X585983Y111742D01*
X585542Y110917D01*
X585270Y110021D01*
X585179Y109090D01*
X585270Y108159D01*
X585542Y107264D01*
X585983Y106438D01*
X586576Y105715D01*
X587300Y105121D01*
X588125Y104681D01*
X589020Y104409D01*
X589952Y104317D01*
X590883Y104409D01*
X591778Y104681D01*
X592603Y105121D01*
X593326Y105715D01*
X593920Y106438D01*
X594361Y107264D01*
X594633Y108159D01*
X594725Y109090D01*
X594633Y110021D01*
X594361Y110917D01*
X593920Y111742D01*
X593326Y112465D01*
X592603Y113059D01*
X591778Y113500D01*
X590883Y113771D01*
X589952Y113863D01*
D02*
G37*
G36*
X724000Y113773D02*
X723069Y113681D01*
X722173Y113410D01*
X721348Y112969D01*
X720625Y112375D01*
X720031Y111652D01*
X719590Y110827D01*
X719319Y109931D01*
X719227Y109000D01*
X719319Y108069D01*
X719590Y107174D01*
X720031Y106348D01*
X720625Y105625D01*
X721348Y105031D01*
X722173Y104590D01*
X723069Y104319D01*
X724000Y104227D01*
X724931Y104319D01*
X725826Y104590D01*
X726652Y105031D01*
X727375Y105625D01*
X727969Y106348D01*
X728410Y107174D01*
X728681Y108069D01*
X728773Y109000D01*
X728681Y109931D01*
X728410Y110827D01*
X727969Y111652D01*
X727375Y112375D01*
X726652Y112969D01*
X725826Y113410D01*
X724931Y113681D01*
X724000Y113773D01*
D02*
G37*
G36*
X667026Y110328D02*
X666095Y110236D01*
X665200Y109964D01*
X664374Y109523D01*
X663651Y108930D01*
X663058Y108206D01*
X662617Y107381D01*
X662345Y106486D01*
X662253Y105555D01*
X662332Y104754D01*
X661929Y104208D01*
X661655Y103934D01*
X661109Y103531D01*
X660309Y103610D01*
X659378Y103518D01*
X658482Y103247D01*
X657657Y102806D01*
X656934Y102212D01*
X656340Y101489D01*
X655899Y100664D01*
X655627Y99768D01*
X655536Y98837D01*
X655614Y98037D01*
X655212Y97491D01*
X654938Y97216D01*
X654391Y96814D01*
X653591Y96892D01*
X652660Y96801D01*
X651765Y96529D01*
X650939Y96088D01*
X650216Y95494D01*
X649623Y94771D01*
X649182Y93946D01*
X648910Y93051D01*
X648818Y92120D01*
X648910Y91188D01*
X649182Y90293D01*
X649623Y89468D01*
X650216Y88744D01*
X650939Y88151D01*
X651765Y87710D01*
X652660Y87438D01*
X653591Y87347D01*
X654522Y87438D01*
X655418Y87710D01*
X656243Y88151D01*
X656966Y88744D01*
X657560Y89468D01*
X658001Y90293D01*
X658272Y91188D01*
X658364Y92120D01*
X658285Y92920D01*
X658688Y93466D01*
X658962Y93740D01*
X659509Y94143D01*
X660309Y94064D01*
X661240Y94156D01*
X661645Y94279D01*
X661988Y94101D01*
X662644Y93446D01*
X662821Y93103D01*
X662699Y92697D01*
X662607Y91766D01*
X662699Y90835D01*
X662970Y89939D01*
X663411Y89114D01*
X664005Y88391D01*
X664728Y87797D01*
X665553Y87356D01*
X666449Y87085D01*
X667380Y86993D01*
X668311Y87085D01*
X669206Y87356D01*
X670031Y87797D01*
X670755Y88391D01*
X671348Y89114D01*
X671789Y89939D01*
X672061Y90835D01*
X672153Y91766D01*
X672061Y92697D01*
X671789Y93593D01*
X671348Y94418D01*
X670755Y95141D01*
X670031Y95735D01*
X669206Y96176D01*
X668311Y96447D01*
X667380Y96539D01*
X666449Y96447D01*
X666043Y96324D01*
X665700Y96502D01*
X665045Y97157D01*
X664867Y97501D01*
X664990Y97906D01*
X665082Y98837D01*
X665003Y99637D01*
X665406Y100184D01*
X665679Y100458D01*
X666226Y100860D01*
X667026Y100782D01*
X667957Y100873D01*
X668853Y101145D01*
X669678Y101586D01*
X670401Y102180D01*
X670995Y102903D01*
X671436Y103728D01*
X671707Y104623D01*
X671799Y105555D01*
X671707Y106486D01*
X671436Y107381D01*
X670995Y108206D01*
X670401Y108930D01*
X669678Y109523D01*
X668853Y109964D01*
X667957Y110236D01*
X667026Y110328D01*
D02*
G37*
G36*
X940600Y90050D02*
X921600D01*
Y71050D01*
X940600D01*
Y90050D01*
D02*
G37*
G36*
X704000Y38773D02*
X703069Y38681D01*
X702173Y38410D01*
X701348Y37969D01*
X700625Y37375D01*
X700031Y36652D01*
X699590Y35826D01*
X699319Y34931D01*
X699227Y34000D01*
X699319Y33069D01*
X699590Y32174D01*
X700031Y31348D01*
X700625Y30625D01*
X701348Y30031D01*
X702173Y29590D01*
X703069Y29319D01*
X704000Y29227D01*
X704931Y29319D01*
X705826Y29590D01*
X706652Y30031D01*
X707375Y30625D01*
X707969Y31348D01*
X708410Y32174D01*
X708681Y33069D01*
X708773Y34000D01*
X708681Y34931D01*
X708410Y35826D01*
X707969Y36652D01*
X707375Y37375D01*
X706652Y37969D01*
X705826Y38410D01*
X704931Y38681D01*
X704000Y38773D01*
D02*
G37*
G36*
X677000Y39527D02*
X675922Y39420D01*
X674885Y39106D01*
X673930Y38595D01*
X673092Y37908D01*
X672405Y37070D01*
X671894Y36115D01*
X671580Y35078D01*
X671473Y34000D01*
X671580Y32922D01*
X671894Y31885D01*
X672405Y30930D01*
X673092Y30092D01*
X673930Y29405D01*
X674885Y28894D01*
X675922Y28580D01*
X677000Y28473D01*
X678078Y28580D01*
X679115Y28894D01*
X680070Y29405D01*
X680908Y30092D01*
X681015Y30222D01*
X682422Y30574D01*
X682978Y30335D01*
X683348Y30031D01*
X684174Y29590D01*
X685069Y29319D01*
X686000Y29227D01*
X686931Y29319D01*
X687827Y29590D01*
X688652Y30031D01*
X689375Y30625D01*
X689969Y31348D01*
X690410Y32174D01*
X690681Y33069D01*
X690773Y34000D01*
X690681Y34931D01*
X690410Y35826D01*
X689969Y36652D01*
X689375Y37375D01*
X688652Y37969D01*
X687827Y38410D01*
X686931Y38681D01*
X686000Y38773D01*
X685069Y38681D01*
X684174Y38410D01*
X683348Y37969D01*
X682978Y37665D01*
X682422Y37426D01*
X681015Y37778D01*
X680908Y37908D01*
X680070Y38595D01*
X679115Y39106D01*
X678078Y39420D01*
X677000Y39527D01*
D02*
G37*
G36*
X757000D02*
X755922Y39420D01*
X754885Y39106D01*
X753930Y38595D01*
X753092Y37908D01*
X752405Y37070D01*
X751894Y36115D01*
X751580Y35078D01*
X751473Y34000D01*
X751580Y32922D01*
X751894Y31885D01*
X752405Y30930D01*
X753092Y30092D01*
X753930Y29405D01*
X754885Y28894D01*
X755922Y28580D01*
X757000Y28473D01*
X758078Y28580D01*
X759115Y28894D01*
X760070Y29405D01*
X760908Y30092D01*
X761595Y30930D01*
X762106Y31885D01*
X762420Y32922D01*
X762527Y34000D01*
X762420Y35078D01*
X762106Y36115D01*
X761595Y37070D01*
X760908Y37908D01*
X760070Y38595D01*
X759115Y39106D01*
X758078Y39420D01*
X757000Y39527D01*
D02*
G37*
G36*
X221000Y44773D02*
X220069Y44681D01*
X219174Y44410D01*
X218348Y43969D01*
X217625Y43375D01*
X217031Y42652D01*
X216590Y41827D01*
X216319Y40931D01*
X216227Y40000D01*
X216319Y39069D01*
X216590Y38173D01*
X217031Y37348D01*
X217625Y36625D01*
X218348Y36031D01*
X219174Y35590D01*
X220069Y35319D01*
X221000Y35227D01*
X221931Y35319D01*
X222826Y35590D01*
X223652Y36031D01*
X224375Y36625D01*
X224969Y37348D01*
X225410Y38173D01*
X225681Y39069D01*
X225773Y40000D01*
X225681Y40931D01*
X225410Y41827D01*
X224969Y42652D01*
X224375Y43375D01*
X223652Y43969D01*
X222826Y44410D01*
X221931Y44681D01*
X221000Y44773D01*
D02*
G37*
G36*
X739000Y38773D02*
X738069Y38681D01*
X737173Y38410D01*
X736348Y37969D01*
X735625Y37375D01*
X735031Y36652D01*
X734590Y35826D01*
X734319Y34931D01*
X734227Y34000D01*
X734319Y33069D01*
X734590Y32174D01*
X735031Y31348D01*
X735625Y30625D01*
X736348Y30031D01*
X737173Y29590D01*
X738069Y29319D01*
X739000Y29227D01*
X739931Y29319D01*
X740826Y29590D01*
X741652Y30031D01*
X742375Y30625D01*
X742969Y31348D01*
X743410Y32174D01*
X743681Y33069D01*
X743773Y34000D01*
X743681Y34931D01*
X743410Y35826D01*
X742969Y36652D01*
X742375Y37375D01*
X741652Y37969D01*
X740826Y38410D01*
X739931Y38681D01*
X739000Y38773D01*
D02*
G37*
G36*
X721000D02*
X720069Y38681D01*
X719174Y38410D01*
X718348Y37969D01*
X717625Y37375D01*
X717031Y36652D01*
X716590Y35826D01*
X716319Y34931D01*
X716227Y34000D01*
X716319Y33069D01*
X716590Y32174D01*
X717031Y31348D01*
X717625Y30625D01*
X718348Y30031D01*
X719174Y29590D01*
X720069Y29319D01*
X721000Y29227D01*
X721931Y29319D01*
X722827Y29590D01*
X723652Y30031D01*
X724375Y30625D01*
X724969Y31348D01*
X725410Y32174D01*
X725681Y33069D01*
X725773Y34000D01*
X725681Y34931D01*
X725410Y35826D01*
X724969Y36652D01*
X724375Y37375D01*
X723652Y37969D01*
X722827Y38410D01*
X721931Y38681D01*
X721000Y38773D01*
D02*
G37*
G36*
X616468Y37142D02*
X615537Y37050D01*
X614641Y36779D01*
X613816Y36338D01*
X613093Y35744D01*
X612500Y35021D01*
X612058Y34196D01*
X611787Y33300D01*
X611695Y32369D01*
X611787Y31438D01*
X612058Y30543D01*
X612500Y29717D01*
X613093Y28994D01*
X613816Y28400D01*
X614641Y27959D01*
X615537Y27688D01*
X616468Y27596D01*
X617399Y27688D01*
X618295Y27959D01*
X619120Y28400D01*
X619843Y28994D01*
X620437Y29717D01*
X620878Y30543D01*
X621149Y31438D01*
X621241Y32369D01*
X621149Y33300D01*
X620878Y34196D01*
X620437Y35021D01*
X619843Y35744D01*
X619120Y36338D01*
X618295Y36779D01*
X617399Y37050D01*
X616468Y37142D01*
D02*
G37*
G36*
X271000Y27773D02*
X270069Y27681D01*
X269174Y27410D01*
X268348Y26969D01*
X267625Y26375D01*
X267031Y25652D01*
X266590Y24827D01*
X266319Y23931D01*
X266227Y23000D01*
X266319Y22069D01*
X266590Y21174D01*
X267031Y20348D01*
X267625Y19625D01*
X267783Y19496D01*
X267885Y17967D01*
X267033Y17115D01*
X265504Y17217D01*
X265375Y17375D01*
X264652Y17969D01*
X263827Y18410D01*
X262931Y18681D01*
X262000Y18773D01*
X261069Y18681D01*
X260173Y18410D01*
X259348Y17969D01*
X258625Y17375D01*
X258031Y16652D01*
X257590Y15826D01*
X257319Y14931D01*
X257227Y14000D01*
X257319Y13069D01*
X257590Y12174D01*
X258031Y11348D01*
X258625Y10625D01*
X259348Y10031D01*
X260173Y9590D01*
X261069Y9319D01*
X262000Y9227D01*
X262931Y9319D01*
X263827Y9590D01*
X264652Y10031D01*
X265375Y10625D01*
X265582Y10877D01*
X265976Y11006D01*
X267024D01*
X267418Y10877D01*
X267625Y10625D01*
X268348Y10031D01*
X269174Y9590D01*
X270069Y9319D01*
X271000Y9227D01*
X271931Y9319D01*
X272826Y9590D01*
X273652Y10031D01*
X274375Y10625D01*
X274969Y11348D01*
X275410Y12174D01*
X275681Y13069D01*
X275773Y14000D01*
X275681Y14931D01*
X275410Y15826D01*
X274969Y16652D01*
X274375Y17375D01*
X274123Y17582D01*
X273995Y17976D01*
Y19024D01*
X274123Y19418D01*
X274375Y19625D01*
X274969Y20348D01*
X275410Y21174D01*
X275681Y22069D01*
X275773Y23000D01*
X275681Y23931D01*
X275410Y24827D01*
X274969Y25652D01*
X274375Y26375D01*
X273652Y26969D01*
X272826Y27410D01*
X271931Y27681D01*
X271000Y27773D01*
D02*
G37*
G36*
X633000Y23773D02*
X632069Y23681D01*
X631174Y23410D01*
X630348Y22969D01*
X629625Y22375D01*
X629031Y21652D01*
X628590Y20826D01*
X628319Y19931D01*
X628227Y19000D01*
X628319Y18069D01*
X628590Y17173D01*
X629031Y16348D01*
X629625Y15625D01*
X630348Y15031D01*
X631174Y14590D01*
X632069Y14319D01*
X633000Y14227D01*
X633931Y14319D01*
X634827Y14590D01*
X635652Y15031D01*
X636375Y15625D01*
X636969Y16348D01*
X637410Y17173D01*
X637681Y18069D01*
X637773Y19000D01*
X637681Y19931D01*
X637410Y20826D01*
X636969Y21652D01*
X636375Y22375D01*
X635652Y22969D01*
X634827Y23410D01*
X633931Y23681D01*
X633000Y23773D01*
D02*
G37*
G36*
X774000Y19773D02*
X773069Y19681D01*
X772173Y19410D01*
X771348Y18969D01*
X770625Y18375D01*
X770031Y17652D01*
X769590Y16826D01*
X769319Y15931D01*
X769227Y15000D01*
X769319Y14069D01*
X769590Y13174D01*
X770031Y12348D01*
X770625Y11625D01*
X771348Y11031D01*
X772173Y10590D01*
X773069Y10319D01*
X774000Y10227D01*
X774931Y10319D01*
X775826Y10590D01*
X776652Y11031D01*
X777375Y11625D01*
X777969Y12348D01*
X778410Y13174D01*
X778681Y14069D01*
X778773Y15000D01*
X778681Y15931D01*
X778410Y16826D01*
X777969Y17652D01*
X777375Y18375D01*
X776652Y18969D01*
X775826Y19410D01*
X774931Y19681D01*
X774000Y19773D01*
D02*
G37*
G36*
X645000Y35773D02*
X644069Y35681D01*
X643174Y35410D01*
X642348Y34969D01*
X641625Y34375D01*
X641031Y33652D01*
X640590Y32826D01*
X640319Y31931D01*
X640227Y31000D01*
X640319Y30069D01*
X640590Y29173D01*
X641031Y28348D01*
X641625Y27625D01*
X642348Y27031D01*
X643174Y26590D01*
X644069Y26319D01*
X645000Y26227D01*
X645931Y26319D01*
X646826Y26590D01*
X647652Y27031D01*
X648375Y27625D01*
X648969Y28348D01*
X649410Y29173D01*
X649681Y30069D01*
X649773Y31000D01*
X649681Y31931D01*
X649410Y32826D01*
X648969Y33652D01*
X648375Y34375D01*
X647652Y34969D01*
X646826Y35410D01*
X645931Y35681D01*
X645000Y35773D01*
D02*
G37*
G36*
X659000Y39773D02*
X658069Y39681D01*
X657173Y39410D01*
X656348Y38969D01*
X655625Y38375D01*
X655031Y37652D01*
X654590Y36827D01*
X654319Y35931D01*
X654227Y35000D01*
X654319Y34069D01*
X654590Y33173D01*
X655031Y32348D01*
X655625Y31625D01*
Y30375D01*
X655031Y29652D01*
X654590Y28826D01*
X654319Y27931D01*
X654227Y27000D01*
X654319Y26069D01*
X654590Y25173D01*
X655031Y24348D01*
X655625Y23625D01*
X656348Y23031D01*
X657173Y22590D01*
X658069Y22319D01*
X659000Y22227D01*
X659931Y22319D01*
X660826Y22590D01*
X661652Y23031D01*
X662375Y23625D01*
X662969Y24348D01*
X663410Y25173D01*
X663681Y26069D01*
X663773Y27000D01*
X663681Y27931D01*
X663410Y28826D01*
X662969Y29652D01*
X662375Y30375D01*
Y31625D01*
X662969Y32348D01*
X663410Y33173D01*
X663681Y34069D01*
X663773Y35000D01*
X663681Y35931D01*
X663410Y36827D01*
X662969Y37652D01*
X662375Y38375D01*
X661652Y38969D01*
X660826Y39410D01*
X659931Y39681D01*
X659000Y39773D01*
D02*
G37*
G36*
X464000Y28773D02*
X463069Y28681D01*
X462174Y28410D01*
X461348Y27969D01*
X460625Y27375D01*
X460031Y26652D01*
X459590Y25826D01*
X459319Y24931D01*
X459227Y24000D01*
X459319Y23069D01*
X459590Y22174D01*
X460031Y21348D01*
X460625Y20625D01*
X461348Y20031D01*
X462174Y19590D01*
X463069Y19319D01*
X464000Y19227D01*
X464931Y19319D01*
X465827Y19590D01*
X466652Y20031D01*
X467375Y20625D01*
X467969Y21348D01*
X468410Y22174D01*
X468681Y23069D01*
X468773Y24000D01*
X468681Y24931D01*
X468410Y25826D01*
X467969Y26652D01*
X467375Y27375D01*
X466652Y27969D01*
X465827Y28410D01*
X464931Y28681D01*
X464000Y28773D01*
D02*
G37*
G36*
X761000Y76773D02*
X760069Y76681D01*
X759174Y76410D01*
X758348Y75969D01*
X757625Y75375D01*
X757031Y74652D01*
X756590Y73826D01*
X756319Y72931D01*
X756227Y72000D01*
X756319Y71069D01*
X756590Y70174D01*
X757031Y69348D01*
X757625Y68625D01*
X758348Y68031D01*
X759174Y67590D01*
X760069Y67319D01*
X761000Y67227D01*
X761931Y67319D01*
X762827Y67590D01*
X763652Y68031D01*
X764375Y68625D01*
X764969Y69348D01*
X765410Y70174D01*
X765681Y71069D01*
X765773Y72000D01*
X765681Y72931D01*
X765410Y73826D01*
X764969Y74652D01*
X764375Y75375D01*
X763652Y75969D01*
X762827Y76410D01*
X761931Y76681D01*
X761000Y76773D01*
D02*
G37*
G36*
X742000Y75773D02*
X741069Y75681D01*
X740173Y75410D01*
X739348Y74969D01*
X738625Y74375D01*
X738031Y73652D01*
X737590Y72826D01*
X737319Y71931D01*
X737227Y71000D01*
X737319Y70069D01*
X737590Y69173D01*
X738031Y68348D01*
X738625Y67625D01*
X739348Y67031D01*
X740173Y66590D01*
X741069Y66319D01*
X742000Y66227D01*
X742931Y66319D01*
X743827Y66590D01*
X744652Y67031D01*
X745375Y67625D01*
X745969Y68348D01*
X746410Y69173D01*
X746681Y70069D01*
X746773Y71000D01*
X746681Y71931D01*
X746410Y72826D01*
X745969Y73652D01*
X745375Y74375D01*
X744652Y74969D01*
X743827Y75410D01*
X742931Y75681D01*
X742000Y75773D01*
D02*
G37*
G36*
X523837Y66841D02*
X522906Y66749D01*
X522010Y66477D01*
X521185Y66036D01*
X520462Y65443D01*
X519869Y64719D01*
X519427Y63894D01*
X519156Y62999D01*
X519064Y62067D01*
X519156Y61136D01*
X519427Y60241D01*
X519869Y59416D01*
X520462Y58692D01*
X521185Y58099D01*
X522010Y57658D01*
X522906Y57386D01*
X523837Y57295D01*
X524768Y57386D01*
X525664Y57658D01*
X526489Y58099D01*
X527212Y58692D01*
X527806Y59416D01*
X528247Y60241D01*
X528518Y61136D01*
X528610Y62067D01*
X528518Y62999D01*
X528247Y63894D01*
X527806Y64719D01*
X527212Y65443D01*
X526489Y66036D01*
X525664Y66477D01*
X524768Y66749D01*
X523837Y66841D01*
D02*
G37*
G36*
X635560Y78861D02*
X634629Y78770D01*
X633733Y78498D01*
X632908Y78057D01*
X632185Y77463D01*
X631591Y76740D01*
X631150Y75915D01*
X630879Y75019D01*
X630787Y74088D01*
X630879Y73157D01*
X631150Y72262D01*
X631530Y71551D01*
X631420Y71266D01*
X630605Y70450D01*
X630319Y70340D01*
X629608Y70720D01*
X628713Y70991D01*
X627782Y71083D01*
X626851Y70991D01*
X625955Y70720D01*
X625130Y70279D01*
X624407Y69685D01*
X623813Y68962D01*
X623372Y68137D01*
X623101Y67241D01*
X623009Y66310D01*
X623101Y65379D01*
X623372Y64484D01*
X623752Y63773D01*
X623642Y63487D01*
X622826Y62672D01*
X622541Y62561D01*
X621830Y62942D01*
X620935Y63213D01*
X620004Y63305D01*
X619072Y63213D01*
X618177Y62942D01*
X617352Y62501D01*
X616629Y61907D01*
X616035Y61184D01*
X615594Y60359D01*
X615322Y59463D01*
X615231Y58532D01*
X615322Y57601D01*
X615594Y56705D01*
X615974Y55994D01*
X615864Y55709D01*
X615048Y54893D01*
X614763Y54783D01*
X614052Y55163D01*
X613157Y55435D01*
X612225Y55527D01*
X611294Y55435D01*
X610399Y55163D01*
X609574Y54722D01*
X608850Y54129D01*
X608257Y53405D01*
X607816Y52580D01*
X607544Y51685D01*
X607452Y50754D01*
X607544Y49823D01*
X607816Y48927D01*
X608257Y48102D01*
X608850Y47379D01*
X609574Y46785D01*
X610399Y46344D01*
X611294Y46073D01*
X612225Y45981D01*
X613157Y46073D01*
X614052Y46344D01*
X614877Y46785D01*
X615600Y47379D01*
X615714Y47390D01*
X617262Y47039D01*
X617449Y46688D01*
X618043Y45965D01*
X618766Y45371D01*
X619591Y44930D01*
X620487Y44658D01*
X621418Y44567D01*
X622349Y44658D01*
X623244Y44930D01*
X624070Y45371D01*
X624793Y45965D01*
X625386Y46688D01*
X625827Y47513D01*
X626099Y48408D01*
X626191Y49340D01*
X626099Y50271D01*
X625827Y51166D01*
X625447Y51877D01*
X625558Y52162D01*
X626373Y52978D01*
X626658Y53088D01*
X627369Y52708D01*
X628265Y52436D01*
X629196Y52345D01*
X630127Y52436D01*
X631022Y52708D01*
X631848Y53149D01*
X632571Y53743D01*
X633164Y54466D01*
X633606Y55291D01*
X633877Y56187D01*
X633969Y57118D01*
X633877Y58049D01*
X633606Y58944D01*
X633226Y59655D01*
X633336Y59941D01*
X634151Y60756D01*
X634436Y60866D01*
X635148Y60486D01*
X636043Y60215D01*
X636974Y60123D01*
X637905Y60215D01*
X638801Y60486D01*
X639626Y60927D01*
X640349Y61521D01*
X640943Y62244D01*
X641384Y63069D01*
X641655Y63965D01*
X641747Y64896D01*
X641655Y65827D01*
X641384Y66722D01*
X641004Y67434D01*
X641114Y67719D01*
X641930Y68534D01*
X642215Y68644D01*
X642926Y68264D01*
X643821Y67993D01*
X644752Y67901D01*
X645683Y67993D01*
X646579Y68264D01*
X647404Y68706D01*
X648127Y69299D01*
X648721Y70022D01*
X649162Y70848D01*
X649434Y71743D01*
X649525Y72674D01*
X649434Y73605D01*
X649162Y74501D01*
X648721Y75326D01*
X648127Y76049D01*
X647404Y76643D01*
X646579Y77084D01*
X645683Y77355D01*
X644752Y77447D01*
X643821Y77355D01*
X642926Y77084D01*
X642101Y76643D01*
X641377Y76049D01*
X641264Y76038D01*
X639716Y76389D01*
X639529Y76740D01*
X638935Y77463D01*
X638212Y78057D01*
X637387Y78498D01*
X636491Y78770D01*
X635560Y78861D01*
D02*
G37*
G36*
X588891Y79568D02*
X587960Y79477D01*
X587064Y79205D01*
X586239Y78764D01*
X585516Y78170D01*
X584922Y77447D01*
X584481Y76622D01*
X584210Y75727D01*
X584118Y74795D01*
X584210Y73864D01*
X584481Y72969D01*
X584922Y72144D01*
X585516Y71420D01*
X586239Y70827D01*
X587064Y70386D01*
X587960Y70114D01*
X588891Y70022D01*
X589822Y70114D01*
X590717Y70386D01*
X591543Y70827D01*
X592266Y71420D01*
X592859Y72144D01*
X593301Y72969D01*
X593572Y73864D01*
X593664Y74795D01*
X593572Y75727D01*
X593301Y76622D01*
X592859Y77447D01*
X592266Y78170D01*
X591543Y78764D01*
X590717Y79205D01*
X589822Y79477D01*
X588891Y79568D01*
D02*
G37*
G36*
X498381Y92296D02*
X497450Y92205D01*
X496555Y91933D01*
X495729Y91492D01*
X495006Y90898D01*
X494413Y90175D01*
X493972Y89350D01*
X493700Y88455D01*
X493608Y87523D01*
X493700Y86592D01*
X493972Y85697D01*
X494413Y84872D01*
X495006Y84148D01*
X495729Y83555D01*
X496555Y83114D01*
X497450Y82842D01*
X498381Y82750D01*
X499312Y82842D01*
X499718Y82965D01*
X500061Y82787D01*
X500716Y82132D01*
X500894Y81789D01*
X500771Y81383D01*
X500679Y80452D01*
X500771Y79521D01*
X501043Y78626D01*
X501484Y77801D01*
X502077Y77077D01*
X502800Y76484D01*
X503626Y76043D01*
X504521Y75771D01*
X505452Y75679D01*
X506383Y75771D01*
X506789Y75894D01*
X507132Y75716D01*
X507787Y75061D01*
X507965Y74718D01*
X507842Y74312D01*
X507750Y73381D01*
X507842Y72450D01*
X508114Y71555D01*
X508555Y70729D01*
X509148Y70006D01*
X509872Y69413D01*
X510697Y68972D01*
X511592Y68700D01*
X512523Y68608D01*
X513455Y68700D01*
X514350Y68972D01*
X515175Y69413D01*
X515898Y70006D01*
X516492Y70729D01*
X516933Y71555D01*
X517205Y72450D01*
X517296Y73381D01*
X517205Y74312D01*
X516933Y75208D01*
X516492Y76033D01*
X515898Y76756D01*
X515175Y77350D01*
X514350Y77791D01*
X513455Y78063D01*
X512523Y78154D01*
X511592Y78063D01*
X511187Y77940D01*
X510844Y78117D01*
X510188Y78773D01*
X510011Y79116D01*
X510134Y79521D01*
X510225Y80452D01*
X510134Y81383D01*
X509862Y82279D01*
X509421Y83104D01*
X508827Y83827D01*
X508104Y84421D01*
X507279Y84862D01*
X506383Y85133D01*
X505452Y85225D01*
X504521Y85133D01*
X504116Y85011D01*
X503773Y85188D01*
X503117Y85844D01*
X502939Y86187D01*
X503062Y86592D01*
X503154Y87523D01*
X503062Y88455D01*
X502791Y89350D01*
X502350Y90175D01*
X501756Y90898D01*
X501033Y91492D01*
X500208Y91933D01*
X499312Y92205D01*
X498381Y92296D01*
D02*
G37*
G36*
X573335Y64012D02*
X572403Y63920D01*
X571508Y63649D01*
X570683Y63208D01*
X569959Y62614D01*
X569366Y61891D01*
X568925Y61066D01*
X568653Y60170D01*
X568562Y59239D01*
X568653Y58308D01*
X568925Y57413D01*
X569366Y56587D01*
X569959Y55864D01*
X570683Y55271D01*
X571508Y54829D01*
X572403Y54558D01*
X573335Y54466D01*
X574266Y54558D01*
X575161Y54829D01*
X575986Y55271D01*
X576710Y55864D01*
X577303Y56587D01*
X577744Y57413D01*
X578016Y58308D01*
X578107Y59239D01*
X578016Y60170D01*
X577744Y61066D01*
X577303Y61891D01*
X576710Y62614D01*
X575986Y63208D01*
X575161Y63649D01*
X574266Y63920D01*
X573335Y64012D01*
D02*
G37*
G36*
X537979Y52698D02*
X537048Y52607D01*
X536153Y52335D01*
X535327Y51894D01*
X534604Y51300D01*
X534011Y50577D01*
X533569Y49752D01*
X533298Y48857D01*
X533206Y47925D01*
X533298Y46994D01*
X533569Y46099D01*
X534011Y45274D01*
X534604Y44550D01*
X535327Y43957D01*
X536153Y43516D01*
X537048Y43244D01*
X537979Y43152D01*
X538910Y43244D01*
X539806Y43516D01*
X540631Y43957D01*
X541354Y44550D01*
X541948Y45274D01*
X542389Y46099D01*
X542660Y46994D01*
X542752Y47925D01*
X542660Y48857D01*
X542389Y49752D01*
X541948Y50577D01*
X541354Y51300D01*
X540631Y51894D01*
X539806Y52335D01*
X538910Y52607D01*
X537979Y52698D01*
D02*
G37*
G36*
X487775Y55527D02*
X486843Y55435D01*
X485948Y55163D01*
X485123Y54722D01*
X484400Y54129D01*
X483806Y53405D01*
X483365Y52580D01*
X483093Y51685D01*
X483002Y50754D01*
X483093Y49823D01*
X483365Y48927D01*
X483806Y48102D01*
X484400Y47379D01*
X485123Y46785D01*
X485948Y46344D01*
X486843Y46073D01*
X487775Y45981D01*
X488575Y46060D01*
X489121Y45657D01*
X489395Y45383D01*
X489798Y44836D01*
X489719Y44036D01*
X489811Y43105D01*
X490083Y42210D01*
X490523Y41385D01*
X491117Y40661D01*
X491840Y40068D01*
X492666Y39627D01*
X493561Y39355D01*
X494492Y39263D01*
X495423Y39355D01*
X496319Y39627D01*
X497144Y40068D01*
X497867Y40661D01*
X498461Y41385D01*
X498902Y42210D01*
X499173Y43105D01*
X499265Y44036D01*
X499173Y44967D01*
X498902Y45863D01*
X498461Y46688D01*
X497867Y47411D01*
X497144Y48005D01*
X496319Y48446D01*
X495423Y48717D01*
X494492Y48809D01*
X493692Y48730D01*
X493145Y49133D01*
X492871Y49407D01*
X492469Y49954D01*
X492548Y50754D01*
X492456Y51685D01*
X492184Y52580D01*
X491743Y53405D01*
X491150Y54129D01*
X490426Y54722D01*
X489601Y55163D01*
X488706Y55435D01*
X487775Y55527D01*
D02*
G37*
G36*
X464086Y48809D02*
X463155Y48717D01*
X462260Y48446D01*
X461435Y48005D01*
X460712Y47411D01*
X460118Y46688D01*
X459677Y45863D01*
X459405Y44967D01*
X459314Y44036D01*
X459405Y43105D01*
X459677Y42210D01*
X460118Y41385D01*
X460712Y40661D01*
X461435Y40068D01*
X462260Y39627D01*
X463155Y39355D01*
X464086Y39263D01*
X465018Y39355D01*
X465913Y39627D01*
X466738Y40068D01*
X467462Y40661D01*
X468055Y41385D01*
X468496Y42210D01*
X468768Y43105D01*
X468859Y44036D01*
X468768Y44967D01*
X468496Y45863D01*
X468055Y46688D01*
X467462Y47411D01*
X466738Y48005D01*
X465913Y48446D01*
X465018Y48717D01*
X464086Y48809D01*
D02*
G37*
G36*
X358000Y46773D02*
X357069Y46681D01*
X356174Y46410D01*
X355348Y45969D01*
X354625Y45375D01*
X354418Y45122D01*
X354024Y44995D01*
X352976D01*
X352582Y45122D01*
X352375Y45375D01*
X351652Y45969D01*
X350826Y46410D01*
X349931Y46681D01*
X349000Y46773D01*
X348069Y46681D01*
X347173Y46410D01*
X346348Y45969D01*
X345625Y45375D01*
X345031Y44652D01*
X344590Y43826D01*
X344319Y42931D01*
X344227Y42000D01*
X344319Y41069D01*
X344590Y40174D01*
X345031Y39348D01*
X345625Y38625D01*
X346348Y38031D01*
X347173Y37590D01*
X348069Y37319D01*
X349000Y37227D01*
X349931Y37319D01*
X350826Y37590D01*
X351652Y38031D01*
X352375Y38625D01*
X352582Y38877D01*
X352976Y39005D01*
X354024D01*
X354418Y38877D01*
X354625Y38625D01*
X355348Y38031D01*
X356174Y37590D01*
X357069Y37319D01*
X358000Y37227D01*
X358931Y37319D01*
X359827Y37590D01*
X360652Y38031D01*
X361375Y38625D01*
X361969Y39348D01*
X362410Y40174D01*
X362681Y41069D01*
X362773Y42000D01*
X362681Y42931D01*
X362410Y43826D01*
X361969Y44652D01*
X361375Y45375D01*
X360652Y45969D01*
X359827Y46410D01*
X358931Y46681D01*
X358000Y46773D01*
D02*
G37*
G36*
X563435Y54113D02*
X562504Y54021D01*
X561609Y53749D01*
X560783Y53308D01*
X560060Y52715D01*
X559466Y51991D01*
X559025Y51166D01*
X558754Y50271D01*
X558662Y49340D01*
X558754Y48408D01*
X559025Y47513D01*
X559466Y46688D01*
X560060Y45965D01*
X560783Y45371D01*
X561609Y44930D01*
X562504Y44658D01*
X563435Y44567D01*
X564366Y44658D01*
X565261Y44930D01*
X566087Y45371D01*
X566810Y45965D01*
X567404Y46688D01*
X567845Y47513D01*
X568116Y48408D01*
X568208Y49340D01*
X568116Y50271D01*
X567845Y51166D01*
X567404Y51991D01*
X566810Y52715D01*
X566087Y53308D01*
X565261Y53749D01*
X564366Y54021D01*
X563435Y54113D01*
D02*
G37*
G36*
X793000Y52773D02*
X792069Y52681D01*
X791173Y52410D01*
X790348Y51969D01*
X789625Y51375D01*
X789031Y50652D01*
X788590Y49826D01*
X788319Y48931D01*
X788227Y48000D01*
X788319Y47069D01*
X788590Y46174D01*
X789031Y45348D01*
X789625Y44625D01*
X790348Y44031D01*
X791173Y43590D01*
X792069Y43319D01*
X793000Y43227D01*
X793931Y43319D01*
X794827Y43590D01*
X795652Y44031D01*
X796375Y44625D01*
X796969Y45348D01*
X797410Y46174D01*
X797681Y47069D01*
X797773Y48000D01*
X797681Y48931D01*
X797410Y49826D01*
X796969Y50652D01*
X796375Y51375D01*
X795652Y51969D01*
X794827Y52410D01*
X793931Y52681D01*
X793000Y52773D01*
D02*
G37*
G36*
X430000Y217279D02*
X428549Y217164D01*
X427133Y216824D01*
X425788Y216267D01*
X424546Y215507D01*
X423439Y214561D01*
X422494Y213454D01*
X421733Y212212D01*
X421175Y210867D01*
X420836Y209452D01*
X420721Y208000D01*
X420836Y206549D01*
X421175Y205133D01*
X421733Y203788D01*
X422494Y202546D01*
X423439Y201439D01*
X424546Y200494D01*
X425788Y199733D01*
X427133Y199175D01*
X428549Y198836D01*
X430000Y198721D01*
X431451Y198836D01*
X432867Y199175D01*
X434212Y199733D01*
X435454Y200494D01*
X436561Y201439D01*
X437506Y202546D01*
X438267Y203788D01*
X438825Y205133D01*
X439164Y206549D01*
X439279Y208000D01*
X439164Y209452D01*
X438825Y210867D01*
X438267Y212212D01*
X437506Y213454D01*
X436561Y214561D01*
X435454Y215507D01*
X434212Y216267D01*
X432867Y216824D01*
X431451Y217164D01*
X430000Y217279D01*
D02*
G37*
G36*
X870000Y207773D02*
X869069Y207681D01*
X868174Y207410D01*
X867348Y206969D01*
X866625Y206375D01*
X866031Y205652D01*
X865590Y204827D01*
X865319Y203931D01*
X865227Y203000D01*
X865319Y202069D01*
X865590Y201173D01*
X866031Y200348D01*
X866625Y199625D01*
X867348Y199031D01*
X868174Y198590D01*
X869069Y198319D01*
X870000Y198227D01*
X870931Y198319D01*
X871827Y198590D01*
X872652Y199031D01*
X873375Y199625D01*
X873969Y200348D01*
X874410Y201173D01*
X874681Y202069D01*
X874773Y203000D01*
X874681Y203931D01*
X874410Y204827D01*
X873969Y205652D01*
X873375Y206375D01*
X872652Y206969D01*
X871827Y207410D01*
X870931Y207681D01*
X870000Y207773D01*
D02*
G37*
G36*
X461000Y194773D02*
X460069Y194681D01*
X459174Y194410D01*
X458348Y193969D01*
X457625Y193375D01*
X457418Y193123D01*
X457024Y192994D01*
X455976D01*
X455582Y193123D01*
X455375Y193375D01*
X454652Y193969D01*
X453826Y194410D01*
X452931Y194681D01*
X452000Y194773D01*
X451069Y194681D01*
X450173Y194410D01*
X449348Y193969D01*
X448625Y193375D01*
X448031Y192652D01*
X447590Y191826D01*
X447319Y190931D01*
X447227Y190000D01*
X447319Y189069D01*
X447590Y188174D01*
X448031Y187348D01*
X448625Y186625D01*
X449348Y186031D01*
X450173Y185590D01*
X451069Y185319D01*
X452000Y185227D01*
X452931Y185319D01*
X453826Y185590D01*
X454652Y186031D01*
X455375Y186625D01*
X455582Y186877D01*
X455976Y187006D01*
X457024D01*
X457418Y186877D01*
X457625Y186625D01*
X458348Y186031D01*
X459174Y185590D01*
X460069Y185319D01*
X461000Y185227D01*
X461931Y185319D01*
X462827Y185590D01*
X463652Y186031D01*
X464375Y186625D01*
X464969Y187348D01*
X465410Y188174D01*
X465681Y189069D01*
X465773Y190000D01*
X465681Y190931D01*
X465410Y191826D01*
X464969Y192652D01*
X464375Y193375D01*
X463652Y193969D01*
X462827Y194410D01*
X461931Y194681D01*
X461000Y194773D01*
D02*
G37*
G36*
X559192Y209676D02*
X558261Y209584D01*
X557366Y209313D01*
X556541Y208872D01*
X555817Y208278D01*
X555224Y207555D01*
X554783Y206730D01*
X554511Y205834D01*
X554419Y204903D01*
X554511Y203972D01*
X554783Y203076D01*
X555224Y202251D01*
X555817Y201528D01*
X556541Y200935D01*
X557366Y200493D01*
X558261Y200222D01*
X559192Y200130D01*
X560123Y200222D01*
X561019Y200493D01*
X561844Y200935D01*
X562567Y201528D01*
X563161Y202251D01*
X563602Y203076D01*
X563874Y203972D01*
X563965Y204903D01*
X563874Y205834D01*
X563602Y206730D01*
X563161Y207555D01*
X562567Y208278D01*
X561844Y208872D01*
X561019Y209313D01*
X560123Y209584D01*
X559192Y209676D01*
D02*
G37*
G36*
X540808D02*
X539876Y209584D01*
X538981Y209313D01*
X538156Y208872D01*
X537433Y208278D01*
X536839Y207555D01*
X536398Y206730D01*
X536126Y205834D01*
X536035Y204903D01*
X536126Y203972D01*
X536398Y203076D01*
X536839Y202251D01*
X537433Y201528D01*
X538156Y200935D01*
X538981Y200493D01*
X539876Y200222D01*
X540808Y200130D01*
X541739Y200222D01*
X542634Y200493D01*
X543459Y200935D01*
X544183Y201528D01*
X544776Y202251D01*
X545217Y203076D01*
X545489Y203972D01*
X545581Y204903D01*
X545489Y205834D01*
X545217Y206730D01*
X544776Y207555D01*
X544183Y208278D01*
X543459Y208872D01*
X542634Y209313D01*
X541739Y209584D01*
X540808Y209676D01*
D02*
G37*
G36*
X480000Y217279D02*
X478549Y217164D01*
X477133Y216824D01*
X475788Y216267D01*
X474546Y215507D01*
X473439Y214561D01*
X472494Y213454D01*
X471733Y212212D01*
X471175Y210867D01*
X470836Y209452D01*
X470721Y208000D01*
X470836Y206549D01*
X471175Y205133D01*
X471733Y203788D01*
X472494Y202546D01*
X473439Y201439D01*
X474546Y200494D01*
X475788Y199733D01*
X477133Y199175D01*
X478549Y198836D01*
X480000Y198721D01*
X481451Y198836D01*
X482867Y199175D01*
X484212Y199733D01*
X485454Y200494D01*
X486561Y201439D01*
X487506Y202546D01*
X488267Y203788D01*
X488825Y205133D01*
X489164Y206549D01*
X489279Y208000D01*
X489164Y209452D01*
X488825Y210867D01*
X488267Y212212D01*
X487506Y213454D01*
X486561Y214561D01*
X485454Y215507D01*
X484212Y216267D01*
X482867Y216824D01*
X481451Y217164D01*
X480000Y217279D01*
D02*
G37*
G36*
X528787Y197655D02*
X527856Y197563D01*
X526960Y197292D01*
X526135Y196851D01*
X525412Y196257D01*
X524818Y195534D01*
X524377Y194709D01*
X524106Y193813D01*
X524014Y192882D01*
X524106Y191951D01*
X524377Y191056D01*
X524757Y190345D01*
X524647Y190059D01*
X523832Y189244D01*
X523546Y189134D01*
X522835Y189514D01*
X521940Y189785D01*
X521009Y189877D01*
X520077Y189785D01*
X519182Y189514D01*
X518357Y189073D01*
X517634Y188479D01*
X517040Y187756D01*
X516599Y186931D01*
X516327Y186035D01*
X516236Y185104D01*
X516327Y184173D01*
X516599Y183277D01*
X517040Y182452D01*
X517634Y181729D01*
X518357Y181136D01*
X519182Y180694D01*
X520077Y180423D01*
X521009Y180331D01*
X521940Y180423D01*
X522835Y180694D01*
X523660Y181136D01*
X524384Y181729D01*
X524977Y182452D01*
X525418Y183277D01*
X525690Y184173D01*
X525782Y185104D01*
X525690Y186035D01*
X525418Y186931D01*
X525038Y187642D01*
X525149Y187927D01*
X525964Y188742D01*
X526249Y188853D01*
X526960Y188473D01*
X527856Y188201D01*
X528787Y188109D01*
X529718Y188201D01*
X530613Y188473D01*
X531438Y188914D01*
X532162Y189507D01*
X532755Y190231D01*
X533196Y191056D01*
X533468Y191951D01*
X533560Y192882D01*
X533468Y193813D01*
X533196Y194709D01*
X532755Y195534D01*
X532162Y196257D01*
X531438Y196851D01*
X530613Y197292D01*
X529718Y197563D01*
X528787Y197655D01*
D02*
G37*
G36*
X304500Y185773D02*
X303569Y185681D01*
X302673Y185410D01*
X301848Y184969D01*
X301125Y184375D01*
X300918Y184123D01*
X300524Y183995D01*
X299476D01*
X299082Y184123D01*
X298875Y184375D01*
X298152Y184969D01*
X297327Y185410D01*
X296431Y185681D01*
X295500Y185773D01*
X294569Y185681D01*
X293673Y185410D01*
X292848Y184969D01*
X292125Y184375D01*
X291531Y183652D01*
X291090Y182826D01*
X290819Y181931D01*
X290727Y181000D01*
X290819Y180069D01*
X291090Y179174D01*
X291531Y178348D01*
X292125Y177625D01*
X292848Y177031D01*
X293673Y176590D01*
X294569Y176319D01*
X295500Y176227D01*
X296431Y176319D01*
X297327Y176590D01*
X298152Y177031D01*
X298875Y177625D01*
X299082Y177878D01*
X299476Y178006D01*
X300524D01*
X300918Y177878D01*
X301125Y177625D01*
X301848Y177031D01*
X302673Y176590D01*
X303569Y176319D01*
X304500Y176227D01*
X305431Y176319D01*
X306327Y176590D01*
X307152Y177031D01*
X307875Y177625D01*
X308469Y178348D01*
X308910Y179174D01*
X309181Y180069D01*
X309273Y181000D01*
X309181Y181931D01*
X308910Y182826D01*
X308469Y183652D01*
X307875Y184375D01*
X307152Y184969D01*
X306327Y185410D01*
X305431Y185681D01*
X304500Y185773D01*
D02*
G37*
G36*
X454480Y181624D02*
X453549Y181532D01*
X452653Y181261D01*
X451828Y180820D01*
X451105Y180226D01*
X450511Y179503D01*
X450070Y178678D01*
X449799Y177782D01*
X449707Y176851D01*
X449799Y175920D01*
X450070Y175025D01*
X450450Y174313D01*
X450340Y174028D01*
X449524Y173213D01*
X449239Y173102D01*
X448528Y173482D01*
X447633Y173754D01*
X446702Y173846D01*
X445771Y173754D01*
X444875Y173482D01*
X444050Y173041D01*
X443327Y172448D01*
X442733Y171725D01*
X442292Y170899D01*
X442020Y170004D01*
X441929Y169073D01*
X442020Y168142D01*
X442292Y167246D01*
X442733Y166421D01*
X443327Y165698D01*
X444050Y165104D01*
X444401Y164917D01*
X444752Y163369D01*
X444741Y163256D01*
X444147Y162532D01*
X443706Y161707D01*
X443435Y160812D01*
X443343Y159881D01*
X443435Y158949D01*
X443706Y158054D01*
X444147Y157229D01*
X444741Y156505D01*
X445464Y155912D01*
X446289Y155471D01*
X447185Y155199D01*
X448116Y155107D01*
X449047Y155199D01*
X449943Y155471D01*
X450768Y155912D01*
X451491Y156505D01*
X452085Y157229D01*
X452526Y158054D01*
X452797Y158949D01*
X452889Y159881D01*
X452797Y160812D01*
X452526Y161707D01*
X452146Y162418D01*
X452256Y162703D01*
X453071Y163519D01*
X453357Y163629D01*
X454068Y163249D01*
X454963Y162977D01*
X455894Y162886D01*
X456825Y162977D01*
X457721Y163249D01*
X458546Y163690D01*
X459269Y164284D01*
X459863Y165007D01*
X460304Y165832D01*
X460575Y166728D01*
X460667Y167659D01*
X460575Y168590D01*
X460304Y169485D01*
X459863Y170310D01*
X459269Y171034D01*
X458546Y171627D01*
X458195Y171815D01*
X457844Y173362D01*
X457855Y173476D01*
X458448Y174199D01*
X458890Y175025D01*
X459161Y175920D01*
X459253Y176851D01*
X459161Y177782D01*
X458890Y178678D01*
X458448Y179503D01*
X457855Y180226D01*
X457132Y180820D01*
X456306Y181261D01*
X455411Y181532D01*
X454480Y181624D01*
D02*
G37*
G36*
X360000Y172773D02*
X359069Y172681D01*
X358173Y172410D01*
X357348Y171969D01*
X356625Y171375D01*
X356031Y170652D01*
X355590Y169827D01*
X355319Y168931D01*
X355227Y168000D01*
X355319Y167069D01*
X355590Y166173D01*
X355670Y166025D01*
X355254Y165268D01*
X354674Y164707D01*
X354000Y164773D01*
X353069Y164681D01*
X352706Y164571D01*
X351731Y165839D01*
X351910Y166173D01*
X352181Y167069D01*
X352273Y168000D01*
X352181Y168931D01*
X351910Y169827D01*
X351469Y170652D01*
X350875Y171375D01*
X350152Y171969D01*
X349327Y172410D01*
X348431Y172681D01*
X347500Y172773D01*
X346569Y172681D01*
X345673Y172410D01*
X344848Y171969D01*
X344125Y171375D01*
X343531Y170652D01*
X343090Y169827D01*
X342819Y168931D01*
X342727Y168000D01*
X342819Y167069D01*
X343090Y166173D01*
X343269Y165839D01*
X342294Y164571D01*
X341931Y164681D01*
X341000Y164773D01*
X340069Y164681D01*
X339174Y164410D01*
X338348Y163969D01*
X337625Y163375D01*
X337031Y162652D01*
X336590Y161826D01*
X336319Y160931D01*
X336227Y160000D01*
X336319Y159069D01*
X336590Y158174D01*
X337031Y157348D01*
X337625Y156625D01*
X338348Y156031D01*
X339174Y155590D01*
X340069Y155319D01*
X341000Y155227D01*
X341931Y155319D01*
X342826Y155590D01*
X343652Y156031D01*
X344375Y156625D01*
X344969Y157348D01*
X345410Y158174D01*
X345681Y159069D01*
X345773Y160000D01*
X345681Y160931D01*
X345410Y161826D01*
X345231Y162161D01*
X346206Y163429D01*
X346569Y163319D01*
X347500Y163227D01*
X348431Y163319D01*
X348794Y163429D01*
X349769Y162161D01*
X349590Y161826D01*
X349319Y160931D01*
X349227Y160000D01*
X349319Y159069D01*
X349590Y158174D01*
X350031Y157348D01*
X350625Y156625D01*
X351348Y156031D01*
X352174Y155590D01*
X353069Y155319D01*
X354000Y155227D01*
X354931Y155319D01*
X355826Y155590D01*
X356652Y156031D01*
X357375Y156625D01*
X357969Y157348D01*
X358410Y158174D01*
X358681Y159069D01*
X358773Y160000D01*
X358681Y160931D01*
X358410Y161826D01*
X358330Y161975D01*
X358746Y162732D01*
X359327Y163293D01*
X360000Y163227D01*
X360931Y163319D01*
X361827Y163590D01*
X362652Y164031D01*
X363375Y164625D01*
X363969Y165348D01*
X364410Y166173D01*
X364681Y167069D01*
X364773Y168000D01*
X364681Y168931D01*
X364410Y169827D01*
X363969Y170652D01*
X363375Y171375D01*
X362652Y171969D01*
X361827Y172410D01*
X360931Y172681D01*
X360000Y172773D01*
D02*
G37*
G36*
X880000Y198273D02*
X879069Y198181D01*
X878174Y197910D01*
X877348Y197469D01*
X876625Y196875D01*
X876031Y196152D01*
X875590Y195326D01*
X875319Y194431D01*
X875227Y193500D01*
X875319Y192569D01*
X875590Y191674D01*
X876031Y190848D01*
X876625Y190125D01*
X877348Y189531D01*
X878174Y189090D01*
X879069Y188819D01*
X880000Y188727D01*
X880931Y188819D01*
X881826Y189090D01*
X882652Y189531D01*
X883375Y190125D01*
X883969Y190848D01*
X884410Y191674D01*
X884681Y192569D01*
X884773Y193500D01*
X884681Y194431D01*
X884410Y195326D01*
X883969Y196152D01*
X883375Y196875D01*
X882652Y197469D01*
X881826Y197910D01*
X880931Y198181D01*
X880000Y198273D01*
D02*
G37*
G36*
X255000Y197773D02*
X254069Y197681D01*
X253174Y197410D01*
X252348Y196969D01*
X251625Y196375D01*
X251031Y195652D01*
X250590Y194827D01*
X250319Y193931D01*
X250227Y193000D01*
X250319Y192069D01*
X250590Y191173D01*
X251031Y190348D01*
X251625Y189625D01*
X252348Y189031D01*
X253174Y188590D01*
X254069Y188319D01*
X255000Y188227D01*
X255931Y188319D01*
X256826Y188590D01*
X257652Y189031D01*
X258375Y189625D01*
X258969Y190348D01*
X259410Y191173D01*
X259681Y192069D01*
X259773Y193000D01*
X259681Y193931D01*
X259410Y194827D01*
X258969Y195652D01*
X258375Y196375D01*
X257652Y196969D01*
X256826Y197410D01*
X255931Y197681D01*
X255000Y197773D01*
D02*
G37*
G36*
X573335Y195534D02*
X572403Y195442D01*
X571508Y195171D01*
X570683Y194729D01*
X569959Y194136D01*
X569366Y193413D01*
X568925Y192588D01*
X568653Y191692D01*
X568562Y190761D01*
X568653Y189830D01*
X568925Y188934D01*
X569366Y188109D01*
X569959Y187386D01*
X570683Y186792D01*
X571508Y186351D01*
X572403Y186080D01*
X573335Y185988D01*
X574266Y186080D01*
X575161Y186351D01*
X575986Y186792D01*
X576710Y187386D01*
X577303Y188109D01*
X577744Y188934D01*
X578016Y189830D01*
X578107Y190761D01*
X578016Y191692D01*
X577744Y192588D01*
X577303Y193413D01*
X576710Y194136D01*
X575986Y194729D01*
X575161Y195171D01*
X574266Y195442D01*
X573335Y195534D01*
D02*
G37*
G36*
X171100Y243500D02*
X152100D01*
Y224500D01*
X171100D01*
Y243500D01*
D02*
G37*
G36*
X365000Y233773D02*
X364069Y233681D01*
X363173Y233410D01*
X362348Y232969D01*
X361625Y232375D01*
X361031Y231652D01*
X360590Y230826D01*
X360319Y229931D01*
X360227Y229000D01*
X360319Y228069D01*
X360590Y227174D01*
X361031Y226348D01*
X361625Y225625D01*
X362348Y225031D01*
X363173Y224590D01*
X364069Y224319D01*
X365000Y224227D01*
X365931Y224319D01*
X366827Y224590D01*
X367652Y225031D01*
X368375Y225625D01*
X368969Y226348D01*
X369410Y227174D01*
X369681Y228069D01*
X369773Y229000D01*
X369681Y229931D01*
X369410Y230826D01*
X368969Y231652D01*
X368375Y232375D01*
X367652Y232969D01*
X366827Y233410D01*
X365931Y233681D01*
X365000Y233773D01*
D02*
G37*
G36*
X400000Y229773D02*
X399069Y229681D01*
X398173Y229410D01*
X397348Y228969D01*
X396625Y228375D01*
X396031Y227652D01*
X395590Y226826D01*
X395319Y225931D01*
X395227Y225000D01*
X395319Y224069D01*
X395590Y223174D01*
X396031Y222348D01*
X396625Y221625D01*
X397348Y221031D01*
X398173Y220590D01*
X399069Y220319D01*
X400000Y220227D01*
X400931Y220319D01*
X401827Y220590D01*
X402652Y221031D01*
X403375Y221625D01*
X403969Y222348D01*
X404410Y223174D01*
X404681Y224069D01*
X404773Y225000D01*
X404681Y225931D01*
X404410Y226826D01*
X403969Y227652D01*
X403375Y228375D01*
X402652Y228969D01*
X401827Y229410D01*
X400931Y229681D01*
X400000Y229773D01*
D02*
G37*
G36*
X709000Y243773D02*
X708069Y243681D01*
X707173Y243410D01*
X706348Y242969D01*
X705625Y242375D01*
X705031Y241652D01*
X704590Y240826D01*
X704319Y239931D01*
X704227Y239000D01*
X704319Y238069D01*
X704590Y237174D01*
X705031Y236348D01*
X705625Y235625D01*
X706348Y235031D01*
X707173Y234590D01*
X708069Y234319D01*
X709000Y234227D01*
X709931Y234319D01*
X710826Y234590D01*
X711652Y235031D01*
X712375Y235625D01*
X712969Y236348D01*
X713410Y237174D01*
X713681Y238069D01*
X713773Y239000D01*
X713681Y239931D01*
X713410Y240826D01*
X712969Y241652D01*
X712375Y242375D01*
X711652Y242969D01*
X710826Y243410D01*
X709931Y243681D01*
X709000Y243773D01*
D02*
G37*
G36*
X271500Y235773D02*
X270569Y235681D01*
X269674Y235410D01*
X268848Y234969D01*
X268125Y234375D01*
X267918Y234123D01*
X267524Y233995D01*
X266476D01*
X266082Y234123D01*
X265875Y234375D01*
X265152Y234969D01*
X264326Y235410D01*
X263431Y235681D01*
X262500Y235773D01*
X261569Y235681D01*
X260674Y235410D01*
X259848Y234969D01*
X259125Y234375D01*
X258531Y233652D01*
X258090Y232826D01*
X257819Y231931D01*
X257727Y231000D01*
X257819Y230069D01*
X258090Y229174D01*
X258531Y228348D01*
X259125Y227625D01*
X259848Y227031D01*
X260674Y226590D01*
X261569Y226319D01*
X262500Y226227D01*
X263431Y226319D01*
X264326Y226590D01*
X265152Y227031D01*
X265875Y227625D01*
X266082Y227878D01*
X266476Y228006D01*
X267524D01*
X267918Y227878D01*
X268125Y227625D01*
X268848Y227031D01*
X269674Y226590D01*
X270569Y226319D01*
X271500Y226227D01*
X272431Y226319D01*
X273327Y226590D01*
X274152Y227031D01*
X274875Y227625D01*
X275469Y228348D01*
X275910Y229174D01*
X276181Y230069D01*
X276273Y231000D01*
X276181Y231931D01*
X275910Y232826D01*
X275469Y233652D01*
X274875Y234375D01*
X274152Y234969D01*
X273327Y235410D01*
X272431Y235681D01*
X271500Y235773D01*
D02*
G37*
G36*
X304500Y228773D02*
X303569Y228681D01*
X302673Y228410D01*
X301848Y227969D01*
X301125Y227375D01*
X300918Y227122D01*
X300524Y226994D01*
X299476D01*
X299082Y227122D01*
X298875Y227375D01*
X298152Y227969D01*
X297327Y228410D01*
X296431Y228681D01*
X295500Y228773D01*
X294569Y228681D01*
X293673Y228410D01*
X292848Y227969D01*
X292125Y227375D01*
X291531Y226652D01*
X291090Y225826D01*
X290819Y224931D01*
X290727Y224000D01*
X290819Y223069D01*
X291090Y222174D01*
X291531Y221348D01*
X292125Y220625D01*
X292377Y220418D01*
X292505Y220024D01*
Y218976D01*
X292377Y218582D01*
X292125Y218375D01*
X291531Y217652D01*
X291090Y216826D01*
X290819Y215931D01*
X290727Y215000D01*
X290819Y214069D01*
X291090Y213174D01*
X291531Y212348D01*
X292125Y211625D01*
X292848Y211031D01*
X293673Y210590D01*
X294569Y210319D01*
X295500Y210227D01*
X296431Y210319D01*
X297327Y210590D01*
X298152Y211031D01*
X298875Y211625D01*
X299082Y211877D01*
X299476Y212006D01*
X300524D01*
X300918Y211877D01*
X301125Y211625D01*
X301848Y211031D01*
X302673Y210590D01*
X303569Y210319D01*
X304500Y210227D01*
X305431Y210319D01*
X306327Y210590D01*
X307152Y211031D01*
X307875Y211625D01*
X308469Y212348D01*
X308910Y213174D01*
X309181Y214069D01*
X309273Y215000D01*
X309181Y215931D01*
X308910Y216826D01*
X308469Y217652D01*
X307875Y218375D01*
X307623Y218582D01*
X307495Y218976D01*
Y220024D01*
X307623Y220418D01*
X307875Y220625D01*
X308469Y221348D01*
X308910Y222174D01*
X309181Y223069D01*
X309273Y224000D01*
X309181Y224931D01*
X308910Y225826D01*
X308469Y226652D01*
X307875Y227375D01*
X307152Y227969D01*
X306327Y228410D01*
X305431Y228681D01*
X304500Y228773D01*
D02*
G37*
G36*
X270500Y218523D02*
X269569Y218431D01*
X268673Y218160D01*
X267848Y217719D01*
X267125Y217125D01*
X265875D01*
X265152Y217719D01*
X264326Y218160D01*
X263431Y218431D01*
X262500Y218523D01*
X261569Y218431D01*
X260674Y218160D01*
X259848Y217719D01*
X259125Y217125D01*
X258531Y216402D01*
X258090Y215576D01*
X257819Y214681D01*
X257727Y213750D01*
X257819Y212819D01*
X258090Y211924D01*
X258531Y211098D01*
X259125Y210375D01*
X259848Y209781D01*
X260674Y209340D01*
X261569Y209069D01*
X262500Y208977D01*
X263431Y209069D01*
X264326Y209340D01*
X265152Y209781D01*
X265875Y210375D01*
X267125D01*
X267848Y209781D01*
X268673Y209340D01*
X269569Y209069D01*
X270500Y208977D01*
X271431Y209069D01*
X272327Y209340D01*
X273152Y209781D01*
X273875Y210375D01*
X274469Y211098D01*
X274910Y211924D01*
X275181Y212819D01*
X275273Y213750D01*
X275181Y214681D01*
X274910Y215576D01*
X274469Y216402D01*
X273875Y217125D01*
X273152Y217719D01*
X272327Y218160D01*
X271431Y218431D01*
X270500Y218523D01*
D02*
G37*
G36*
X324500Y211773D02*
X323569Y211681D01*
X322673Y211410D01*
X321848Y210969D01*
X321125Y210375D01*
X320918Y210123D01*
X320524Y209995D01*
X319476D01*
X319082Y210123D01*
X318875Y210375D01*
X318152Y210969D01*
X317327Y211410D01*
X316431Y211681D01*
X315500Y211773D01*
X314569Y211681D01*
X313673Y211410D01*
X312848Y210969D01*
X312125Y210375D01*
X311531Y209652D01*
X311090Y208827D01*
X310819Y207931D01*
X310727Y207000D01*
X310819Y206069D01*
X311090Y205173D01*
X311531Y204348D01*
X312125Y203625D01*
X312377Y203418D01*
X312505Y203024D01*
Y201976D01*
X312377Y201582D01*
X312125Y201375D01*
X311531Y200652D01*
X311090Y199827D01*
X310819Y198931D01*
X310727Y198000D01*
X310819Y197069D01*
X311090Y196173D01*
X311531Y195348D01*
X312125Y194625D01*
X312848Y194031D01*
X313673Y193590D01*
X314569Y193319D01*
X314603Y193315D01*
X315064Y192101D01*
X315102Y191759D01*
X314446Y190960D01*
X313912Y189961D01*
X313583Y188877D01*
X313472Y187750D01*
Y180250D01*
X313583Y179123D01*
X313912Y178039D01*
X314446Y177040D01*
X315165Y176164D01*
X316040Y175446D01*
X317039Y174912D01*
X318123Y174583D01*
X319250Y174472D01*
X326750D01*
X327877Y174583D01*
X328961Y174912D01*
X329960Y175446D01*
X330835Y176164D01*
X331554Y177040D01*
X331650Y177219D01*
X333350D01*
X333446Y177040D01*
X334165Y176164D01*
X335040Y175446D01*
X336039Y174912D01*
X337123Y174583D01*
X338250Y174472D01*
X345750D01*
X346877Y174583D01*
X347961Y174912D01*
X348960Y175446D01*
X349836Y176164D01*
X350554Y177040D01*
X351088Y178039D01*
X351417Y179123D01*
X351528Y180250D01*
Y187750D01*
X351417Y188877D01*
X351088Y189961D01*
X350554Y190960D01*
X349836Y191835D01*
X348960Y192554D01*
X347961Y193088D01*
X346877Y193417D01*
X345750Y193528D01*
X338250D01*
X337123Y193417D01*
X336039Y193088D01*
X335040Y192554D01*
X334165Y191835D01*
X333446Y190960D01*
X333350Y190781D01*
X331650D01*
X331554Y190960D01*
X330835Y191835D01*
X329960Y192554D01*
X328961Y193088D01*
X328527Y193220D01*
X328196Y193934D01*
X328059Y194711D01*
X328083Y194878D01*
X328469Y195348D01*
X328910Y196173D01*
X329181Y197069D01*
X329273Y198000D01*
X329181Y198931D01*
X328910Y199827D01*
X328469Y200652D01*
X327875Y201375D01*
X327622Y201582D01*
X327495Y201976D01*
Y203024D01*
X327622Y203418D01*
X327875Y203625D01*
X328469Y204348D01*
X328910Y205173D01*
X329181Y206069D01*
X329273Y207000D01*
X329181Y207931D01*
X328910Y208827D01*
X328469Y209652D01*
X327875Y210375D01*
X327152Y210969D01*
X326327Y211410D01*
X325431Y211681D01*
X324500Y211773D01*
D02*
G37*
G36*
X210000Y218523D02*
X209069Y218431D01*
X208174Y218160D01*
X207348Y217719D01*
X206625Y217125D01*
X206031Y216402D01*
X205590Y215576D01*
X205319Y214681D01*
X205227Y213750D01*
X205319Y212819D01*
X205590Y211924D01*
X206031Y211098D01*
X206625Y210375D01*
X207348Y209781D01*
X208174Y209340D01*
X209069Y209069D01*
X210000Y208977D01*
X210931Y209069D01*
X211827Y209340D01*
X212652Y209781D01*
X213375Y210375D01*
X213969Y211098D01*
X214410Y211924D01*
X214681Y212819D01*
X214773Y213750D01*
X214681Y214681D01*
X214410Y215576D01*
X213969Y216402D01*
X213375Y217125D01*
X212652Y217719D01*
X211827Y218160D01*
X210931Y218431D01*
X210000Y218523D01*
D02*
G37*
G36*
X599851Y212858D02*
X598920Y212766D01*
X598024Y212495D01*
X597199Y212054D01*
X596476Y211460D01*
X595882Y210737D01*
X595441Y209912D01*
X595170Y209016D01*
X595078Y208085D01*
X595170Y207154D01*
X595441Y206259D01*
X595882Y205433D01*
X596476Y204710D01*
X597199Y204116D01*
X598024Y203675D01*
X598920Y203404D01*
X599851Y203312D01*
X600782Y203404D01*
X601678Y203675D01*
X602503Y204116D01*
X603226Y204710D01*
X603820Y205433D01*
X604261Y206259D01*
X604532Y207154D01*
X604624Y208085D01*
X604532Y209016D01*
X604261Y209912D01*
X603820Y210737D01*
X603226Y211460D01*
X602503Y212054D01*
X601678Y212495D01*
X600782Y212766D01*
X599851Y212858D01*
D02*
G37*
G36*
X357500Y213023D02*
X356569Y212931D01*
X355673Y212660D01*
X354848Y212219D01*
X354125Y211625D01*
X352875D01*
X352152Y212219D01*
X351327Y212660D01*
X350431Y212931D01*
X349500Y213023D01*
X348569Y212931D01*
X347673Y212660D01*
X346848Y212219D01*
X346125Y211625D01*
X345531Y210902D01*
X345090Y210077D01*
X344819Y209181D01*
X344727Y208250D01*
X344819Y207319D01*
X345090Y206423D01*
X345531Y205598D01*
X346125Y204875D01*
X346848Y204281D01*
X347673Y203840D01*
X348569Y203569D01*
X349500Y203477D01*
X350431Y203569D01*
X351327Y203840D01*
X352152Y204281D01*
X352875Y204875D01*
X354125D01*
X354848Y204281D01*
X355673Y203840D01*
X356569Y203569D01*
X357500Y203477D01*
X358431Y203569D01*
X359327Y203840D01*
X360152Y204281D01*
X360875Y204875D01*
X361469Y205598D01*
X361910Y206423D01*
X362181Y207319D01*
X362273Y208250D01*
X362181Y209181D01*
X361910Y210077D01*
X361469Y210902D01*
X360875Y211625D01*
X360152Y212219D01*
X359327Y212660D01*
X358431Y212931D01*
X357500Y213023D01*
D02*
G37*
G36*
X751000Y212773D02*
X750069Y212681D01*
X749174Y212410D01*
X748348Y211969D01*
X747625Y211375D01*
X747418Y211122D01*
X747024Y210994D01*
X745976D01*
X745582Y211122D01*
X745375Y211375D01*
X744652Y211969D01*
X743827Y212410D01*
X742931Y212681D01*
X742000Y212773D01*
X741069Y212681D01*
X740173Y212410D01*
X739348Y211969D01*
X738625Y211375D01*
X738031Y210652D01*
X737590Y209827D01*
X737319Y208931D01*
X737227Y208000D01*
X737319Y207069D01*
X737590Y206173D01*
X738031Y205348D01*
X738625Y204625D01*
X739348Y204031D01*
X740173Y203590D01*
X741069Y203319D01*
X742000Y203227D01*
X742931Y203319D01*
X743827Y203590D01*
X744652Y204031D01*
X745375Y204625D01*
X745582Y204877D01*
X745976Y205005D01*
X747024D01*
X747418Y204877D01*
X747625Y204625D01*
X748348Y204031D01*
X749174Y203590D01*
X750069Y203319D01*
X751000Y203227D01*
X751931Y203319D01*
X752827Y203590D01*
X753652Y204031D01*
X754375Y204625D01*
X754969Y205348D01*
X755410Y206173D01*
X755681Y207069D01*
X755773Y208000D01*
X755681Y208931D01*
X755410Y209827D01*
X754969Y210652D01*
X754375Y211375D01*
X753652Y211969D01*
X752827Y212410D01*
X751931Y212681D01*
X751000Y212773D01*
D02*
G37*
G36*
X675000D02*
X674069Y212681D01*
X673174Y212410D01*
X672348Y211969D01*
X671625Y211375D01*
X671031Y210652D01*
X670832Y210278D01*
X670463Y210161D01*
X669537D01*
X669168Y210278D01*
X668969Y210652D01*
X668375Y211375D01*
X667652Y211969D01*
X666826Y212410D01*
X665931Y212681D01*
X665000Y212773D01*
X664069Y212681D01*
X663174Y212410D01*
X662348Y211969D01*
X661625Y211375D01*
X661031Y210652D01*
X660590Y209827D01*
X660319Y208931D01*
X660227Y208000D01*
X660319Y207069D01*
X660590Y206173D01*
X661031Y205348D01*
X661625Y204625D01*
X662348Y204031D01*
X663174Y203590D01*
X664069Y203319D01*
X665000Y203227D01*
X665931Y203319D01*
X666826Y203590D01*
X667652Y204031D01*
X668375Y204625D01*
X668969Y205348D01*
X669168Y205722D01*
X669537Y205839D01*
X670463D01*
X670832Y205722D01*
X671031Y205348D01*
X671625Y204625D01*
X672348Y204031D01*
X673174Y203590D01*
X674069Y203319D01*
X675000Y203227D01*
X675931Y203319D01*
X676826Y203590D01*
X677652Y204031D01*
X678375Y204625D01*
X678969Y205348D01*
X679410Y206173D01*
X679681Y207069D01*
X679773Y208000D01*
X679681Y208931D01*
X679410Y209827D01*
X678969Y210652D01*
X678375Y211375D01*
X677652Y211969D01*
X676826Y212410D01*
X675931Y212681D01*
X675000Y212773D01*
D02*
G37*
G36*
X504038Y172906D02*
X503107Y172815D01*
X502211Y172543D01*
X501386Y172102D01*
X500663Y171509D01*
X500070Y170785D01*
X499628Y169960D01*
X499357Y169065D01*
X499265Y168134D01*
X499357Y167202D01*
X499628Y166307D01*
X500070Y165482D01*
X500663Y164758D01*
X501386Y164165D01*
X502211Y163724D01*
X503107Y163452D01*
X504038Y163361D01*
X504969Y163452D01*
X505865Y163724D01*
X506690Y164165D01*
X507413Y164758D01*
X508007Y165482D01*
X508448Y166307D01*
X508719Y167202D01*
X508811Y168134D01*
X508719Y169065D01*
X508448Y169960D01*
X508007Y170785D01*
X507413Y171509D01*
X506690Y172102D01*
X505865Y172543D01*
X504969Y172815D01*
X504038Y172906D01*
D02*
G37*
G36*
X376000Y145773D02*
X375069Y145681D01*
X374174Y145410D01*
X373348Y144969D01*
X372625Y144375D01*
X372031Y143652D01*
X371590Y142826D01*
X371319Y141931D01*
X371227Y141000D01*
X371319Y140069D01*
X371590Y139173D01*
X372031Y138348D01*
X372625Y137625D01*
X373348Y137031D01*
X374174Y136590D01*
X375069Y136319D01*
X376000Y136227D01*
X376931Y136319D01*
X377826Y136590D01*
X378652Y137031D01*
X379375Y137625D01*
X379969Y138348D01*
X380410Y139173D01*
X380681Y140069D01*
X380773Y141000D01*
X380681Y141931D01*
X380410Y142826D01*
X379969Y143652D01*
X379375Y144375D01*
X378652Y144969D01*
X377826Y145410D01*
X376931Y145681D01*
X376000Y145773D01*
D02*
G37*
G36*
X624246Y144622D02*
X623315Y144530D01*
X622420Y144259D01*
X621595Y143818D01*
X620871Y143224D01*
X620278Y142501D01*
X619837Y141676D01*
X619565Y140780D01*
X619473Y139849D01*
X619565Y138918D01*
X619837Y138023D01*
X620278Y137198D01*
X620871Y136474D01*
X621595Y135881D01*
X622420Y135440D01*
X623315Y135168D01*
X624246Y135076D01*
X625177Y135168D01*
X626073Y135440D01*
X626898Y135881D01*
X627621Y136474D01*
X628215Y137198D01*
X628656Y138023D01*
X628927Y138918D01*
X629019Y139849D01*
X628927Y140780D01*
X628656Y141676D01*
X628215Y142501D01*
X627621Y143224D01*
X626898Y143818D01*
X626073Y144259D01*
X625177Y144530D01*
X624246Y144622D01*
D02*
G37*
G36*
X905700Y153579D02*
X904209Y153462D01*
X902755Y153113D01*
X901374Y152541D01*
X900099Y151759D01*
X898962Y150788D01*
X897990Y149651D01*
X897209Y148376D01*
X896637Y146995D01*
X896288Y145541D01*
X896171Y144050D01*
X896288Y142559D01*
X896637Y141105D01*
X897209Y139724D01*
X897990Y138449D01*
X898962Y137312D01*
X900099Y136341D01*
X901374Y135559D01*
X902755Y134987D01*
X904209Y134638D01*
X905700Y134521D01*
X907191Y134638D01*
X908645Y134987D01*
X910026Y135559D01*
X911301Y136341D01*
X912438Y137312D01*
X913409Y138449D01*
X914191Y139724D01*
X914763Y141105D01*
X915112Y142559D01*
X915229Y144050D01*
X915112Y145541D01*
X914763Y146995D01*
X914191Y148376D01*
X913409Y149651D01*
X912438Y150788D01*
X911301Y151759D01*
X910026Y152541D01*
X908645Y153113D01*
X907191Y153462D01*
X905700Y153579D01*
D02*
G37*
G36*
X484239Y153108D02*
X483308Y153016D01*
X482412Y152744D01*
X481587Y152303D01*
X480864Y151709D01*
X480271Y150986D01*
X479829Y150161D01*
X479558Y149266D01*
X479466Y148335D01*
X479558Y147403D01*
X479829Y146508D01*
X480271Y145683D01*
X480864Y144959D01*
X481587Y144366D01*
X482412Y143925D01*
X483308Y143653D01*
X484239Y143562D01*
X485170Y143653D01*
X486066Y143925D01*
X486891Y144366D01*
X487614Y144959D01*
X488208Y145683D01*
X488649Y146508D01*
X488920Y147403D01*
X489012Y148335D01*
X488920Y149266D01*
X488649Y150161D01*
X488208Y150986D01*
X487614Y151709D01*
X486891Y152303D01*
X486066Y152744D01*
X485170Y153016D01*
X484239Y153108D01*
D02*
G37*
G36*
X692000Y154773D02*
X691069Y154681D01*
X690173Y154410D01*
X689348Y153969D01*
X688625Y153375D01*
X688031Y152652D01*
X687590Y151826D01*
X687319Y150931D01*
X687227Y150000D01*
X687319Y149069D01*
X687590Y148174D01*
X688031Y147348D01*
X688625Y146625D01*
X689348Y146031D01*
X690173Y145590D01*
X691069Y145319D01*
X692000Y145227D01*
X692931Y145319D01*
X693827Y145590D01*
X694486Y145943D01*
X694637Y145871D01*
X695590Y144826D01*
X695319Y143931D01*
X695227Y143000D01*
X695241Y142854D01*
X693835Y141905D01*
X693827Y141910D01*
X692931Y142181D01*
X692000Y142273D01*
X691069Y142181D01*
X690173Y141910D01*
X689348Y141469D01*
X688625Y140875D01*
X688031Y140152D01*
X687590Y139326D01*
X687319Y138431D01*
X687227Y137500D01*
X687319Y136569D01*
X687590Y135674D01*
X688031Y134848D01*
X688625Y134125D01*
X689348Y133531D01*
X690173Y133090D01*
X691069Y132819D01*
X692000Y132727D01*
X692931Y132819D01*
X693827Y133090D01*
X693835Y133095D01*
X695241Y132146D01*
X695227Y132000D01*
X695319Y131069D01*
X695590Y130174D01*
X696031Y129348D01*
X696625Y128625D01*
X697348Y128031D01*
X698174Y127590D01*
X699069Y127319D01*
X700000Y127227D01*
X700931Y127319D01*
X701826Y127590D01*
X702652Y128031D01*
X703375Y128625D01*
X703969Y129348D01*
X704410Y130174D01*
X704681Y131069D01*
X704773Y132000D01*
X704681Y132931D01*
X704410Y133827D01*
X703969Y134652D01*
X703375Y135375D01*
X702652Y135969D01*
X701826Y136410D01*
X701119Y136624D01*
X701054Y136645D01*
X700931Y136923D01*
Y138077D01*
X701054Y138355D01*
X701119Y138376D01*
X701826Y138590D01*
X702652Y139031D01*
X703375Y139625D01*
X703969Y140348D01*
X704410Y141173D01*
X704681Y142069D01*
X704773Y143000D01*
X704681Y143931D01*
X704410Y144826D01*
X703969Y145652D01*
X703375Y146375D01*
X702652Y146969D01*
X701826Y147410D01*
X700931Y147681D01*
X700000Y147773D01*
X699069Y147681D01*
X698174Y147410D01*
X697514Y147057D01*
X697363Y147129D01*
X696410Y148174D01*
X696681Y149069D01*
X696773Y150000D01*
X696681Y150931D01*
X696410Y151826D01*
X695969Y152652D01*
X695375Y153375D01*
X694652Y153969D01*
X693827Y154410D01*
X692931Y154681D01*
X692000Y154773D01*
D02*
G37*
G36*
X780000Y150773D02*
X779069Y150681D01*
X778174Y150410D01*
X777348Y149969D01*
X776625Y149375D01*
X776031Y148652D01*
X775590Y147827D01*
X775319Y146931D01*
X775227Y146000D01*
X775319Y145069D01*
X775590Y144173D01*
X776031Y143348D01*
X776625Y142625D01*
X777348Y142031D01*
X778174Y141590D01*
X779069Y141319D01*
X780000Y141227D01*
X780931Y141319D01*
X781826Y141590D01*
X782652Y142031D01*
X783375Y142625D01*
X783969Y143348D01*
X784410Y144173D01*
X784681Y145069D01*
X784773Y146000D01*
X784681Y146931D01*
X784410Y147827D01*
X783969Y148652D01*
X783375Y149375D01*
X782652Y149969D01*
X781826Y150410D01*
X780931Y150681D01*
X780000Y150773D01*
D02*
G37*
G36*
X168900Y154071D02*
X167592Y153986D01*
X166306Y153730D01*
X165065Y153309D01*
X163889Y152729D01*
X162799Y152001D01*
X161814Y151136D01*
X160949Y150151D01*
X160221Y149061D01*
X159642Y147885D01*
X159220Y146644D01*
X158964Y145358D01*
X158879Y144050D01*
X158964Y142742D01*
X159220Y141456D01*
X159642Y140215D01*
X160221Y139039D01*
X160949Y137949D01*
X161814Y136964D01*
X162799Y136099D01*
X163889Y135371D01*
X165065Y134791D01*
X166306Y134370D01*
X167592Y134114D01*
X168900Y134029D01*
X170208Y134114D01*
X171494Y134370D01*
X172735Y134791D01*
X173911Y135371D01*
X175001Y136099D01*
X175986Y136964D01*
X176851Y137949D01*
X177579Y139039D01*
X178159Y140215D01*
X178580Y141456D01*
X178836Y142742D01*
X178922Y144050D01*
X178836Y145358D01*
X178580Y146644D01*
X178159Y147885D01*
X177579Y149061D01*
X176851Y150151D01*
X175986Y151136D01*
X175001Y152001D01*
X173911Y152729D01*
X172735Y153309D01*
X171494Y153730D01*
X170208Y153986D01*
X168900Y154071D01*
D02*
G37*
G36*
X194300Y140879D02*
X192809Y140762D01*
X191355Y140413D01*
X189974Y139841D01*
X188699Y139059D01*
X187562Y138088D01*
X186591Y136951D01*
X185809Y135676D01*
X185237Y134295D01*
X184888Y132841D01*
X184771Y131350D01*
X184888Y129859D01*
X185237Y128405D01*
X185809Y127024D01*
X186591Y125749D01*
X187562Y124612D01*
X188699Y123641D01*
X189974Y122859D01*
X191355Y122287D01*
X192809Y121938D01*
X194300Y121821D01*
X195791Y121938D01*
X197245Y122287D01*
X198626Y122859D01*
X199901Y123641D01*
X201038Y124612D01*
X202010Y125749D01*
X202791Y127024D01*
X203363Y128405D01*
X203712Y129859D01*
X203829Y131350D01*
X203712Y132841D01*
X203363Y134295D01*
X202791Y135676D01*
X202010Y136951D01*
X201038Y138088D01*
X199901Y139059D01*
X198626Y139841D01*
X197245Y140413D01*
X195791Y140762D01*
X194300Y140879D01*
D02*
G37*
G36*
X835000Y138773D02*
X834069Y138681D01*
X833174Y138410D01*
X832348Y137969D01*
X831625Y137375D01*
X831031Y136652D01*
X830590Y135827D01*
X830319Y134931D01*
X830227Y134000D01*
X830319Y133069D01*
X830590Y132174D01*
X831031Y131348D01*
X831625Y130625D01*
X831878Y130418D01*
X832005Y130024D01*
Y128976D01*
X831878Y128582D01*
X831625Y128375D01*
X831031Y127652D01*
X830590Y126826D01*
X830319Y125931D01*
X830227Y125000D01*
X830319Y124069D01*
X830590Y123174D01*
X831031Y122348D01*
X831625Y121625D01*
X832348Y121031D01*
X833174Y120590D01*
X834069Y120319D01*
X835000Y120227D01*
X835931Y120319D01*
X836826Y120590D01*
X837652Y121031D01*
X838375Y121625D01*
X838969Y122348D01*
X839410Y123174D01*
X839681Y124069D01*
X839773Y125000D01*
X839681Y125931D01*
X839410Y126826D01*
X838969Y127652D01*
X838375Y128375D01*
X838122Y128582D01*
X837995Y128976D01*
Y130024D01*
X838122Y130418D01*
X838375Y130625D01*
X838969Y131348D01*
X839410Y132174D01*
X839681Y133069D01*
X839773Y134000D01*
X839681Y134931D01*
X839410Y135827D01*
X838969Y136652D01*
X838375Y137375D01*
X837652Y137969D01*
X836826Y138410D01*
X835931Y138681D01*
X835000Y138773D01*
D02*
G37*
G36*
X632732Y123409D02*
X631800Y123317D01*
X630905Y123046D01*
X630080Y122605D01*
X629356Y122011D01*
X628763Y121288D01*
X628322Y120463D01*
X628050Y119567D01*
X627958Y118636D01*
X628050Y117705D01*
X628173Y117300D01*
X627995Y116956D01*
X627340Y116301D01*
X626997Y116123D01*
X626592Y116246D01*
X625660Y116338D01*
X624729Y116246D01*
X623834Y115975D01*
X623009Y115534D01*
X622285Y114940D01*
X621692Y114217D01*
X621251Y113392D01*
X620979Y112496D01*
X620887Y111565D01*
X620979Y110634D01*
X621251Y109738D01*
X621692Y108913D01*
X622285Y108190D01*
X623009Y107596D01*
X623834Y107155D01*
X624729Y106884D01*
X625660Y106792D01*
X626592Y106884D01*
X627487Y107155D01*
X628312Y107596D01*
X629035Y108190D01*
X629629Y108913D01*
X630070Y109738D01*
X630342Y110634D01*
X630433Y111565D01*
X630342Y112496D01*
X630219Y112901D01*
X630396Y113245D01*
X631052Y113900D01*
X631395Y114078D01*
X631800Y113955D01*
X632732Y113863D01*
X633663Y113955D01*
X634558Y114226D01*
X635383Y114667D01*
X636106Y115261D01*
X636700Y115984D01*
X637141Y116810D01*
X637413Y117705D01*
X637505Y118636D01*
X637413Y119567D01*
X637141Y120463D01*
X636700Y121288D01*
X636106Y122011D01*
X635383Y122605D01*
X634558Y123046D01*
X633663Y123317D01*
X632732Y123409D01*
D02*
G37*
G36*
X472925Y141794D02*
X471994Y141702D01*
X471099Y141431D01*
X470274Y140989D01*
X469550Y140396D01*
X468957Y139672D01*
X468516Y138847D01*
X468244Y137952D01*
X468152Y137021D01*
X468244Y136090D01*
X468516Y135194D01*
X468957Y134369D01*
X469550Y133646D01*
X470274Y133052D01*
X471099Y132611D01*
X471994Y132340D01*
X472925Y132248D01*
X473857Y132340D01*
X474752Y132611D01*
X475577Y133052D01*
X476300Y133646D01*
X476894Y134369D01*
X477335Y135194D01*
X477607Y136090D01*
X477698Y137021D01*
X477607Y137952D01*
X477335Y138847D01*
X476894Y139672D01*
X476300Y140396D01*
X475577Y140989D01*
X474752Y141431D01*
X473857Y141702D01*
X472925Y141794D01*
D02*
G37*
G36*
X230000Y138773D02*
X229069Y138681D01*
X228174Y138410D01*
X227348Y137969D01*
X226625Y137375D01*
X226031Y136652D01*
X225590Y135827D01*
X225319Y134931D01*
X225227Y134000D01*
X225319Y133069D01*
X225590Y132174D01*
X226031Y131348D01*
X226625Y130625D01*
X227348Y130031D01*
X228174Y129590D01*
X229069Y129319D01*
X230000Y129227D01*
X230931Y129319D01*
X231826Y129590D01*
X232652Y130031D01*
X233375Y130625D01*
X233969Y131348D01*
X234410Y132174D01*
X234681Y133069D01*
X234773Y134000D01*
X234681Y134931D01*
X234410Y135827D01*
X233969Y136652D01*
X233375Y137375D01*
X232652Y137969D01*
X231826Y138410D01*
X230931Y138681D01*
X230000Y138773D01*
D02*
G37*
G36*
X931100Y140879D02*
X929609Y140762D01*
X928155Y140413D01*
X926774Y139841D01*
X925499Y139059D01*
X924362Y138088D01*
X923391Y136951D01*
X922609Y135676D01*
X922037Y134295D01*
X921688Y132841D01*
X921571Y131350D01*
X921688Y129859D01*
X922037Y128405D01*
X922609Y127024D01*
X923391Y125749D01*
X924362Y124612D01*
X925499Y123641D01*
X926774Y122859D01*
X928155Y122287D01*
X929609Y121938D01*
X931100Y121821D01*
X932591Y121938D01*
X934045Y122287D01*
X935426Y122859D01*
X936701Y123641D01*
X937838Y124612D01*
X938809Y125749D01*
X939591Y127024D01*
X940163Y128405D01*
X940512Y129859D01*
X940629Y131350D01*
X940512Y132841D01*
X940163Y134295D01*
X939591Y135676D01*
X938809Y136951D01*
X937838Y138088D01*
X936701Y139059D01*
X935426Y139841D01*
X934045Y140413D01*
X932591Y140762D01*
X931100Y140879D01*
D02*
G37*
G36*
X231000Y167773D02*
X230069Y167681D01*
X229174Y167410D01*
X228348Y166969D01*
X227625Y166375D01*
X227031Y165652D01*
X226590Y164827D01*
X226319Y163931D01*
X226227Y163000D01*
X226319Y162069D01*
X226590Y161173D01*
X227031Y160348D01*
X227625Y159625D01*
X228348Y159031D01*
X229174Y158590D01*
X230069Y158319D01*
X231000Y158227D01*
X231931Y158319D01*
X232826Y158590D01*
X233652Y159031D01*
X234375Y159625D01*
X234969Y160348D01*
X235410Y161173D01*
X235681Y162069D01*
X235773Y163000D01*
X235681Y163931D01*
X235410Y164827D01*
X234969Y165652D01*
X234375Y166375D01*
X233652Y166969D01*
X232826Y167410D01*
X231931Y167681D01*
X231000Y167773D01*
D02*
G37*
G36*
X587477Y181392D02*
X586545Y181300D01*
X585650Y181028D01*
X584825Y180587D01*
X584102Y179994D01*
X583508Y179270D01*
X583067Y178445D01*
X582795Y177550D01*
X582704Y176619D01*
X582795Y175688D01*
X583067Y174792D01*
X583508Y173967D01*
X584102Y173244D01*
X584825Y172650D01*
X585650Y172209D01*
X586545Y171938D01*
X587477Y171846D01*
X588408Y171938D01*
X588813Y172061D01*
X589156Y171883D01*
X589812Y171227D01*
X589989Y170884D01*
X589866Y170479D01*
X589775Y169548D01*
X589866Y168617D01*
X590138Y167721D01*
X590579Y166896D01*
X591173Y166173D01*
X591896Y165579D01*
X592721Y165138D01*
X593617Y164867D01*
X594548Y164775D01*
X595479Y164867D01*
X595884Y164989D01*
X596227Y164812D01*
X596883Y164156D01*
X597061Y163813D01*
X596937Y163408D01*
X596846Y162477D01*
X596937Y161546D01*
X597209Y160650D01*
X597650Y159825D01*
X598244Y159102D01*
X598967Y158508D01*
X599792Y158067D01*
X600688Y157795D01*
X601619Y157704D01*
X602550Y157795D01*
X603445Y158067D01*
X604271Y158508D01*
X604994Y159102D01*
X605587Y159825D01*
X606028Y160650D01*
X606300Y161546D01*
X606392Y162477D01*
X606300Y163408D01*
X606028Y164303D01*
X605587Y165128D01*
X604994Y165852D01*
X604271Y166445D01*
X603445Y166886D01*
X602550Y167158D01*
X601619Y167250D01*
X600688Y167158D01*
X600282Y167035D01*
X599939Y167213D01*
X599284Y167868D01*
X599106Y168211D01*
X599229Y168617D01*
X599321Y169548D01*
X599229Y170479D01*
X598957Y171374D01*
X598516Y172199D01*
X597923Y172923D01*
X597199Y173516D01*
X596374Y173957D01*
X595479Y174229D01*
X594548Y174321D01*
X593617Y174229D01*
X593211Y174106D01*
X592868Y174284D01*
X592213Y174939D01*
X592035Y175282D01*
X592158Y175688D01*
X592250Y176619D01*
X592158Y177550D01*
X591886Y178445D01*
X591445Y179270D01*
X590852Y179994D01*
X590128Y180587D01*
X589303Y181028D01*
X588408Y181300D01*
X587477Y181392D01*
D02*
G37*
G36*
X495553Y164421D02*
X494622Y164329D01*
X493726Y164058D01*
X492901Y163617D01*
X492178Y163023D01*
X491584Y162300D01*
X491143Y161475D01*
X490872Y160579D01*
X490780Y159648D01*
X490872Y158717D01*
X491143Y157822D01*
X491584Y156996D01*
X492178Y156273D01*
X492901Y155680D01*
X493726Y155239D01*
X494622Y154967D01*
X495553Y154875D01*
X496484Y154967D01*
X497379Y155239D01*
X498204Y155680D01*
X498928Y156273D01*
X499521Y156996D01*
X499962Y157822D01*
X500234Y158717D01*
X500326Y159648D01*
X500234Y160579D01*
X499962Y161475D01*
X499521Y162300D01*
X498928Y163023D01*
X498204Y163617D01*
X497379Y164058D01*
X496484Y164329D01*
X495553Y164421D01*
D02*
G37*
G36*
X880000Y179773D02*
X879069Y179681D01*
X878174Y179410D01*
X877348Y178969D01*
X876625Y178375D01*
X876031Y177652D01*
X875590Y176826D01*
X875319Y175931D01*
X875227Y175000D01*
X875319Y174069D01*
X875590Y173174D01*
X876031Y172348D01*
X876625Y171625D01*
X876878Y171418D01*
X877005Y171024D01*
Y169976D01*
X876878Y169582D01*
X876625Y169375D01*
X876031Y168652D01*
X875590Y167826D01*
X875319Y166931D01*
X875227Y166000D01*
X875319Y165069D01*
X875590Y164174D01*
X876031Y163348D01*
X876625Y162625D01*
X877348Y162031D01*
X878174Y161590D01*
X879069Y161319D01*
X880000Y161227D01*
X880931Y161319D01*
X881826Y161590D01*
X882652Y162031D01*
X883375Y162625D01*
X883969Y163348D01*
X884410Y164174D01*
X884681Y165069D01*
X884773Y166000D01*
X884681Y166931D01*
X884410Y167826D01*
X883969Y168652D01*
X883375Y169375D01*
X883122Y169582D01*
X882995Y169976D01*
Y171024D01*
X883122Y171418D01*
X883375Y171625D01*
X883969Y172348D01*
X884410Y173174D01*
X884681Y174069D01*
X884773Y175000D01*
X884681Y175931D01*
X884410Y176826D01*
X883969Y177652D01*
X883375Y178375D01*
X882652Y178969D01*
X881826Y179410D01*
X880931Y179681D01*
X880000Y179773D01*
D02*
G37*
G36*
X780000Y169773D02*
X779069Y169681D01*
X778174Y169410D01*
X777348Y168969D01*
X776625Y168375D01*
X776031Y167652D01*
X775590Y166826D01*
X775319Y165931D01*
X775227Y165000D01*
X775319Y164069D01*
X775590Y163174D01*
X776031Y162348D01*
X776625Y161625D01*
X777348Y161031D01*
X778174Y160590D01*
X779069Y160319D01*
X780000Y160227D01*
X780931Y160319D01*
X781826Y160590D01*
X782652Y161031D01*
X783375Y161625D01*
X783969Y162348D01*
X784410Y163174D01*
X784681Y164069D01*
X784773Y165000D01*
X784681Y165931D01*
X784410Y166826D01*
X783969Y167652D01*
X783375Y168375D01*
X782652Y168969D01*
X781826Y169410D01*
X780931Y169681D01*
X780000Y169773D01*
D02*
G37*
G36*
X178400Y178950D02*
X159400D01*
Y159950D01*
X178400D01*
Y178950D01*
D02*
G37*
G36*
X296000Y155273D02*
X295069Y155181D01*
X294174Y154910D01*
X293348Y154469D01*
X292625Y153875D01*
X292031Y153152D01*
X291832Y152778D01*
X291463Y152661D01*
X290537D01*
X290168Y152778D01*
X289969Y153152D01*
X289375Y153875D01*
X288652Y154469D01*
X287827Y154910D01*
X286931Y155181D01*
X286000Y155273D01*
X285069Y155181D01*
X284174Y154910D01*
X283348Y154469D01*
X282625Y153875D01*
X282031Y153152D01*
X281590Y152326D01*
X281319Y151431D01*
X281227Y150500D01*
X281319Y149569D01*
X281590Y148673D01*
X282031Y147848D01*
X282625Y147125D01*
X283348Y146531D01*
X284174Y146090D01*
X284881Y145876D01*
X284946Y145855D01*
X285069Y145577D01*
Y144423D01*
X284946Y144145D01*
X284881Y144124D01*
X284174Y143910D01*
X283348Y143469D01*
X282625Y142875D01*
X282031Y142152D01*
X281590Y141327D01*
X281319Y140431D01*
X281227Y139500D01*
X281319Y138569D01*
X281590Y137674D01*
X282031Y136848D01*
X282625Y136125D01*
X283348Y135531D01*
X284174Y135090D01*
X285069Y134819D01*
X286000Y134727D01*
X286931Y134819D01*
X287827Y135090D01*
X288652Y135531D01*
X289375Y136125D01*
X289969Y136848D01*
X290168Y137222D01*
X290537Y137339D01*
X291463D01*
X291832Y137222D01*
X292031Y136848D01*
X292625Y136125D01*
X293348Y135531D01*
X294174Y135090D01*
X295069Y134819D01*
X296000Y134727D01*
X296931Y134819D01*
X297826Y135090D01*
X298652Y135531D01*
X299375Y136125D01*
X299969Y136848D01*
X300410Y137674D01*
X300681Y138569D01*
X300773Y139500D01*
X300681Y140431D01*
X300410Y141327D01*
X299969Y142152D01*
X299375Y142875D01*
X298652Y143469D01*
X297826Y143910D01*
X297119Y144124D01*
X297054Y144145D01*
X296931Y144423D01*
Y145577D01*
X297054Y145855D01*
X297119Y145876D01*
X297826Y146090D01*
X298652Y146531D01*
X299375Y147125D01*
X299969Y147848D01*
X300410Y148673D01*
X300681Y149569D01*
X300773Y150500D01*
X300681Y151431D01*
X300410Y152326D01*
X299969Y153152D01*
X299375Y153875D01*
X298652Y154469D01*
X297826Y154910D01*
X296931Y155181D01*
X296000Y155273D01*
D02*
G37*
G36*
X931110Y166209D02*
X929619Y166092D01*
X928165Y165743D01*
X926784Y165171D01*
X925509Y164389D01*
X924372Y163418D01*
X923401Y162281D01*
X922619Y161006D01*
X922047Y159625D01*
X921698Y158171D01*
X921581Y156680D01*
X921698Y155189D01*
X922047Y153735D01*
X922619Y152354D01*
X923401Y151079D01*
X924372Y149942D01*
X925509Y148971D01*
X926784Y148189D01*
X928165Y147617D01*
X929619Y147268D01*
X931110Y147151D01*
X932601Y147268D01*
X934055Y147617D01*
X935436Y148189D01*
X936711Y148971D01*
X937848Y149942D01*
X938819Y151079D01*
X939601Y152354D01*
X940173Y153735D01*
X940522Y155189D01*
X940639Y156680D01*
X940522Y158171D01*
X940173Y159625D01*
X939601Y161006D01*
X938819Y162281D01*
X937848Y163418D01*
X936711Y164389D01*
X935436Y165171D01*
X934055Y165743D01*
X932601Y166092D01*
X931110Y166209D01*
D02*
G37*
G36*
X880000Y156273D02*
X879069Y156181D01*
X878174Y155910D01*
X877348Y155469D01*
X876625Y154875D01*
X876031Y154152D01*
X875590Y153327D01*
X875319Y152431D01*
X875227Y151500D01*
X875319Y150569D01*
X875590Y149674D01*
X876031Y148848D01*
X876625Y148125D01*
X877348Y147531D01*
X878174Y147090D01*
X879069Y146819D01*
X880000Y146727D01*
X880931Y146819D01*
X881826Y147090D01*
X882652Y147531D01*
X883375Y148125D01*
X883969Y148848D01*
X884410Y149674D01*
X884681Y150569D01*
X884773Y151500D01*
X884681Y152431D01*
X884410Y153327D01*
X883969Y154152D01*
X883375Y154875D01*
X882652Y155469D01*
X881826Y155910D01*
X880931Y156181D01*
X880000Y156273D01*
D02*
G37*
G36*
X835000Y164773D02*
X834069Y164681D01*
X833174Y164410D01*
X832348Y163969D01*
X831625Y163375D01*
X831031Y162652D01*
X830590Y161826D01*
X830319Y160931D01*
X830227Y160000D01*
X830319Y159069D01*
X830590Y158174D01*
X831031Y157348D01*
X831625Y156625D01*
X831878Y156418D01*
X832005Y156024D01*
Y154976D01*
X831878Y154582D01*
X831625Y154375D01*
X831031Y153652D01*
X830590Y152826D01*
X830319Y151931D01*
X830227Y151000D01*
X830319Y150069D01*
X830590Y149173D01*
X831031Y148348D01*
X831625Y147625D01*
X832348Y147031D01*
X833174Y146590D01*
X834069Y146319D01*
X835000Y146227D01*
X835931Y146319D01*
X836826Y146590D01*
X837652Y147031D01*
X838375Y147625D01*
X838969Y148348D01*
X839410Y149173D01*
X839681Y150069D01*
X839773Y151000D01*
X839681Y151931D01*
X839410Y152826D01*
X838969Y153652D01*
X838375Y154375D01*
X838122Y154582D01*
X837995Y154976D01*
Y156024D01*
X838122Y156418D01*
X838375Y156625D01*
X838969Y157348D01*
X839410Y158174D01*
X839681Y159069D01*
X839773Y160000D01*
X839681Y160931D01*
X839410Y161826D01*
X838969Y162652D01*
X838375Y163375D01*
X837652Y163969D01*
X836826Y164410D01*
X835931Y164681D01*
X835000Y164773D01*
D02*
G37*
G36*
X610104Y158764D02*
X609173Y158673D01*
X608278Y158401D01*
X607452Y157960D01*
X606729Y157366D01*
X606135Y156643D01*
X605694Y155818D01*
X605423Y154923D01*
X605331Y153991D01*
X605423Y153060D01*
X605694Y152165D01*
X606135Y151340D01*
X606729Y150616D01*
X607452Y150023D01*
X608278Y149582D01*
X609173Y149310D01*
X610104Y149218D01*
X611035Y149310D01*
X611931Y149582D01*
X612756Y150023D01*
X613479Y150616D01*
X614073Y151340D01*
X614514Y152165D01*
X614785Y153060D01*
X614877Y153991D01*
X614785Y154923D01*
X614514Y155818D01*
X614073Y156643D01*
X613479Y157366D01*
X612756Y157960D01*
X611931Y158401D01*
X611035Y158673D01*
X610104Y158764D01*
D02*
G37*
G36*
X639803Y176442D02*
X638871Y176350D01*
X637976Y176079D01*
X637151Y175638D01*
X636428Y175044D01*
X635834Y174321D01*
X635393Y173496D01*
X635121Y172600D01*
X635030Y171669D01*
X635121Y170738D01*
X635393Y169842D01*
X635834Y169017D01*
X636428Y168294D01*
X637151Y167701D01*
X637976Y167259D01*
X638871Y166988D01*
X639708Y166905D01*
X639818Y166881D01*
X641025Y165674D01*
X641049Y165564D01*
X641132Y164727D01*
X641403Y163832D01*
X641844Y163007D01*
X642438Y162284D01*
X643161Y161690D01*
X643986Y161249D01*
X644882Y160977D01*
X645719Y160895D01*
X645828Y160871D01*
X647036Y159663D01*
X647060Y159554D01*
X647142Y158717D01*
X647414Y157822D01*
X647855Y156996D01*
X648448Y156273D01*
X649172Y155680D01*
X649997Y155239D01*
X650892Y154967D01*
X651729Y154885D01*
X651838Y154860D01*
X653046Y153653D01*
X653070Y153543D01*
X653152Y152707D01*
X653424Y151811D01*
X653865Y150986D01*
X654459Y150263D01*
X655182Y149669D01*
X656007Y149228D01*
X656903Y148957D01*
X657834Y148865D01*
X658765Y148957D01*
X659660Y149228D01*
X660486Y149669D01*
X661209Y150263D01*
X661802Y150986D01*
X662243Y151811D01*
X662515Y152707D01*
X662607Y153638D01*
X662515Y154569D01*
X662243Y155464D01*
X661802Y156290D01*
X661209Y157013D01*
X660486Y157606D01*
X659660Y158048D01*
X658765Y158319D01*
X657928Y158401D01*
X657819Y158426D01*
X656611Y159633D01*
X656587Y159743D01*
X656505Y160579D01*
X656233Y161475D01*
X655792Y162300D01*
X655198Y163023D01*
X654475Y163617D01*
X653650Y164058D01*
X652755Y164329D01*
X651918Y164412D01*
X651808Y164436D01*
X650601Y165644D01*
X650577Y165753D01*
X650494Y166590D01*
X650223Y167485D01*
X649781Y168310D01*
X649188Y169034D01*
X648465Y169627D01*
X647639Y170068D01*
X646744Y170340D01*
X645907Y170422D01*
X645798Y170447D01*
X644591Y171654D01*
X644566Y171763D01*
X644484Y172600D01*
X644212Y173496D01*
X643771Y174321D01*
X643178Y175044D01*
X642454Y175638D01*
X641629Y176079D01*
X640734Y176350D01*
X639803Y176442D01*
D02*
G37*
G36*
X194300Y166279D02*
X192809Y166162D01*
X191355Y165813D01*
X189974Y165241D01*
X188699Y164459D01*
X187562Y163488D01*
X186591Y162351D01*
X185809Y161076D01*
X185237Y159695D01*
X184888Y158241D01*
X184771Y156750D01*
X184888Y155259D01*
X185237Y153805D01*
X185809Y152424D01*
X186591Y151149D01*
X187562Y150012D01*
X188699Y149041D01*
X189974Y148259D01*
X191355Y147687D01*
X192809Y147338D01*
X194300Y147221D01*
X195791Y147338D01*
X197245Y147687D01*
X198626Y148259D01*
X199901Y149041D01*
X201038Y150012D01*
X202009Y151149D01*
X202791Y152424D01*
X203363Y153805D01*
X203712Y155259D01*
X203829Y156750D01*
X203712Y158241D01*
X203363Y159695D01*
X202791Y161076D01*
X202009Y162351D01*
X201038Y163488D01*
X199901Y164459D01*
X198626Y165241D01*
X197245Y165813D01*
X195791Y166162D01*
X194300Y166279D01*
D02*
G37*
%LPD*%
D35*
X0Y0D02*
Y250000D01*
X1100000D01*
Y0D02*
Y250000D01*
X0Y0D02*
X1100000D01*
D66*
X964100Y202450D02*
D03*
Y47550D02*
D03*
X135900Y202450D02*
D03*
Y47550D02*
D03*
D68*
X905700Y169450D02*
D03*
X194300Y80550D02*
D03*
D70*
X187000Y234000D02*
D03*
X902400Y236000D02*
D03*
D74*
X550000Y125000D02*
D03*
D75*
X607276Y41561D02*
D03*
X526000Y242000D02*
D03*
X67000Y234000D02*
D03*
X81000D02*
D03*
X432000Y190000D02*
D03*
X441000D02*
D03*
X422500D02*
D03*
X376000Y181000D02*
D03*
X230000Y241000D02*
D03*
X255000Y175000D02*
D03*
X748000Y34000D02*
D03*
X730000D02*
D03*
X713000D02*
D03*
X695000D02*
D03*
X566264Y197832D02*
D03*
X780000Y132500D02*
D03*
X732500Y208000D02*
D03*
X367500Y42000D02*
D03*
X320000Y117500D02*
D03*
X220000Y172000D02*
D03*
X829000Y218000D02*
D03*
X405000Y61000D02*
D03*
X631317Y209853D02*
D03*
X655000Y218000D02*
D03*
Y242000D02*
D03*
X575456Y241673D02*
D03*
X774000Y27000D02*
D03*
X816000Y29000D02*
D03*
X825000D02*
D03*
X836000Y70000D02*
D03*
X401500Y129000D02*
D03*
X534444Y140556D02*
D03*
X518887Y125000D02*
D03*
X550000Y156113D02*
D03*
X534444Y109444D02*
D03*
X565556Y140556D02*
D03*
X581113Y125000D02*
D03*
X566264Y110151D02*
D03*
X550000Y93887D02*
D03*
X255000Y184000D02*
D03*
X365000Y238000D02*
D03*
X349500Y217000D02*
D03*
X357500D02*
D03*
X270500Y205000D02*
D03*
X262500D02*
D03*
X350000Y91000D02*
D03*
X320000Y95000D02*
D03*
X271000Y32000D02*
D03*
X220000Y113500D02*
D03*
X230000Y78000D02*
D03*
X880000Y136500D02*
D03*
X870000Y172000D02*
D03*
X695000Y189000D02*
D03*
X734000Y229500D02*
D03*
X698492Y121465D02*
D03*
X750000Y159000D02*
D03*
X780000Y155000D02*
D03*
X510048Y15752D02*
D03*
X664000Y62000D02*
D03*
X312000Y166000D02*
D03*
M02*
