G04 Layer_Physical_Order=1*
G04 Layer_Color=255*
%FSLAX44Y44*%
%MOMM*%
G71*
G01*
G75*
%ADD10R,0.4000X1.3500*%
%ADD11R,0.6000X0.6000*%
%ADD12R,0.6000X0.6000*%
%ADD13R,1.3000X1.0000*%
%ADD14P,0.8485X4X270.0*%
%ADD15R,1.5500X0.4000*%
%ADD16R,2.0000X1.6000*%
%ADD17R,0.5000X2.4000*%
%ADD18P,0.8485X4X360.0*%
%ADD19R,0.3000X0.8000*%
%ADD20R,1.2000X1.4000*%
%ADD21R,1.4500X0.6000*%
%ADD22R,1.2000X1.2000*%
%ADD23R,1.0000X0.8000*%
%ADD24R,0.8000X1.0000*%
%ADD25R,1.2000X0.4000*%
%ADD26R,1.6500X0.5500*%
G04:AMPARAMS|DCode=27|XSize=1.65mm|YSize=0.2mm|CornerRadius=0mm|HoleSize=0mm|Usage=FLASHONLY|Rotation=225.000|XOffset=0mm|YOffset=0mm|HoleType=Round|Shape=Rectangle|*
%AMROTATEDRECTD27*
4,1,4,0.5127,0.6541,0.6541,0.5127,-0.5127,-0.6541,-0.6541,-0.5127,0.5127,0.6541,0.0*
%
%ADD27ROTATEDRECTD27*%

G04:AMPARAMS|DCode=28|XSize=0.2mm|YSize=1.65mm|CornerRadius=0mm|HoleSize=0mm|Usage=FLASHONLY|Rotation=225.000|XOffset=0mm|YOffset=0mm|HoleType=Round|Shape=Rectangle|*
%AMROTATEDRECTD28*
4,1,4,-0.5127,0.6541,0.6541,-0.5127,0.5127,-0.6541,-0.6541,0.5127,-0.5127,0.6541,0.0*
%
%ADD28ROTATEDRECTD28*%

%ADD29O,0.3000X2.1000*%
%ADD30O,2.1000X0.3000*%
%ADD31C,0.3000*%
%ADD32C,1.0000*%
%ADD33C,0.6000*%
%ADD34C,0.1500*%
%ADD35C,0.2000*%
%ADD36C,0.5500*%
%ADD37C,0.4000*%
%ADD38C,0.3500*%
%ADD39R,2.8250X1.2000*%
%ADD40R,3.7000X1.5000*%
%ADD41R,2.2500X1.1000*%
%ADD42R,2.5000X1.1000*%
%ADD43R,1.9750X0.6500*%
%ADD44R,0.8000X1.0500*%
%ADD45R,4.4000X0.7500*%
%ADD46R,2.0250X0.9250*%
%ADD47R,3.0250X0.7000*%
%ADD48R,1.4500X0.8750*%
%ADD49R,1.4500X0.9000*%
%ADD50R,1.3500X0.5500*%
%ADD51R,0.8000X0.9250*%
%ADD52R,1.6750X0.7500*%
%ADD53R,1.1500X0.7000*%
%ADD54R,1.0000X1.5000*%
%ADD55R,1.4500X0.9000*%
%ADD56R,2.1000X0.7750*%
%ADD57R,2.7250X0.7500*%
%ADD58R,1.3500X0.5500*%
G04:AMPARAMS|DCode=59|XSize=0.6mm|YSize=0.6mm|CornerRadius=0mm|HoleSize=0mm|Usage=FLASHONLY|Rotation=45.000|XOffset=0mm|YOffset=0mm|HoleType=Round|Shape=Rectangle|*
%AMROTATEDRECTD59*
4,1,4,0.0000,-0.4243,-0.4243,0.0000,0.0000,0.4243,0.4243,0.0000,0.0000,-0.4243,0.0*
%
%ADD59ROTATEDRECTD59*%

G04:AMPARAMS|DCode=60|XSize=1mm|YSize=0.6mm|CornerRadius=0mm|HoleSize=0mm|Usage=FLASHONLY|Rotation=45.000|XOffset=0mm|YOffset=0mm|HoleType=Round|Shape=Rectangle|*
%AMROTATEDRECTD60*
4,1,4,-0.1414,-0.5657,-0.5657,-0.1414,0.1414,0.5657,0.5657,0.1414,-0.1414,-0.5657,0.0*
%
%ADD60ROTATEDRECTD60*%

%ADD61C,1.4500*%
%ADD62O,1.4000X2.1000*%
%ADD63R,1.5000X1.5000*%
%ADD64C,1.6000*%
%ADD65C,1.7000*%
%ADD66C,2.2000*%
%ADD67C,2.9500*%
%ADD68C,1.5000*%
%ADD69C,2.9500*%
%ADD70C,1.5000*%
%ADD71C,0.4000*%
%ADD72R,1.5000X1.5000*%
G04:AMPARAMS|DCode=73|XSize=1.5mm|YSize=1.5mm|CornerRadius=0.375mm|HoleSize=0mm|Usage=FLASHONLY|Rotation=0.000|XOffset=0mm|YOffset=0mm|HoleType=Round|Shape=RoundedRectangle|*
%AMROUNDEDRECTD73*
21,1,1.5000,0.7500,0,0,0.0*
21,1,0.7500,1.5000,0,0,0.0*
1,1,0.7500,0.3750,-0.3750*
1,1,0.7500,-0.3750,-0.3750*
1,1,0.7500,-0.3750,0.3750*
1,1,0.7500,0.3750,0.3750*
%
%ADD73ROUNDEDRECTD73*%
%ADD74P,7.0711X4X270.0*%
%ADD75C,0.5500*%
G36*
X699500Y194000D02*
X699500Y192226D01*
Y190000D01*
X704500D01*
Y189000D01*
X705500D01*
Y184000D01*
X708500D01*
X709500Y184000D01*
X710569D01*
X711552Y183017D01*
X710942Y181017D01*
X710000D01*
X709314Y180949D01*
X708654Y180749D01*
X708046Y180424D01*
X707513Y179987D01*
X707076Y179454D01*
X706751Y178846D01*
X706551Y178186D01*
X706483Y177500D01*
X706505Y177274D01*
X705632Y175850D01*
X705500Y175711D01*
X704090Y176029D01*
X703500Y176387D01*
Y177500D01*
X693500D01*
Y177500D01*
X692500D01*
Y177500D01*
X682500D01*
Y175274D01*
X659649D01*
X651612Y183311D01*
X652377Y185159D01*
X684932D01*
X685650Y185253D01*
X686319Y185530D01*
X686894Y185971D01*
X695149Y194226D01*
X697594D01*
X699500Y194000D01*
D02*
G37*
G36*
X342307Y168220D02*
X342814Y166161D01*
X341570Y164717D01*
X341000Y164773D01*
X340069Y164681D01*
X339174Y164410D01*
X338348Y163969D01*
X337625Y163375D01*
X337031Y162652D01*
X336590Y161826D01*
X336319Y160931D01*
X336227Y160000D01*
X336319Y159069D01*
X336590Y158174D01*
X337031Y157348D01*
X337625Y156625D01*
X337662Y156595D01*
X337656Y154374D01*
X336914Y153559D01*
X336536Y153365D01*
X336154Y153249D01*
X335546Y152924D01*
X335013Y152487D01*
X334987D01*
X334454Y152924D01*
X333846Y153249D01*
X333186Y153449D01*
X332500Y153517D01*
X331814Y153449D01*
X331154Y153249D01*
X330546Y152924D01*
X330013Y152487D01*
X329987D01*
X329454Y152924D01*
X328846Y153249D01*
X328186Y153449D01*
X327500Y153517D01*
X326814Y153449D01*
X326154Y153249D01*
X325546Y152924D01*
X325000Y152497D01*
X324454Y152924D01*
X323846Y153249D01*
X323186Y153449D01*
X322500Y153517D01*
X321814Y153449D01*
X321154Y153249D01*
X320546Y152924D01*
X320013Y152487D01*
X319987D01*
X319454Y152924D01*
X318846Y153249D01*
X318186Y153449D01*
X317500Y153517D01*
X316814Y153449D01*
X316154Y153249D01*
X315546Y152924D01*
X315013Y152487D01*
X314987D01*
X314454Y152924D01*
X313846Y153249D01*
X313186Y153449D01*
X312500Y153517D01*
X311814Y153449D01*
X311154Y153249D01*
X310546Y152924D01*
X310013Y152487D01*
X309576Y151954D01*
X309251Y151346D01*
X309051Y150686D01*
X308983Y150000D01*
Y132886D01*
X308339Y131661D01*
X307114Y131017D01*
X290000D01*
X289314Y130949D01*
X288654Y130749D01*
X288236Y130526D01*
X287500D01*
X286717Y130423D01*
X285987Y130120D01*
X285538Y129776D01*
X276800D01*
X276017Y129673D01*
X275287Y129370D01*
X274661Y128890D01*
X271692Y125921D01*
X271012Y125924D01*
X269528Y126437D01*
X269410Y126826D01*
X268969Y127652D01*
X268375Y128375D01*
X267652Y128969D01*
X266826Y129410D01*
X265931Y129681D01*
X265000Y129773D01*
X264069Y129681D01*
X263174Y129410D01*
X262348Y128969D01*
X261625Y128375D01*
X261339Y128026D01*
X258500D01*
Y130000D01*
X248500D01*
Y130000D01*
X247500D01*
Y130000D01*
X237500D01*
Y129635D01*
X235500Y128906D01*
X235000Y129500D01*
D01*
X234151Y131149D01*
X234050Y131500D01*
X234410Y132174D01*
X234681Y133069D01*
X234702Y133276D01*
X236412Y134633D01*
X236538Y134682D01*
X237398Y134391D01*
X237500Y134292D01*
Y134000D01*
X248000Y134000D01*
X249500Y134000D01*
X258500D01*
Y144000D01*
X257017D01*
Y146000D01*
X258500D01*
Y147483D01*
X268586D01*
X270000Y146069D01*
X270000Y145000D01*
X270000Y143500D01*
Y139746D01*
X269976Y139500D01*
X270000Y139255D01*
Y134500D01*
X274755D01*
X275000Y134476D01*
X296000D01*
X296000Y134476D01*
X296980Y134572D01*
X297923Y134858D01*
X298791Y135323D01*
X299553Y135947D01*
X300177Y136709D01*
X300642Y137577D01*
X300928Y138520D01*
X301024Y139500D01*
X300928Y140480D01*
X300642Y141423D01*
X300177Y142291D01*
X299553Y143053D01*
X298791Y143678D01*
X298368Y143904D01*
X298144Y144887D01*
Y145113D01*
X298368Y146096D01*
X298791Y146322D01*
X299553Y146947D01*
X300177Y147709D01*
X300642Y148577D01*
X300928Y149520D01*
X301024Y150500D01*
X300928Y151480D01*
X300642Y152423D01*
X300177Y153291D01*
X299553Y154053D01*
X298791Y154677D01*
X297923Y155142D01*
X296980Y155428D01*
X296000Y155524D01*
X296000Y155524D01*
X275000D01*
X274755Y155500D01*
X270000D01*
Y154517D01*
X258500D01*
Y156000D01*
X248000Y156000D01*
X246500Y156000D01*
X237500D01*
Y154026D01*
X231253D01*
X228607Y156672D01*
X229667Y158441D01*
X230069Y158319D01*
X231000Y158227D01*
X231931Y158319D01*
X232826Y158590D01*
X233652Y159031D01*
X234375Y159625D01*
X234662Y159974D01*
X237500D01*
Y158000D01*
X247500D01*
Y158000D01*
X248500D01*
Y158000D01*
X258500D01*
Y159974D01*
X260000D01*
X260783Y160077D01*
X261513Y160380D01*
X262140Y160860D01*
X264000Y162721D01*
X266000Y162362D01*
Y159000D01*
X283000D01*
Y169000D01*
X285000D01*
Y167000D01*
X293500D01*
X302000D01*
Y169000D01*
X340816D01*
X342307Y168220D01*
D02*
G37*
G36*
X830974Y230747D02*
Y221000D01*
X831077Y220217D01*
X831379Y219487D01*
X831860Y218860D01*
X835221Y215500D01*
X834392Y213500D01*
X830000D01*
Y208500D01*
X836000D01*
Y211892D01*
X838000Y212721D01*
X838860Y211860D01*
X839487Y211380D01*
X840217Y211077D01*
X841000Y210974D01*
X947000D01*
X947783Y211077D01*
X948513Y211380D01*
X949140Y211860D01*
X953253Y215974D01*
X957610D01*
X958076Y213974D01*
X957586Y213732D01*
X956169Y212786D01*
X954888Y211662D01*
X953764Y210381D01*
X952818Y208964D01*
X952064Y207436D01*
X951516Y205822D01*
X951184Y204151D01*
X951138Y203450D01*
X964100D01*
Y201450D01*
X951138D01*
X951184Y200749D01*
X951516Y199078D01*
X952064Y197465D01*
X952818Y195936D01*
X953764Y194519D01*
X954888Y193238D01*
X956169Y192114D01*
X957586Y191168D01*
X959114Y190414D01*
X960728Y189866D01*
X962400Y189534D01*
X964100Y189422D01*
X965000Y188579D01*
Y61421D01*
X964100Y60578D01*
X962400Y60466D01*
X960728Y60134D01*
X959114Y59586D01*
X957586Y58833D01*
X956169Y57886D01*
X954888Y56762D01*
X953764Y55481D01*
X952818Y54064D01*
X952064Y52536D01*
X951516Y50922D01*
X951184Y49250D01*
X951138Y48550D01*
X964100D01*
Y46550D01*
X951138D01*
X951184Y45849D01*
X951516Y44178D01*
X952064Y42564D01*
X952818Y41036D01*
X953764Y39619D01*
X954888Y38338D01*
X956169Y37214D01*
X957586Y36267D01*
X958076Y36026D01*
X957610Y34026D01*
X912253Y34026D01*
X899026Y47253D01*
Y80000D01*
X898923Y80783D01*
X898621Y81513D01*
X898140Y82140D01*
X870967Y109313D01*
X870957Y109871D01*
X871589Y111518D01*
X871827Y111590D01*
X872652Y112031D01*
X873375Y112625D01*
X873969Y113348D01*
X874410Y114173D01*
X874681Y115069D01*
X874773Y116000D01*
X874681Y116931D01*
X874410Y117826D01*
X874050Y118500D01*
X874151Y118850D01*
X875000Y120500D01*
X875000Y120500D01*
X875000Y120500D01*
X875000Y131000D01*
X875000Y132500D01*
Y135500D01*
X865000D01*
Y132500D01*
X865000Y131500D01*
Y130431D01*
X864500Y129931D01*
X862500Y130000D01*
Y130000D01*
X861017D01*
Y132000D01*
X862500D01*
Y142000D01*
X861017D01*
Y146000D01*
X862500D01*
Y147983D01*
X865000D01*
Y146500D01*
X875000D01*
Y147427D01*
X877000Y147817D01*
X877348Y147531D01*
X878174Y147090D01*
X879069Y146819D01*
X880000Y146727D01*
X880931Y146819D01*
X881826Y147090D01*
X882652Y147531D01*
X883375Y148125D01*
X883969Y148848D01*
X884410Y149674D01*
X884681Y150569D01*
X884773Y151500D01*
X884681Y152431D01*
X884410Y153327D01*
X883969Y154152D01*
X883375Y154875D01*
X882652Y155469D01*
X881826Y155910D01*
X880931Y156181D01*
X880000Y156273D01*
X879069Y156181D01*
X878174Y155910D01*
X877348Y155469D01*
X877000Y155183D01*
X875000Y155573D01*
X875000Y157000D01*
X875000Y158500D01*
Y161452D01*
X875673Y161938D01*
X877000Y162317D01*
X877348Y162031D01*
X878174Y161590D01*
X879069Y161319D01*
X880000Y161227D01*
X880931Y161319D01*
X881826Y161590D01*
X882652Y162031D01*
X883375Y162625D01*
X883969Y163348D01*
X884410Y164174D01*
X884681Y165069D01*
X884773Y166000D01*
Y179000D01*
X884681Y179931D01*
X884410Y180826D01*
X883969Y181652D01*
X883375Y182375D01*
X880875Y184875D01*
X880152Y185469D01*
X879326Y185910D01*
X878431Y186181D01*
X878270Y186197D01*
X877087Y187626D01*
X876889Y188273D01*
X876962Y188476D01*
X880000D01*
X880980Y188572D01*
X881923Y188858D01*
X882791Y189323D01*
X883553Y189947D01*
X884177Y190709D01*
X884642Y191577D01*
X884928Y192520D01*
X885024Y193500D01*
X884928Y194480D01*
X884642Y195423D01*
X884177Y196291D01*
X883553Y197053D01*
X882791Y197677D01*
X881923Y198142D01*
X880980Y198428D01*
X880000Y198524D01*
X875024D01*
Y203000D01*
X874928Y203980D01*
X874642Y204923D01*
X874177Y205791D01*
X873553Y206553D01*
X872791Y207177D01*
X871923Y207642D01*
X870980Y207928D01*
X870000Y208024D01*
X869020Y207928D01*
X868077Y207642D01*
X867209Y207177D01*
X866447Y206553D01*
X865823Y205791D01*
X865358Y204923D01*
X865072Y203980D01*
X864976Y203000D01*
Y192500D01*
X865000Y192255D01*
X865000Y187000D01*
X865000Y185500D01*
Y176500D01*
X875000D01*
X875227Y174594D01*
Y169406D01*
X875000Y167500D01*
X873227Y167500D01*
X871000D01*
Y162500D01*
X870000D01*
Y161500D01*
X865000D01*
Y158500D01*
X865000Y157500D01*
Y156431D01*
X864500Y155931D01*
X862500Y156000D01*
Y156000D01*
X861017D01*
Y158000D01*
X862500D01*
Y168000D01*
X861017D01*
Y172000D01*
X862500D01*
Y182000D01*
X861017D01*
Y184000D01*
X862500D01*
Y194000D01*
X852500D01*
Y194000D01*
X851500D01*
Y194000D01*
X841500D01*
Y191774D01*
X841000D01*
X840282Y191679D01*
X839613Y191402D01*
X839039Y190961D01*
X837848Y189770D01*
X836000Y190536D01*
Y198500D01*
X822000D01*
Y195605D01*
X820000Y195312D01*
X819000Y196500D01*
Y197500D01*
X819000D01*
Y201500D01*
X814000D01*
Y203500D01*
X819000D01*
Y207500D01*
X814642D01*
X813877Y209348D01*
X816140Y211610D01*
X816620Y212237D01*
X816923Y212967D01*
X816993Y213500D01*
X819000D01*
Y223500D01*
X819000D01*
Y224500D01*
X819000D01*
Y228500D01*
X814000D01*
Y230500D01*
X819000D01*
Y234500D01*
X820804Y234974D01*
X826747D01*
X830974Y230747D01*
D02*
G37*
G36*
X200000Y216197D02*
X199974Y216000D01*
Y208134D01*
X197974Y207305D01*
X181232Y224047D01*
X182479Y225629D01*
X182674Y225509D01*
X184055Y224937D01*
X185509Y224588D01*
X186000Y224549D01*
Y233000D01*
X177549D01*
X177588Y232509D01*
X177937Y231055D01*
X178509Y229674D01*
X179291Y228399D01*
X179980Y227592D01*
X179140Y226127D01*
X178893Y225877D01*
X178783Y225923D01*
X178000Y226026D01*
X171100D01*
Y243500D01*
X155131D01*
X155000Y243517D01*
X118000D01*
X117478Y243449D01*
X116991Y243247D01*
X116574Y242926D01*
X116253Y242509D01*
X116052Y242022D01*
X116049Y242000D01*
X116000D01*
Y241631D01*
X115983Y241500D01*
Y226500D01*
X114064Y226026D01*
X102000D01*
Y233000D01*
X94000D01*
X86000D01*
Y226026D01*
X62000D01*
X61217Y225923D01*
X60487Y225620D01*
X59860Y225140D01*
X47860Y213140D01*
X47379Y212513D01*
X47077Y211783D01*
X46974Y211000D01*
Y202500D01*
X3059D01*
Y246941D01*
X200000D01*
Y216197D01*
D02*
G37*
G36*
X739000Y230500D02*
X744000D01*
Y228500D01*
X739000D01*
Y224500D01*
X739000D01*
Y223500D01*
X739000D01*
Y213500D01*
X739000Y213500D01*
X739000D01*
X738852Y211561D01*
X738625Y211375D01*
X738031Y210652D01*
X737590Y209827D01*
X737319Y208931D01*
X737227Y208000D01*
X737319Y207069D01*
X737590Y206173D01*
X737960Y205481D01*
X737794Y204773D01*
X736988Y203466D01*
X736814Y203449D01*
X736154Y203249D01*
X735546Y202924D01*
X735013Y202487D01*
X734987D01*
X734454Y202924D01*
X733846Y203249D01*
X733500Y203354D01*
Y191000D01*
X732500D01*
Y190000D01*
X728983D01*
Y182000D01*
X727114Y181017D01*
X719017D01*
Y184000D01*
X720500D01*
Y194000D01*
X720500Y194000D01*
X720500D01*
X720799Y195876D01*
X727961Y203039D01*
X727982Y203066D01*
X729576Y201954D01*
X729251Y201346D01*
X729051Y200686D01*
X728983Y200000D01*
Y192000D01*
X731500D01*
Y203354D01*
X731154Y203249D01*
X730546Y202924D01*
X730013Y202487D01*
X728402Y203613D01*
X728679Y204282D01*
X728774Y205000D01*
X728774Y205000D01*
Y229851D01*
X733149Y234226D01*
X739000D01*
Y230500D01*
D02*
G37*
G36*
X636500Y203000D02*
X646500D01*
Y203000D01*
X647500D01*
Y203000D01*
X657500D01*
Y204212D01*
X659289Y205549D01*
X660524Y205439D01*
X661223Y205115D01*
X661625Y204625D01*
X661974Y204338D01*
Y204000D01*
X662077Y203217D01*
X662380Y202487D01*
X662860Y201860D01*
X663176Y201545D01*
X662347Y199545D01*
X628577D01*
X625122Y203000D01*
X625951Y205000D01*
X627000D01*
Y209000D01*
X622000D01*
Y211000D01*
X627000D01*
Y211088D01*
X627999Y212974D01*
X636500D01*
Y203000D01*
D02*
G37*
G36*
X446215Y66470D02*
X446790Y66029D01*
X447459Y65752D01*
X448177Y65658D01*
X457634D01*
X488995Y34297D01*
X489570Y33856D01*
X490239Y33579D01*
X490957Y33484D01*
X495733D01*
X496562Y31484D01*
X480851Y15774D01*
X434992D01*
X433500Y17000D01*
X433500Y17774D01*
Y20974D01*
X437500D01*
Y19000D01*
X448000Y19000D01*
X449500Y19000D01*
X458500D01*
Y20670D01*
X460500Y20777D01*
X460625Y20625D01*
X461348Y20031D01*
X462174Y19590D01*
X463069Y19319D01*
X464000Y19227D01*
X464931Y19319D01*
X465827Y19590D01*
X466652Y20031D01*
X467375Y20625D01*
X467969Y21348D01*
X468410Y22174D01*
X468681Y23069D01*
X468773Y24000D01*
X468681Y24931D01*
X468410Y25826D01*
X467969Y26652D01*
X467375Y27375D01*
X466652Y27969D01*
X465827Y28410D01*
X464931Y28681D01*
X464000Y28773D01*
X463069Y28681D01*
X462174Y28410D01*
X461348Y27969D01*
X460625Y27375D01*
X460500Y27223D01*
X458500Y27330D01*
Y29000D01*
X448000Y29000D01*
X446500Y29000D01*
X437500D01*
Y27026D01*
X433500D01*
Y31000D01*
X416500D01*
Y18987D01*
X415546Y18213D01*
X415500Y18201D01*
X415454Y18213D01*
X414500Y18987D01*
Y23000D01*
X406000D01*
X397500D01*
Y17774D01*
X397500Y17000D01*
X396008Y15774D01*
X351149D01*
X349774Y17149D01*
Y25339D01*
X351500Y26000D01*
Y26000D01*
X362000Y26000D01*
X363500Y26000D01*
X366500D01*
Y31000D01*
Y36000D01*
X363500D01*
X362500Y36000D01*
X361094D01*
X360593Y38000D01*
X360652Y38031D01*
X361375Y38625D01*
X361969Y39348D01*
X362410Y40174D01*
X362681Y41069D01*
X362773Y42000D01*
X362681Y42931D01*
X362410Y43826D01*
X362040Y44519D01*
X362206Y45227D01*
X363012Y46533D01*
X363186Y46551D01*
X363846Y46751D01*
X364454Y47076D01*
X364987Y47513D01*
X365013D01*
X365546Y47076D01*
X366154Y46751D01*
X366500Y46646D01*
Y59000D01*
X367500D01*
Y60000D01*
X371017D01*
Y68000D01*
X372886Y68983D01*
X380983D01*
Y66000D01*
X379500D01*
Y56000D01*
X390000Y56000D01*
X391500Y56000D01*
X394500D01*
Y61000D01*
Y66000D01*
X391500D01*
X390500Y66000D01*
X389431D01*
X388448Y66983D01*
X389058Y68983D01*
X390000D01*
X390686Y69051D01*
X391346Y69251D01*
X391954Y69576D01*
X392487Y70013D01*
X392924Y70546D01*
X393249Y71154D01*
X393449Y71814D01*
X393517Y72500D01*
X393495Y72726D01*
X394368Y74150D01*
X394500Y74289D01*
X395910Y73971D01*
X396500Y73613D01*
Y72500D01*
X406500D01*
Y72500D01*
X407500D01*
Y72500D01*
X417500D01*
Y74726D01*
X437959D01*
X446215Y66470D01*
D02*
G37*
G36*
X830319Y124069D02*
X830590Y123174D01*
X831031Y122348D01*
X831625Y121625D01*
X832348Y121031D01*
X833174Y120590D01*
X834069Y120319D01*
X835000Y120227D01*
X835931Y120319D01*
X836826Y120590D01*
X837652Y121031D01*
X838375Y121625D01*
X838661Y121974D01*
X841500D01*
Y120000D01*
X851500D01*
Y120000D01*
X852500D01*
Y120000D01*
X862500D01*
Y120365D01*
X864500Y121094D01*
X865000Y120500D01*
D01*
X865848Y118851D01*
X865950Y118500D01*
X865590Y117826D01*
X865319Y116931D01*
X865298Y116724D01*
X863588Y115367D01*
X863462Y115318D01*
X862602Y115609D01*
X862500Y115708D01*
Y116000D01*
X852000Y116000D01*
X850500Y116000D01*
X841500D01*
Y106000D01*
X842983D01*
Y104000D01*
X841500D01*
Y94000D01*
X842983D01*
Y87000D01*
X841500D01*
Y85517D01*
X839202D01*
X838652Y85969D01*
X837827Y86410D01*
X836931Y86681D01*
X836000Y86773D01*
X835069Y86681D01*
X834174Y86410D01*
X833348Y85969D01*
X832625Y85375D01*
X832031Y84652D01*
X831590Y83827D01*
X831319Y82931D01*
X831227Y82000D01*
X831319Y81069D01*
X831590Y80173D01*
X832031Y79348D01*
X832625Y78625D01*
X833348Y78031D01*
X834174Y77590D01*
X835069Y77319D01*
X836000Y77227D01*
X836931Y77319D01*
X837827Y77590D01*
X838652Y78031D01*
X839202Y78483D01*
X841500D01*
Y77000D01*
X850500D01*
X851740Y77000D01*
X852155Y76000D01*
X851740Y75000D01*
X847500D01*
Y70000D01*
Y65000D01*
X850500D01*
X851500Y65000D01*
X852569D01*
X853983Y63586D01*
Y60000D01*
X850000D01*
Y60000D01*
X849000D01*
Y60000D01*
X833000D01*
Y42000D01*
X849000D01*
Y42000D01*
X850000D01*
Y42000D01*
X866000D01*
Y60000D01*
X861017D01*
Y65000D01*
X862500D01*
Y75000D01*
X861017D01*
Y77000D01*
X862500D01*
Y87000D01*
X853500D01*
X852500Y87000D01*
X851431D01*
X850017Y88414D01*
Y92586D01*
X851431Y94000D01*
X853500Y94000D01*
X862500D01*
Y95974D01*
X865747D01*
X887974Y73747D01*
Y44000D01*
X888077Y43217D01*
X888380Y42487D01*
X888860Y41860D01*
X906860Y23860D01*
X907487Y23379D01*
X908217Y23077D01*
X909000Y22974D01*
X1041000D01*
X1041783Y23077D01*
X1042513Y23379D01*
X1043140Y23860D01*
X1053140Y33860D01*
X1053621Y34487D01*
X1053923Y35217D01*
X1054026Y36000D01*
Y47500D01*
X1096941D01*
Y3059D01*
X863142D01*
X863000Y5000D01*
X863000Y5059D01*
Y15000D01*
X861026D01*
Y20000D01*
X866000D01*
Y38000D01*
X851000D01*
X849500Y38000D01*
X848000Y38000D01*
X842000D01*
Y29000D01*
Y20000D01*
X848000D01*
X849500Y20000D01*
X851000Y20000D01*
X854974D01*
Y16414D01*
X853560Y15000D01*
X852500Y15000D01*
X851000Y15000D01*
X842000D01*
Y13026D01*
X814253D01*
X805779Y21500D01*
X806608Y23500D01*
X810000D01*
Y28500D01*
X806500D01*
Y29500D01*
X805500D01*
Y35500D01*
X804526D01*
Y39000D01*
Y54500D01*
X810000D01*
Y66500D01*
X809526D01*
Y69500D01*
X812000D01*
X812000Y80000D01*
X812000Y81500D01*
Y90500D01*
X810330D01*
X810223Y92500D01*
X810375Y92625D01*
X810969Y93348D01*
X811410Y94173D01*
X811681Y95069D01*
X811773Y96000D01*
X811681Y96931D01*
X811410Y97827D01*
X810969Y98652D01*
X810375Y99375D01*
X809652Y99969D01*
X808827Y100410D01*
X807931Y100681D01*
X807000Y100773D01*
X806069Y100681D01*
X805173Y100410D01*
X804348Y99969D01*
X803625Y99375D01*
X803031Y98652D01*
X802590Y97827D01*
X802319Y96931D01*
X802227Y96000D01*
X802319Y95069D01*
X802590Y94173D01*
X803031Y93348D01*
X803625Y92625D01*
X803777Y92500D01*
X803670Y90500D01*
X802000D01*
X802000Y80000D01*
X802000Y78500D01*
Y69500D01*
X803474D01*
Y66500D01*
X799526D01*
Y68500D01*
X799423Y69283D01*
X799120Y70013D01*
X798640Y70640D01*
X795140Y74140D01*
X794513Y74620D01*
X793783Y74923D01*
X793000Y75026D01*
X787500D01*
Y77000D01*
X777000Y77000D01*
X775500Y77000D01*
X766500D01*
Y75331D01*
X764500Y75223D01*
X764375Y75375D01*
X763652Y75969D01*
X762827Y76410D01*
X761931Y76681D01*
X761000Y76773D01*
X760069Y76681D01*
X759174Y76410D01*
X758348Y75969D01*
X757625Y75375D01*
X757031Y74652D01*
X756590Y73826D01*
X756319Y72931D01*
X756227Y72000D01*
X756319Y71069D01*
X756590Y70174D01*
X757031Y69348D01*
X757625Y68625D01*
X758348Y68031D01*
X758407Y68000D01*
X758322Y67660D01*
X757500Y66000D01*
X756500D01*
Y66000D01*
X747500D01*
Y66000D01*
X746500D01*
X746082Y66604D01*
X745683Y68000D01*
X745969Y68348D01*
X746410Y69173D01*
X746681Y70069D01*
X746773Y71000D01*
X746681Y71931D01*
X746410Y72826D01*
X745969Y73652D01*
X745375Y74375D01*
X744652Y74969D01*
X743827Y75410D01*
X742931Y75681D01*
X742468Y75727D01*
X742101Y76794D01*
X742090Y77731D01*
X742652Y78031D01*
X743375Y78625D01*
X743969Y79348D01*
X744410Y80173D01*
X744681Y81069D01*
X744773Y82000D01*
X744681Y82931D01*
X745976Y84568D01*
X746290Y84649D01*
X746476Y84600D01*
X747819Y82931D01*
X747727Y82000D01*
X747819Y81069D01*
X748090Y80173D01*
X748531Y79348D01*
X749125Y78625D01*
X749848Y78031D01*
X750674Y77590D01*
X751569Y77319D01*
X752500Y77227D01*
X753431Y77319D01*
X754327Y77590D01*
X755152Y78031D01*
X755875Y78625D01*
X756469Y79348D01*
X756910Y80173D01*
X757181Y81069D01*
X757273Y82000D01*
X757181Y82931D01*
X756992Y83555D01*
X757559Y84483D01*
X758397Y85286D01*
X759000Y85227D01*
X759931Y85319D01*
X760826Y85590D01*
X761652Y86031D01*
X762375Y86625D01*
X762969Y87348D01*
X763410Y88174D01*
X763681Y89069D01*
X763773Y90000D01*
X763681Y90931D01*
X763410Y91826D01*
X762969Y92652D01*
X762375Y93375D01*
X761774Y93868D01*
Y94000D01*
X761701Y94552D01*
X761769Y94910D01*
X761872Y95133D01*
X762764Y96359D01*
X763008Y96533D01*
X763186Y96551D01*
X763846Y96751D01*
X764454Y97076D01*
X765000Y97503D01*
X765546Y97076D01*
X766154Y96751D01*
X766814Y96551D01*
X767500Y96483D01*
X768186Y96551D01*
X768846Y96751D01*
X769454Y97076D01*
X769987Y97513D01*
X770013D01*
X770546Y97076D01*
X771154Y96751D01*
X771814Y96551D01*
X772500Y96483D01*
X773186Y96551D01*
X773846Y96751D01*
X774454Y97076D01*
X774987Y97513D01*
X775013D01*
X775546Y97076D01*
X776154Y96751D01*
X776814Y96551D01*
X777500Y96483D01*
X778186Y96551D01*
X778846Y96751D01*
X779454Y97076D01*
X779987Y97513D01*
X780013D01*
X780546Y97076D01*
X781154Y96751D01*
X781814Y96551D01*
X782500Y96483D01*
X783186Y96551D01*
X783846Y96751D01*
X784454Y97076D01*
X784987Y97513D01*
X785013D01*
X785546Y97076D01*
X786154Y96751D01*
X786814Y96551D01*
X787500Y96483D01*
X788186Y96551D01*
X788846Y96751D01*
X789454Y97076D01*
X789987Y97513D01*
X790424Y98046D01*
X790749Y98654D01*
X790949Y99314D01*
X791017Y100000D01*
Y117114D01*
X791661Y118339D01*
X792886Y118983D01*
X810000D01*
X810686Y119051D01*
X811346Y119251D01*
X811764Y119474D01*
X812500D01*
X813283Y119577D01*
X814013Y119880D01*
X814462Y120224D01*
X821250D01*
X822033Y120327D01*
X822763Y120630D01*
X823390Y121110D01*
X826753Y124474D01*
X830279D01*
X830319Y124069D01*
D02*
G37*
G36*
X196974Y191747D02*
Y174000D01*
X197077Y173217D01*
X197379Y172487D01*
X197860Y171860D01*
X200000Y169721D01*
Y169000D01*
X200721D01*
X229033Y140688D01*
X229043Y140129D01*
X228411Y138482D01*
X228174Y138410D01*
X227348Y137969D01*
X226625Y137375D01*
X226031Y136652D01*
X225590Y135827D01*
X225319Y134931D01*
X225227Y134000D01*
X225319Y133069D01*
X225590Y132174D01*
X225950Y131500D01*
X225849Y131150D01*
X225000Y129500D01*
X225000Y129500D01*
X225000Y129500D01*
X225000Y119000D01*
X225000Y117500D01*
Y114500D01*
X230000D01*
X235000D01*
Y117500D01*
X235000Y118500D01*
Y119569D01*
X235500Y120069D01*
X237500Y120000D01*
Y120000D01*
X238983D01*
Y118000D01*
X237500D01*
Y108000D01*
X238983D01*
Y104000D01*
X237500D01*
Y102017D01*
X235000D01*
Y103500D01*
X225000D01*
Y102573D01*
X223000Y102183D01*
X222652Y102469D01*
X221826Y102910D01*
X220931Y103181D01*
X220000Y103273D01*
X219069Y103181D01*
X218174Y102910D01*
X217348Y102469D01*
X216625Y101875D01*
X216031Y101152D01*
X215590Y100326D01*
X215319Y99431D01*
X215227Y98500D01*
X215319Y97569D01*
X215590Y96673D01*
X216031Y95848D01*
X216625Y95125D01*
X217348Y94531D01*
X218174Y94090D01*
X219069Y93819D01*
X220000Y93727D01*
X220931Y93819D01*
X221826Y94090D01*
X222652Y94531D01*
X223000Y94817D01*
X225000Y94427D01*
X225000Y93000D01*
X225000Y91500D01*
Y88500D01*
X230000D01*
X235000D01*
Y91500D01*
X235000Y92500D01*
Y93569D01*
X235500Y94069D01*
X237500Y94000D01*
Y94000D01*
X238983D01*
Y92000D01*
X237500D01*
Y82000D01*
X238983D01*
Y78000D01*
X237500D01*
Y68000D01*
X238983D01*
Y66000D01*
X237500D01*
Y56000D01*
X247500D01*
Y56000D01*
X248500D01*
Y56000D01*
X258500D01*
Y58226D01*
X259000D01*
X259718Y58321D01*
X260387Y58598D01*
X260961Y59039D01*
X262152Y60230D01*
X264000Y59464D01*
Y51500D01*
X278000D01*
Y54395D01*
X280000Y54688D01*
X281000Y53500D01*
Y52500D01*
X281000D01*
Y48500D01*
X286000D01*
Y46500D01*
X281000D01*
Y42500D01*
X285608D01*
X286373Y40652D01*
X283860Y38140D01*
X283379Y37513D01*
X283077Y36783D01*
X283040Y36500D01*
X281000D01*
Y26500D01*
X281000D01*
Y25500D01*
X279000Y25247D01*
X278513Y25621D01*
X277783Y25923D01*
X277000Y26026D01*
X274662D01*
X274375Y26375D01*
X273652Y26969D01*
X272826Y27410D01*
X271931Y27681D01*
X271000Y27773D01*
X270069Y27681D01*
X269174Y27410D01*
X268348Y26969D01*
X267625Y26375D01*
X267031Y25652D01*
X266590Y24827D01*
X266319Y23931D01*
X266227Y23000D01*
X266319Y22069D01*
X266590Y21174D01*
X267031Y20348D01*
X267497Y19781D01*
X267625Y19508D01*
Y17492D01*
X267588Y17412D01*
X267508Y17375D01*
X265492D01*
X265219Y17503D01*
X264652Y17969D01*
X263827Y18410D01*
X262931Y18681D01*
X262000Y18773D01*
X261069Y18681D01*
X260173Y18410D01*
X260000Y18317D01*
X258331Y19086D01*
X258000Y19449D01*
Y29000D01*
X251108D01*
X250279Y31000D01*
X255640Y36360D01*
X256120Y36987D01*
X256423Y37717D01*
X256526Y38500D01*
Y42000D01*
X258500D01*
Y52000D01*
X248000Y52000D01*
X246500Y52000D01*
X237500D01*
Y43026D01*
X224662D01*
X224375Y43375D01*
X223652Y43969D01*
X222826Y44410D01*
X221931Y44681D01*
X221000Y44773D01*
X220069Y44681D01*
X219174Y44410D01*
X218348Y43969D01*
X217625Y43375D01*
X217031Y42652D01*
X216590Y41827D01*
X216319Y40931D01*
X216227Y40000D01*
X216319Y39069D01*
X216590Y38173D01*
X217031Y37348D01*
X217625Y36625D01*
X218348Y36031D01*
X219174Y35590D01*
X220069Y35319D01*
X221000Y35227D01*
X221931Y35319D01*
X222826Y35590D01*
X223652Y36031D01*
X224375Y36625D01*
X224662Y36974D01*
X240000D01*
X240783Y37077D01*
X241513Y37380D01*
X242140Y37860D01*
X244640Y40360D01*
X245121Y40987D01*
X245423Y41717D01*
X245460Y42000D01*
X247500Y42000D01*
X249060Y42000D01*
X249648Y41411D01*
Y38928D01*
X243860Y33140D01*
X243379Y32513D01*
X243077Y31783D01*
X242974Y31000D01*
Y29000D01*
X234000D01*
Y9000D01*
X258000D01*
Y9000D01*
X260000Y9683D01*
X260173Y9590D01*
X261069Y9319D01*
X262000Y9227D01*
X262931Y9319D01*
X263827Y9590D01*
X264652Y10031D01*
X265219Y10497D01*
X265492Y10625D01*
X266093D01*
X267974Y8818D01*
Y8000D01*
X268077Y7217D01*
X268379Y6487D01*
X268860Y5860D01*
X269814Y4906D01*
X269049Y3059D01*
X3059D01*
Y47500D01*
X122875D01*
X122984Y45849D01*
X123316Y44178D01*
X123864Y42564D01*
X124618Y41036D01*
X125564Y39619D01*
X126688Y38338D01*
X127969Y37214D01*
X129386Y36267D01*
X130914Y35514D01*
X132528Y34966D01*
X134199Y34634D01*
X134900Y34588D01*
Y47550D01*
X135900D01*
Y48550D01*
X148862D01*
X148816Y49250D01*
X148484Y50922D01*
X147936Y52536D01*
X147183Y54064D01*
X146236Y55481D01*
X145112Y56762D01*
X143831Y57886D01*
X142414Y58833D01*
X140886Y59586D01*
X139272Y60134D01*
X137600Y60466D01*
X135900Y60578D01*
X135000Y61421D01*
Y188579D01*
X135900Y189422D01*
X137600Y189534D01*
X139272Y189866D01*
X140886Y190414D01*
X142414Y191168D01*
X143831Y192114D01*
X145112Y193238D01*
X146236Y194519D01*
X147183Y195936D01*
X147936Y197465D01*
X148484Y199078D01*
X148816Y200749D01*
X148862Y201450D01*
X135900D01*
Y203450D01*
X148862D01*
X148816Y204151D01*
X148484Y205822D01*
X147936Y207436D01*
X147183Y208964D01*
X146236Y210381D01*
X145112Y211662D01*
X143831Y212786D01*
X143549Y212974D01*
X144156Y214974D01*
X173747D01*
X196974Y191747D01*
D02*
G37*
G36*
X437004Y148514D02*
X437010Y148502D01*
X437121Y147867D01*
X436829Y145860D01*
X413039Y122069D01*
X412598Y121495D01*
X412321Y120826D01*
X412226Y120108D01*
Y117764D01*
X411541Y117200D01*
X410226Y116696D01*
X409827Y116910D01*
X408931Y117181D01*
X408000Y117273D01*
X407069Y117181D01*
X406691Y117066D01*
X405434Y117678D01*
X404733Y118407D01*
X404681Y118931D01*
X404410Y119826D01*
X403969Y120652D01*
X403375Y121375D01*
X402652Y121969D01*
X401827Y122410D01*
X400931Y122681D01*
X400000Y122773D01*
X399069Y122681D01*
X398173Y122410D01*
X397348Y121969D01*
X396625Y121375D01*
X396484Y121203D01*
X395198Y120989D01*
X394929Y121013D01*
X394102Y121284D01*
X393969Y121500D01*
X381000D01*
X368646D01*
X368751Y121154D01*
X369076Y120546D01*
X369513Y120013D01*
Y119987D01*
X369076Y119454D01*
X368751Y118846D01*
X368551Y118186D01*
X368483Y117500D01*
X368551Y116814D01*
X368751Y116154D01*
X369076Y115546D01*
X369513Y115013D01*
Y114987D01*
X369076Y114454D01*
X368751Y113846D01*
X368551Y113186D01*
X368483Y112500D01*
X368551Y111814D01*
X368751Y111154D01*
X369076Y110546D01*
X369513Y110013D01*
Y109987D01*
X369076Y109454D01*
X368751Y108846D01*
X368551Y108186D01*
X368483Y107500D01*
X368551Y106814D01*
X368751Y106154D01*
X369076Y105546D01*
X369513Y105013D01*
Y104987D01*
X369076Y104454D01*
X368751Y103846D01*
X368551Y103186D01*
X368483Y102500D01*
X368551Y101814D01*
X368751Y101154D01*
X369076Y100546D01*
X369513Y100013D01*
Y99987D01*
X369076Y99454D01*
X368751Y98846D01*
X368551Y98186D01*
X368483Y97500D01*
X368551Y96814D01*
X368751Y96154D01*
X369076Y95546D01*
X369513Y95013D01*
Y94987D01*
X369076Y94454D01*
X368751Y93846D01*
X368551Y93186D01*
X368483Y92500D01*
X368551Y91814D01*
X368751Y91154D01*
X369076Y90546D01*
X369513Y90013D01*
Y89987D01*
X369076Y89454D01*
X368751Y88846D01*
X368551Y88186D01*
X368483Y87500D01*
X368551Y86814D01*
X368751Y86154D01*
X369076Y85546D01*
X369513Y85013D01*
Y84987D01*
X369076Y84454D01*
X368751Y83846D01*
X368551Y83186D01*
X368483Y82500D01*
X368551Y81814D01*
X368751Y81154D01*
X369076Y80546D01*
X369513Y80013D01*
Y79987D01*
X369076Y79454D01*
X368751Y78846D01*
X368551Y78186D01*
X366730Y77446D01*
X366534Y77440D01*
X363987Y79987D01*
X363454Y80424D01*
X362846Y80749D01*
X362186Y80949D01*
X361500Y81017D01*
X332957D01*
X331517Y82457D01*
Y101000D01*
X331449Y101686D01*
X331249Y102346D01*
X330924Y102954D01*
X330487Y103487D01*
X327487Y106487D01*
X326954Y106924D01*
X326346Y107249D01*
X325686Y107449D01*
X325000Y107517D01*
X323202D01*
X322652Y107969D01*
X321827Y108410D01*
X320931Y108681D01*
X320000Y108773D01*
X319069Y108681D01*
X318174Y108410D01*
X317348Y107969D01*
X316798Y107517D01*
X313000D01*
X312245Y107508D01*
X311449Y108186D01*
X311249Y108846D01*
X310924Y109454D01*
X310497Y110000D01*
X310924Y110546D01*
X311249Y111154D01*
X311449Y111814D01*
X311517Y112500D01*
X311449Y113186D01*
X311249Y113846D01*
X310924Y114454D01*
X310487Y114987D01*
Y115013D01*
X310924Y115546D01*
X311249Y116154D01*
X311354Y116500D01*
X299000D01*
X286588D01*
X286626Y116187D01*
X286204Y115662D01*
X285220Y114776D01*
X278800D01*
X278017Y114673D01*
X277287Y114370D01*
X276661Y113890D01*
X274386Y111615D01*
X274385Y111614D01*
X272860Y110089D01*
X272379Y109463D01*
X272077Y108733D01*
X271974Y107950D01*
Y96276D01*
X269746D01*
X269681Y96931D01*
X269410Y97827D01*
X268969Y98652D01*
X268375Y99375D01*
X267652Y99969D01*
X266826Y100410D01*
X265931Y100681D01*
X265000Y100773D01*
X264551Y100729D01*
X264140Y101140D01*
X263513Y101621D01*
X262783Y101923D01*
X262000Y102026D01*
X258500D01*
Y104000D01*
X248500D01*
Y104000D01*
X248017D01*
X246479Y104960D01*
X246383Y107060D01*
X247500Y108000D01*
X248500D01*
Y108000D01*
X258500D01*
Y109974D01*
X262000D01*
X262783Y110077D01*
X263513Y110379D01*
X264140Y110860D01*
X264551Y111271D01*
X265000Y111227D01*
X265931Y111319D01*
X266826Y111590D01*
X267652Y112031D01*
X268375Y112625D01*
X268969Y113348D01*
X269410Y114173D01*
X269681Y115069D01*
X269746Y115724D01*
X273750D01*
X274533Y115827D01*
X275263Y116130D01*
X275890Y116610D01*
X278290Y119010D01*
X278290Y119011D01*
X279503Y120224D01*
X285220D01*
X286204Y119338D01*
X286626Y118813D01*
X286588Y118500D01*
X299000D01*
X311354D01*
X311249Y118846D01*
X310924Y119454D01*
X310487Y119987D01*
Y120013D01*
X310924Y120546D01*
X311249Y121154D01*
X311449Y121814D01*
X311517Y122500D01*
X311449Y123186D01*
X311249Y123846D01*
X310924Y124454D01*
X310487Y124987D01*
Y125013D01*
X310924Y125546D01*
X311249Y126154D01*
X311449Y126814D01*
X311614Y127597D01*
X312403Y128386D01*
X313186Y128551D01*
X313846Y128751D01*
X314454Y129076D01*
X314987Y129513D01*
X315013D01*
X315546Y129076D01*
X316154Y128751D01*
X316814Y128551D01*
X317500Y128483D01*
X318186Y128551D01*
X318846Y128751D01*
X319454Y129076D01*
X319987Y129513D01*
X320013D01*
X320546Y129076D01*
X321154Y128751D01*
X321814Y128551D01*
X322500Y128483D01*
X323186Y128551D01*
X323846Y128751D01*
X324454Y129076D01*
X325000Y129503D01*
X325546Y129076D01*
X326154Y128751D01*
X326814Y128551D01*
X327500Y128483D01*
X328186Y128551D01*
X328846Y128751D01*
X329454Y129076D01*
X329987Y129513D01*
X330013D01*
X330546Y129076D01*
X331154Y128751D01*
X331814Y128551D01*
X332500Y128483D01*
X333186Y128551D01*
X333846Y128751D01*
X334454Y129076D01*
X334987Y129513D01*
X335013D01*
X335546Y129076D01*
X336154Y128751D01*
X336814Y128551D01*
X337500Y128483D01*
X338186Y128551D01*
X338846Y128751D01*
X339454Y129076D01*
X339987Y129513D01*
X340013D01*
X340546Y129076D01*
X341154Y128751D01*
X341814Y128551D01*
X342500Y128483D01*
X343186Y128551D01*
X343846Y128751D01*
X344454Y129076D01*
X344987Y129513D01*
X345013D01*
X345546Y129076D01*
X346154Y128751D01*
X346814Y128551D01*
X347500Y128483D01*
X348186Y128551D01*
X348846Y128751D01*
X349454Y129076D01*
X350000Y129503D01*
X350546Y129076D01*
X351154Y128751D01*
X351814Y128551D01*
X352500Y128483D01*
X353186Y128551D01*
X353846Y128751D01*
X354454Y129076D01*
X354987Y129513D01*
X355013D01*
X355546Y129076D01*
X356154Y128751D01*
X356814Y128551D01*
X357500Y128483D01*
X358186Y128551D01*
X358846Y128751D01*
X359454Y129076D01*
X360000Y129503D01*
X360546Y129076D01*
X361154Y128751D01*
X361814Y128551D01*
X362500Y128483D01*
X363186Y128551D01*
X363846Y128751D01*
X364454Y129076D01*
X364987Y129513D01*
X365013D01*
X365546Y129076D01*
X366154Y128751D01*
X366814Y128551D01*
X367597Y128386D01*
X368386Y127597D01*
X368551Y126814D01*
X368751Y126154D01*
X369076Y125546D01*
X369513Y125013D01*
Y124987D01*
X369076Y124454D01*
X368751Y123846D01*
X368646Y123500D01*
X381000D01*
X393354D01*
X393249Y123846D01*
X392924Y124454D01*
X392487Y124987D01*
Y125013D01*
X392924Y125546D01*
X393249Y126154D01*
X393449Y126814D01*
X393517Y127500D01*
X393449Y128186D01*
X393249Y128846D01*
X392924Y129454D01*
X392487Y129987D01*
X391954Y130424D01*
X391346Y130749D01*
X390686Y130949D01*
X390017Y131015D01*
Y134000D01*
X392500D01*
Y148000D01*
X380500D01*
Y146008D01*
X379110Y145226D01*
X378500Y145050D01*
X377826Y145410D01*
X376931Y145681D01*
X376000Y145773D01*
X375069Y145681D01*
X374174Y145410D01*
X373348Y144969D01*
X373017Y144697D01*
X371647Y145100D01*
X371017Y145568D01*
Y150000D01*
X372756Y151226D01*
X375000D01*
X375718Y151321D01*
X376387Y151598D01*
X376961Y152039D01*
X378461Y153539D01*
X378461Y153539D01*
X378902Y154113D01*
X379179Y154782D01*
X379274Y155500D01*
Y156000D01*
X381500D01*
Y156000D01*
X382500D01*
Y156000D01*
X392500D01*
Y158226D01*
X427291D01*
X437004Y148514D01*
D02*
G37*
G36*
X735013Y170013D02*
X735546Y169576D01*
X736154Y169251D01*
X736814Y169051D01*
X737500Y168983D01*
X768043D01*
X768483Y168543D01*
Y148000D01*
X768551Y147314D01*
X768751Y146654D01*
X769076Y146046D01*
X769513Y145513D01*
X771513Y143513D01*
X772046Y143076D01*
X772654Y142751D01*
X773314Y142551D01*
X774000Y142483D01*
X776798D01*
X777348Y142031D01*
X778174Y141590D01*
X779069Y141319D01*
X780000Y141227D01*
X780931Y141319D01*
X781826Y141590D01*
X782652Y142031D01*
X783202Y142483D01*
X786000D01*
X786541Y142536D01*
X786731Y142533D01*
X787996Y142033D01*
X788730Y141223D01*
X788751Y141154D01*
X789076Y140546D01*
X789513Y140013D01*
Y139987D01*
X789076Y139454D01*
X788751Y138846D01*
X788551Y138186D01*
X788483Y137500D01*
X788551Y136814D01*
X788751Y136154D01*
X789076Y135546D01*
X789513Y135013D01*
Y134987D01*
X789076Y134454D01*
X788751Y133846D01*
X788646Y133500D01*
X801000D01*
X813412D01*
X813374Y133813D01*
X813796Y134338D01*
X814780Y135224D01*
X820200D01*
X820983Y135327D01*
X821713Y135630D01*
X822339Y136110D01*
X826640Y140411D01*
X827121Y141037D01*
X827423Y141767D01*
X827526Y142550D01*
Y150297D01*
X827953Y150724D01*
X830254D01*
X830319Y150069D01*
X830590Y149173D01*
X831031Y148348D01*
X831625Y147625D01*
X832348Y147031D01*
X833174Y146590D01*
X834069Y146319D01*
X835000Y146227D01*
X835931Y146319D01*
X836826Y146590D01*
X837652Y147031D01*
X838375Y147625D01*
X838661Y147974D01*
X841500D01*
Y146000D01*
X851500D01*
Y146000D01*
X851983D01*
X853521Y145040D01*
X853617Y142940D01*
X852500Y142000D01*
X851500D01*
Y142000D01*
X841500D01*
Y140026D01*
X838000D01*
X837217Y139923D01*
X836487Y139621D01*
X835860Y139140D01*
X835450Y138729D01*
X835000Y138773D01*
X834069Y138681D01*
X833174Y138410D01*
X832348Y137969D01*
X831625Y137375D01*
X831031Y136652D01*
X830590Y135827D01*
X830319Y134931D01*
X830230Y134026D01*
X824050D01*
X823267Y133923D01*
X822537Y133621D01*
X821911Y133140D01*
X818547Y129776D01*
X814780D01*
X813796Y130662D01*
X813374Y131187D01*
X813412Y131500D01*
X801000D01*
X788646D01*
X788751Y131154D01*
X789076Y130546D01*
X789513Y130013D01*
Y129987D01*
X789076Y129454D01*
X788751Y128846D01*
X788551Y128186D01*
X788483Y127500D01*
X788551Y126814D01*
X788751Y126154D01*
X789076Y125546D01*
X789513Y125013D01*
Y124987D01*
X789076Y124454D01*
X788751Y123846D01*
X788551Y123186D01*
X788386Y122403D01*
X787597Y121614D01*
X786814Y121449D01*
X786154Y121249D01*
X785546Y120924D01*
X785013Y120487D01*
X784987D01*
X784454Y120924D01*
X783846Y121249D01*
X783186Y121449D01*
X782500Y121517D01*
X781814Y121449D01*
X781154Y121249D01*
X780546Y120924D01*
X780013Y120487D01*
X779987D01*
X779454Y120924D01*
X778846Y121249D01*
X778186Y121449D01*
X777500Y121517D01*
X776814Y121449D01*
X776154Y121249D01*
X775546Y120924D01*
X775013Y120487D01*
X774987D01*
X774454Y120924D01*
X773846Y121249D01*
X773186Y121449D01*
X772500Y121517D01*
X771814Y121449D01*
X771154Y121249D01*
X770546Y120924D01*
X770013Y120487D01*
X769987D01*
X769454Y120924D01*
X768846Y121249D01*
X768186Y121449D01*
X767500Y121517D01*
X766814Y121449D01*
X766154Y121249D01*
X765546Y120924D01*
X765000Y120497D01*
X764454Y120924D01*
X763846Y121249D01*
X763186Y121449D01*
X762500Y121517D01*
X761814Y121449D01*
X761154Y121249D01*
X760546Y120924D01*
X760013Y120487D01*
X759987D01*
X759454Y120924D01*
X758846Y121249D01*
X758186Y121449D01*
X757500Y121517D01*
X756814Y121449D01*
X756154Y121249D01*
X755546Y120924D01*
X755000Y120497D01*
X754454Y120924D01*
X753846Y121249D01*
X753186Y121449D01*
X752500Y121517D01*
X751814Y121449D01*
X751154Y121249D01*
X750546Y120924D01*
X750000Y120497D01*
X749454Y120924D01*
X748846Y121249D01*
X748186Y121449D01*
X747500Y121517D01*
X746814Y121449D01*
X746154Y121249D01*
X745546Y120924D01*
X745013Y120487D01*
X744987D01*
X744454Y120924D01*
X743846Y121249D01*
X743186Y121449D01*
X742500Y121517D01*
X741814Y121449D01*
X741154Y121249D01*
X740546Y120924D01*
X740013Y120487D01*
X739987D01*
X739454Y120924D01*
X738846Y121249D01*
X738186Y121449D01*
X737500Y121517D01*
X736814Y121449D01*
X736154Y121249D01*
X735546Y120924D01*
X735013Y120487D01*
X734987D01*
X734454Y120924D01*
X733846Y121249D01*
X733186Y121449D01*
X732403Y121614D01*
X731614Y122403D01*
X731449Y123186D01*
X731249Y123846D01*
X730924Y124454D01*
X730487Y124987D01*
Y125013D01*
X730924Y125546D01*
X731249Y126154D01*
X731354Y126500D01*
X719000D01*
X706646D01*
X706751Y126154D01*
X707076Y125546D01*
X707513Y125013D01*
Y124987D01*
X707076Y124454D01*
X706751Y123846D01*
X706551Y123186D01*
X706483Y122500D01*
X706551Y121814D01*
X706751Y121154D01*
X707076Y120546D01*
X707513Y120013D01*
X708046Y119576D01*
X708654Y119251D01*
X709314Y119051D01*
X709983Y118985D01*
Y116000D01*
X707500D01*
Y102000D01*
X719500D01*
Y103992D01*
X720890Y104774D01*
X721500Y104950D01*
X722173Y104590D01*
X723069Y104319D01*
X724000Y104227D01*
X724931Y104319D01*
X725826Y104590D01*
X726652Y105031D01*
X726983Y105303D01*
X728353Y104900D01*
X728983Y104432D01*
Y100000D01*
X727244Y98774D01*
X725000D01*
X724282Y98679D01*
X723613Y98402D01*
X723039Y97961D01*
X721539Y96461D01*
X721098Y95887D01*
X720821Y95218D01*
X720726Y94500D01*
Y94000D01*
X718500D01*
Y94000D01*
X717500D01*
Y94000D01*
X707500D01*
Y91774D01*
X696000D01*
X695282Y91679D01*
X694613Y91402D01*
X694039Y90961D01*
X694039Y90961D01*
X684889Y81812D01*
X678563D01*
X677734Y83812D01*
X685961Y92039D01*
X686402Y92613D01*
X686679Y93282D01*
X686774Y94000D01*
Y133228D01*
X688162Y133901D01*
X688774Y134003D01*
X689348Y133531D01*
X690173Y133090D01*
X691069Y132819D01*
X692000Y132727D01*
X692931Y132819D01*
X693309Y132934D01*
X694566Y132322D01*
X695267Y131593D01*
X695319Y131069D01*
X695590Y130174D01*
X696031Y129348D01*
X696625Y128625D01*
X697348Y128031D01*
X698174Y127590D01*
X699069Y127319D01*
X700000Y127227D01*
X700931Y127319D01*
X701826Y127590D01*
X702652Y128031D01*
X703375Y128625D01*
X703516Y128797D01*
X704802Y129011D01*
X705071Y128987D01*
X705898Y128716D01*
X706031Y128500D01*
X719000D01*
X731354D01*
X731249Y128846D01*
X730924Y129454D01*
X730487Y129987D01*
Y130013D01*
X730924Y130546D01*
X731249Y131154D01*
X731449Y131814D01*
X731517Y132500D01*
X731449Y133186D01*
X731249Y133846D01*
X730924Y134454D01*
X730487Y134987D01*
Y135013D01*
X730924Y135546D01*
X731249Y136154D01*
X731449Y136814D01*
X731517Y137500D01*
X731449Y138186D01*
X731249Y138846D01*
X730924Y139454D01*
X730487Y139987D01*
Y140013D01*
X730924Y140546D01*
X731249Y141154D01*
X731449Y141814D01*
X731517Y142500D01*
X731449Y143186D01*
X731249Y143846D01*
X730924Y144454D01*
X730487Y144987D01*
Y145013D01*
X730924Y145546D01*
X731249Y146154D01*
X731449Y146814D01*
X731517Y147500D01*
X731449Y148186D01*
X731249Y148846D01*
X730924Y149454D01*
X730487Y149987D01*
Y150013D01*
X730924Y150546D01*
X731249Y151154D01*
X731449Y151814D01*
X731517Y152500D01*
X731449Y153186D01*
X731249Y153846D01*
X730924Y154454D01*
X730487Y154987D01*
Y155013D01*
X730924Y155546D01*
X731249Y156154D01*
X731449Y156814D01*
X731517Y157500D01*
X731449Y158186D01*
X731249Y158846D01*
X730924Y159454D01*
X730487Y159987D01*
Y160013D01*
X730924Y160546D01*
X731249Y161154D01*
X731449Y161814D01*
X731517Y162500D01*
X731449Y163186D01*
X731249Y163846D01*
X730924Y164454D01*
X730487Y164987D01*
Y165013D01*
X730924Y165546D01*
X731249Y166154D01*
X731449Y166814D01*
X731517Y167500D01*
X731449Y168186D01*
X731249Y168846D01*
X730975Y169359D01*
X731181Y169949D01*
X731699Y170946D01*
X733747Y171279D01*
X735013Y170013D01*
D02*
G37*
G36*
X787609Y66609D02*
X788000Y65207D01*
Y60672D01*
X787983Y60500D01*
Y54500D01*
X788051Y53814D01*
X788141Y53517D01*
X787592Y52345D01*
X786917Y51517D01*
X783000D01*
Y53000D01*
X773000D01*
X773000Y42500D01*
X773000Y41000D01*
Y38000D01*
X778000D01*
X783000D01*
Y41000D01*
X783000Y42000D01*
Y43069D01*
X784414Y44483D01*
X789798D01*
X790348Y44031D01*
X791173Y43590D01*
X791688Y43434D01*
X792069Y42568D01*
X792073Y42552D01*
X792080Y41308D01*
X791860Y41140D01*
X789360Y38640D01*
X788879Y38013D01*
X788577Y37283D01*
X788474Y36500D01*
Y35500D01*
X788000D01*
Y23500D01*
X793474D01*
Y21414D01*
X792060Y20000D01*
X790000Y20000D01*
X788500Y20000D01*
X779500D01*
Y18331D01*
X777500Y18223D01*
X777375Y18375D01*
X776652Y18969D01*
X775826Y19410D01*
X774931Y19681D01*
X774000Y19773D01*
X773069Y19681D01*
X772173Y19410D01*
X771348Y18969D01*
X770625Y18375D01*
X770031Y17652D01*
X769590Y16826D01*
X769319Y15931D01*
X769227Y15000D01*
X769319Y14069D01*
X769590Y13174D01*
X770031Y12348D01*
X770625Y11625D01*
X771348Y11031D01*
X772173Y10590D01*
X773069Y10319D01*
X774000Y10227D01*
X774931Y10319D01*
X775826Y10590D01*
X776652Y11031D01*
X777375Y11625D01*
X777500Y11777D01*
X779500Y11669D01*
Y10000D01*
X790000Y10000D01*
X791500Y10000D01*
X800500D01*
Y15608D01*
X802348Y16373D01*
X810860Y7860D01*
X811487Y7380D01*
X812217Y7077D01*
X813000Y6974D01*
X841796D01*
X842000Y5000D01*
X841858Y3059D01*
X766500D01*
Y30000D01*
X763366D01*
X762119Y31865D01*
X762141Y32000D01*
X762420Y32922D01*
X762527Y34000D01*
X762420Y35078D01*
X762141Y36000D01*
X762119Y36135D01*
X763366Y38000D01*
X766500D01*
Y65000D01*
X766500Y66000D01*
X768086Y67000D01*
X777000Y67000D01*
X778500Y67000D01*
X786207D01*
X787609Y66609D01*
D02*
G37*
G36*
X667500Y38000D02*
X670634D01*
X671881Y36135D01*
X671859Y36000D01*
X671580Y35078D01*
X671473Y34000D01*
X671580Y32922D01*
X671859Y32000D01*
X671881Y31865D01*
X670634Y30000D01*
X667500D01*
Y17000D01*
X672000D01*
Y15000D01*
X667500D01*
Y3059D01*
X660594D01*
X659829Y4906D01*
X660961Y6039D01*
X661402Y6613D01*
X661679Y7282D01*
X661774Y8000D01*
Y23132D01*
X662375Y23625D01*
X662969Y24348D01*
X663410Y25173D01*
X663681Y26069D01*
X663773Y27000D01*
X663681Y27931D01*
X663410Y28826D01*
X662969Y29652D01*
X662375Y30375D01*
X662375Y31625D01*
X662969Y32348D01*
X663410Y33173D01*
X663681Y34069D01*
X663773Y35000D01*
X663681Y35931D01*
X663410Y36827D01*
X662969Y37652D01*
X662375Y38375D01*
X661652Y38969D01*
X660826Y39410D01*
X659931Y39681D01*
X659000Y39773D01*
X658069Y39681D01*
X657173Y39410D01*
X656348Y38969D01*
X655625Y38375D01*
X655132Y37774D01*
X654000D01*
X653282Y37679D01*
X652613Y37402D01*
X652039Y36961D01*
X650282Y35204D01*
X649834Y35010D01*
X648026Y35624D01*
Y51162D01*
X661838Y64974D01*
X667500D01*
Y38000D01*
D02*
G37*
G36*
X581500Y243000D02*
X586500D01*
Y241000D01*
X581500D01*
Y237000D01*
X584322D01*
X585151Y235000D01*
X579040Y228889D01*
X579262Y228667D01*
X578433Y226667D01*
X577931D01*
X577148Y226564D01*
X576418Y226262D01*
X575791Y225781D01*
X574951Y224941D01*
X573511Y226293D01*
X573511Y226293D01*
X573511Y226293D01*
X566440Y233364D01*
X551945Y218868D01*
X556187Y214626D01*
X559203Y211610D01*
X559203Y211578D01*
X558388Y209597D01*
X558261Y209584D01*
X557366Y209313D01*
X556541Y208872D01*
X555817Y208278D01*
X555224Y207555D01*
X554783Y206730D01*
X554511Y205834D01*
X554419Y204903D01*
X554511Y203972D01*
X554783Y203076D01*
X555224Y202251D01*
X555817Y201528D01*
X556541Y200935D01*
X557366Y200493D01*
X558261Y200222D01*
X559192Y200130D01*
X560123Y200222D01*
X561019Y200493D01*
X561844Y200935D01*
X562567Y201528D01*
X563161Y202251D01*
X563602Y203076D01*
X563874Y203972D01*
X563886Y204098D01*
X565868Y204913D01*
X565899Y204914D01*
X568915Y201898D01*
X573139Y197673D01*
X573345Y197455D01*
X573345Y197436D01*
X572530Y195455D01*
X572403Y195442D01*
X571508Y195171D01*
X570683Y194729D01*
X569959Y194136D01*
X569366Y193413D01*
X568925Y192588D01*
X568653Y191692D01*
X568562Y190761D01*
X568653Y189830D01*
X568925Y188934D01*
X569366Y188109D01*
X569959Y187386D01*
X570683Y186792D01*
X571508Y186351D01*
X572403Y186080D01*
X573335Y185988D01*
X574266Y186080D01*
X575161Y186351D01*
X575986Y186792D01*
X576710Y187386D01*
X577303Y188109D01*
X577744Y188934D01*
X578016Y189830D01*
X578028Y189956D01*
X580010Y190771D01*
X580042Y190771D01*
X587487Y183326D01*
X587487Y183294D01*
X586672Y181313D01*
X586545Y181300D01*
X585650Y181028D01*
X584825Y180587D01*
X584102Y179994D01*
X583508Y179270D01*
X583067Y178445D01*
X582795Y177550D01*
X582704Y176619D01*
X582795Y175688D01*
X583067Y174792D01*
X583508Y173967D01*
X584102Y173244D01*
X584825Y172650D01*
X585650Y172209D01*
X586545Y171938D01*
X587058Y171887D01*
X587535Y171464D01*
X587998Y170794D01*
X588300Y170184D01*
X588337Y169921D01*
X588288Y169548D01*
X588357Y169026D01*
X588558Y168539D01*
X588879Y168121D01*
X588879Y168121D01*
X592368Y164632D01*
X592408Y164580D01*
X592461Y164539D01*
X593121Y163879D01*
X593539Y163558D01*
X594026Y163357D01*
X594548Y163288D01*
X594921Y163337D01*
X595183Y163300D01*
X595794Y162998D01*
X596464Y162535D01*
X596887Y162058D01*
X596937Y161546D01*
X597209Y160650D01*
X597650Y159825D01*
X598244Y159102D01*
X598967Y158508D01*
X599239Y158363D01*
X599738Y156740D01*
X599707Y156003D01*
X590465Y146760D01*
X590024Y146186D01*
X589747Y145517D01*
X589653Y144799D01*
Y124028D01*
X579151Y113526D01*
X578711Y112952D01*
X578433Y112283D01*
X578339Y111565D01*
Y104120D01*
X577738Y103626D01*
X577144Y102903D01*
X576703Y102078D01*
X576431Y101182D01*
X576340Y100251D01*
X576431Y99320D01*
X576703Y98425D01*
X577144Y97600D01*
X577738Y96876D01*
X578461Y96283D01*
X579286Y95842D01*
X580182Y95570D01*
X580921Y95497D01*
X581281Y94992D01*
X581788Y93535D01*
X546271Y58018D01*
X545830Y57444D01*
X545553Y56775D01*
X545458Y56057D01*
Y36230D01*
X543459Y35728D01*
X542399Y36788D01*
X538174Y41013D01*
X537969Y41231D01*
X537969Y41250D01*
X538784Y43232D01*
X538910Y43244D01*
X539806Y43516D01*
X540631Y43957D01*
X541354Y44550D01*
X541948Y45274D01*
X542389Y46099D01*
X542660Y46994D01*
X542752Y47925D01*
X542660Y48857D01*
X542389Y49752D01*
X541948Y50577D01*
X541354Y51300D01*
X540631Y51894D01*
X539806Y52335D01*
X538910Y52607D01*
X537979Y52698D01*
X537048Y52607D01*
X536153Y52335D01*
X535327Y51894D01*
X534604Y51300D01*
X534011Y50577D01*
X533569Y49752D01*
X533298Y48857D01*
X533285Y48730D01*
X532999Y48612D01*
X531085Y48102D01*
X531085Y48102D01*
X531085Y48102D01*
X524032Y55155D01*
X523827Y55374D01*
X523827Y55392D01*
X524642Y57374D01*
X524768Y57386D01*
X525664Y57658D01*
X526489Y58099D01*
X527212Y58692D01*
X527806Y59416D01*
X528247Y60241D01*
X528518Y61136D01*
X528610Y62067D01*
X528518Y62999D01*
X528247Y63894D01*
X527806Y64719D01*
X527212Y65443D01*
X526489Y66036D01*
X525664Y66477D01*
X524768Y66749D01*
X523837Y66841D01*
X522906Y66749D01*
X522010Y66477D01*
X521185Y66036D01*
X520462Y65443D01*
X519869Y64719D01*
X519427Y63894D01*
X519156Y62999D01*
X519143Y62872D01*
X517162Y62057D01*
X517130Y62057D01*
X512718Y66469D01*
X512513Y66687D01*
X512513Y66706D01*
X513328Y68688D01*
X513455Y68700D01*
X514350Y68972D01*
X515175Y69413D01*
X515898Y70006D01*
X516492Y70729D01*
X516933Y71555D01*
X517205Y72450D01*
X517296Y73381D01*
X517205Y74312D01*
X516933Y75208D01*
X516492Y76033D01*
X515898Y76756D01*
X515175Y77350D01*
X514350Y77791D01*
X513455Y78063D01*
X512942Y78113D01*
X512465Y78536D01*
X512002Y79206D01*
X511700Y79816D01*
X511663Y80079D01*
X511712Y80452D01*
X511643Y80974D01*
X511442Y81461D01*
X511121Y81879D01*
X506879Y86121D01*
X506461Y86442D01*
X505974Y86643D01*
X505452Y86712D01*
X505079Y86663D01*
X504817Y86700D01*
X504206Y87002D01*
X503536Y87465D01*
X503113Y87942D01*
X503062Y88455D01*
X502791Y89350D01*
X502350Y90175D01*
X501756Y90898D01*
X501033Y91492D01*
X500208Y91933D01*
X499312Y92205D01*
X498381Y92296D01*
X497450Y92205D01*
X496555Y91933D01*
X495729Y91492D01*
X495006Y90898D01*
X494413Y90175D01*
X493972Y89350D01*
X493700Y88455D01*
X493688Y88328D01*
X491706Y87513D01*
X491674Y87513D01*
X484229Y94958D01*
X484229Y94990D01*
X485044Y96972D01*
X485170Y96984D01*
X486066Y97256D01*
X486891Y97697D01*
X487614Y98291D01*
X488208Y99014D01*
X488649Y99839D01*
X488920Y100734D01*
X489012Y101665D01*
X488920Y102597D01*
X488649Y103492D01*
X488208Y104317D01*
X487614Y105041D01*
X486891Y105634D01*
X486066Y106075D01*
X485170Y106347D01*
X484239Y106438D01*
X483308Y106347D01*
X482412Y106075D01*
X481587Y105634D01*
X480864Y105041D01*
X480271Y104317D01*
X479829Y103492D01*
X479558Y102597D01*
X479545Y102470D01*
X477564Y101655D01*
X477532Y101655D01*
X473102Y106085D01*
X467464Y111723D01*
X467258Y111942D01*
X467258Y111961D01*
X468073Y113942D01*
X468200Y113955D01*
X469095Y114226D01*
X469920Y114668D01*
X470644Y115261D01*
X471237Y115984D01*
X471678Y116810D01*
X471950Y117705D01*
X472042Y118636D01*
X471950Y119567D01*
X471678Y120463D01*
X471237Y121288D01*
X470644Y122011D01*
X469920Y122605D01*
X469095Y123046D01*
X468200Y123317D01*
X467268Y123409D01*
X466337Y123317D01*
X465442Y123046D01*
X464617Y122605D01*
X463894Y122011D01*
X463300Y121288D01*
X462859Y120463D01*
X462587Y119567D01*
X462575Y119441D01*
X462289Y119323D01*
X460374Y118813D01*
X460374Y118813D01*
X460374Y118813D01*
X456132Y123055D01*
X441636Y108560D01*
X443210Y106986D01*
X443276Y104223D01*
X427827Y88774D01*
X414446D01*
X413852Y89839D01*
X413696Y90774D01*
X416961Y94039D01*
X416961Y94039D01*
X417402Y94613D01*
X417679Y95282D01*
X417774Y96000D01*
X417774Y96000D01*
Y118959D01*
X439817Y141002D01*
X441636Y141440D01*
X456132Y126945D01*
X460374Y131187D01*
X461788Y132601D01*
X466031Y136844D01*
X466031D01*
D01*
X467936Y136338D01*
X468232Y136216D01*
X468244Y136090D01*
X468516Y135194D01*
X468957Y134369D01*
X469550Y133646D01*
X470274Y133052D01*
X471099Y132611D01*
X471994Y132340D01*
X472925Y132248D01*
X473857Y132340D01*
X474752Y132611D01*
X475577Y133052D01*
X476300Y133646D01*
X476894Y134369D01*
X477335Y135194D01*
X477607Y136090D01*
X477698Y137021D01*
X477607Y137952D01*
X477335Y138847D01*
X476894Y139672D01*
X476300Y140396D01*
X475577Y140989D01*
X474752Y141431D01*
X473857Y141702D01*
X473730Y141714D01*
X473612Y142001D01*
X473102Y143915D01*
X473102Y143915D01*
X473102Y143915D01*
X477532Y148345D01*
X477564Y148345D01*
X479545Y147530D01*
X479558Y147403D01*
X479829Y146508D01*
X480271Y145683D01*
X480864Y144959D01*
X481587Y144366D01*
X482412Y143925D01*
X483308Y143653D01*
X484239Y143562D01*
X485170Y143653D01*
X486066Y143925D01*
X486891Y144366D01*
X487614Y144959D01*
X488208Y145683D01*
X488649Y146508D01*
X488920Y147403D01*
X489012Y148335D01*
X488920Y149266D01*
X488649Y150161D01*
X488208Y150986D01*
X487614Y151709D01*
X486891Y152303D01*
X486066Y152744D01*
X485170Y153016D01*
X485044Y153028D01*
X484229Y155010D01*
X484229Y155042D01*
X488846Y159659D01*
X488877Y159658D01*
X490859Y158844D01*
X490872Y158717D01*
X491143Y157822D01*
X491584Y156996D01*
X492178Y156273D01*
X492901Y155680D01*
X493726Y155239D01*
X494622Y154967D01*
X495553Y154875D01*
X496484Y154967D01*
X497379Y155239D01*
X498204Y155680D01*
X498928Y156273D01*
X499521Y156996D01*
X499962Y157822D01*
X500234Y158717D01*
X500326Y159648D01*
X500234Y160579D01*
X499962Y161475D01*
X499521Y162300D01*
X498928Y163023D01*
X498204Y163617D01*
X497379Y164058D01*
X496484Y164329D01*
X496357Y164342D01*
X495542Y166324D01*
X495542Y166342D01*
X495748Y166561D01*
X497331Y168144D01*
X497363Y168144D01*
X499344Y167329D01*
X499357Y167202D01*
X499628Y166307D01*
X500070Y165482D01*
X500663Y164758D01*
X501386Y164165D01*
X502211Y163724D01*
X503107Y163452D01*
X504038Y163361D01*
X504969Y163452D01*
X505865Y163724D01*
X506690Y164165D01*
X507413Y164758D01*
X508007Y165482D01*
X508448Y166307D01*
X508719Y167202D01*
X508811Y168134D01*
X508719Y169065D01*
X508448Y169960D01*
X508007Y170785D01*
X507413Y171509D01*
X506690Y172102D01*
X505865Y172543D01*
X504969Y172815D01*
X504843Y172827D01*
X504725Y173113D01*
X504215Y175028D01*
X504215Y175028D01*
X504215Y175028D01*
X508457Y179270D01*
X509872Y180685D01*
X512682Y183495D01*
X514626Y181550D01*
X514679Y181510D01*
X518168Y178021D01*
X518586Y177700D01*
X519072Y177499D01*
X519594Y177430D01*
X520117Y177499D01*
X520603Y177700D01*
X521021Y178021D01*
X528092Y185092D01*
X528413Y185510D01*
X528614Y185996D01*
X528683Y186518D01*
X529403Y187690D01*
X530204Y188349D01*
X530613Y188473D01*
X531438Y188914D01*
X532162Y189507D01*
X532755Y190231D01*
X533196Y191056D01*
X533468Y191951D01*
X533560Y192882D01*
X533468Y193813D01*
X533196Y194709D01*
X532755Y195534D01*
X532162Y196257D01*
X531438Y196851D01*
X530613Y197292D01*
X529718Y197563D01*
X529591Y197576D01*
X528777Y199558D01*
X528776Y199589D01*
X534101Y204914D01*
X534132Y204913D01*
X536114Y204098D01*
X536126Y203972D01*
X536398Y203076D01*
X536839Y202251D01*
X537433Y201528D01*
X538156Y200935D01*
X538981Y200493D01*
X539876Y200222D01*
X540808Y200130D01*
X541739Y200222D01*
X542634Y200493D01*
X543459Y200935D01*
X544183Y201528D01*
X544776Y202251D01*
X545217Y203076D01*
X545489Y203972D01*
X545581Y204903D01*
X545489Y205834D01*
X545217Y206730D01*
X544776Y207555D01*
X544183Y208278D01*
X543459Y208872D01*
X542634Y209313D01*
X541739Y209584D01*
X541612Y209597D01*
X540797Y211578D01*
X540797Y211610D01*
X542399Y213212D01*
X543813Y214626D01*
X548055Y218868D01*
X533560Y233364D01*
X530731Y230536D01*
X526489Y226293D01*
X525075Y224879D01*
X520832Y220636D01*
X515175Y214979D01*
X506690Y206494D01*
X498204Y198009D01*
X496790Y196595D01*
X492548Y192352D01*
X491133Y190938D01*
X486891Y186695D01*
X484062Y183867D01*
X482648Y182452D01*
X475577Y175381D01*
X468439Y168243D01*
X467678Y168271D01*
X466216Y168789D01*
X466135Y168985D01*
X465694Y169559D01*
X465694Y169559D01*
X459177Y176077D01*
X459253Y176851D01*
X459161Y177782D01*
X458890Y178678D01*
X458448Y179503D01*
X457855Y180226D01*
X457132Y180820D01*
X456306Y181261D01*
X455411Y181532D01*
X454480Y181624D01*
X453549Y181532D01*
X452653Y181261D01*
X451828Y180820D01*
X451105Y180226D01*
X450511Y179503D01*
X450070Y178678D01*
X449799Y177782D01*
X449707Y176851D01*
X449799Y175920D01*
X450070Y175025D01*
X450144Y174887D01*
X448666Y173409D01*
X448528Y173482D01*
X447633Y173754D01*
X446702Y173846D01*
X445771Y173754D01*
X444875Y173482D01*
X444050Y173041D01*
X443327Y172448D01*
X442733Y171725D01*
X442292Y170899D01*
X442020Y170004D01*
X441929Y169073D01*
X442020Y168142D01*
X442292Y167246D01*
X442733Y166421D01*
X443327Y165698D01*
X443946Y165190D01*
X444086Y165009D01*
X444204Y164691D01*
X444394Y162999D01*
X444319Y162742D01*
X444147Y162532D01*
X443706Y161707D01*
X443699Y161684D01*
X441711Y161044D01*
X441480Y161075D01*
X430594Y171961D01*
X430019Y172402D01*
X429350Y172679D01*
X428633Y172774D01*
X418224D01*
X417570Y174000D01*
X418576Y176000D01*
X421500D01*
Y181000D01*
Y186000D01*
X417500Y186000D01*
X417000Y187793D01*
Y220908D01*
X418110Y222079D01*
X419000Y222551D01*
X420000Y222472D01*
X421412Y222583D01*
X422790Y222914D01*
X424099Y223456D01*
X425306Y224196D01*
X426384Y225116D01*
X427304Y226194D01*
X428044Y227402D01*
X428586Y228710D01*
X428917Y230088D01*
X429028Y231500D01*
Y238500D01*
X428917Y239912D01*
X428586Y241290D01*
X428044Y242599D01*
X427304Y243806D01*
X426384Y244884D01*
X426316Y244941D01*
X427054Y246941D01*
X482946D01*
X483684Y244941D01*
X483616Y244884D01*
X482696Y243806D01*
X481956Y242599D01*
X481414Y241290D01*
X481083Y239912D01*
X480972Y238500D01*
Y231500D01*
X481083Y230088D01*
X481414Y228710D01*
X481956Y227402D01*
X482696Y226194D01*
X483616Y225116D01*
X484694Y224196D01*
X485901Y223456D01*
X487210Y222914D01*
X488588Y222583D01*
X490000Y222472D01*
X491412Y222583D01*
X492790Y222914D01*
X494099Y223456D01*
X495306Y224196D01*
X496384Y225116D01*
X497304Y226194D01*
X497481Y226483D01*
X499500D01*
Y225000D01*
X510000Y225000D01*
X511500Y225000D01*
X514500D01*
Y230000D01*
Y235000D01*
X511500D01*
X510230Y235000D01*
X509840Y236067D01*
X510260Y237000D01*
X510500D01*
Y237000D01*
X514500D01*
Y242000D01*
X515500D01*
Y243000D01*
X520500D01*
Y246941D01*
X581500D01*
Y243000D01*
D02*
G37*
G36*
X525075Y25121D02*
X526489Y23707D01*
X533560Y16636D01*
X543611Y26687D01*
X545458Y25921D01*
Y20702D01*
X545553Y19984D01*
X545830Y19315D01*
X546271Y18740D01*
X560105Y4906D01*
X559339Y3059D01*
X493992D01*
X493226Y4906D01*
X519258Y30938D01*
X525075Y25121D01*
D02*
G37*
G36*
X642167Y53416D02*
X642077Y53199D01*
X641974Y52416D01*
Y34662D01*
X641625Y34375D01*
X641031Y33652D01*
X640590Y32826D01*
X640319Y31931D01*
X640227Y31000D01*
X640319Y30069D01*
X640590Y29173D01*
X641031Y28348D01*
X641625Y27625D01*
X642348Y27031D01*
X643174Y26590D01*
X644069Y26319D01*
X645000Y26227D01*
X645931Y26319D01*
X646826Y26590D01*
X647226Y26804D01*
X648541Y26300D01*
X649226Y25736D01*
Y11149D01*
X648601Y10524D01*
X604423D01*
X603595Y12524D01*
X608475Y17404D01*
X609182Y18111D01*
X610596Y19525D01*
X616960Y25889D01*
Y25889D01*
X617852Y27825D01*
X618295Y27959D01*
X619120Y28400D01*
X619843Y28994D01*
X620437Y29717D01*
X620878Y30543D01*
X621149Y31438D01*
X621241Y32369D01*
X621149Y33300D01*
X620878Y34196D01*
X620437Y35021D01*
X619843Y35744D01*
X619120Y36338D01*
X618295Y36779D01*
X617399Y37050D01*
X616468Y37142D01*
X615537Y37050D01*
X614641Y36779D01*
X613816Y36338D01*
X613093Y35744D01*
X612500Y35021D01*
X612058Y34196D01*
X611924Y33753D01*
X611646Y33628D01*
X609889Y32960D01*
X609889D01*
X609889Y32960D01*
X603525Y26596D01*
X602818Y25889D01*
X602133Y25204D01*
X601442Y25239D01*
X600239Y26442D01*
X600204Y27133D01*
X603717Y30646D01*
X600182Y34182D01*
X596646Y37717D01*
X594525Y35596D01*
X593818Y34889D01*
X593234Y34305D01*
X591234D01*
X587672Y37867D01*
X597553Y47749D01*
X603970Y54166D01*
X606011Y53571D01*
X606288Y52902D01*
X606729Y52328D01*
X607529Y51528D01*
X607452Y50754D01*
X607544Y49823D01*
X607816Y48927D01*
X608257Y48102D01*
X608850Y47379D01*
X609574Y46785D01*
X610399Y46344D01*
X611294Y46073D01*
X612225Y45981D01*
X613157Y46073D01*
X614052Y46344D01*
X614877Y46785D01*
X615087Y46957D01*
X615344Y47032D01*
X617036Y46842D01*
X617354Y46723D01*
X617535Y46583D01*
X618043Y45965D01*
X618766Y45371D01*
X619591Y44930D01*
X620487Y44658D01*
X621418Y44567D01*
X622349Y44658D01*
X623244Y44930D01*
X624070Y45371D01*
X624793Y45965D01*
X625386Y46688D01*
X625827Y47513D01*
X626099Y48408D01*
X626191Y49340D01*
X626099Y50271D01*
X625827Y51166D01*
X625754Y51304D01*
X627232Y52782D01*
X627369Y52708D01*
X628265Y52436D01*
X628473Y52416D01*
X628649Y52350D01*
X629661Y51484D01*
X630226Y50437D01*
Y22868D01*
X629625Y22375D01*
X629031Y21652D01*
X628590Y20826D01*
X628319Y19931D01*
X628227Y19000D01*
X628319Y18069D01*
X628590Y17173D01*
X629031Y16348D01*
X629625Y15625D01*
X630348Y15031D01*
X631174Y14590D01*
X632069Y14319D01*
X633000Y14227D01*
X633931Y14319D01*
X634827Y14590D01*
X635652Y15031D01*
X636375Y15625D01*
X636969Y16348D01*
X637410Y17173D01*
X637681Y18069D01*
X637773Y19000D01*
X637681Y19931D01*
X637410Y20826D01*
X636969Y21652D01*
X636375Y22375D01*
X635774Y22868D01*
Y49851D01*
X640472Y54549D01*
X642167Y53416D01*
D02*
G37*
G36*
X666500Y238000D02*
X668726D01*
Y235500D01*
X659250D01*
Y234274D01*
X658500D01*
X657782Y234179D01*
X657113Y233902D01*
X656539Y233461D01*
X652000Y228923D01*
X650000Y229751D01*
Y231000D01*
X639750D01*
Y233000D01*
X650000D01*
Y236750D01*
X650000Y246250D01*
X651714Y246941D01*
X666500D01*
Y238000D01*
D02*
G37*
G36*
X1096941Y202500D02*
X1038226D01*
Y208800D01*
X1038123Y209583D01*
X1037821Y210313D01*
X1037340Y210940D01*
X1022140Y226140D01*
X1021513Y226621D01*
X1020783Y226923D01*
X1020000Y227026D01*
X949000D01*
X948217Y226923D01*
X947487Y226621D01*
X946860Y226140D01*
X942747Y222026D01*
X844253D01*
X842026Y224253D01*
Y224531D01*
X842100Y226500D01*
X844026Y226500D01*
X861100D01*
Y244941D01*
X861100Y245500D01*
X862449Y246941D01*
X873497D01*
X874055Y245063D01*
X872674Y244491D01*
X871399Y243709D01*
X870262Y242738D01*
X869291Y241601D01*
X868509Y240326D01*
X867937Y238945D01*
X867588Y237491D01*
X867471Y236000D01*
X867588Y234509D01*
X867937Y233055D01*
X868509Y231674D01*
X869291Y230399D01*
X870262Y229262D01*
X871399Y228291D01*
X872674Y227509D01*
X874055Y226937D01*
X875509Y226588D01*
X877000Y226471D01*
X878491Y226588D01*
X879945Y226937D01*
X881326Y227509D01*
X882601Y228291D01*
X883738Y229262D01*
X884709Y230399D01*
X885491Y231674D01*
X886063Y233055D01*
X886412Y234509D01*
X886529Y236000D01*
X886412Y237491D01*
X886063Y238945D01*
X885491Y240326D01*
X884709Y241601D01*
X883738Y242738D01*
X882601Y243709D01*
X881326Y244491D01*
X879945Y245063D01*
X880503Y246941D01*
X898897D01*
X899455Y245063D01*
X898074Y244491D01*
X896799Y243709D01*
X895662Y242738D01*
X894691Y241601D01*
X893909Y240326D01*
X893337Y238945D01*
X892988Y237491D01*
X892949Y237000D01*
X911851D01*
X911812Y237491D01*
X911463Y238945D01*
X910891Y240326D01*
X910109Y241601D01*
X909138Y242738D01*
X908001Y243709D01*
X906726Y244491D01*
X905345Y245063D01*
X905903Y246941D01*
X1096941D01*
Y202500D01*
D02*
G37*
%LPC*%
G36*
X703500Y188000D02*
X699500D01*
Y184000D01*
X703500D01*
Y188000D01*
D02*
G37*
G36*
X292500Y165000D02*
X285000D01*
Y159000D01*
X292500D01*
Y165000D01*
D02*
G37*
G36*
X302000D02*
X294500D01*
Y159000D01*
X302000D01*
Y165000D01*
D02*
G37*
G36*
X940600Y90050D02*
X921600D01*
Y71050D01*
X940600D01*
Y90050D01*
D02*
G37*
G36*
X905700Y102779D02*
X904209Y102662D01*
X902755Y102313D01*
X901374Y101741D01*
X900099Y100959D01*
X898962Y99988D01*
X897991Y98851D01*
X897209Y97576D01*
X896637Y96195D01*
X896288Y94741D01*
X896171Y93250D01*
X896288Y91759D01*
X896637Y90305D01*
X897209Y88924D01*
X897991Y87649D01*
X898962Y86512D01*
X900099Y85541D01*
X901374Y84759D01*
X902755Y84187D01*
X904209Y83838D01*
X905700Y83721D01*
X907191Y83838D01*
X908645Y84187D01*
X910026Y84759D01*
X911301Y85541D01*
X912438Y86512D01*
X913410Y87649D01*
X914191Y88924D01*
X914763Y90305D01*
X915112Y91759D01*
X915229Y93250D01*
X915112Y94741D01*
X914763Y96195D01*
X914191Y97576D01*
X913410Y98851D01*
X912438Y99988D01*
X911301Y100959D01*
X910026Y101741D01*
X908645Y102313D01*
X907191Y102662D01*
X905700Y102779D01*
D02*
G37*
G36*
X931100Y115971D02*
X929792Y115886D01*
X928506Y115630D01*
X927265Y115209D01*
X926089Y114629D01*
X924999Y113901D01*
X924014Y113036D01*
X923149Y112051D01*
X922421Y110961D01*
X921841Y109785D01*
X921420Y108544D01*
X921164Y107258D01*
X921078Y105950D01*
X921164Y104642D01*
X921420Y103356D01*
X921841Y102115D01*
X922421Y100939D01*
X923149Y99849D01*
X924014Y98864D01*
X924999Y97999D01*
X926089Y97271D01*
X927265Y96691D01*
X928506Y96270D01*
X929792Y96014D01*
X931100Y95929D01*
X932408Y96014D01*
X933694Y96270D01*
X934935Y96691D01*
X936111Y97271D01*
X937201Y97999D01*
X938186Y98864D01*
X939051Y99849D01*
X939779Y100939D01*
X940359Y102115D01*
X940780Y103356D01*
X941036Y104642D01*
X941121Y105950D01*
X941036Y107258D01*
X940780Y108544D01*
X940359Y109785D01*
X939779Y110961D01*
X939051Y112051D01*
X938186Y113036D01*
X937201Y113901D01*
X936111Y114629D01*
X934935Y115209D01*
X933694Y115630D01*
X932408Y115886D01*
X931100Y115971D01*
D02*
G37*
G36*
X836000Y206500D02*
X830000D01*
Y201500D01*
X836000D01*
Y206500D01*
D02*
G37*
G36*
X828000D02*
X822000D01*
Y201500D01*
X828000D01*
Y206500D01*
D02*
G37*
G36*
X904700Y168450D02*
X896249D01*
X896288Y167959D01*
X896637Y166505D01*
X897209Y165124D01*
X897990Y163849D01*
X898962Y162712D01*
X900099Y161741D01*
X901374Y160959D01*
X902755Y160387D01*
X904209Y160038D01*
X904700Y159999D01*
Y168450D01*
D02*
G37*
G36*
X915151D02*
X906700D01*
Y159999D01*
X907191Y160038D01*
X908645Y160387D01*
X910026Y160959D01*
X911301Y161741D01*
X912438Y162712D01*
X913409Y163849D01*
X914191Y165124D01*
X914763Y166505D01*
X915112Y167959D01*
X915151Y168450D01*
D02*
G37*
G36*
X869000Y167500D02*
X865000D01*
Y163500D01*
X869000D01*
Y167500D01*
D02*
G37*
G36*
X906700Y178901D02*
Y170450D01*
X915151D01*
X915112Y170941D01*
X914763Y172395D01*
X914191Y173776D01*
X913409Y175051D01*
X912438Y176188D01*
X911301Y177159D01*
X910026Y177941D01*
X908645Y178513D01*
X907191Y178862D01*
X906700Y178901D01*
D02*
G37*
G36*
X904700Y178901D02*
X904209Y178862D01*
X902755Y178513D01*
X901374Y177941D01*
X900099Y177159D01*
X898962Y176188D01*
X897990Y175051D01*
X897209Y173776D01*
X896637Y172395D01*
X896288Y170941D01*
X896249Y170450D01*
X904700D01*
Y178901D01*
D02*
G37*
G36*
X828000Y213500D02*
X822000D01*
Y208500D01*
X828000D01*
Y213500D01*
D02*
G37*
G36*
X931100Y140879D02*
X929609Y140762D01*
X928155Y140413D01*
X926774Y139841D01*
X925499Y139059D01*
X924362Y138088D01*
X923391Y136951D01*
X922609Y135676D01*
X922037Y134295D01*
X921688Y132841D01*
X921571Y131350D01*
X921688Y129859D01*
X922037Y128405D01*
X922609Y127024D01*
X923391Y125749D01*
X924362Y124612D01*
X925499Y123641D01*
X926774Y122859D01*
X928155Y122287D01*
X929609Y121938D01*
X931100Y121821D01*
X932591Y121938D01*
X934045Y122287D01*
X935426Y122859D01*
X936701Y123641D01*
X937838Y124612D01*
X938809Y125749D01*
X939591Y127024D01*
X940163Y128405D01*
X940512Y129859D01*
X940629Y131350D01*
X940512Y132841D01*
X940163Y134295D01*
X939591Y135676D01*
X938809Y136951D01*
X937838Y138088D01*
X936701Y139059D01*
X935426Y139841D01*
X934045Y140413D01*
X932591Y140762D01*
X931100Y140879D01*
D02*
G37*
G36*
X905700Y128179D02*
X904209Y128062D01*
X902755Y127713D01*
X901374Y127141D01*
X900099Y126359D01*
X898962Y125388D01*
X897990Y124251D01*
X897209Y122976D01*
X896637Y121595D01*
X896288Y120141D01*
X896171Y118650D01*
X896288Y117159D01*
X896637Y115705D01*
X897209Y114324D01*
X897990Y113049D01*
X898962Y111912D01*
X900099Y110941D01*
X901374Y110159D01*
X902755Y109587D01*
X904209Y109238D01*
X905700Y109121D01*
X907191Y109238D01*
X908645Y109587D01*
X910026Y110159D01*
X911301Y110941D01*
X912438Y111912D01*
X913409Y113049D01*
X914191Y114324D01*
X914763Y115705D01*
X915112Y117159D01*
X915229Y118650D01*
X915112Y120141D01*
X914763Y121595D01*
X914191Y122976D01*
X913409Y124251D01*
X912438Y125388D01*
X911301Y126359D01*
X910026Y127141D01*
X908645Y127713D01*
X907191Y128062D01*
X905700Y128179D01*
D02*
G37*
G36*
X931110Y166209D02*
X929619Y166092D01*
X928165Y165743D01*
X926784Y165171D01*
X925509Y164389D01*
X924372Y163418D01*
X923401Y162281D01*
X922619Y161006D01*
X922047Y159625D01*
X921698Y158171D01*
X921581Y156680D01*
X921698Y155189D01*
X922047Y153735D01*
X922619Y152354D01*
X923401Y151079D01*
X924372Y149942D01*
X925509Y148971D01*
X926784Y148189D01*
X928165Y147617D01*
X929619Y147268D01*
X931110Y147151D01*
X932601Y147268D01*
X934055Y147617D01*
X935436Y148189D01*
X936711Y148971D01*
X937848Y149942D01*
X938819Y151079D01*
X939601Y152354D01*
X940173Y153735D01*
X940522Y155189D01*
X940639Y156680D01*
X940522Y158171D01*
X940173Y159625D01*
X939601Y161006D01*
X938819Y162281D01*
X937848Y163418D01*
X936711Y164389D01*
X935436Y165171D01*
X934055Y165743D01*
X932601Y166092D01*
X931110Y166209D01*
D02*
G37*
G36*
X905700Y153579D02*
X904209Y153462D01*
X902755Y153113D01*
X901374Y152541D01*
X900099Y151759D01*
X898962Y150788D01*
X897990Y149651D01*
X897209Y148376D01*
X896637Y146995D01*
X896288Y145541D01*
X896171Y144050D01*
X896288Y142559D01*
X896637Y141105D01*
X897209Y139724D01*
X897990Y138449D01*
X898962Y137312D01*
X900099Y136341D01*
X901374Y135559D01*
X902755Y134987D01*
X904209Y134638D01*
X905700Y134521D01*
X907191Y134638D01*
X908645Y134987D01*
X910026Y135559D01*
X911301Y136341D01*
X912438Y137312D01*
X913409Y138449D01*
X914191Y139724D01*
X914763Y141105D01*
X915112Y142559D01*
X915229Y144050D01*
X915112Y145541D01*
X914763Y146995D01*
X914191Y148376D01*
X913409Y149651D01*
X912438Y150788D01*
X911301Y151759D01*
X910026Y152541D01*
X908645Y153113D01*
X907191Y153462D01*
X905700Y153579D01*
D02*
G37*
G36*
X869000Y141500D02*
X865000D01*
Y137500D01*
X869000D01*
Y141500D01*
D02*
G37*
G36*
X875000D02*
X871000D01*
Y137500D01*
X875000D01*
Y141500D01*
D02*
G37*
G36*
X188000Y243451D02*
Y235000D01*
X196451D01*
X196412Y235491D01*
X196063Y236945D01*
X195491Y238326D01*
X194709Y239601D01*
X193738Y240738D01*
X192601Y241709D01*
X191326Y242491D01*
X189945Y243063D01*
X188491Y243412D01*
X188000Y243451D01*
D02*
G37*
G36*
X186000D02*
X185509Y243412D01*
X184055Y243063D01*
X182674Y242491D01*
X181399Y241709D01*
X180262Y240738D01*
X179291Y239601D01*
X178509Y238326D01*
X177937Y236945D01*
X177588Y235491D01*
X177549Y235000D01*
X186000D01*
Y243451D01*
D02*
G37*
G36*
X93000Y242000D02*
X86000D01*
Y235000D01*
X93000D01*
Y242000D01*
D02*
G37*
G36*
X102000D02*
X95000D01*
Y235000D01*
X102000D01*
Y242000D01*
D02*
G37*
G36*
X196451Y233000D02*
X188000D01*
Y224549D01*
X188491Y224588D01*
X189945Y224937D01*
X191326Y225509D01*
X192601Y226291D01*
X193738Y227262D01*
X194709Y228399D01*
X195491Y229674D01*
X196063Y231055D01*
X196412Y232509D01*
X196451Y233000D01*
D02*
G37*
G36*
X371017Y58000D02*
X368500D01*
Y46646D01*
X368846Y46751D01*
X369454Y47076D01*
X369987Y47513D01*
X370424Y48046D01*
X370749Y48654D01*
X370949Y49314D01*
X371017Y50000D01*
Y58000D01*
D02*
G37*
G36*
X414500Y50000D02*
X407000D01*
Y44000D01*
X414500D01*
Y50000D01*
D02*
G37*
G36*
X396500Y66000D02*
Y62000D01*
X400500D01*
Y66000D01*
X396500D01*
D02*
G37*
G36*
X400500Y60000D02*
X396500D01*
Y56000D01*
X400500D01*
Y60000D01*
D02*
G37*
G36*
X405000Y50000D02*
X397500D01*
Y44000D01*
X405000D01*
Y50000D01*
D02*
G37*
G36*
X368500Y36000D02*
Y32000D01*
X372500D01*
Y36000D01*
X368500D01*
D02*
G37*
G36*
X405000Y31000D02*
X397500D01*
Y25000D01*
X405000D01*
Y31000D01*
D02*
G37*
G36*
X414500D02*
X407000D01*
Y25000D01*
X414500D01*
Y31000D01*
D02*
G37*
G36*
X372500Y30000D02*
X368500D01*
Y26000D01*
X372500D01*
Y30000D01*
D02*
G37*
G36*
X433500Y50000D02*
X416500D01*
Y36000D01*
X433500D01*
Y40974D01*
X437500D01*
Y39000D01*
X448000Y39000D01*
X449500Y39000D01*
X458500D01*
Y40974D01*
X460455D01*
X460712Y40661D01*
X461435Y40068D01*
X462260Y39627D01*
X463155Y39355D01*
X464086Y39263D01*
X465018Y39355D01*
X465913Y39627D01*
X466738Y40068D01*
X467462Y40661D01*
X468055Y41385D01*
X468496Y42210D01*
X468768Y43105D01*
X468859Y44036D01*
X468768Y44967D01*
X468496Y45863D01*
X468055Y46688D01*
X467462Y47411D01*
X466738Y48005D01*
X465913Y48446D01*
X465018Y48717D01*
X464086Y48809D01*
X463155Y48717D01*
X462260Y48446D01*
X461435Y48005D01*
X460712Y47411D01*
X458881Y48182D01*
X458500Y48561D01*
Y49000D01*
X448000Y49000D01*
X446500Y49000D01*
X437500D01*
Y47026D01*
X433500D01*
Y50000D01*
D02*
G37*
G36*
X405000Y42000D02*
X397500D01*
Y36000D01*
X405000D01*
Y42000D01*
D02*
G37*
G36*
X414500D02*
X407000D01*
Y36000D01*
X414500D01*
Y42000D01*
D02*
G37*
G36*
X845500Y75000D02*
X841500D01*
Y71000D01*
X845500D01*
Y75000D01*
D02*
G37*
G36*
Y69000D02*
X841500D01*
Y65000D01*
X845500D01*
Y69000D01*
D02*
G37*
G36*
X810000Y35500D02*
X807500D01*
Y30500D01*
X810000D01*
Y35500D01*
D02*
G37*
G36*
X840000Y38000D02*
X833000D01*
Y30000D01*
X840000D01*
Y38000D01*
D02*
G37*
G36*
Y28000D02*
X833000D01*
Y20000D01*
X840000D01*
Y28000D01*
D02*
G37*
G36*
X191000Y18000D02*
X180000D01*
Y9000D01*
X191000D01*
Y18000D01*
D02*
G37*
G36*
X235000Y86500D02*
X231000D01*
Y82500D01*
X235000D01*
Y86500D01*
D02*
G37*
G36*
X168890Y102849D02*
X167399Y102732D01*
X165945Y102383D01*
X164564Y101811D01*
X163289Y101029D01*
X162152Y100058D01*
X161181Y98921D01*
X160399Y97646D01*
X159827Y96265D01*
X159478Y94811D01*
X159361Y93320D01*
X159478Y91829D01*
X159827Y90375D01*
X160399Y88994D01*
X161181Y87719D01*
X162152Y86582D01*
X163289Y85611D01*
X164564Y84829D01*
X165945Y84257D01*
X167399Y83908D01*
X168890Y83791D01*
X170381Y83908D01*
X171835Y84257D01*
X173216Y84829D01*
X174491Y85611D01*
X175628Y86582D01*
X176599Y87719D01*
X177381Y88994D01*
X177953Y90375D01*
X178302Y91829D01*
X178419Y93320D01*
X178302Y94811D01*
X177953Y96265D01*
X177381Y97646D01*
X176599Y98921D01*
X175628Y100058D01*
X174491Y101029D01*
X173216Y101811D01*
X171835Y102383D01*
X170381Y102732D01*
X168890Y102849D01*
D02*
G37*
G36*
X194300Y115479D02*
X192809Y115362D01*
X191355Y115013D01*
X189974Y114441D01*
X188699Y113659D01*
X187562Y112688D01*
X186591Y111551D01*
X185809Y110276D01*
X185237Y108895D01*
X184888Y107441D01*
X184771Y105950D01*
X184888Y104459D01*
X185237Y103005D01*
X185809Y101624D01*
X186591Y100349D01*
X187562Y99212D01*
X188699Y98241D01*
X189974Y97459D01*
X191355Y96887D01*
X192809Y96538D01*
X194300Y96421D01*
X195791Y96538D01*
X197245Y96887D01*
X198626Y97459D01*
X199901Y98241D01*
X201038Y99212D01*
X202010Y100349D01*
X202791Y101624D01*
X203363Y103005D01*
X203712Y104459D01*
X203829Y105950D01*
X203712Y107441D01*
X203363Y108895D01*
X202791Y110276D01*
X202010Y111551D01*
X201038Y112688D01*
X199901Y113659D01*
X198626Y114441D01*
X197245Y115013D01*
X195791Y115362D01*
X194300Y115479D01*
D02*
G37*
G36*
X203751Y79550D02*
X195300D01*
Y71099D01*
X195791Y71138D01*
X197245Y71487D01*
X198626Y72059D01*
X199901Y72841D01*
X201038Y73812D01*
X202010Y74949D01*
X202791Y76224D01*
X203363Y77605D01*
X203712Y79059D01*
X203751Y79550D01*
D02*
G37*
G36*
X193300D02*
X184849D01*
X184888Y79059D01*
X185237Y77605D01*
X185809Y76224D01*
X186591Y74949D01*
X187562Y73812D01*
X188699Y72841D01*
X189974Y72059D01*
X191355Y71487D01*
X192809Y71138D01*
X193300Y71099D01*
Y79550D01*
D02*
G37*
G36*
Y90001D02*
X192809Y89962D01*
X191355Y89613D01*
X189974Y89041D01*
X188699Y88259D01*
X187562Y87288D01*
X186591Y86151D01*
X185809Y84876D01*
X185237Y83495D01*
X184888Y82041D01*
X184849Y81550D01*
X193300D01*
Y90001D01*
D02*
G37*
G36*
X229000Y86500D02*
X225000D01*
Y82500D01*
X229000D01*
Y86500D01*
D02*
G37*
G36*
X195300Y90001D02*
Y81550D01*
X203751D01*
X203712Y82041D01*
X203363Y83495D01*
X202791Y84876D01*
X202010Y86151D01*
X201038Y87288D01*
X199901Y88259D01*
X198626Y89041D01*
X197245Y89613D01*
X195791Y89962D01*
X195300Y90001D01*
D02*
G37*
G36*
X191000Y29000D02*
X180000D01*
Y20000D01*
X191000D01*
Y29000D01*
D02*
G37*
G36*
X204000D02*
X193000D01*
Y20000D01*
X204000D01*
Y29000D01*
D02*
G37*
G36*
X278000Y41500D02*
X272000D01*
Y36500D01*
X278000D01*
Y41500D01*
D02*
G37*
G36*
X270000Y48500D02*
X264000D01*
Y43500D01*
X270000D01*
Y48500D01*
D02*
G37*
G36*
X204000Y18000D02*
X193000D01*
Y9000D01*
X204000D01*
Y18000D01*
D02*
G37*
G36*
X278000Y48500D02*
X272000D01*
Y43500D01*
X278000D01*
Y48500D01*
D02*
G37*
G36*
X270000Y41500D02*
X264000D01*
Y36500D01*
X270000D01*
Y41500D01*
D02*
G37*
G36*
X148862Y46550D02*
X136900D01*
Y34588D01*
X137600Y34634D01*
X139272Y34966D01*
X140886Y35514D01*
X142414Y36267D01*
X143831Y37214D01*
X145112Y38338D01*
X146236Y39619D01*
X147183Y41036D01*
X147936Y42564D01*
X148484Y44178D01*
X148816Y45849D01*
X148862Y46550D01*
D02*
G37*
G36*
X194300Y140879D02*
X192809Y140762D01*
X191355Y140413D01*
X189974Y139841D01*
X188699Y139059D01*
X187562Y138088D01*
X186591Y136951D01*
X185809Y135676D01*
X185237Y134295D01*
X184888Y132841D01*
X184771Y131350D01*
X184888Y129859D01*
X185237Y128405D01*
X185809Y127024D01*
X186591Y125749D01*
X187562Y124612D01*
X188699Y123641D01*
X189974Y122859D01*
X191355Y122287D01*
X192809Y121938D01*
X194300Y121821D01*
X195791Y121938D01*
X197245Y122287D01*
X198626Y122859D01*
X199901Y123641D01*
X201038Y124612D01*
X202010Y125749D01*
X202791Y127024D01*
X203363Y128405D01*
X203712Y129859D01*
X203829Y131350D01*
X203712Y132841D01*
X203363Y134295D01*
X202791Y135676D01*
X202010Y136951D01*
X201038Y138088D01*
X199901Y139059D01*
X198626Y139841D01*
X197245Y140413D01*
X195791Y140762D01*
X194300Y140879D01*
D02*
G37*
G36*
X229000Y112500D02*
X225000D01*
Y108500D01*
X229000D01*
Y112500D01*
D02*
G37*
G36*
X168900Y128179D02*
X167409Y128062D01*
X165955Y127713D01*
X164574Y127141D01*
X163299Y126359D01*
X162162Y125388D01*
X161191Y124251D01*
X160409Y122976D01*
X159837Y121595D01*
X159488Y120141D01*
X159371Y118650D01*
X159488Y117159D01*
X159837Y115705D01*
X160409Y114324D01*
X161191Y113049D01*
X162162Y111912D01*
X163299Y110941D01*
X164574Y110159D01*
X165955Y109587D01*
X167409Y109238D01*
X168900Y109121D01*
X170391Y109238D01*
X171845Y109587D01*
X173226Y110159D01*
X174501Y110941D01*
X175638Y111912D01*
X176609Y113049D01*
X177391Y114324D01*
X177963Y115705D01*
X178312Y117159D01*
X178430Y118650D01*
X178312Y120141D01*
X177963Y121595D01*
X177391Y122976D01*
X176609Y124251D01*
X175638Y125388D01*
X174501Y126359D01*
X173226Y127141D01*
X171845Y127713D01*
X170391Y128062D01*
X168900Y128179D01*
D02*
G37*
G36*
X235000Y112500D02*
X231000D01*
Y108500D01*
X235000D01*
Y112500D01*
D02*
G37*
G36*
X194300Y166279D02*
X192809Y166162D01*
X191355Y165813D01*
X189974Y165241D01*
X188699Y164459D01*
X187562Y163488D01*
X186591Y162351D01*
X185809Y161076D01*
X185237Y159695D01*
X184888Y158241D01*
X184771Y156750D01*
X184888Y155259D01*
X185237Y153805D01*
X185809Y152424D01*
X186591Y151149D01*
X187562Y150012D01*
X188699Y149041D01*
X189974Y148259D01*
X191355Y147687D01*
X192809Y147338D01*
X194300Y147221D01*
X195791Y147338D01*
X197245Y147687D01*
X198626Y148259D01*
X199901Y149041D01*
X201038Y150012D01*
X202009Y151149D01*
X202791Y152424D01*
X203363Y153805D01*
X203712Y155259D01*
X203829Y156750D01*
X203712Y158241D01*
X203363Y159695D01*
X202791Y161076D01*
X202009Y162351D01*
X201038Y163488D01*
X199901Y164459D01*
X198626Y165241D01*
X197245Y165813D01*
X195791Y166162D01*
X194300Y166279D01*
D02*
G37*
G36*
X178400Y178950D02*
X159400D01*
Y159950D01*
X178400D01*
Y178950D01*
D02*
G37*
G36*
X168900Y154071D02*
X167592Y153986D01*
X166306Y153730D01*
X165065Y153309D01*
X163889Y152729D01*
X162799Y152001D01*
X161814Y151136D01*
X160949Y150151D01*
X160221Y149061D01*
X159642Y147885D01*
X159220Y146644D01*
X158964Y145358D01*
X158879Y144050D01*
X158964Y142742D01*
X159220Y141456D01*
X159642Y140215D01*
X160221Y139039D01*
X160949Y137949D01*
X161814Y136964D01*
X162799Y136099D01*
X163889Y135371D01*
X165065Y134791D01*
X166306Y134370D01*
X167592Y134114D01*
X168900Y134029D01*
X170208Y134114D01*
X171494Y134370D01*
X172735Y134791D01*
X173911Y135371D01*
X175001Y136099D01*
X175986Y136964D01*
X176851Y137949D01*
X177579Y139039D01*
X178159Y140215D01*
X178580Y141456D01*
X178836Y142742D01*
X178922Y144050D01*
X178836Y145358D01*
X178580Y146644D01*
X178159Y147885D01*
X177579Y149061D01*
X176851Y150151D01*
X175986Y151136D01*
X175001Y152001D01*
X173911Y152729D01*
X172735Y153309D01*
X171494Y153730D01*
X170208Y153986D01*
X168900Y154071D01*
D02*
G37*
G36*
X400500Y140000D02*
X395500D01*
Y134000D01*
X400500D01*
Y140000D01*
D02*
G37*
G36*
X407500D02*
X402500D01*
Y134000D01*
X407500D01*
Y140000D01*
D02*
G37*
G36*
Y148000D02*
X402500D01*
Y142000D01*
X407500D01*
Y148000D01*
D02*
G37*
G36*
X400500D02*
X395500D01*
Y142000D01*
X400500D01*
Y148000D01*
D02*
G37*
G36*
X704500Y116000D02*
X699500D01*
Y110000D01*
X704500D01*
Y116000D01*
D02*
G37*
G36*
X697500D02*
X692500D01*
Y110000D01*
X697500D01*
Y116000D01*
D02*
G37*
G36*
X704500Y108000D02*
X699500D01*
Y102000D01*
X704500D01*
Y108000D01*
D02*
G37*
G36*
X697500D02*
X692500D01*
Y102000D01*
X697500D01*
Y108000D01*
D02*
G37*
G36*
X777000Y36000D02*
X773000D01*
Y32000D01*
X777000D01*
Y36000D01*
D02*
G37*
G36*
X783000D02*
X779000D01*
Y32000D01*
X783000D01*
Y36000D01*
D02*
G37*
G36*
X423500Y186000D02*
Y182000D01*
X427500D01*
Y186000D01*
X423500D01*
D02*
G37*
G36*
X430000Y217279D02*
X428549Y217164D01*
X427133Y216824D01*
X425788Y216267D01*
X424546Y215507D01*
X423439Y214561D01*
X422494Y213454D01*
X421733Y212212D01*
X421175Y210867D01*
X420836Y209452D01*
X420721Y208000D01*
X420836Y206549D01*
X421175Y205133D01*
X421733Y203788D01*
X422494Y202546D01*
X423439Y201439D01*
X424546Y200494D01*
X425788Y199733D01*
X427133Y199175D01*
X428549Y198836D01*
X430000Y198721D01*
X431451Y198836D01*
X432867Y199175D01*
X434212Y199733D01*
X435454Y200494D01*
X436000Y200960D01*
X437827Y200260D01*
X438000Y200098D01*
Y199500D01*
X441000D01*
Y208250D01*
Y217000D01*
X438000D01*
Y215902D01*
X437827Y215740D01*
X436000Y215040D01*
X435454Y215507D01*
X434212Y216267D01*
X432867Y216824D01*
X431451Y217164D01*
X430000Y217279D01*
D02*
G37*
G36*
X427500Y180000D02*
X423500D01*
Y176000D01*
X427500D01*
Y180000D01*
D02*
G37*
G36*
X520500Y241000D02*
X516500D01*
Y237000D01*
X520500D01*
Y241000D01*
D02*
G37*
G36*
X516500Y235000D02*
Y231000D01*
X520500D01*
Y235000D01*
X516500D01*
D02*
G37*
G36*
X480000Y217279D02*
X478549Y217164D01*
X477133Y216824D01*
X475788Y216267D01*
X474546Y215507D01*
X474000Y215040D01*
X472173Y215740D01*
X472000Y215902D01*
Y217000D01*
X443000D01*
Y208250D01*
Y199500D01*
X444376D01*
X444890Y198943D01*
X445551Y197522D01*
X445549Y197500D01*
X445483Y197000D01*
Y186000D01*
X445551Y185478D01*
X445753Y184991D01*
X446074Y184574D01*
X446491Y184253D01*
X446978Y184051D01*
X447500Y183983D01*
X470000D01*
X470522Y184051D01*
X471009Y184253D01*
X471426Y184574D01*
X471747Y184991D01*
X471949Y185478D01*
X472017Y186000D01*
Y194979D01*
X472019Y195000D01*
Y200089D01*
X472139Y200203D01*
X474019Y200943D01*
X474546Y200494D01*
X475788Y199733D01*
X477133Y199175D01*
X478549Y198836D01*
X480000Y198721D01*
X481451Y198836D01*
X482867Y199175D01*
X484212Y199733D01*
X485454Y200494D01*
X486561Y201439D01*
X487506Y202546D01*
X488267Y203788D01*
X488825Y205133D01*
X489164Y206549D01*
X489279Y208000D01*
X489164Y209452D01*
X488825Y210867D01*
X488267Y212212D01*
X487506Y213454D01*
X486561Y214561D01*
X485454Y215507D01*
X484212Y216267D01*
X482867Y216824D01*
X481451Y217164D01*
X480000Y217279D01*
D02*
G37*
G36*
X520500Y229000D02*
X516500D01*
Y225000D01*
X520500D01*
Y229000D01*
D02*
G37*
G36*
X605132Y37717D02*
X602303Y34889D01*
X605132Y32061D01*
X607960Y34889D01*
X605132Y37717D01*
D02*
G37*
G36*
X600889Y41960D02*
X598061Y39132D01*
X600889Y36303D01*
X603717Y39132D01*
X600889Y41960D01*
D02*
G37*
G36*
X911851Y235000D02*
X903400D01*
Y226549D01*
X903891Y226588D01*
X905345Y226937D01*
X906726Y227509D01*
X908001Y228291D01*
X909138Y229262D01*
X910109Y230399D01*
X910891Y231674D01*
X911463Y233055D01*
X911812Y234509D01*
X911851Y235000D01*
D02*
G37*
G36*
X901400D02*
X892949D01*
X892988Y234509D01*
X893337Y233055D01*
X893909Y231674D01*
X894691Y230399D01*
X895662Y229262D01*
X896799Y228291D01*
X898074Y227509D01*
X899455Y226937D01*
X900909Y226588D01*
X901400Y226549D01*
Y235000D01*
D02*
G37*
%LPD*%
D10*
X468000Y208250D02*
D03*
X461500D02*
D03*
X455000D02*
D03*
X448500D02*
D03*
X442000D02*
D03*
D11*
X515500Y230000D02*
D03*
X504500D02*
D03*
X515500Y242000D02*
D03*
X504500D02*
D03*
X242500Y47000D02*
D03*
X253500D02*
D03*
X453500Y44000D02*
D03*
X442500D02*
D03*
X453500Y24000D02*
D03*
X442500D02*
D03*
X641500Y208000D02*
D03*
X652500D02*
D03*
X682500Y243000D02*
D03*
X671500D02*
D03*
X597500Y242000D02*
D03*
X586500D02*
D03*
X795500Y15000D02*
D03*
X784500D02*
D03*
X858000Y10000D02*
D03*
X847000D02*
D03*
X857500Y82000D02*
D03*
X846500D02*
D03*
X857500Y70000D02*
D03*
X846500D02*
D03*
X386500Y181000D02*
D03*
X397500D02*
D03*
X387500Y229000D02*
D03*
X376500D02*
D03*
X387500Y241000D02*
D03*
X376500D02*
D03*
X422500Y181000D02*
D03*
X411500D02*
D03*
X286500Y241000D02*
D03*
X275500D02*
D03*
X248500D02*
D03*
X259500D02*
D03*
X243500Y181000D02*
D03*
X232500D02*
D03*
X220500Y241000D02*
D03*
X209500D02*
D03*
X232500Y193000D02*
D03*
X243500D02*
D03*
X395500Y61000D02*
D03*
X384500D02*
D03*
X367500Y31000D02*
D03*
X356500D02*
D03*
X376500Y161000D02*
D03*
X387500D02*
D03*
X242500Y87000D02*
D03*
X253500D02*
D03*
X242500Y99000D02*
D03*
X253500D02*
D03*
Y113000D02*
D03*
X242500D02*
D03*
Y125000D02*
D03*
X253500D02*
D03*
X401500Y77500D02*
D03*
X412500D02*
D03*
X253500Y61000D02*
D03*
X242500D02*
D03*
X253500Y139000D02*
D03*
X242500D02*
D03*
X253500Y151000D02*
D03*
X242500D02*
D03*
X846500Y111000D02*
D03*
X857500D02*
D03*
X846500Y99000D02*
D03*
X857500D02*
D03*
Y125000D02*
D03*
X846500D02*
D03*
Y137000D02*
D03*
X857500D02*
D03*
X846500Y163000D02*
D03*
X857500D02*
D03*
Y151000D02*
D03*
X846500D02*
D03*
Y177000D02*
D03*
X857500D02*
D03*
X846500Y189000D02*
D03*
X857500D02*
D03*
X253500Y73000D02*
D03*
X242500D02*
D03*
X704500Y189000D02*
D03*
X715500D02*
D03*
X698500Y172500D02*
D03*
X687500D02*
D03*
X723500Y89000D02*
D03*
X712500D02*
D03*
X242500Y163000D02*
D03*
X253500D02*
D03*
X622000Y210000D02*
D03*
X611000D02*
D03*
X782500Y72000D02*
D03*
X771500D02*
D03*
D12*
X870000Y192500D02*
D03*
Y181500D02*
D03*
X709000Y228500D02*
D03*
Y217500D02*
D03*
X778000Y48000D02*
D03*
Y37000D02*
D03*
X807000Y74500D02*
D03*
Y85500D02*
D03*
X220000Y193500D02*
D03*
Y182500D02*
D03*
X230000Y87500D02*
D03*
Y98500D02*
D03*
X286000Y47500D02*
D03*
Y58500D02*
D03*
X230000Y113500D02*
D03*
Y124500D02*
D03*
X286000Y31500D02*
D03*
Y20500D02*
D03*
X870000Y136500D02*
D03*
Y125500D02*
D03*
Y162500D02*
D03*
Y151500D02*
D03*
X814000Y202500D02*
D03*
Y191500D02*
D03*
X334000Y20500D02*
D03*
Y31500D02*
D03*
X322000Y20500D02*
D03*
Y31500D02*
D03*
X310000Y20500D02*
D03*
Y31500D02*
D03*
X298000Y20500D02*
D03*
Y31500D02*
D03*
X275000Y139500D02*
D03*
Y150500D02*
D03*
X814000Y218500D02*
D03*
Y229500D02*
D03*
X802000D02*
D03*
Y218500D02*
D03*
X790000Y229500D02*
D03*
Y218500D02*
D03*
X778000Y229500D02*
D03*
Y218500D02*
D03*
X766000Y229500D02*
D03*
Y218500D02*
D03*
X744000Y229500D02*
D03*
Y218500D02*
D03*
D13*
X293500Y166000D02*
D03*
X274500D02*
D03*
X406000Y43000D02*
D03*
X425000D02*
D03*
X406000Y24000D02*
D03*
X425000D02*
D03*
D14*
X586111Y228889D02*
D03*
X593889Y221111D02*
D03*
X625660Y111565D02*
D03*
X563435Y49340D02*
D03*
D15*
X693000Y225000D02*
D03*
Y231500D02*
D03*
Y218500D02*
D03*
X669000Y231500D02*
D03*
Y225000D02*
D03*
Y218500D02*
D03*
D16*
X192000Y19000D02*
D03*
X246000D02*
D03*
D17*
X712000Y16000D02*
D03*
X722000D02*
D03*
X742000D02*
D03*
X732000D02*
D03*
X752000D02*
D03*
X762000D02*
D03*
X702000D02*
D03*
X692000D02*
D03*
X672000D02*
D03*
X682000D02*
D03*
Y52000D02*
D03*
X672000D02*
D03*
X692000D02*
D03*
X702000D02*
D03*
X762000D02*
D03*
X752000D02*
D03*
X732000D02*
D03*
X742000D02*
D03*
X722000D02*
D03*
X712000D02*
D03*
D18*
X593111Y27111D02*
D03*
X600889Y34889D02*
D03*
X609889Y25889D02*
D03*
X602111Y18111D02*
D03*
D19*
X791500Y60500D02*
D03*
X801500D02*
D03*
X796500D02*
D03*
X806500D02*
D03*
X796500Y29500D02*
D03*
X791500D02*
D03*
X806500D02*
D03*
X801500D02*
D03*
D20*
X858000Y29000D02*
D03*
X841000D02*
D03*
X858000Y51000D02*
D03*
X841000D02*
D03*
D21*
X320000Y216000D02*
D03*
Y232000D02*
D03*
X300000Y206000D02*
D03*
Y190000D02*
D03*
D22*
X94000Y234000D02*
D03*
X124000D02*
D03*
D23*
X338000Y216000D02*
D03*
Y201000D02*
D03*
X282000Y221500D02*
D03*
Y206500D02*
D03*
X271000Y57500D02*
D03*
Y42500D02*
D03*
X829000Y192500D02*
D03*
Y207500D02*
D03*
D24*
X352500Y234000D02*
D03*
X337500D02*
D03*
X282500Y188000D02*
D03*
X267500D02*
D03*
X386500Y141000D02*
D03*
X401500D02*
D03*
X713500Y109000D02*
D03*
X698500D02*
D03*
D25*
X397000Y214750D02*
D03*
Y208250D02*
D03*
Y201750D02*
D03*
Y195250D02*
D03*
X371000D02*
D03*
Y201750D02*
D03*
Y208250D02*
D03*
Y214750D02*
D03*
X223000Y207250D02*
D03*
Y213750D02*
D03*
Y220250D02*
D03*
Y226750D02*
D03*
X249000D02*
D03*
Y220250D02*
D03*
Y213750D02*
D03*
Y207250D02*
D03*
D26*
X616250Y222500D02*
D03*
Y241500D02*
D03*
X639750D02*
D03*
Y232000D02*
D03*
Y222500D02*
D03*
X616250Y232000D02*
D03*
D27*
X648995Y136314D02*
D03*
X646167Y139142D02*
D03*
X643338Y141971D02*
D03*
X640510Y144799D02*
D03*
X637681Y147627D02*
D03*
X634853Y150456D02*
D03*
X632024Y153284D02*
D03*
X629196Y156113D02*
D03*
X626367Y158941D02*
D03*
X623539Y161770D02*
D03*
X620711Y164598D02*
D03*
X617882Y167426D02*
D03*
X615054Y170255D02*
D03*
X612225Y173083D02*
D03*
X609397Y175912D02*
D03*
X606568Y178740D02*
D03*
X603740Y181569D02*
D03*
X600912Y184397D02*
D03*
X598083Y187225D02*
D03*
X595255Y190054D02*
D03*
X592426Y192882D02*
D03*
X589598Y195711D02*
D03*
X586769Y198539D02*
D03*
X583941Y201367D02*
D03*
X581113Y204196D02*
D03*
X578284Y207024D02*
D03*
X575456Y209853D02*
D03*
X572627Y212681D02*
D03*
X569799Y215510D02*
D03*
X566970Y218338D02*
D03*
X564142Y221166D02*
D03*
X561314Y223995D02*
D03*
X451005Y113686D02*
D03*
X453834Y110858D02*
D03*
X456662Y108029D02*
D03*
X459490Y105201D02*
D03*
X462319Y102373D02*
D03*
X465147Y99544D02*
D03*
X467976Y96716D02*
D03*
X470804Y93887D02*
D03*
X473633Y91059D02*
D03*
X476461Y88230D02*
D03*
X479289Y85402D02*
D03*
X482118Y82574D02*
D03*
X484946Y79745D02*
D03*
X487775Y76917D02*
D03*
X490603Y74088D02*
D03*
X493431Y71260D02*
D03*
X496260Y68432D02*
D03*
X499088Y65603D02*
D03*
X501917Y62775D02*
D03*
X504745Y59946D02*
D03*
X507574Y57118D02*
D03*
X510402Y54289D02*
D03*
X513230Y51461D02*
D03*
X516059Y48632D02*
D03*
X518887Y45804D02*
D03*
X521716Y42976D02*
D03*
X524544Y40147D02*
D03*
X527373Y37319D02*
D03*
X530201Y34490D02*
D03*
X533029Y31662D02*
D03*
X535858Y28833D02*
D03*
X538686Y26005D02*
D03*
D28*
Y223995D02*
D03*
X535858Y221166D02*
D03*
X533029Y218338D02*
D03*
X530201Y215510D02*
D03*
X527373Y212681D02*
D03*
X524544Y209853D02*
D03*
X521716Y207024D02*
D03*
X518887Y204196D02*
D03*
X516059Y201367D02*
D03*
X513230Y198539D02*
D03*
X510402Y195711D02*
D03*
X507574Y192882D02*
D03*
X504745Y190054D02*
D03*
X501917Y187225D02*
D03*
X499088Y184397D02*
D03*
X496260Y181569D02*
D03*
X493431Y178740D02*
D03*
X490603Y175912D02*
D03*
X487775Y173083D02*
D03*
X484946Y170255D02*
D03*
X482118Y167426D02*
D03*
X479289Y164598D02*
D03*
X476461Y161770D02*
D03*
X473633Y158941D02*
D03*
X470804Y156113D02*
D03*
X467976Y153284D02*
D03*
X465147Y150456D02*
D03*
X462319Y147627D02*
D03*
X459490Y144799D02*
D03*
X456662Y141971D02*
D03*
X453834Y139142D02*
D03*
X451005Y136314D02*
D03*
X561314Y26005D02*
D03*
X564142Y28833D02*
D03*
X566970Y31662D02*
D03*
X569799Y34490D02*
D03*
X572627Y37319D02*
D03*
X575456Y40147D02*
D03*
X578284Y42976D02*
D03*
X581113Y45804D02*
D03*
X583941Y48632D02*
D03*
X586769Y51461D02*
D03*
X589598Y54289D02*
D03*
X592426Y57118D02*
D03*
X595255Y59946D02*
D03*
X598083Y62775D02*
D03*
X600912Y65603D02*
D03*
X603740Y68432D02*
D03*
X606568Y71260D02*
D03*
X609397Y74088D02*
D03*
X612225Y76917D02*
D03*
X615054Y79745D02*
D03*
X617882Y82574D02*
D03*
X620711Y85402D02*
D03*
X623539Y88230D02*
D03*
X626367Y91059D02*
D03*
X629196Y93887D02*
D03*
X632024Y96716D02*
D03*
X634853Y99544D02*
D03*
X637681Y102373D02*
D03*
X640510Y105201D02*
D03*
X643338Y108029D02*
D03*
X646167Y110858D02*
D03*
X648995Y113686D02*
D03*
D29*
X367500Y141000D02*
D03*
X362500D02*
D03*
X357500D02*
D03*
X352500D02*
D03*
X347500D02*
D03*
X342500D02*
D03*
X337500D02*
D03*
X332500D02*
D03*
X327500D02*
D03*
X322500D02*
D03*
X317500D02*
D03*
X312500D02*
D03*
Y59000D02*
D03*
X317500D02*
D03*
X322500D02*
D03*
X327500D02*
D03*
X332500D02*
D03*
X337500D02*
D03*
X342500D02*
D03*
X347500D02*
D03*
X352500D02*
D03*
X357500D02*
D03*
X362500D02*
D03*
X367500D02*
D03*
X732500Y109000D02*
D03*
X737500D02*
D03*
X742500D02*
D03*
X747500D02*
D03*
X752500D02*
D03*
X757500D02*
D03*
X762500D02*
D03*
X767500D02*
D03*
X772500D02*
D03*
X777500D02*
D03*
X782500D02*
D03*
X787500D02*
D03*
Y191000D02*
D03*
X782500D02*
D03*
X777500D02*
D03*
X772500D02*
D03*
X767500D02*
D03*
X762500D02*
D03*
X757500D02*
D03*
X752500D02*
D03*
X747500D02*
D03*
X742500D02*
D03*
X737500D02*
D03*
X732500D02*
D03*
D30*
X299000Y127500D02*
D03*
Y122500D02*
D03*
Y117500D02*
D03*
Y112500D02*
D03*
Y107500D02*
D03*
Y102500D02*
D03*
Y97500D02*
D03*
Y92500D02*
D03*
Y87500D02*
D03*
Y82500D02*
D03*
Y77500D02*
D03*
Y72500D02*
D03*
X381000D02*
D03*
Y77500D02*
D03*
Y82500D02*
D03*
Y87500D02*
D03*
Y92500D02*
D03*
Y97500D02*
D03*
Y102500D02*
D03*
Y107500D02*
D03*
Y112500D02*
D03*
Y117500D02*
D03*
Y122500D02*
D03*
Y127500D02*
D03*
X801000Y122500D02*
D03*
Y127500D02*
D03*
Y132500D02*
D03*
Y137500D02*
D03*
Y142500D02*
D03*
Y147500D02*
D03*
Y152500D02*
D03*
Y157500D02*
D03*
Y162500D02*
D03*
Y167500D02*
D03*
Y172500D02*
D03*
Y177500D02*
D03*
X719000D02*
D03*
Y172500D02*
D03*
Y167500D02*
D03*
Y162500D02*
D03*
Y157500D02*
D03*
Y152500D02*
D03*
Y147500D02*
D03*
Y142500D02*
D03*
Y137500D02*
D03*
Y132500D02*
D03*
Y127500D02*
D03*
Y122500D02*
D03*
D31*
X319500Y117500D02*
X320000Y117000D01*
X611000Y210000D02*
Y222581D01*
X778000Y48500D02*
X778500Y48000D01*
X609889Y25889D02*
X616468Y32468D01*
Y32369D02*
Y32468D01*
X607276Y41561D02*
Y41561D01*
X600889Y35175D02*
X607276Y41561D01*
X490000Y235000D02*
X495000Y230000D01*
X504500D01*
Y242000D01*
X515500D02*
X526000D01*
X515500Y230000D02*
Y242000D01*
X846500Y99000D02*
Y111000D01*
Y82500D02*
Y99000D01*
X787500Y167500D02*
X801000D01*
X785000Y165000D02*
X787500Y167500D01*
X780000Y165000D02*
X785000D01*
X787500Y152500D02*
X801000D01*
X785000Y155000D02*
X787500Y152500D01*
X780000Y155000D02*
X785000D01*
X787500Y147500D02*
X801000D01*
X786000Y146000D02*
X787500Y147500D01*
X780000Y146000D02*
X786000D01*
X770000Y172500D02*
X774500D01*
X737500D02*
X770000D01*
Y172000D02*
Y172500D01*
Y172000D02*
X772000Y170000D01*
X719000Y177500D02*
X732500D01*
X737500Y172500D01*
X774500D02*
X801000D01*
X772000Y170000D02*
X774500Y172500D01*
X772000Y148000D02*
Y170000D01*
X774000Y146000D02*
X780000D01*
X772000Y148000D02*
X774000Y146000D01*
X801000Y132500D02*
X801000Y132500D01*
X780000Y132500D02*
X801000D01*
X715500Y178500D02*
Y189000D01*
X695000D02*
X704500D01*
X732500Y191000D02*
X737500D01*
X732500D02*
Y208000D01*
X367500Y31000D02*
X367500Y31000D01*
Y42000D01*
X352000Y31000D02*
X356500D01*
X349000Y34000D02*
X352000Y31000D01*
X349000Y34000D02*
Y42000D01*
X362500Y59000D02*
X367500D01*
Y42000D02*
Y59000D01*
X299000Y117500D02*
X319500D01*
X870000Y136500D02*
X870000Y136500D01*
X880000D01*
X870000Y151500D02*
X880000D01*
X870000Y116000D02*
Y125500D01*
Y162500D02*
Y172000D01*
X242000Y98500D02*
X242500Y99000D01*
Y113000D01*
X857500Y177000D02*
Y189000D01*
Y163000D02*
Y177000D01*
Y151000D02*
Y163000D01*
Y137000D02*
Y151000D01*
Y125000D02*
Y137000D01*
Y151000D02*
X858000Y151500D01*
X870000D01*
X857500Y125000D02*
X858000Y125500D01*
X870000D01*
X829000Y185000D02*
Y192500D01*
X816500Y172500D02*
X829000Y185000D01*
X801000Y172500D02*
X816500D01*
X829000Y207500D02*
Y218000D01*
X828000Y191500D02*
X829000Y192500D01*
X814000Y191500D02*
X828000D01*
X395000Y122500D02*
X401500Y129000D01*
X381000Y122500D02*
X395000D01*
X271000Y32000D02*
Y42500D01*
X242500Y73000D02*
Y87000D01*
Y61000D02*
Y73000D01*
X230000Y98500D02*
X242000D01*
X242500Y87000D02*
Y99000D01*
X230000Y78000D02*
Y87500D01*
X230000Y98500D02*
X230000Y98500D01*
X220000Y98500D02*
X230000D01*
X220000Y113500D02*
X230000D01*
Y124500D02*
Y134000D01*
X242500Y113000D02*
Y125000D01*
X230000Y124500D02*
X242000D01*
X253500Y151000D02*
X275000D01*
X253500Y139000D02*
Y151000D01*
X397500Y61000D02*
X405000D01*
X396500Y60000D02*
X397500Y61000D01*
X395500D02*
X396500Y60000D01*
X631170Y210000D02*
X631317Y209853D01*
X622000Y210000D02*
X631170D01*
X606009D02*
X611000D01*
X604094Y208085D02*
X606009Y210000D01*
X599851Y208085D02*
X604094D01*
X705000Y243000D02*
X709000Y239000D01*
X682500Y243000D02*
X705000D01*
X709000Y228500D02*
Y239000D01*
X705500Y225000D02*
X709000Y228500D01*
X693000Y225000D02*
X705500D01*
X655000Y218000D02*
Y221697D01*
X658303Y225000D01*
X669000D01*
X655000Y235000D02*
Y242000D01*
X652000Y232000D02*
X655000Y235000D01*
X639750Y232000D02*
X652000D01*
X586173Y241673D02*
X586500Y242000D01*
X575456Y241673D02*
X586173D01*
X597500Y242000D02*
X598000Y241500D01*
X616250D01*
X778000Y31000D02*
Y37000D01*
X774000Y27000D02*
X778000Y31000D01*
Y37000D02*
Y37500D01*
X778500Y48000D02*
X793000D01*
X806500Y29500D02*
X807000Y29000D01*
X816000D01*
X825000D02*
X841000D01*
X857000Y51000D02*
X857500Y51500D01*
X841000Y51000D02*
X857000D01*
X857500Y51500D02*
X858000Y51000D01*
X857500Y51500D02*
Y70000D01*
Y82000D01*
X836000Y70000D02*
X846500D01*
X836000Y82000D02*
X846500D01*
X593111Y27111D02*
X593111D01*
X602111Y18111D01*
X600889Y34889D02*
Y35175D01*
X734000Y229500D02*
X744000D01*
Y218500D02*
X748500D01*
X751000Y216000D01*
Y208000D02*
Y216000D01*
X752500Y191000D02*
Y202500D01*
X751000Y204000D02*
X752500Y202500D01*
X751000Y204000D02*
Y208000D01*
X698492Y121465D02*
X704528Y127500D01*
X719000D01*
X698492Y121465D02*
X698500Y121457D01*
Y109000D02*
Y121457D01*
X713500Y109000D02*
Y122000D01*
Y109000D02*
X724000D01*
X401500Y129000D02*
Y141000D01*
X376000D02*
X386500D01*
Y128000D02*
Y141000D01*
X384500Y61000D02*
Y71500D01*
X349000Y42000D02*
Y46000D01*
X347500Y47500D02*
X349000Y46000D01*
X347500Y47500D02*
Y59000D01*
X331500Y77500D02*
X361500D01*
X324500D02*
X331500D01*
X328000Y81000D02*
X331500Y77500D01*
X366500Y72500D02*
X381000D01*
X361500Y77500D02*
X366500Y72500D01*
X314000Y95000D02*
X320000D01*
X311500Y97500D02*
X314000Y95000D01*
X272000Y58500D02*
X286000D01*
X283500Y77500D02*
X299000D01*
X271000Y65000D02*
X283500Y77500D01*
X320000Y104000D02*
X325000D01*
X328000Y101000D01*
Y81000D02*
Y101000D01*
X324500Y77500D02*
X328000Y81000D01*
X299000Y77500D02*
X324500D01*
X312500Y82500D02*
X315000Y85000D01*
X299000Y82500D02*
X312500D01*
X313000Y104000D02*
X320000D01*
X311500Y102500D02*
X313000Y104000D01*
X299000Y102500D02*
X311500D01*
X299000Y97500D02*
X311500D01*
X271000Y57500D02*
Y65000D01*
Y57500D02*
X272000Y58500D01*
X315000Y85000D02*
X320000D01*
X286000Y20500D02*
Y20500D01*
X791500Y54500D02*
Y60500D01*
Y54500D02*
X793000Y53000D01*
Y48000D02*
Y53000D01*
D32*
X285250Y188000D02*
X298000D01*
X322000Y234000D02*
X334000D01*
D33*
X275000Y150500D02*
X296000D01*
X275000Y139500D02*
X296000D01*
X871000Y193500D02*
X880000D01*
X870000Y192500D02*
X871000Y193500D01*
X870000Y192500D02*
Y203000D01*
X296000Y150500D02*
X296000Y150500D01*
X296000Y139500D02*
X296000Y139500D01*
D34*
X448884Y89645D02*
X449591D01*
X742000Y71000D02*
X742000Y71000D01*
Y52000D02*
Y71000D01*
X702000Y52000D02*
Y71000D01*
X752000Y16000D02*
Y30000D01*
X748000Y34000D02*
X752000Y30000D01*
X742000Y16000D02*
Y30000D01*
X739000Y33000D02*
X742000Y30000D01*
X739000Y33000D02*
Y34000D01*
X732000Y16000D02*
Y30000D01*
X730000Y32000D02*
X732000Y30000D01*
X730000Y32000D02*
Y34000D01*
X722000Y16000D02*
Y30000D01*
X721000Y31000D02*
X722000Y30000D01*
X721000Y31000D02*
Y34000D01*
X713000Y30000D02*
Y34000D01*
X712000Y29000D02*
X713000Y30000D01*
X712000Y16000D02*
Y29000D01*
Y16000D02*
X712000Y16000D01*
X702000D02*
Y31000D01*
X704000Y33000D01*
Y34000D01*
X692000Y16000D02*
Y31000D01*
X695000Y34000D01*
X682000Y16000D02*
Y30000D01*
X686000Y34000D01*
X659000Y8000D02*
Y27000D01*
X654000Y35000D02*
X659000D01*
X652000Y33000D02*
X654000Y35000D01*
X652000Y10000D02*
Y33000D01*
X655000Y4000D02*
X659000Y8000D01*
X649750Y7750D02*
X652000Y10000D01*
X564934Y4000D02*
X655000D01*
X548232Y20702D02*
X564934Y4000D01*
X570376Y7750D02*
X649750D01*
X551414Y26712D02*
X570376Y7750D01*
X551414Y26712D02*
Y36612D01*
X553889Y39086D01*
Y53936D01*
X607983Y108029D01*
Y131364D01*
X548232Y20702D02*
Y56057D01*
X603033Y110858D01*
X592426Y144799D02*
X607983Y160355D01*
X592426Y122879D02*
Y144799D01*
X581113Y111565D02*
X592426Y122879D01*
X607983Y131364D02*
X622832Y146213D01*
Y149749D02*
X629196Y156113D01*
X622832Y146213D02*
Y149749D01*
X619296Y151870D02*
X626367Y158941D01*
X619296Y148335D02*
Y151870D01*
X603033Y132071D02*
X619296Y148335D01*
X603033Y110858D02*
Y132071D01*
X598083Y132778D02*
X616115Y150809D01*
X598083Y117222D02*
Y132778D01*
X589952Y109090D02*
X598083Y117222D01*
X616115Y150809D02*
Y154345D01*
X623539Y161770D01*
X581113Y100251D02*
Y111565D01*
X607983Y160355D02*
X610811D01*
X617882Y167426D01*
X633000Y19000D02*
Y51000D01*
X836000Y177000D02*
X846500D01*
X816500Y157500D02*
X836000Y177000D01*
X801000Y157500D02*
X816500D01*
X841000Y189000D02*
X846500D01*
X814500Y162500D02*
X841000Y189000D01*
X801000Y162500D02*
X814500D01*
X310000Y10000D02*
Y20500D01*
X494492Y44036D02*
X500149D01*
X510402Y54289D01*
X399500Y117500D02*
X400000Y118000D01*
X381000Y112500D02*
X408000D01*
X399500Y107500D02*
X400000Y107000D01*
X285500Y87500D02*
X299000D01*
X259000Y61000D02*
X285500Y87500D01*
X253500Y61000D02*
X259000D01*
X642984Y160002D02*
X644752Y158234D01*
Y154698D02*
Y158234D01*
X642984Y160002D02*
Y162830D01*
X637681Y147627D02*
X644752Y154698D01*
X642984Y162830D02*
X645813Y165659D01*
X636621Y168487D02*
X639803Y171669D01*
X636621Y165659D02*
Y168487D01*
Y165659D02*
X639095Y163184D01*
Y160355D02*
Y163184D01*
X632024Y153284D02*
X639095Y160355D01*
X665258Y147627D02*
X678000Y134886D01*
X654652Y147627D02*
X665258D01*
X646167Y139142D02*
X654652Y147627D01*
X458783Y68432D02*
X490957Y36258D01*
X448177Y68432D02*
X458783D01*
X439108Y77500D02*
X448177Y68432D01*
X482000Y13000D02*
X499601Y30601D01*
X350000Y13000D02*
X482000D01*
X486740Y8000D02*
X521716Y42976D01*
X488397Y4000D02*
X524544Y40147D01*
X332000Y4000D02*
X488397D01*
X412500Y77500D02*
X439108D01*
X490957Y36258D02*
X503685D01*
X698000Y81000D02*
X729000D01*
X690000Y73000D02*
X698000Y81000D01*
X655000Y73000D02*
X690000D01*
X696000Y89000D02*
X712500D01*
X686038Y79038D02*
X696000Y89000D01*
X644045Y79038D02*
X686038D01*
X660662Y144445D02*
X671000Y134108D01*
X657127Y144445D02*
X660662D01*
X648995Y136314D02*
X657127Y144445D01*
X671000Y125792D02*
Y134108D01*
X667380Y91766D02*
X675000Y99386D01*
Y109000D01*
X668087Y115913D02*
X675000Y109000D01*
X668087Y115913D02*
Y122879D01*
X671000Y125792D01*
X678000Y116000D02*
Y134886D01*
X712000Y71000D02*
X718000Y77000D01*
X728000D01*
X732000Y73000D01*
Y52000D02*
Y73000D01*
X722000Y52000D02*
Y71000D01*
X657127Y102019D02*
X660309Y98837D01*
X655005Y102019D02*
X657127D01*
X646167Y110858D02*
X655005Y102019D01*
X657127Y105555D02*
X667026D01*
X647664Y183336D02*
X658500Y172500D01*
X616822Y183336D02*
X647664D01*
X609397Y175912D02*
X616822Y183336D01*
X627428Y196771D02*
X679771D01*
X621199Y203000D02*
X627428Y196771D01*
X602544Y203000D02*
X621199D01*
X624246Y192882D02*
X682882D01*
X618589Y198539D02*
X624246Y192882D01*
X603740Y198539D02*
X618589D01*
X622125Y187932D02*
X684932D01*
X616468Y193589D02*
X622125Y187932D01*
X610104Y193589D02*
X616468D01*
X679771Y196771D02*
X689000Y206000D01*
X682882Y192882D02*
X692000Y202000D01*
X684932Y187932D02*
X694000Y197000D01*
X645106Y178387D02*
X658492Y165000D01*
X623186Y178387D02*
X645106D01*
X615054Y170255D02*
X623186Y178387D01*
X689000Y206000D02*
X713000D01*
X692000Y202000D02*
X716000D01*
X694000Y197000D02*
X718000D01*
X633000Y51000D02*
X655000Y73000D01*
X717000Y210000D02*
Y235000D01*
X713000Y206000D02*
X717000Y210000D01*
X721000Y207000D02*
Y233000D01*
X716000Y202000D02*
X721000Y207000D01*
X658500Y231500D02*
X669000D01*
X649500Y222500D02*
X658500Y231500D01*
X639750Y222500D02*
X649500D01*
X671000Y232000D02*
X671500Y232500D01*
Y243000D01*
X590056Y217277D02*
X593889Y221111D01*
X582881Y217277D02*
X590056D01*
X575456Y209853D02*
X582881Y217277D01*
X746000Y90000D02*
Y94000D01*
X752500Y82000D02*
Y109000D01*
X759000Y90000D02*
Y94000D01*
X757500Y95500D02*
Y109000D01*
Y95500D02*
X759000Y94000D01*
X648995Y113686D02*
X657127Y105555D01*
X629196Y93887D02*
X644045Y79038D01*
X487775Y50754D02*
X488482Y50047D01*
X503685Y36258D02*
X516059Y48632D01*
X503685Y30601D02*
X518887Y45804D01*
X499601Y30601D02*
X503685D01*
X732000Y84000D02*
Y91000D01*
X729000Y81000D02*
X732000Y84000D01*
X592426Y192882D02*
X602544Y203000D01*
X595255Y190054D02*
X603740Y198539D01*
X600912Y184397D02*
X610104Y193589D01*
X717000Y235000D02*
X728000Y246000D01*
X721000Y233000D02*
X730000Y242000D01*
X718000Y197000D02*
X726000Y205000D01*
Y231000D01*
X732000Y237000D01*
X749000D01*
X753000Y233000D01*
Y221000D02*
Y233000D01*
Y221000D02*
X757500Y216500D01*
X730000Y242000D02*
X754000D01*
X758000Y238000D01*
X772000Y212000D02*
Y244000D01*
X770000Y246000D02*
X772000Y244000D01*
X728000Y246000D02*
X770000D01*
X757500Y191000D02*
Y216500D01*
X760500Y218500D02*
X766000D01*
X758000Y221000D02*
X760500Y218500D01*
X758000Y221000D02*
Y238000D01*
X766000Y213000D02*
Y218500D01*
X762500Y209500D02*
X766000Y213000D01*
X762500Y191000D02*
Y209500D01*
X790000Y229500D02*
Y240000D01*
X766000Y229500D02*
Y240000D01*
X767500Y207500D02*
X772000Y212000D01*
X767500Y191000D02*
Y207500D01*
X787750Y210000D02*
X790000Y212250D01*
X782750Y210000D02*
X787750D01*
X777500Y204750D02*
X782750Y210000D01*
X790000Y212250D02*
Y218500D01*
X777500Y191000D02*
Y204750D01*
X658492Y165000D02*
X703000D01*
X705500Y167500D01*
X719000D01*
X658500Y172500D02*
X687500D01*
X698500D02*
X719000D01*
X686500Y157500D02*
X719000D01*
X692000Y150000D02*
X701000D01*
X703500Y147500D01*
X719000D01*
X700000Y143000D02*
X700500Y142500D01*
X719000D01*
X692000Y137500D02*
X719000D01*
X700000Y132000D02*
X700500Y132500D01*
X719000D01*
X732000Y91000D02*
X737500Y96500D01*
Y109000D01*
X742500Y95500D02*
Y109000D01*
X740000Y93000D02*
X742500Y95500D01*
X740000Y82000D02*
Y93000D01*
X746000Y94000D02*
X747500Y95500D01*
Y109000D01*
X725000Y96000D02*
X731000D01*
X723500Y94500D02*
X725000Y96000D01*
X723500Y89000D02*
Y94500D01*
X731000Y96000D02*
X732500Y97500D01*
Y109000D01*
X608690Y54289D02*
X612225Y50754D01*
X608690Y54289D02*
Y57118D01*
X610104Y58532D01*
Y62067D01*
X603740Y68432D02*
X610104Y62067D01*
X612225Y76917D02*
X621064Y68078D01*
Y65250D02*
Y68078D01*
Y65250D02*
X629196Y57118D01*
X616822Y61714D02*
X620004Y58532D01*
X616822Y61714D02*
Y66664D01*
X609397Y74088D02*
X616822Y66664D01*
X615054Y79745D02*
X627782Y67017D01*
Y66310D02*
Y67017D01*
X628489Y73381D02*
X636974Y64896D01*
X627075Y73381D02*
X628489D01*
X617882Y82574D02*
X627075Y73381D01*
X628660Y77452D02*
X632196D01*
X620711Y85402D02*
X628660Y77452D01*
X632196D02*
X635560Y74088D01*
X631317Y80452D02*
X636974D01*
X644752Y72674D01*
X636974Y64896D02*
X636974D01*
X613286Y57471D02*
X621418Y49340D01*
X623539Y88230D02*
X631317Y80452D01*
X606568Y71260D02*
X613286Y64542D01*
Y57471D02*
Y64542D01*
X348000Y8000D02*
X486740D01*
X342000Y14000D02*
X348000Y8000D01*
X347000Y16000D02*
X350000Y13000D01*
X328000Y8000D02*
X332000Y4000D01*
X338500Y31500D02*
X342000Y28000D01*
X334000Y31500D02*
X338500D01*
X342000Y14000D02*
Y28000D01*
X347000Y16000D02*
Y29000D01*
X398000Y86000D02*
X428976D01*
X394500Y82500D02*
X398000Y86000D01*
X381000Y82500D02*
X394500D01*
X428976Y86000D02*
X453834Y110858D01*
X442873Y144445D02*
X451005Y136314D01*
X439338Y144445D02*
X442873D01*
X415000Y120108D02*
X439338Y144445D01*
X415000Y96000D02*
Y120108D01*
X411500Y92500D02*
X415000Y96000D01*
X381000Y92500D02*
X411500D01*
X398000Y100000D02*
X408000D01*
X395500Y102500D02*
X398000Y100000D01*
X451359Y97069D02*
X459490Y105201D01*
X449237Y97069D02*
X451359D01*
X440045Y87877D02*
X449237Y97069D01*
X457015Y81513D02*
X460551Y85049D01*
Y89291D01*
X467976Y96716D01*
X447823Y80099D02*
X457015Y89291D01*
Y91412D01*
X465147Y99544D01*
X449591Y89645D02*
X462319Y102373D01*
X381000Y102500D02*
X395500D01*
X381000Y107500D02*
X399500D01*
X381000Y117500D02*
X399500D01*
X428633Y170000D02*
X456662Y141971D01*
X370000Y170000D02*
X428633D01*
X366000Y166000D02*
X370000Y170000D01*
X366000Y157000D02*
Y166000D01*
X362500Y153500D02*
X366000Y157000D01*
X342500Y141000D02*
Y153500D01*
X341000Y155000D02*
X342500Y153500D01*
X341000Y155000D02*
Y160000D01*
X354000Y155000D02*
Y160000D01*
X352500Y153500D02*
X354000Y155000D01*
X352500Y141000D02*
Y153500D01*
X360000Y156000D02*
Y168000D01*
X357500Y153500D02*
X360000Y156000D01*
X362500Y141000D02*
Y153500D01*
X375000Y154000D02*
X376500Y155500D01*
X369000Y154000D02*
X375000D01*
X367500Y152500D02*
X369000Y154000D01*
X376500Y155500D02*
Y161000D01*
X367500Y141000D02*
Y152500D01*
X357500Y141000D02*
Y153500D01*
X347500Y141000D02*
Y168000D01*
X440398Y149042D02*
X443934D01*
X428440Y161000D02*
X440398Y149042D01*
X387500Y161000D02*
X428440D01*
X443934Y149042D02*
X453834Y139142D01*
X463733Y163184D02*
Y167598D01*
X454480Y176851D02*
X463733Y167598D01*
Y163184D02*
X470804Y156113D01*
X455894Y167659D02*
X459490Y164062D01*
Y161770D02*
Y164062D01*
Y161770D02*
X467976Y153284D01*
X448116Y159881D02*
X451712Y156284D01*
Y152577D02*
Y156284D01*
Y152577D02*
X459490Y144799D01*
X446616Y168987D02*
X465147Y150456D01*
X381000Y77500D02*
X401000D01*
X334000Y10000D02*
Y20500D01*
Y31500D02*
Y37000D01*
X337500Y40500D01*
Y59000D01*
X342500Y33500D02*
X347000Y29000D01*
X342500Y33500D02*
Y59000D01*
X322500Y44500D02*
Y59000D01*
X317000Y39000D02*
X322500Y44500D01*
X312000Y39000D02*
X317000D01*
X310000Y37000D02*
X312000Y39000D01*
X310000Y31500D02*
Y37000D01*
X328000Y8000D02*
Y37000D01*
X332500Y41500D01*
Y59000D01*
X253500Y73000D02*
X265000D01*
X284500Y92500D01*
X299000D01*
X401000Y77500D02*
X401500Y77000D01*
X632024Y96716D02*
X644399Y84341D01*
X674341D01*
X684000Y94000D01*
Y155000D01*
X686500Y157500D01*
D35*
X422500Y44000D02*
X442500D01*
X645000Y31000D02*
Y52416D01*
X601619Y162477D02*
X612225Y173083D01*
X610104Y153991D02*
X620711Y164598D01*
X242500Y42500D02*
Y47000D01*
X240000Y40000D02*
X242500Y42500D01*
X221000Y40000D02*
X240000D01*
X259500Y234000D02*
X262500Y231000D01*
X422500Y181000D02*
X422500Y181000D01*
Y190000D01*
X422000D02*
Y190500D01*
X422500Y191000D01*
X422500Y191000D01*
X408000Y211000D02*
Y217000D01*
X400000Y225000D02*
X408000Y217000D01*
X399000Y241000D02*
X408000Y232000D01*
Y225000D02*
Y232000D01*
Y225000D02*
X413000Y220000D01*
Y208000D02*
Y220000D01*
X409000Y204000D02*
X413000Y208000D01*
X405250Y208250D02*
X408000Y211000D01*
X397000Y208250D02*
X405250D01*
X411500Y181000D02*
Y197500D01*
X409000Y200000D02*
X411500Y197500D01*
X409000Y200000D02*
Y204000D01*
X407250Y201750D02*
X409000Y200000D01*
X406750Y201750D02*
X407250D01*
X397000D02*
X406750D01*
X409000Y204000D01*
X387500Y241000D02*
X399000D01*
X373250Y244250D02*
X376500Y241000D01*
X332250Y244250D02*
X373250D01*
X329000Y241000D02*
X332250Y244250D01*
X324500Y241000D02*
X329000D01*
X265000Y176500D02*
X279500D01*
X282500Y179500D01*
X271500Y231000D02*
X275500Y235000D01*
Y241000D01*
X286500Y226250D02*
Y241000D01*
X239000D02*
X248500D01*
Y227250D02*
X249000Y226750D01*
X248500Y227250D02*
Y241000D01*
X259500Y234000D02*
Y241000D01*
X208000Y201000D02*
X218000D01*
X203000Y206000D02*
X208000Y201000D01*
X203000Y206000D02*
Y216000D01*
X205000Y176000D02*
Y196000D01*
X178000Y223000D02*
X205000Y196000D01*
X62000Y223000D02*
X178000D01*
X200000Y174000D02*
Y193000D01*
X175000Y218000D02*
X200000Y193000D01*
X69000Y218000D02*
X175000D01*
X220000Y193500D02*
Y199000D01*
X218000Y201000D02*
X220000Y199000D01*
X203000Y216000D02*
X207250Y220250D01*
X210000Y213750D02*
X223000D01*
X205000Y176000D02*
X230000Y151000D01*
X200000Y174000D02*
X235000Y139000D01*
X207250Y220250D02*
X223000D01*
X282500Y179500D02*
Y188000D01*
X247000Y169000D02*
X261000D01*
X243500Y172500D02*
X247000Y169000D01*
X243500Y172500D02*
Y181000D01*
X253500Y163000D02*
X260000D01*
X263000Y166000D01*
X231000Y163000D02*
X242500D01*
X527373Y37319D02*
X537979Y47925D01*
X559192Y204903D02*
X569799Y215510D01*
X530201D02*
X540808Y204903D01*
X1035200Y191300D02*
Y208800D01*
X1020000Y224000D02*
X1035200Y208800D01*
X949000Y224000D02*
X1020000D01*
X944000Y219000D02*
X949000Y224000D01*
X1035160Y84100D02*
Y99840D01*
X1020000Y115000D02*
X1035160Y99840D01*
X1020000Y115000D02*
Y201000D01*
X1002000Y219000D02*
X1020000Y201000D01*
X952000Y219000D02*
X1002000D01*
X947000Y214000D02*
X952000Y219000D01*
X841000Y214000D02*
X947000D01*
X834000Y221000D02*
X841000Y214000D01*
X843000Y219000D02*
X944000D01*
X839000Y223000D02*
X843000Y219000D01*
X828000Y238000D02*
X834000Y232000D01*
Y221000D02*
Y232000D01*
X839000Y223000D02*
Y237000D01*
X830000Y246000D02*
X839000Y237000D01*
X787000Y246000D02*
X830000D01*
X784000Y243000D02*
X787000Y246000D01*
X784000Y220000D02*
Y243000D01*
X782500Y218500D02*
X784000Y220000D01*
X778000Y218500D02*
X782500D01*
X810000Y238000D02*
X828000D01*
X808000Y236000D02*
X810000Y238000D01*
X808000Y220000D02*
Y236000D01*
X806500Y218500D02*
X808000Y220000D01*
X802000Y218500D02*
X806500D01*
X911000Y31000D02*
X1026000Y31000D01*
X896000Y46000D02*
X911000Y31000D01*
X896000Y46000D02*
Y80000D01*
X867000Y99000D02*
X891000Y75000D01*
Y44000D02*
Y75000D01*
Y44000D02*
X909000Y26000D01*
X742000Y208000D02*
X742500Y207500D01*
Y191000D02*
Y207500D01*
X425000Y24000D02*
X442500D01*
X422500D02*
X425000D01*
X1051000Y36000D02*
Y134000D01*
X1041000Y26000D02*
X1051000Y36000D01*
X909000Y26000D02*
X1041000D01*
X1035200Y149800D02*
X1051000Y134000D01*
X1035200Y149800D02*
Y165900D01*
X1035000Y40000D02*
X1035000Y56000D01*
X1026000Y31000D02*
X1035000Y40000D01*
X857500Y99000D02*
X867000D01*
X865000Y111000D02*
X896000Y80000D01*
X857500Y111000D02*
X865000D01*
X835000Y125000D02*
X846500D01*
X835000Y134000D02*
X838000Y137000D01*
X846500D01*
X835000Y160000D02*
X838000Y163000D01*
X846500D01*
X835000Y151000D02*
X846500D01*
X826700Y153750D02*
X832250D01*
X824500Y151550D02*
X826700Y153750D01*
X824500Y142550D02*
Y151550D01*
X825250Y157250D02*
X832250D01*
X821000Y153000D02*
X825250Y157250D01*
X821000Y144000D02*
Y153000D01*
X820200Y138250D02*
X824500Y142550D01*
X813250Y138250D02*
X820200D01*
X818750Y141750D02*
X821000Y144000D01*
X813250Y141750D02*
X818750D01*
X832250Y157250D02*
X835000Y160000D01*
X832250Y153750D02*
X835000Y151000D01*
X278500Y106500D02*
X280250Y108250D01*
X278500Y93550D02*
Y106500D01*
X274700Y89750D02*
X278500Y93550D01*
X274700Y89750D02*
Y89750D01*
X275000Y107950D02*
X276525Y109475D01*
X275000Y95000D02*
Y107950D01*
X273250Y93250D02*
X275000Y95000D01*
X812500Y142500D02*
X813250Y141750D01*
X801000Y142500D02*
X812500D01*
Y137500D02*
X813250Y138250D01*
X801000Y137500D02*
X812500D01*
X824050Y131000D02*
X832000D01*
X819800Y126750D02*
X824050Y131000D01*
X813250Y126750D02*
X819800D01*
X825500Y127500D02*
X832500D01*
X821250Y123250D02*
X825500Y127500D01*
X813250Y123250D02*
X821250D01*
X832500Y127500D02*
X835000Y125000D01*
X832000Y131000D02*
X835000Y134000D01*
X812500Y127500D02*
X813250Y126750D01*
X801000Y127500D02*
X812500D01*
Y122500D02*
X813250Y123250D01*
X801000Y122500D02*
X812500D01*
X275000Y4000D02*
X313000D01*
X271000Y8000D02*
X275000Y4000D01*
X271000Y8000D02*
Y14000D01*
X292000D02*
Y30000D01*
X290000Y12000D02*
X292000Y14000D01*
X281000Y12000D02*
X290000D01*
X271000Y23000D02*
X277000D01*
X279000Y21000D01*
Y14000D02*
Y21000D01*
Y14000D02*
X281000Y12000D01*
X298000Y10000D02*
Y20500D01*
X253500Y38500D02*
Y47000D01*
X246000Y31000D02*
X253500Y38500D01*
X242000Y124500D02*
X242500Y125000D01*
X253500Y99000D02*
X262000D01*
X267750Y93250D02*
X273250D01*
X235000Y139000D02*
X242500D01*
X230000Y151000D02*
X242500D01*
X50000Y211000D02*
X62000Y223000D01*
X64800Y213800D02*
X69000Y218000D01*
X263000Y166000D02*
X274500D01*
X220000Y172000D02*
Y182500D01*
X640510Y144799D02*
X648995Y153284D01*
Y156820D02*
X651823Y159648D01*
X648995Y153284D02*
Y156820D01*
X655073Y150877D02*
X657834Y153638D01*
X652245Y150877D02*
X655073D01*
X643338Y141971D02*
X652245Y150877D01*
X453500Y24000D02*
X464000D01*
X453500Y44000D02*
X464050D01*
X464086Y44036D01*
X640510Y105201D02*
X653591Y92120D01*
X616250Y222500D02*
X621498D01*
X627999Y216000D01*
X638000D01*
X641500Y212500D01*
Y208000D02*
Y212500D01*
X652500Y208000D02*
X657000D01*
X651500D02*
X652500D01*
X663500Y218500D02*
X669000D01*
X661000Y216000D02*
X663500Y218500D01*
X661000Y212000D02*
Y216000D01*
X657000Y208000D02*
X661000Y212000D01*
X669000Y214000D02*
X675000Y208000D01*
X669000Y214000D02*
Y218500D01*
X687000Y211000D02*
X691000D01*
X678000Y202000D02*
X687000Y211000D01*
X667000Y202000D02*
X678000D01*
X665000Y204000D02*
X667000Y202000D01*
X665000Y204000D02*
Y208000D01*
X691000Y211000D02*
X693000Y213000D01*
Y218500D01*
X625660Y108736D02*
Y111565D01*
Y108736D02*
X634853Y99544D01*
X625660Y111565D02*
X628489D01*
X637681Y102373D01*
X692000Y52000D02*
Y66000D01*
X690000Y68000D02*
X692000Y66000D01*
X660584Y68000D02*
X690000D01*
X645000Y52416D02*
X660584Y68000D01*
X693000Y218500D02*
X708000D01*
X709000Y217500D01*
X682500Y218500D02*
X693000D01*
X681000Y220000D02*
X682500Y218500D01*
X681000Y220000D02*
Y229000D01*
X683500Y231500D01*
X693000D01*
X602326Y228945D02*
X605381Y232000D01*
X602326Y219752D02*
Y228945D01*
X583941Y201367D02*
X602326Y219752D01*
X605381Y232000D02*
X616250D01*
X580863Y223641D02*
X586111Y228889D01*
X577931Y223641D02*
X580863D01*
X569799Y215510D02*
X577931Y223641D01*
X357500Y42500D02*
X358000Y42000D01*
X357500Y42500D02*
Y59000D01*
X774000Y15000D02*
X784500D01*
X807000Y85500D02*
Y96000D01*
X761000Y72000D02*
X771500D01*
X782500D02*
X793000D01*
X796500Y68500D01*
Y60500D02*
Y68500D01*
X806500Y74000D02*
X807000Y74500D01*
X806500Y60500D02*
Y74000D01*
X795500Y15000D02*
X796500Y16000D01*
Y29500D01*
X801500Y21500D02*
Y29500D01*
Y36000D02*
Y39000D01*
Y29500D02*
Y36000D01*
X799000Y38500D02*
X801500Y36000D01*
X799000Y38500D02*
Y39000D01*
X801500Y41500D02*
Y60500D01*
Y39000D02*
Y41500D01*
X799000Y39000D02*
X801500D01*
X799000D02*
X801500Y41500D01*
Y21500D02*
X813000Y10000D01*
X847000D01*
X858000D02*
X858000Y10000D01*
Y29000D01*
X593111Y27111D02*
Y28149D01*
X578284Y42976D02*
X593111Y28149D01*
X501210Y50754D02*
X507574Y57118D01*
X487775Y50754D02*
X501210D01*
X802000Y229500D02*
Y240000D01*
X778000Y229500D02*
Y240000D01*
X798000Y206250D02*
X802000Y210250D01*
X785750Y206250D02*
X798000D01*
X782500Y203000D02*
X785750Y206250D01*
X814000Y213750D02*
Y218500D01*
X801000Y200750D02*
X814000Y213750D01*
X801000Y177500D02*
Y200750D01*
X802000Y210250D02*
Y218500D01*
X782500Y191000D02*
Y203000D01*
X778000Y211500D02*
Y218500D01*
X772500Y206000D02*
X778000Y211500D01*
X772500Y191000D02*
Y206000D01*
X588891Y74795D02*
X591719D01*
X600912Y65603D01*
X588891Y71967D02*
Y74795D01*
Y71967D02*
X598083Y62775D01*
X501917D02*
X512523Y73381D01*
X563435Y46511D02*
Y49340D01*
Y46511D02*
X572627Y37319D01*
X632732Y118636D02*
X643338Y108029D01*
X643338D01*
X615761Y101665D02*
Y101665D01*
Y101665D02*
X626367Y91059D01*
X462319Y147627D02*
X472925Y137021D01*
X595962Y168134D02*
X606568Y178740D01*
X513230Y51461D02*
X523837Y62067D01*
X496260Y68432D02*
X505452Y77624D01*
X493431Y71260D02*
X502624Y80452D01*
X487775Y76917D02*
X498381Y87523D01*
X473633Y91059D02*
X484239Y101665D01*
X456662Y108029D02*
X467268Y118636D01*
X473633Y158941D02*
X484239Y148335D01*
X484946Y170255D02*
X495553Y159648D01*
X493431Y178740D02*
X504038Y168134D01*
X507574Y192882D02*
X516766Y183690D01*
X513230Y198539D02*
X523837Y187932D01*
X524544Y192882D02*
X528787D01*
X516059Y201367D02*
X524544Y192882D01*
X573335Y190761D02*
X583941Y201367D01*
X587477Y176619D02*
X598083Y187225D01*
X594548Y169548D02*
Y172376D01*
Y166719D02*
Y169548D01*
Y172376D02*
X603740Y181569D01*
X624246Y139849D02*
X634853Y150456D01*
X573335Y59239D02*
X583941Y48632D01*
X566264Y49340D02*
X575456Y40147D01*
X220000Y193500D02*
X232500Y181000D01*
X232500D01*
X64800Y84100D02*
Y100200D01*
X50000Y115000D02*
X64800Y100200D01*
X50000Y115000D02*
Y211000D01*
X317500Y31500D02*
X322000D01*
X316000Y30000D02*
X317500Y31500D01*
X316000Y7000D02*
Y30000D01*
X64800Y191300D02*
Y213800D01*
X292000Y30000D02*
X293500Y31500D01*
X298000D01*
X322000Y10000D02*
Y20500D01*
Y31500D02*
Y37000D01*
X327500Y42500D01*
Y59000D01*
X298000Y31500D02*
Y37000D01*
X304000Y43000D01*
X315000D01*
X317500Y45500D01*
Y59000D01*
X299000Y49000D02*
Y72500D01*
X286000Y36000D02*
X299000Y49000D01*
X286000Y31500D02*
Y36000D01*
X276525Y109475D02*
Y109475D01*
X278800Y111750D01*
X286750D01*
X262000Y99000D02*
X265000Y96000D01*
X253500Y87000D02*
X265000D01*
X253500Y113000D02*
X262000D01*
X276150Y121150D02*
X278250Y123250D01*
X276150Y121150D02*
Y121150D01*
X273750Y118750D02*
X276150Y121150D01*
X278250Y123250D02*
X286750D01*
X280250Y108250D02*
X286750D01*
Y111750D02*
X287500Y112500D01*
X299000D01*
X286750Y108250D02*
X287500Y107500D01*
X299000D01*
X267750Y89750D02*
X274700D01*
X265000Y96000D02*
X267750Y93250D01*
X265000Y87000D02*
X267750Y89750D01*
X286750Y123250D02*
X287500Y122500D01*
Y127500D02*
X299000D01*
X286750Y126750D02*
X287500Y127500D01*
Y122500D02*
X299000D01*
X276800Y126750D02*
X286750D01*
X253500Y125000D02*
X265000D01*
X262000Y113000D02*
X265000Y116000D01*
X267750Y118750D01*
X273750D01*
X265000Y125000D02*
X267750Y122250D01*
X272300D01*
X276800Y126750D01*
X313000Y4000D02*
X316000Y7000D01*
X581113Y45804D02*
X592028Y34889D01*
X600889D01*
X261000Y169000D02*
X263000Y171000D01*
Y174500D01*
X265000Y176500D01*
X246000Y18000D02*
Y19000D01*
Y31000D01*
X251000Y14000D02*
X262000D01*
X246000Y19000D02*
X251000Y14000D01*
X286000Y20000D02*
Y20500D01*
X274500Y32000D02*
X286000Y20500D01*
X271000Y32000D02*
X274500D01*
X791500Y29500D02*
Y36500D01*
X794000Y39000D01*
X799000D01*
X0Y0D02*
X1100000D01*
Y250000D01*
X0D02*
X1100000D01*
X0Y0D02*
Y250000D01*
D36*
X880000Y175000D02*
Y179000D01*
Y166000D02*
Y175000D01*
X877500Y181500D02*
X880000Y179000D01*
X870000Y181500D02*
X877500D01*
X365000Y229000D02*
X376500D01*
X320000Y181000D02*
X323000Y184000D01*
D37*
X468000Y195000D02*
Y208250D01*
X442000Y195000D02*
Y208250D01*
X376000Y181000D02*
X386500D01*
X397500D02*
Y194750D01*
X397000Y195250D02*
X397500Y194750D01*
X232500Y193000D02*
Y204500D01*
X229750Y207250D02*
X232500Y204500D01*
X223000Y207250D02*
X229750D01*
X387500Y217500D02*
Y229000D01*
Y217500D02*
X390250Y214750D01*
X397000D01*
X361500Y201750D02*
X371000D01*
X357500Y208250D02*
X371000D01*
X220500Y241000D02*
X230000D01*
X209500Y229500D02*
Y241000D01*
Y229500D02*
X212250Y226750D01*
X223000D01*
X243500Y193000D02*
X255000D01*
X249000Y220250D02*
X258500D01*
X249000Y213750D02*
X262500D01*
D38*
X616250Y222500D02*
X616500Y222250D01*
D39*
X74125Y234000D02*
D03*
D40*
X136500D02*
D03*
D41*
X458750Y191500D02*
D03*
D42*
X431500D02*
D03*
D43*
X358375Y238000D02*
D03*
D44*
X352500Y224000D02*
D03*
D45*
X355000Y216500D02*
D03*
D46*
X352875Y199125D02*
D03*
D47*
X327875Y198000D02*
D03*
X292125Y224000D02*
D03*
D48*
X320000Y239375D02*
D03*
D49*
Y208500D02*
D03*
X300000Y213250D02*
D03*
D50*
X353500Y208250D02*
D03*
D51*
X267500Y197375D02*
D03*
D52*
X251375Y205500D02*
D03*
D53*
X265750Y183500D02*
D03*
D54*
X255000Y179500D02*
D03*
D55*
X300000Y182750D02*
D03*
D56*
X267500Y222125D02*
D03*
D57*
X273375Y205500D02*
D03*
D58*
X266500Y213750D02*
D03*
D59*
X505452Y80452D02*
D03*
X588891Y74795D02*
D03*
X594548Y169548D02*
D03*
D60*
X521009Y185104D02*
D03*
D61*
X480000Y208000D02*
D03*
X430000D02*
D03*
D62*
X490000Y235000D02*
D03*
X420000D02*
D03*
D63*
X931100Y80550D02*
D03*
X168900Y169450D02*
D03*
D64*
X931100Y105950D02*
D03*
X168900Y144050D02*
D03*
D65*
X1035200Y165900D02*
D03*
Y58700D02*
D03*
Y191300D02*
D03*
X1035160Y84100D02*
D03*
X64800Y191300D02*
D03*
X64840Y165900D02*
D03*
X64800Y84100D02*
D03*
Y58700D02*
D03*
D66*
X964100Y202450D02*
D03*
Y47550D02*
D03*
X135900Y202450D02*
D03*
Y47550D02*
D03*
D67*
X994600Y182150D02*
D03*
X105400Y67850D02*
D03*
D68*
X905700Y169450D02*
D03*
X931110Y156680D02*
D03*
X905700Y144050D02*
D03*
X931100Y131350D02*
D03*
X905700Y118650D02*
D03*
X194300Y80550D02*
D03*
X168890Y93320D02*
D03*
X194300Y105950D02*
D03*
Y131350D02*
D03*
X168900Y118650D02*
D03*
D69*
X994600Y67850D02*
D03*
X105400Y182150D02*
D03*
D70*
X905700Y93250D02*
D03*
X194300Y156750D02*
D03*
X187000Y234000D02*
D03*
X902400Y236000D02*
D03*
X877000D02*
D03*
D71*
X677000Y34000D02*
D03*
X757000D02*
D03*
D72*
X161600Y234000D02*
D03*
X851600Y236000D02*
D03*
D73*
X323000Y184000D02*
D03*
X342000D02*
D03*
D74*
X550000Y125000D02*
D03*
D75*
X659000Y35000D02*
D03*
Y27000D02*
D03*
X739000Y34000D02*
D03*
X721000D02*
D03*
X704000D02*
D03*
X686000D02*
D03*
X616468Y32369D02*
D03*
X607276Y41561D02*
D03*
X633000Y19000D02*
D03*
X581113Y100251D02*
D03*
X589952Y109090D02*
D03*
X526000Y242000D02*
D03*
X880000Y193500D02*
D03*
X870000Y203000D02*
D03*
X880000Y175000D02*
D03*
Y166000D02*
D03*
X221000Y40000D02*
D03*
X296000Y150500D02*
D03*
Y139500D02*
D03*
X286000D02*
D03*
Y150500D02*
D03*
X262500Y231000D02*
D03*
X67000Y234000D02*
D03*
X81000D02*
D03*
X432000Y190000D02*
D03*
X441000D02*
D03*
X452000D02*
D03*
X461000D02*
D03*
X422500D02*
D03*
X365000Y229000D02*
D03*
X400000Y225000D02*
D03*
X376000Y181000D02*
D03*
X271500Y231000D02*
D03*
X324500Y207000D02*
D03*
X239000Y241000D02*
D03*
X230000D02*
D03*
X231000Y163000D02*
D03*
X255000Y175000D02*
D03*
X304500Y224000D02*
D03*
X748000Y34000D02*
D03*
X730000D02*
D03*
X713000D02*
D03*
X695000D02*
D03*
X566264Y197832D02*
D03*
X780000Y132500D02*
D03*
X732500Y208000D02*
D03*
X367500Y42000D02*
D03*
X320000Y117500D02*
D03*
X262000Y14000D02*
D03*
X271000D02*
D03*
X310000Y10000D02*
D03*
X298000D02*
D03*
X271000Y23000D02*
D03*
X494492Y44036D02*
D03*
X400000Y118000D02*
D03*
X408000Y112500D02*
D03*
X400000Y107000D02*
D03*
X220000Y172000D02*
D03*
X265000Y87000D02*
D03*
Y96000D02*
D03*
Y116000D02*
D03*
Y125000D02*
D03*
X230000Y134000D02*
D03*
X829000Y218000D02*
D03*
X645813Y165659D02*
D03*
X464086Y44036D02*
D03*
X464000Y24000D02*
D03*
X405000Y61000D02*
D03*
X651823Y159648D02*
D03*
X657834Y153638D02*
D03*
X639803Y171669D02*
D03*
X742000Y71000D02*
D03*
X702000D02*
D03*
X678000Y116000D02*
D03*
X667380Y91766D02*
D03*
X722000Y71000D02*
D03*
X712000D02*
D03*
X660309Y98837D02*
D03*
X653591Y92120D02*
D03*
X631317Y209853D02*
D03*
X665000Y208000D02*
D03*
X675000D02*
D03*
X709000Y239000D02*
D03*
X655000Y218000D02*
D03*
Y242000D02*
D03*
X599851Y208085D02*
D03*
X575456Y241673D02*
D03*
X358000Y42000D02*
D03*
X742000Y208000D02*
D03*
X645000Y31000D02*
D03*
X774000Y27000D02*
D03*
X816000Y29000D02*
D03*
X825000D02*
D03*
X836000Y82000D02*
D03*
Y70000D02*
D03*
X746000Y90000D02*
D03*
X752500Y82000D02*
D03*
X759000Y90000D02*
D03*
X667026Y105555D02*
D03*
X625660Y111565D02*
D03*
X487775Y50754D02*
D03*
X588891Y74795D02*
D03*
X563435Y49340D02*
D03*
X505452Y80452D02*
D03*
X632732Y118636D02*
D03*
X615761Y101665D02*
D03*
X472925Y137021D02*
D03*
X601619Y162477D02*
D03*
X807000Y96000D02*
D03*
X774000Y15000D02*
D03*
X793000Y48000D02*
D03*
X761000Y72000D02*
D03*
X700000Y132000D02*
D03*
X692000Y137500D02*
D03*
X700000Y143000D02*
D03*
X692000Y150000D02*
D03*
X740000Y82000D02*
D03*
X636974Y64896D02*
D03*
X644752Y72674D02*
D03*
X635560Y74088D02*
D03*
X627782Y66310D02*
D03*
X629196Y57118D02*
D03*
X620004Y58532D02*
D03*
X621418Y49340D02*
D03*
X612225Y50754D02*
D03*
X447823Y80099D02*
D03*
X457015Y81513D02*
D03*
X449237Y89291D02*
D03*
X440045Y87877D02*
D03*
X408000Y100000D02*
D03*
X341000Y160000D02*
D03*
X347500Y168000D02*
D03*
X354000Y160000D02*
D03*
X360000Y168000D02*
D03*
X401500Y129000D02*
D03*
X454480Y176851D02*
D03*
X455894Y167659D02*
D03*
X446702Y169073D02*
D03*
X448116Y159881D02*
D03*
X315500Y241000D02*
D03*
X534444Y140556D02*
D03*
X518887Y125000D02*
D03*
X550000Y156113D02*
D03*
X534444Y109444D02*
D03*
X565556Y140556D02*
D03*
X581113Y125000D02*
D03*
X566264Y110151D02*
D03*
X550000Y93887D02*
D03*
X537979Y47925D02*
D03*
X255000Y184000D02*
D03*
X365000Y238000D02*
D03*
X484239Y148335D02*
D03*
X495553Y159648D02*
D03*
X504038Y168134D02*
D03*
X521009Y185104D02*
D03*
X528787Y192882D02*
D03*
X540808Y204903D02*
D03*
X559192D02*
D03*
X573335Y190761D02*
D03*
X587477Y176619D02*
D03*
X594548Y169548D02*
D03*
X610104Y153991D02*
D03*
X624246Y139849D02*
D03*
X573335Y59239D02*
D03*
X523837Y62067D02*
D03*
X512523Y73381D02*
D03*
X498381Y87523D02*
D03*
X484239Y101665D02*
D03*
X467268Y118636D02*
D03*
X324500Y198000D02*
D03*
X315500D02*
D03*
Y207000D02*
D03*
X324500Y241000D02*
D03*
X357500Y208250D02*
D03*
X349500D02*
D03*
Y217000D02*
D03*
X357500D02*
D03*
X210000Y213750D02*
D03*
X270500Y205000D02*
D03*
X295500Y224000D02*
D03*
Y181000D02*
D03*
X304500D02*
D03*
X295500Y215000D02*
D03*
X270500Y213750D02*
D03*
X262500Y205000D02*
D03*
X255000Y193000D02*
D03*
X304500Y215000D02*
D03*
X262500Y213750D02*
D03*
X322000Y10000D02*
D03*
X334000D02*
D03*
X349000Y42000D02*
D03*
X350000Y91000D02*
D03*
X320000Y95000D02*
D03*
X271000Y32000D02*
D03*
X320000Y104000D02*
D03*
X220000Y98500D02*
D03*
Y113500D02*
D03*
X230000Y78000D02*
D03*
X880000Y136500D02*
D03*
X870000Y116000D02*
D03*
X880000Y151500D02*
D03*
X870000Y172000D02*
D03*
X835000Y125000D02*
D03*
Y134000D02*
D03*
Y151000D02*
D03*
Y160000D02*
D03*
X766000Y240000D02*
D03*
X778000D02*
D03*
X790000D02*
D03*
X802000D02*
D03*
X751000Y208000D02*
D03*
X695000Y189000D02*
D03*
X734000Y229500D02*
D03*
X376000Y141000D02*
D03*
X698492Y121465D02*
D03*
X724000Y109000D02*
D03*
X320000Y85000D02*
D03*
X780000Y146000D02*
D03*
X750000Y159000D02*
D03*
X780000Y155000D02*
D03*
Y165000D02*
D03*
X510048Y15752D02*
D03*
X664000Y62000D02*
D03*
X312000Y166000D02*
D03*
M02*
