G04 Layer_Color=8388736*
%FSLAX44Y44*%
%MOMM*%
G71*
G01*
G75*
%ADD35C,0.2000*%
%ADD91R,0.8032X0.8032*%
%ADD92R,0.8032X0.8032*%
%ADD93R,1.5032X1.2032*%
%ADD94P,1.1359X4X270.0*%
%ADD95R,1.7532X0.6032*%
%ADD96R,2.2032X1.8032*%
%ADD97R,0.7032X2.6032*%
%ADD98P,1.1359X4X360.0*%
%ADD99R,0.5032X1.0032*%
%ADD100R,1.4032X1.6032*%
%ADD101R,1.6532X0.8032*%
%ADD102R,1.4032X1.4032*%
%ADD103R,1.2032X1.0032*%
%ADD104R,1.0032X1.2032*%
%ADD105R,1.8532X0.7532*%
G04:AMPARAMS|DCode=106|XSize=1.8532mm|YSize=0.4032mm|CornerRadius=0mm|HoleSize=0mm|Usage=FLASHONLY|Rotation=225.000|XOffset=0mm|YOffset=0mm|HoleType=Round|Shape=Rectangle|*
%AMROTATEDRECTD106*
4,1,4,0.5127,0.7978,0.7978,0.5127,-0.5127,-0.7978,-0.7978,-0.5127,0.5127,0.7978,0.0*
%
%ADD106ROTATEDRECTD106*%

G04:AMPARAMS|DCode=107|XSize=0.4032mm|YSize=1.8532mm|CornerRadius=0mm|HoleSize=0mm|Usage=FLASHONLY|Rotation=225.000|XOffset=0mm|YOffset=0mm|HoleType=Round|Shape=Rectangle|*
%AMROTATEDRECTD107*
4,1,4,-0.5127,0.7978,0.7978,-0.5127,0.5127,-0.7978,-0.7978,0.5127,-0.5127,0.7978,0.0*
%
%ADD107ROTATEDRECTD107*%

%ADD108O,0.5032X2.3032*%
%ADD109O,2.3032X0.5032*%
%ADD110R,1.7032X1.7032*%
%ADD111C,1.8032*%
%ADD112C,1.9032*%
%ADD113C,2.4032*%
%ADD114C,3.1532*%
%ADD115C,1.7032*%
%ADD116C,3.1532*%
%ADD117C,1.7032*%
%ADD118C,0.6032*%
%ADD119R,1.7032X1.7032*%
G04:AMPARAMS|DCode=120|XSize=1.7032mm|YSize=1.7032mm|CornerRadius=0.4766mm|HoleSize=0mm|Usage=FLASHONLY|Rotation=0.000|XOffset=0mm|YOffset=0mm|HoleType=Round|Shape=RoundedRectangle|*
%AMROUNDEDRECTD120*
21,1,1.7032,0.7500,0,0,0.0*
21,1,0.7500,1.7032,0,0,0.0*
1,1,0.9532,0.3750,-0.3750*
1,1,0.9532,-0.3750,-0.3750*
1,1,0.9532,-0.3750,0.3750*
1,1,0.9532,0.3750,0.3750*
%
%ADD120ROUNDEDRECTD120*%
%ADD121P,7.3584X4X270.0*%
%ADD122C,0.7532*%
G36*
X458000Y200500D02*
X452000D01*
Y216000D01*
X458000D01*
Y200500D01*
D02*
G37*
G36*
X451500D02*
X445500D01*
Y216000D01*
X451500D01*
Y200500D01*
D02*
G37*
G36*
X445000D02*
X439000D01*
Y216000D01*
X445000D01*
Y200500D01*
D02*
G37*
G36*
X230000Y204250D02*
X216000D01*
Y210250D01*
X230000D01*
Y204250D01*
D02*
G37*
G36*
X471000Y200500D02*
X465000D01*
Y216000D01*
X471000D01*
Y200500D01*
D02*
G37*
G36*
X464500D02*
X458500D01*
Y216000D01*
X464500D01*
Y200500D01*
D02*
G37*
G36*
X378000Y198750D02*
X364000D01*
Y204750D01*
X378000D01*
Y198750D01*
D02*
G37*
G36*
X404000Y192250D02*
X390000D01*
Y198250D01*
X404000D01*
Y192250D01*
D02*
G37*
G36*
X378000D02*
X364000D01*
Y198250D01*
X378000D01*
Y192250D01*
D02*
G37*
G36*
X482154Y216038D02*
X484161Y215206D01*
X485884Y213884D01*
X487206Y212161D01*
X488038Y210154D01*
X488321Y208000D01*
X488038Y205846D01*
X487206Y203839D01*
X485884Y202116D01*
X484161Y200794D01*
X482154Y199962D01*
X480000Y199679D01*
X477846Y199962D01*
X475839Y200794D01*
X474116Y202116D01*
X472794Y203839D01*
X471962Y205846D01*
X471679Y208000D01*
X471962Y210154D01*
X472794Y212161D01*
X474116Y213884D01*
X475839Y215206D01*
X477846Y216038D01*
X480000Y216321D01*
X482154Y216038D01*
D02*
G37*
G36*
X432154D02*
X434161Y215206D01*
X435884Y213884D01*
X437206Y212161D01*
X438038Y210154D01*
X438321Y208000D01*
X438038Y205846D01*
X437206Y203839D01*
X435884Y202116D01*
X434161Y200794D01*
X432154Y199962D01*
X430000Y199679D01*
X427846Y199962D01*
X425839Y200794D01*
X424116Y202116D01*
X422794Y203839D01*
X421962Y205846D01*
X421679Y208000D01*
X421962Y210154D01*
X422794Y212161D01*
X424116Y213884D01*
X425839Y215206D01*
X427846Y216038D01*
X430000Y216321D01*
X432154Y216038D01*
D02*
G37*
G36*
X404000Y198750D02*
X390000D01*
Y204750D01*
X404000D01*
Y198750D01*
D02*
G37*
G36*
X256000Y204250D02*
X242000D01*
Y210250D01*
X256000D01*
Y204250D01*
D02*
G37*
G36*
X230000Y223750D02*
X216000D01*
Y229750D01*
X230000D01*
Y223750D01*
D02*
G37*
G36*
X256000Y217250D02*
X242000D01*
Y223250D01*
X256000D01*
Y217250D01*
D02*
G37*
G36*
X230000D02*
X216000D01*
Y223250D01*
X230000D01*
Y217250D01*
D02*
G37*
G36*
X491951Y243710D02*
X493605Y242605D01*
X494710Y240951D01*
X495098Y239000D01*
Y231000D01*
X494710Y229049D01*
X493605Y227395D01*
X491951Y226290D01*
X490000Y225902D01*
X488049Y226290D01*
X486395Y227395D01*
X485290Y229049D01*
X484902Y231000D01*
Y239000D01*
X485290Y240951D01*
X486395Y242605D01*
X488049Y243710D01*
X490000Y244098D01*
X491951Y243710D01*
D02*
G37*
G36*
X421951D02*
X423605Y242605D01*
X424710Y240951D01*
X425098Y239000D01*
Y231000D01*
X424710Y229049D01*
X423605Y227395D01*
X421951Y226290D01*
X420000Y225902D01*
X418049Y226290D01*
X416395Y227395D01*
X415290Y229049D01*
X414902Y231000D01*
Y239000D01*
X415290Y240951D01*
X416395Y242605D01*
X418049Y243710D01*
X420000Y244098D01*
X421951Y243710D01*
D02*
G37*
G36*
X256000Y223750D02*
X242000D01*
Y229750D01*
X256000D01*
Y223750D01*
D02*
G37*
G36*
X230000Y210750D02*
X216000D01*
Y216750D01*
X230000D01*
Y210750D01*
D02*
G37*
G36*
X404000Y205250D02*
X390000D01*
Y211250D01*
X404000D01*
Y205250D01*
D02*
G37*
G36*
X378000D02*
X364000D01*
Y211250D01*
X378000D01*
Y205250D01*
D02*
G37*
G36*
X404000Y211750D02*
X390000D01*
Y217750D01*
X404000D01*
Y211750D01*
D02*
G37*
G36*
X378000D02*
X364000D01*
Y217750D01*
X378000D01*
Y211750D01*
D02*
G37*
G36*
X256000Y210750D02*
X242000D01*
Y216750D01*
X256000D01*
Y210750D01*
D02*
G37*
D35*
X0Y0D02*
Y250000D01*
X1100000D01*
Y0D02*
Y250000D01*
X0Y0D02*
X1100000D01*
D91*
X515500Y230000D02*
D03*
X504500D02*
D03*
X515500Y242000D02*
D03*
X504500D02*
D03*
X242500Y47000D02*
D03*
X253500D02*
D03*
X453500Y44000D02*
D03*
X442500D02*
D03*
X453500Y24000D02*
D03*
X442500D02*
D03*
X641500Y208000D02*
D03*
X652500D02*
D03*
X682500Y243000D02*
D03*
X671500D02*
D03*
X597500Y242000D02*
D03*
X586500D02*
D03*
X795500Y15000D02*
D03*
X784500D02*
D03*
X858000Y10000D02*
D03*
X847000D02*
D03*
X857500Y82000D02*
D03*
X846500D02*
D03*
X857500Y70000D02*
D03*
X846500D02*
D03*
X386500Y181000D02*
D03*
X397500D02*
D03*
X387500Y229000D02*
D03*
X376500D02*
D03*
X387500Y241000D02*
D03*
X376500D02*
D03*
X422500Y181000D02*
D03*
X411500D02*
D03*
X286500Y241000D02*
D03*
X275500D02*
D03*
X248500D02*
D03*
X259500D02*
D03*
X243500Y181000D02*
D03*
X232500D02*
D03*
X220500Y241000D02*
D03*
X209500D02*
D03*
X232500Y193000D02*
D03*
X243500D02*
D03*
X395500Y61000D02*
D03*
X384500D02*
D03*
X367500Y31000D02*
D03*
X356500D02*
D03*
X376500Y161000D02*
D03*
X387500D02*
D03*
X242500Y87000D02*
D03*
X253500D02*
D03*
X242500Y99000D02*
D03*
X253500D02*
D03*
Y113000D02*
D03*
X242500D02*
D03*
Y125000D02*
D03*
X253500D02*
D03*
X401500Y77500D02*
D03*
X412500D02*
D03*
X253500Y61000D02*
D03*
X242500D02*
D03*
X253500Y139000D02*
D03*
X242500D02*
D03*
X253500Y151000D02*
D03*
X242500D02*
D03*
X846500Y111000D02*
D03*
X857500D02*
D03*
X846500Y99000D02*
D03*
X857500D02*
D03*
Y125000D02*
D03*
X846500D02*
D03*
Y137000D02*
D03*
X857500D02*
D03*
X846500Y163000D02*
D03*
X857500D02*
D03*
Y151000D02*
D03*
X846500D02*
D03*
Y177000D02*
D03*
X857500D02*
D03*
X846500Y189000D02*
D03*
X857500D02*
D03*
X253500Y73000D02*
D03*
X242500D02*
D03*
X704500Y189000D02*
D03*
X715500D02*
D03*
X698500Y172500D02*
D03*
X687500D02*
D03*
X723500Y89000D02*
D03*
X712500D02*
D03*
X242500Y163000D02*
D03*
X253500D02*
D03*
X622000Y210000D02*
D03*
X611000D02*
D03*
X782500Y72000D02*
D03*
X771500D02*
D03*
D92*
X870000Y192500D02*
D03*
Y181500D02*
D03*
X709000Y228500D02*
D03*
Y217500D02*
D03*
X778000Y48000D02*
D03*
Y37000D02*
D03*
X807000Y74500D02*
D03*
Y85500D02*
D03*
X220000Y193500D02*
D03*
Y182500D02*
D03*
X230000Y87500D02*
D03*
Y98500D02*
D03*
X286000Y47500D02*
D03*
Y58500D02*
D03*
X230000Y113500D02*
D03*
Y124500D02*
D03*
X286000Y31500D02*
D03*
Y20500D02*
D03*
X870000Y136500D02*
D03*
Y125500D02*
D03*
Y162500D02*
D03*
Y151500D02*
D03*
X814000Y202500D02*
D03*
Y191500D02*
D03*
X334000Y20500D02*
D03*
Y31500D02*
D03*
X322000Y20500D02*
D03*
Y31500D02*
D03*
X310000Y20500D02*
D03*
Y31500D02*
D03*
X298000Y20500D02*
D03*
Y31500D02*
D03*
X275000Y139500D02*
D03*
Y150500D02*
D03*
X814000Y218500D02*
D03*
Y229500D02*
D03*
X802000D02*
D03*
Y218500D02*
D03*
X790000Y229500D02*
D03*
Y218500D02*
D03*
X778000Y229500D02*
D03*
Y218500D02*
D03*
X766000Y229500D02*
D03*
Y218500D02*
D03*
X744000Y229500D02*
D03*
Y218500D02*
D03*
D93*
X293500Y166000D02*
D03*
X274500D02*
D03*
X406000Y43000D02*
D03*
X425000D02*
D03*
X406000Y24000D02*
D03*
X425000D02*
D03*
D94*
X586111Y228889D02*
D03*
X593889Y221111D02*
D03*
D95*
X693000Y225000D02*
D03*
Y231500D02*
D03*
Y218500D02*
D03*
X669000Y231500D02*
D03*
Y225000D02*
D03*
Y218500D02*
D03*
D96*
X192000Y19000D02*
D03*
X246000D02*
D03*
D97*
X712000Y16000D02*
D03*
X722000D02*
D03*
X742000D02*
D03*
X732000D02*
D03*
X752000D02*
D03*
X762000D02*
D03*
X702000D02*
D03*
X692000D02*
D03*
X672000D02*
D03*
X682000D02*
D03*
Y52000D02*
D03*
X672000D02*
D03*
X692000D02*
D03*
X702000D02*
D03*
X762000D02*
D03*
X752000D02*
D03*
X732000D02*
D03*
X742000D02*
D03*
X722000D02*
D03*
X712000D02*
D03*
D98*
X593111Y27111D02*
D03*
X600889Y34889D02*
D03*
X609889Y25889D02*
D03*
X602111Y18111D02*
D03*
D99*
X791500Y60500D02*
D03*
X801500D02*
D03*
X796500D02*
D03*
X806500D02*
D03*
X796500Y29500D02*
D03*
X791500D02*
D03*
X806500D02*
D03*
X801500D02*
D03*
D100*
X858000Y29000D02*
D03*
X841000D02*
D03*
X858000Y51000D02*
D03*
X841000D02*
D03*
D101*
X320000Y216000D02*
D03*
Y232000D02*
D03*
X300000Y206000D02*
D03*
Y190000D02*
D03*
D102*
X94000Y234000D02*
D03*
X124000D02*
D03*
D103*
X338000Y216000D02*
D03*
Y201000D02*
D03*
X282000Y221500D02*
D03*
Y206500D02*
D03*
X271000Y57500D02*
D03*
Y42500D02*
D03*
X829000Y192500D02*
D03*
Y207500D02*
D03*
D104*
X352500Y234000D02*
D03*
X337500D02*
D03*
X282500Y188000D02*
D03*
X267500D02*
D03*
X386500Y141000D02*
D03*
X401500D02*
D03*
X713500Y109000D02*
D03*
X698500D02*
D03*
D105*
X616250Y222500D02*
D03*
Y241500D02*
D03*
X639750D02*
D03*
Y232000D02*
D03*
Y222500D02*
D03*
X616250Y232000D02*
D03*
D106*
X648995Y136314D02*
D03*
X646167Y139142D02*
D03*
X643338Y141971D02*
D03*
X640510Y144799D02*
D03*
X637681Y147627D02*
D03*
X634853Y150456D02*
D03*
X632024Y153284D02*
D03*
X629196Y156113D02*
D03*
X626367Y158941D02*
D03*
X623539Y161770D02*
D03*
X620711Y164598D02*
D03*
X617882Y167426D02*
D03*
X615054Y170255D02*
D03*
X612225Y173083D02*
D03*
X609397Y175912D02*
D03*
X606568Y178740D02*
D03*
X603740Y181569D02*
D03*
X600912Y184397D02*
D03*
X598083Y187225D02*
D03*
X595255Y190054D02*
D03*
X592426Y192882D02*
D03*
X589598Y195711D02*
D03*
X586769Y198539D02*
D03*
X583941Y201367D02*
D03*
X581113Y204196D02*
D03*
X578284Y207024D02*
D03*
X575456Y209853D02*
D03*
X572627Y212681D02*
D03*
X569799Y215510D02*
D03*
X566970Y218338D02*
D03*
X564142Y221166D02*
D03*
X561314Y223995D02*
D03*
X451005Y113686D02*
D03*
X453834Y110858D02*
D03*
X456662Y108029D02*
D03*
X459490Y105201D02*
D03*
X462319Y102373D02*
D03*
X465147Y99544D02*
D03*
X467976Y96716D02*
D03*
X470804Y93887D02*
D03*
X473633Y91059D02*
D03*
X476461Y88230D02*
D03*
X479289Y85402D02*
D03*
X482118Y82574D02*
D03*
X484946Y79745D02*
D03*
X487775Y76917D02*
D03*
X490603Y74088D02*
D03*
X493431Y71260D02*
D03*
X496260Y68432D02*
D03*
X499088Y65603D02*
D03*
X501917Y62775D02*
D03*
X504745Y59946D02*
D03*
X507574Y57118D02*
D03*
X510402Y54289D02*
D03*
X513230Y51461D02*
D03*
X516059Y48632D02*
D03*
X518887Y45804D02*
D03*
X521716Y42976D02*
D03*
X524544Y40147D02*
D03*
X527373Y37319D02*
D03*
X530201Y34490D02*
D03*
X533029Y31662D02*
D03*
X535858Y28833D02*
D03*
X538686Y26005D02*
D03*
D107*
Y223995D02*
D03*
X535858Y221166D02*
D03*
X533029Y218338D02*
D03*
X530201Y215510D02*
D03*
X527373Y212681D02*
D03*
X524544Y209853D02*
D03*
X521716Y207024D02*
D03*
X518887Y204196D02*
D03*
X516059Y201367D02*
D03*
X513230Y198539D02*
D03*
X510402Y195711D02*
D03*
X507574Y192882D02*
D03*
X504745Y190054D02*
D03*
X501917Y187225D02*
D03*
X499088Y184397D02*
D03*
X496260Y181569D02*
D03*
X493431Y178740D02*
D03*
X490603Y175912D02*
D03*
X487775Y173083D02*
D03*
X484946Y170255D02*
D03*
X482118Y167426D02*
D03*
X479289Y164598D02*
D03*
X476461Y161770D02*
D03*
X473633Y158941D02*
D03*
X470804Y156113D02*
D03*
X467976Y153284D02*
D03*
X465147Y150456D02*
D03*
X462319Y147627D02*
D03*
X459490Y144799D02*
D03*
X456662Y141971D02*
D03*
X453834Y139142D02*
D03*
X451005Y136314D02*
D03*
X561314Y26005D02*
D03*
X564142Y28833D02*
D03*
X566970Y31662D02*
D03*
X569799Y34490D02*
D03*
X572627Y37319D02*
D03*
X575456Y40147D02*
D03*
X578284Y42976D02*
D03*
X581113Y45804D02*
D03*
X583941Y48632D02*
D03*
X586769Y51461D02*
D03*
X589598Y54289D02*
D03*
X592426Y57118D02*
D03*
X595255Y59946D02*
D03*
X598083Y62775D02*
D03*
X600912Y65603D02*
D03*
X603740Y68432D02*
D03*
X606568Y71260D02*
D03*
X609397Y74088D02*
D03*
X612225Y76917D02*
D03*
X615054Y79745D02*
D03*
X617882Y82574D02*
D03*
X620711Y85402D02*
D03*
X623539Y88230D02*
D03*
X626367Y91059D02*
D03*
X629196Y93887D02*
D03*
X632024Y96716D02*
D03*
X634853Y99544D02*
D03*
X637681Y102373D02*
D03*
X640510Y105201D02*
D03*
X643338Y108029D02*
D03*
X646167Y110858D02*
D03*
X648995Y113686D02*
D03*
D108*
X367500Y141000D02*
D03*
X362500D02*
D03*
X357500D02*
D03*
X352500D02*
D03*
X347500D02*
D03*
X342500D02*
D03*
X337500D02*
D03*
X332500D02*
D03*
X327500D02*
D03*
X322500D02*
D03*
X317500D02*
D03*
X312500D02*
D03*
Y59000D02*
D03*
X317500D02*
D03*
X322500D02*
D03*
X327500D02*
D03*
X332500D02*
D03*
X337500D02*
D03*
X342500D02*
D03*
X347500D02*
D03*
X352500D02*
D03*
X357500D02*
D03*
X362500D02*
D03*
X367500D02*
D03*
X732500Y109000D02*
D03*
X737500D02*
D03*
X742500D02*
D03*
X747500D02*
D03*
X752500D02*
D03*
X757500D02*
D03*
X762500D02*
D03*
X767500D02*
D03*
X772500D02*
D03*
X777500D02*
D03*
X782500D02*
D03*
X787500D02*
D03*
Y191000D02*
D03*
X782500D02*
D03*
X777500D02*
D03*
X772500D02*
D03*
X767500D02*
D03*
X762500D02*
D03*
X757500D02*
D03*
X752500D02*
D03*
X747500D02*
D03*
X742500D02*
D03*
X737500D02*
D03*
X732500D02*
D03*
D109*
X299000Y127500D02*
D03*
Y122500D02*
D03*
Y117500D02*
D03*
Y112500D02*
D03*
Y107500D02*
D03*
Y102500D02*
D03*
Y97500D02*
D03*
Y92500D02*
D03*
Y87500D02*
D03*
Y82500D02*
D03*
Y77500D02*
D03*
Y72500D02*
D03*
X381000D02*
D03*
Y77500D02*
D03*
Y82500D02*
D03*
Y87500D02*
D03*
Y92500D02*
D03*
Y97500D02*
D03*
Y102500D02*
D03*
Y107500D02*
D03*
Y112500D02*
D03*
Y117500D02*
D03*
Y122500D02*
D03*
Y127500D02*
D03*
X801000Y122500D02*
D03*
Y127500D02*
D03*
Y132500D02*
D03*
Y137500D02*
D03*
Y142500D02*
D03*
Y147500D02*
D03*
Y152500D02*
D03*
Y157500D02*
D03*
Y162500D02*
D03*
Y167500D02*
D03*
Y172500D02*
D03*
Y177500D02*
D03*
X719000D02*
D03*
Y172500D02*
D03*
Y167500D02*
D03*
Y162500D02*
D03*
Y157500D02*
D03*
Y152500D02*
D03*
Y147500D02*
D03*
Y142500D02*
D03*
Y137500D02*
D03*
Y132500D02*
D03*
Y127500D02*
D03*
Y122500D02*
D03*
D110*
X931100Y80550D02*
D03*
X168900Y169450D02*
D03*
D111*
X931100Y105950D02*
D03*
X168900Y144050D02*
D03*
D112*
X1035200Y165900D02*
D03*
Y58700D02*
D03*
Y191300D02*
D03*
X1035160Y84100D02*
D03*
X64800Y191300D02*
D03*
X64840Y165900D02*
D03*
X64800Y84100D02*
D03*
Y58700D02*
D03*
D113*
X964100Y202450D02*
D03*
Y47550D02*
D03*
X135900Y202450D02*
D03*
Y47550D02*
D03*
D114*
X994600Y182150D02*
D03*
X105400Y67850D02*
D03*
D115*
X905700Y169450D02*
D03*
X931110Y156680D02*
D03*
X905700Y144050D02*
D03*
X931100Y131350D02*
D03*
X905700Y118650D02*
D03*
X194300Y80550D02*
D03*
X168890Y93320D02*
D03*
X194300Y105950D02*
D03*
Y131350D02*
D03*
X168900Y118650D02*
D03*
D116*
X994600Y67850D02*
D03*
X105400Y182150D02*
D03*
D117*
X905700Y93250D02*
D03*
X194300Y156750D02*
D03*
X187000Y234000D02*
D03*
X902400Y236000D02*
D03*
X877000D02*
D03*
D118*
X677000Y34000D02*
D03*
X757000D02*
D03*
D119*
X161600Y234000D02*
D03*
X851600Y236000D02*
D03*
D120*
X323000Y184000D02*
D03*
X342000D02*
D03*
D121*
X550000Y125000D02*
D03*
D122*
X659000Y35000D02*
D03*
Y27000D02*
D03*
X739000Y34000D02*
D03*
X721000D02*
D03*
X704000D02*
D03*
X686000D02*
D03*
X616468Y32369D02*
D03*
X607276Y41561D02*
D03*
X633000Y19000D02*
D03*
X581113Y100251D02*
D03*
X589952Y109090D02*
D03*
X526000Y242000D02*
D03*
X880000Y193500D02*
D03*
X870000Y203000D02*
D03*
X880000Y175000D02*
D03*
Y166000D02*
D03*
X221000Y40000D02*
D03*
X296000Y150500D02*
D03*
Y139500D02*
D03*
X286000D02*
D03*
Y150500D02*
D03*
X262500Y231000D02*
D03*
X67000Y234000D02*
D03*
X81000D02*
D03*
X432000Y190000D02*
D03*
X441000D02*
D03*
X452000D02*
D03*
X461000D02*
D03*
X422500D02*
D03*
X365000Y229000D02*
D03*
X400000Y225000D02*
D03*
X376000Y181000D02*
D03*
X271500Y231000D02*
D03*
X324500Y207000D02*
D03*
X239000Y241000D02*
D03*
X230000D02*
D03*
X231000Y163000D02*
D03*
X255000Y175000D02*
D03*
X304500Y224000D02*
D03*
X748000Y34000D02*
D03*
X730000D02*
D03*
X713000D02*
D03*
X695000D02*
D03*
X566264Y197832D02*
D03*
X780000Y132500D02*
D03*
X732500Y208000D02*
D03*
X367500Y42000D02*
D03*
X320000Y117500D02*
D03*
X262000Y14000D02*
D03*
X271000D02*
D03*
X310000Y10000D02*
D03*
X298000D02*
D03*
X271000Y23000D02*
D03*
X494492Y44036D02*
D03*
X400000Y118000D02*
D03*
X408000Y112500D02*
D03*
X400000Y107000D02*
D03*
X220000Y172000D02*
D03*
X265000Y87000D02*
D03*
Y96000D02*
D03*
Y116000D02*
D03*
Y125000D02*
D03*
X230000Y134000D02*
D03*
X829000Y218000D02*
D03*
X645813Y165659D02*
D03*
X464086Y44036D02*
D03*
X464000Y24000D02*
D03*
X405000Y61000D02*
D03*
X651823Y159648D02*
D03*
X657834Y153638D02*
D03*
X639803Y171669D02*
D03*
X742000Y71000D02*
D03*
X702000D02*
D03*
X678000Y116000D02*
D03*
X667380Y91766D02*
D03*
X722000Y71000D02*
D03*
X712000D02*
D03*
X660309Y98837D02*
D03*
X653591Y92120D02*
D03*
X631317Y209853D02*
D03*
X665000Y208000D02*
D03*
X675000D02*
D03*
X709000Y239000D02*
D03*
X655000Y218000D02*
D03*
Y242000D02*
D03*
X599851Y208085D02*
D03*
X575456Y241673D02*
D03*
X358000Y42000D02*
D03*
X742000Y208000D02*
D03*
X645000Y31000D02*
D03*
X774000Y27000D02*
D03*
X816000Y29000D02*
D03*
X825000D02*
D03*
X836000Y82000D02*
D03*
Y70000D02*
D03*
X746000Y90000D02*
D03*
X752500Y82000D02*
D03*
X759000Y90000D02*
D03*
X667026Y105555D02*
D03*
X625660Y111565D02*
D03*
X487775Y50754D02*
D03*
X588891Y74795D02*
D03*
X563435Y49340D02*
D03*
X505452Y80452D02*
D03*
X632732Y118636D02*
D03*
X615761Y101665D02*
D03*
X472925Y137021D02*
D03*
X601619Y162477D02*
D03*
X807000Y96000D02*
D03*
X774000Y15000D02*
D03*
X793000Y48000D02*
D03*
X761000Y72000D02*
D03*
X700000Y132000D02*
D03*
X692000Y137500D02*
D03*
X700000Y143000D02*
D03*
X692000Y150000D02*
D03*
X740000Y82000D02*
D03*
X636974Y64896D02*
D03*
X644752Y72674D02*
D03*
X635560Y74088D02*
D03*
X627782Y66310D02*
D03*
X629196Y57118D02*
D03*
X620004Y58532D02*
D03*
X621418Y49340D02*
D03*
X612225Y50754D02*
D03*
X447823Y80099D02*
D03*
X457015Y81513D02*
D03*
X449237Y89291D02*
D03*
X440045Y87877D02*
D03*
X408000Y100000D02*
D03*
X341000Y160000D02*
D03*
X347500Y168000D02*
D03*
X354000Y160000D02*
D03*
X360000Y168000D02*
D03*
X401500Y129000D02*
D03*
X454480Y176851D02*
D03*
X455894Y167659D02*
D03*
X446702Y169073D02*
D03*
X448116Y159881D02*
D03*
X315500Y241000D02*
D03*
X534444Y140556D02*
D03*
X518887Y125000D02*
D03*
X550000Y156113D02*
D03*
X534444Y109444D02*
D03*
X565556Y140556D02*
D03*
X581113Y125000D02*
D03*
X566264Y110151D02*
D03*
X550000Y93887D02*
D03*
X537979Y47925D02*
D03*
X255000Y184000D02*
D03*
X365000Y238000D02*
D03*
X484239Y148335D02*
D03*
X495553Y159648D02*
D03*
X504038Y168134D02*
D03*
X521009Y185104D02*
D03*
X528787Y192882D02*
D03*
X540808Y204903D02*
D03*
X559192D02*
D03*
X573335Y190761D02*
D03*
X587477Y176619D02*
D03*
X594548Y169548D02*
D03*
X610104Y153991D02*
D03*
X624246Y139849D02*
D03*
X573335Y59239D02*
D03*
X523837Y62067D02*
D03*
X512523Y73381D02*
D03*
X498381Y87523D02*
D03*
X484239Y101665D02*
D03*
X467268Y118636D02*
D03*
X324500Y198000D02*
D03*
X315500D02*
D03*
Y207000D02*
D03*
X324500Y241000D02*
D03*
X357500Y208250D02*
D03*
X349500D02*
D03*
Y217000D02*
D03*
X357500D02*
D03*
X210000Y213750D02*
D03*
X270500Y205000D02*
D03*
X295500Y224000D02*
D03*
Y181000D02*
D03*
X304500D02*
D03*
X295500Y215000D02*
D03*
X270500Y213750D02*
D03*
X262500Y205000D02*
D03*
X255000Y193000D02*
D03*
X304500Y215000D02*
D03*
X262500Y213750D02*
D03*
X322000Y10000D02*
D03*
X334000D02*
D03*
X349000Y42000D02*
D03*
X350000Y91000D02*
D03*
X320000Y95000D02*
D03*
X271000Y32000D02*
D03*
X320000Y104000D02*
D03*
X220000Y98500D02*
D03*
Y113500D02*
D03*
X230000Y78000D02*
D03*
X880000Y136500D02*
D03*
X870000Y116000D02*
D03*
X880000Y151500D02*
D03*
X870000Y172000D02*
D03*
X835000Y125000D02*
D03*
Y134000D02*
D03*
Y151000D02*
D03*
Y160000D02*
D03*
X766000Y240000D02*
D03*
X778000D02*
D03*
X790000D02*
D03*
X802000D02*
D03*
X751000Y208000D02*
D03*
X695000Y189000D02*
D03*
X734000Y229500D02*
D03*
X376000Y141000D02*
D03*
X698492Y121465D02*
D03*
X724000Y109000D02*
D03*
X320000Y85000D02*
D03*
X780000Y146000D02*
D03*
X750000Y159000D02*
D03*
X780000Y155000D02*
D03*
Y165000D02*
D03*
X510048Y15752D02*
D03*
X664000Y62000D02*
D03*
X312000Y166000D02*
D03*
M02*
