G04 Layer_Color=65535*
%FSLAX44Y44*%
%MOMM*%
G71*
G01*
G75*
%ADD31C,0.3000*%
%ADD34C,0.1500*%
%ADD35C,0.2000*%
%ADD86C,0.2500*%
%ADD87C,0.2540*%
%ADD88C,0.1000*%
%ADD89C,0.1270*%
%ADD90C,0.1800*%
G36*
X42722Y10000D02*
X38793D01*
X40526Y15131D01*
X36250D01*
X34517Y10000D01*
X30599D01*
X34898Y22678D01*
X38816D01*
X37313Y18240D01*
X41589D01*
X43092Y22678D01*
X47021D01*
X42722Y10000D01*
D02*
G37*
G36*
X947078Y20328D02*
X947149D01*
X947241Y20318D01*
X947342D01*
X947454Y20308D01*
X947576Y20298D01*
X947840Y20257D01*
X948135Y20217D01*
X948460Y20156D01*
X948795Y20074D01*
X949151Y19973D01*
X949506Y19851D01*
X949862Y19709D01*
X950207Y19536D01*
X950543Y19333D01*
X950868Y19099D01*
X951162Y18835D01*
X951183Y18815D01*
X951223Y18764D01*
X951304Y18683D01*
X951396Y18561D01*
X951518Y18408D01*
X951640Y18225D01*
X951782Y18002D01*
X951924Y17748D01*
X952056Y17473D01*
X952199Y17158D01*
X952320Y16813D01*
X952442Y16437D01*
X952534Y16031D01*
X952615Y15604D01*
X952656Y15137D01*
X952676Y14649D01*
Y14639D01*
Y14629D01*
Y14598D01*
Y14568D01*
Y14466D01*
X952666Y14324D01*
X952656Y14161D01*
X952646Y13968D01*
X952625Y13755D01*
X952595Y13521D01*
X952554Y13267D01*
X952514Y13013D01*
X952463Y12749D01*
X952402Y12475D01*
X952320Y12211D01*
X952229Y11946D01*
X952128Y11692D01*
X952016Y11449D01*
X952005Y11438D01*
X951985Y11398D01*
X951945Y11327D01*
X951894Y11245D01*
X951823Y11134D01*
X951741Y11012D01*
X951640Y10880D01*
X951528Y10737D01*
X951406Y10585D01*
X951264Y10422D01*
X951101Y10260D01*
X950939Y10097D01*
X950756Y9935D01*
X950553Y9782D01*
X950339Y9640D01*
X950116Y9498D01*
X950106Y9488D01*
X950055Y9467D01*
X949994Y9437D01*
X949892Y9386D01*
X949770Y9335D01*
X949628Y9284D01*
X949455Y9213D01*
X949262Y9152D01*
X949049Y9091D01*
X948815Y9031D01*
X948561Y8970D01*
X948287Y8919D01*
X947992Y8868D01*
X947688Y8837D01*
X947362Y8817D01*
X947017Y8807D01*
X946834D01*
X946702Y8817D01*
X946540Y8827D01*
X946357Y8837D01*
X946153Y8858D01*
X945920Y8878D01*
X945686Y8919D01*
X945432Y8949D01*
X945168Y9000D01*
X944904Y9061D01*
X944650Y9132D01*
X944386Y9213D01*
X944142Y9305D01*
X943898Y9406D01*
X943888Y9417D01*
X943847Y9437D01*
X943776Y9467D01*
X943695Y9518D01*
X943593Y9589D01*
X943471Y9660D01*
X943329Y9762D01*
X943187Y9874D01*
X943034Y9996D01*
X942872Y10138D01*
X942699Y10290D01*
X942536Y10463D01*
X942364Y10646D01*
X942201Y10849D01*
X942049Y11073D01*
X941896Y11306D01*
X941886Y11327D01*
X941866Y11367D01*
X941825Y11438D01*
X941774Y11540D01*
X941724Y11672D01*
X941653Y11825D01*
X941591Y11997D01*
X941520Y12200D01*
X941449Y12424D01*
X941378Y12668D01*
X941307Y12942D01*
X941256Y13227D01*
X941206Y13531D01*
X941165Y13857D01*
X941144Y14202D01*
X941134Y14557D01*
Y14568D01*
Y14588D01*
Y14629D01*
Y14679D01*
X941144Y14740D01*
Y14822D01*
X941155Y14913D01*
Y15005D01*
X941165Y15116D01*
X941185Y15238D01*
X941216Y15502D01*
X941266Y15797D01*
X941327Y16112D01*
X941409Y16447D01*
X941500Y16803D01*
X941622Y17148D01*
X941774Y17504D01*
X941947Y17859D01*
X942150Y18195D01*
X942384Y18520D01*
X942648Y18815D01*
X942669Y18835D01*
X942719Y18875D01*
X942811Y18957D01*
X942933Y19048D01*
X943085Y19170D01*
X943278Y19292D01*
X943492Y19434D01*
X943745Y19577D01*
X944040Y19719D01*
X944355Y19861D01*
X944700Y19983D01*
X945076Y20105D01*
X945483Y20196D01*
X945920Y20278D01*
X946387Y20318D01*
X946885Y20339D01*
X947007D01*
X947078Y20328D01*
D02*
G37*
G36*
X892956Y20135D02*
X893098Y20125D01*
X893250Y20105D01*
X893423Y20074D01*
X893606Y20044D01*
X893799Y20003D01*
X894002Y19952D01*
X894215Y19881D01*
X894419Y19810D01*
X894622Y19719D01*
X894815Y19607D01*
X894998Y19485D01*
X895171Y19343D01*
X895181Y19333D01*
X895211Y19302D01*
X895252Y19262D01*
X895303Y19201D01*
X895374Y19119D01*
X895445Y19028D01*
X895526Y18916D01*
X895607Y18794D01*
X895678Y18662D01*
X895760Y18510D01*
X895831Y18347D01*
X895902Y18164D01*
X895953Y17981D01*
X895993Y17788D01*
X896024Y17575D01*
X896034Y17362D01*
Y17351D01*
Y17321D01*
Y17270D01*
X896024Y17199D01*
X896014Y17108D01*
X896004Y17016D01*
X895983Y16904D01*
X895953Y16783D01*
X895882Y16518D01*
X895831Y16376D01*
X895770Y16234D01*
X895699Y16092D01*
X895618Y15949D01*
X895526Y15807D01*
X895414Y15675D01*
Y15665D01*
X895394Y15655D01*
X895343Y15594D01*
X895242Y15513D01*
X895109Y15401D01*
X894947Y15279D01*
X894734Y15157D01*
X894490Y15035D01*
X894215Y14923D01*
X894226D01*
X894266Y14913D01*
X894327Y14893D01*
X894408Y14872D01*
X894510Y14832D01*
X894622Y14791D01*
X894754Y14751D01*
X894886Y14690D01*
X895171Y14557D01*
X895465Y14385D01*
X895740Y14171D01*
X895872Y14060D01*
X895983Y13928D01*
X895993Y13917D01*
X896004Y13897D01*
X896034Y13857D01*
X896075Y13806D01*
X896115Y13735D01*
X896166Y13653D01*
X896217Y13552D01*
X896268Y13450D01*
X896319Y13328D01*
X896369Y13186D01*
X896420Y13044D01*
X896461Y12891D01*
X896501Y12729D01*
X896532Y12546D01*
X896542Y12363D01*
X896552Y12170D01*
Y12160D01*
Y12129D01*
Y12089D01*
X896542Y12028D01*
Y11946D01*
X896532Y11855D01*
X896522Y11753D01*
X896501Y11652D01*
X896451Y11408D01*
X896379Y11144D01*
X896278Y10869D01*
X896146Y10605D01*
Y10595D01*
X896125Y10575D01*
X896105Y10534D01*
X896075Y10494D01*
X896034Y10433D01*
X895983Y10361D01*
X895851Y10209D01*
X895699Y10036D01*
X895506Y9853D01*
X895292Y9671D01*
X895038Y9508D01*
X895018Y9498D01*
X894957Y9467D01*
X894917Y9447D01*
X894855Y9427D01*
X894795Y9396D01*
X894713Y9376D01*
X894632Y9345D01*
X894530Y9315D01*
X894429Y9284D01*
X894307Y9254D01*
X894185Y9223D01*
X894043Y9193D01*
X893901Y9163D01*
X893738Y9142D01*
X893728D01*
X893687Y9132D01*
X893626D01*
X893545Y9122D01*
X893454Y9112D01*
X893352Y9102D01*
X893108Y9071D01*
X892844Y9041D01*
X892590Y9020D01*
X892478Y9010D01*
X892366D01*
X892275Y9000D01*
X886250D01*
Y20145D01*
X892844D01*
X892956Y20135D01*
D02*
G37*
G36*
X82432Y22886D02*
X82594D01*
X82790Y22863D01*
X83021Y22851D01*
X83264Y22817D01*
X83530Y22782D01*
X83807Y22724D01*
X84096Y22666D01*
X84385Y22586D01*
X84674Y22493D01*
X84940Y22378D01*
X85194Y22250D01*
X85437Y22100D01*
X85645Y21927D01*
X85656Y21915D01*
X85691Y21881D01*
X85737Y21823D01*
X85807Y21742D01*
X85887Y21638D01*
X85968Y21511D01*
X86072Y21360D01*
X86165Y21187D01*
X86257Y20991D01*
X86350Y20771D01*
X86442Y20528D01*
X86523Y20263D01*
X86581Y19962D01*
X86627Y19650D01*
X86662Y19315D01*
X86673Y18945D01*
X82952Y18182D01*
Y18194D01*
Y18205D01*
Y18275D01*
Y18379D01*
X82940Y18506D01*
Y18645D01*
X82917Y18783D01*
X82894Y18910D01*
X82859Y19026D01*
X82848Y19049D01*
X82825Y19095D01*
X82779Y19176D01*
X82721Y19280D01*
X82640Y19396D01*
X82548Y19511D01*
X82432Y19615D01*
X82293Y19719D01*
X82270Y19731D01*
X82224Y19754D01*
X82143Y19800D01*
X82027Y19847D01*
X81877Y19881D01*
X81715Y19928D01*
X81519Y19951D01*
X81311Y19962D01*
X81253D01*
X81184Y19951D01*
X81080D01*
X80964Y19928D01*
X80826Y19904D01*
X80675Y19870D01*
X80502Y19823D01*
X80329Y19766D01*
X80132Y19696D01*
X79936Y19615D01*
X79728Y19511D01*
X79520Y19384D01*
X79311Y19246D01*
X79103Y19072D01*
X78895Y18887D01*
X78884Y18876D01*
X78861Y18853D01*
X78815Y18806D01*
X78757Y18737D01*
X78687Y18656D01*
X78618Y18541D01*
X78526Y18425D01*
X78422Y18275D01*
X78318Y18113D01*
X78202Y17928D01*
X78087Y17720D01*
X77971Y17489D01*
X77855Y17246D01*
X77740Y16980D01*
X77624Y16691D01*
X77509Y16379D01*
X77497Y16356D01*
X77474Y16287D01*
X77451Y16183D01*
X77405Y16044D01*
X77358Y15871D01*
X77301Y15675D01*
X77243Y15455D01*
X77197Y15235D01*
X77104Y14750D01*
X77081Y14507D01*
X77058Y14276D01*
Y14045D01*
X77069Y13837D01*
X77104Y13652D01*
X77162Y13490D01*
Y13479D01*
X77185Y13455D01*
X77208Y13421D01*
X77243Y13375D01*
X77289Y13305D01*
X77347Y13247D01*
X77416Y13178D01*
X77497Y13109D01*
X77590Y13028D01*
X77705Y12959D01*
X77832Y12901D01*
X77971Y12843D01*
X78133Y12785D01*
X78306Y12751D01*
X78491Y12728D01*
X78699Y12716D01*
X78803D01*
X78884Y12728D01*
X78988Y12739D01*
X79092Y12751D01*
X79219Y12774D01*
X79358Y12797D01*
X79658Y12866D01*
X79982Y12982D01*
X80144Y13051D01*
X80294Y13132D01*
X80456Y13236D01*
X80606Y13340D01*
X80617Y13352D01*
X80641Y13375D01*
X80687Y13409D01*
X80745Y13455D01*
X80814Y13525D01*
X80895Y13606D01*
X80987Y13698D01*
X81091Y13814D01*
X81195Y13929D01*
X81311Y14068D01*
X81438Y14218D01*
X81565Y14392D01*
X81692Y14565D01*
X81819Y14762D01*
X81946Y14970D01*
X82074Y15189D01*
X85148Y14137D01*
X85136Y14126D01*
X85113Y14068D01*
X85067Y13999D01*
X84998Y13895D01*
X84917Y13768D01*
X84824Y13629D01*
X84720Y13467D01*
X84593Y13294D01*
X84466Y13109D01*
X84316Y12912D01*
X83992Y12508D01*
X83634Y12103D01*
X83241Y11722D01*
X83229Y11710D01*
X83195Y11676D01*
X83137Y11630D01*
X83056Y11560D01*
X82952Y11479D01*
X82836Y11398D01*
X82698Y11294D01*
X82548Y11179D01*
X82374Y11063D01*
X82201Y10948D01*
X82004Y10821D01*
X81796Y10705D01*
X81357Y10474D01*
X80895Y10266D01*
X80883D01*
X80837Y10243D01*
X80768Y10220D01*
X80675Y10185D01*
X80548Y10150D01*
X80409Y10116D01*
X80236Y10069D01*
X80051Y10023D01*
X79843Y9977D01*
X79612Y9931D01*
X79369Y9896D01*
X79115Y9861D01*
X78838Y9827D01*
X78549Y9804D01*
X78237Y9792D01*
X77925Y9780D01*
X77728D01*
X77590Y9792D01*
X77416Y9804D01*
X77208Y9815D01*
X76989Y9827D01*
X76757Y9861D01*
X76503Y9884D01*
X76237Y9931D01*
X75717Y10035D01*
X75451Y10104D01*
X75197Y10185D01*
X74966Y10277D01*
X74746Y10381D01*
X74735Y10393D01*
X74700Y10416D01*
X74643Y10451D01*
X74573Y10497D01*
X74481Y10566D01*
X74377Y10647D01*
X74261Y10751D01*
X74145Y10867D01*
X74018Y11006D01*
X73891Y11156D01*
X73764Y11329D01*
X73637Y11525D01*
X73510Y11734D01*
X73406Y11965D01*
X73302Y12219D01*
X73209Y12485D01*
Y12508D01*
X73198Y12554D01*
X73175Y12635D01*
X73152Y12762D01*
X73128Y12912D01*
X73117Y13086D01*
X73094Y13294D01*
Y13536D01*
Y13802D01*
X73105Y14103D01*
X73140Y14415D01*
X73186Y14762D01*
X73244Y15131D01*
X73337Y15524D01*
X73440Y15929D01*
X73579Y16368D01*
Y16379D01*
X73591Y16403D01*
X73602Y16449D01*
X73625Y16507D01*
X73660Y16576D01*
X73695Y16668D01*
X73730Y16772D01*
X73776Y16888D01*
X73833Y17015D01*
X73891Y17154D01*
X74030Y17454D01*
X74203Y17789D01*
X74388Y18148D01*
X74608Y18529D01*
X74851Y18934D01*
X75128Y19326D01*
X75428Y19731D01*
X75752Y20124D01*
X76099Y20505D01*
X76480Y20864D01*
X76884Y21199D01*
X76896D01*
X76908Y21222D01*
X76942Y21245D01*
X76989Y21268D01*
X77046Y21314D01*
X77116Y21360D01*
X77197Y21407D01*
X77289Y21465D01*
X77497Y21592D01*
X77763Y21742D01*
X78063Y21892D01*
X78398Y22054D01*
X78768Y22204D01*
X79173Y22366D01*
X79612Y22505D01*
X80074Y22632D01*
X80571Y22736D01*
X81091Y22828D01*
X81635Y22875D01*
X82201Y22898D01*
X82305D01*
X82432Y22886D01*
D02*
G37*
G36*
X109406Y22666D02*
X109556D01*
X109729Y22643D01*
X109926Y22620D01*
X110134Y22597D01*
X110365Y22551D01*
X110596Y22493D01*
X110839Y22435D01*
X111082Y22343D01*
X111301Y22250D01*
X111521Y22135D01*
X111729Y21996D01*
X111902Y21846D01*
X112052Y21661D01*
X112064Y21649D01*
X112087Y21615D01*
X112110Y21557D01*
X112156Y21476D01*
X112203Y21372D01*
X112249Y21245D01*
X112295Y21095D01*
X112330Y20921D01*
X112365Y20725D01*
X112388Y20517D01*
X112399Y20274D01*
X112388Y20020D01*
X112365Y19743D01*
X112318Y19442D01*
X112237Y19118D01*
X112133Y18783D01*
X112122Y18760D01*
X112099Y18702D01*
X112064Y18598D01*
X112006Y18471D01*
X111937Y18310D01*
X111845Y18125D01*
X111740Y17917D01*
X111613Y17685D01*
X111475Y17454D01*
X111313Y17212D01*
X111128Y16957D01*
X110932Y16703D01*
X110712Y16460D01*
X110481Y16218D01*
X110226Y15986D01*
X109949Y15778D01*
X109938Y15767D01*
X109880Y15732D01*
X109799Y15675D01*
X109672Y15617D01*
X109522Y15524D01*
X109348Y15443D01*
X109140Y15339D01*
X108897Y15247D01*
X108632Y15143D01*
X108331Y15039D01*
X108019Y14958D01*
X107672Y14877D01*
X107303Y14808D01*
X106910Y14750D01*
X106505Y14715D01*
X106066Y14704D01*
X103928D01*
X102333Y10000D01*
X98404D01*
X102703Y22678D01*
X109302D01*
X109406Y22666D01*
D02*
G37*
G36*
X125459Y19546D02*
X121460D01*
X118224Y10000D01*
X114306D01*
X117542Y19546D01*
X113543D01*
X114607Y22678D01*
X126522D01*
X125459Y19546D01*
D02*
G37*
G36*
X150063Y22666D02*
X150237D01*
X150422Y22655D01*
X150630Y22643D01*
X151057Y22597D01*
X151508Y22551D01*
X151716Y22516D01*
X151924Y22470D01*
X152109Y22424D01*
X152282Y22366D01*
X152294D01*
X152317Y22354D01*
X152363Y22331D01*
X152421Y22308D01*
X152490Y22273D01*
X152571Y22227D01*
X152745Y22100D01*
X152941Y21950D01*
X153126Y21742D01*
X153218Y21626D01*
X153299Y21499D01*
X153380Y21360D01*
X153438Y21210D01*
Y21199D01*
X153450Y21176D01*
X153461Y21129D01*
X153484Y21060D01*
X153496Y20979D01*
X153507Y20875D01*
X153531Y20771D01*
X153542Y20632D01*
Y20494D01*
Y20332D01*
Y20170D01*
X153519Y19985D01*
X153496Y19789D01*
X153450Y19592D01*
X153403Y19373D01*
X153334Y19153D01*
Y19142D01*
X153322Y19107D01*
X153299Y19049D01*
X153265Y18980D01*
X153230Y18887D01*
X153184Y18772D01*
X153126Y18656D01*
X153068Y18529D01*
X152918Y18240D01*
X152733Y17940D01*
X152514Y17628D01*
X152259Y17327D01*
X152248Y17316D01*
X152225Y17292D01*
X152190Y17258D01*
X152132Y17200D01*
X152063Y17131D01*
X151982Y17061D01*
X151889Y16980D01*
X151785Y16888D01*
X151543Y16691D01*
X151265Y16484D01*
X150942Y16276D01*
X150595Y16091D01*
X150583D01*
X150572Y16079D01*
X150537Y16067D01*
X150491Y16044D01*
X150422Y16010D01*
X150352Y15986D01*
X150272Y15952D01*
X150179Y15917D01*
X149948Y15836D01*
X149694Y15755D01*
X149382Y15663D01*
X149046Y15582D01*
X149058D01*
X149070Y15570D01*
X149104Y15559D01*
X149150Y15547D01*
X149255Y15501D01*
X149393Y15443D01*
X149532Y15362D01*
X149670Y15293D01*
X149809Y15201D01*
X149913Y15120D01*
X149925Y15108D01*
X149948Y15085D01*
X149983Y15039D01*
X150029Y14981D01*
X150075Y14889D01*
X150144Y14773D01*
X150225Y14623D01*
X150306Y14449D01*
X150318Y14426D01*
X150341Y14369D01*
X150387Y14276D01*
X150433Y14160D01*
X150479Y14033D01*
X150526Y13906D01*
X150560Y13779D01*
X150583Y13664D01*
X151254Y10000D01*
X146827D01*
X146042Y13872D01*
Y13883D01*
X146030Y13906D01*
Y13941D01*
X146018Y13987D01*
X145984Y14126D01*
X145938Y14276D01*
X145891Y14438D01*
X145822Y14600D01*
X145741Y14738D01*
X145707Y14796D01*
X145660Y14842D01*
X145649Y14854D01*
X145603Y14889D01*
X145533Y14935D01*
X145429Y14993D01*
X145314Y15050D01*
X145163Y15097D01*
X144990Y15131D01*
X144805Y15143D01*
X144458D01*
X142713Y10000D01*
X138784D01*
X143083Y22678D01*
X149913D01*
X150063Y22666D01*
D02*
G37*
G36*
X1001434Y20135D02*
X1001556D01*
X1001708Y20125D01*
X1001871Y20115D01*
X1002054Y20095D01*
X1002247Y20074D01*
X1002440Y20044D01*
X1002846Y19973D01*
X1003253Y19871D01*
X1003436Y19800D01*
X1003618Y19729D01*
X1003628D01*
X1003659Y19709D01*
X1003710Y19688D01*
X1003771Y19658D01*
X1003852Y19607D01*
X1003943Y19556D01*
X1004045Y19495D01*
X1004167Y19434D01*
X1004411Y19262D01*
X1004665Y19058D01*
X1004919Y18825D01*
X1005163Y18550D01*
X1005173Y18540D01*
X1005193Y18520D01*
X1005224Y18469D01*
X1005264Y18418D01*
X1005315Y18347D01*
X1005366Y18256D01*
X1005437Y18154D01*
X1005498Y18042D01*
X1005569Y17921D01*
X1005650Y17778D01*
X1005722Y17636D01*
X1005793Y17473D01*
X1005935Y17138D01*
X1006047Y16762D01*
Y16752D01*
X1006057Y16722D01*
X1006077Y16661D01*
X1006087Y16589D01*
X1006107Y16488D01*
X1006138Y16376D01*
X1006158Y16254D01*
X1006189Y16112D01*
X1006209Y15960D01*
X1006229Y15787D01*
X1006260Y15614D01*
X1006280Y15421D01*
X1006311Y15025D01*
X1006321Y14608D01*
Y14588D01*
Y14527D01*
Y14436D01*
X1006311Y14314D01*
Y14161D01*
X1006301Y13989D01*
X1006290Y13795D01*
X1006270Y13592D01*
X1006250Y13369D01*
X1006219Y13145D01*
X1006148Y12688D01*
X1006097Y12454D01*
X1006047Y12241D01*
X1005975Y12028D01*
X1005904Y11835D01*
Y11825D01*
X1005884Y11794D01*
X1005864Y11743D01*
X1005833Y11672D01*
X1005793Y11591D01*
X1005742Y11489D01*
X1005681Y11377D01*
X1005610Y11256D01*
X1005447Y11001D01*
X1005254Y10717D01*
X1005031Y10443D01*
X1004777Y10179D01*
X1004766Y10168D01*
X1004746Y10148D01*
X1004706Y10118D01*
X1004655Y10077D01*
X1004584Y10016D01*
X1004502Y9955D01*
X1004411Y9894D01*
X1004309Y9823D01*
X1004086Y9671D01*
X1003821Y9528D01*
X1003537Y9396D01*
X1003385Y9345D01*
X1003232Y9295D01*
X1003222D01*
X1003182Y9284D01*
X1003120Y9264D01*
X1003039Y9254D01*
X1002938Y9223D01*
X1002826Y9203D01*
X1002694Y9173D01*
X1002551Y9152D01*
X1002399Y9122D01*
X1002226Y9091D01*
X1001891Y9051D01*
X1001535Y9010D01*
X1001180Y9000D01*
X996069D01*
Y20145D01*
X1001322D01*
X1001434Y20135D01*
D02*
G37*
G36*
X1014835D02*
X1014977Y20125D01*
X1015130Y20105D01*
X1015302Y20074D01*
X1015485Y20044D01*
X1015678Y20003D01*
X1015882Y19952D01*
X1016095Y19881D01*
X1016298Y19810D01*
X1016501Y19719D01*
X1016694Y19607D01*
X1016877Y19485D01*
X1017050Y19343D01*
X1017060Y19333D01*
X1017091Y19302D01*
X1017131Y19262D01*
X1017182Y19201D01*
X1017253Y19119D01*
X1017324Y19028D01*
X1017405Y18916D01*
X1017487Y18794D01*
X1017558Y18662D01*
X1017639Y18510D01*
X1017710Y18347D01*
X1017781Y18164D01*
X1017832Y17981D01*
X1017873Y17788D01*
X1017903Y17575D01*
X1017914Y17362D01*
Y17351D01*
Y17321D01*
Y17270D01*
X1017903Y17199D01*
X1017893Y17108D01*
X1017883Y17016D01*
X1017863Y16904D01*
X1017832Y16783D01*
X1017761Y16518D01*
X1017710Y16376D01*
X1017649Y16234D01*
X1017578Y16092D01*
X1017497Y15949D01*
X1017405Y15807D01*
X1017294Y15675D01*
Y15665D01*
X1017273Y15655D01*
X1017223Y15594D01*
X1017121Y15513D01*
X1016989Y15401D01*
X1016826Y15279D01*
X1016613Y15157D01*
X1016369Y15035D01*
X1016095Y14923D01*
X1016105D01*
X1016146Y14913D01*
X1016207Y14893D01*
X1016288Y14872D01*
X1016389Y14832D01*
X1016501Y14791D01*
X1016633Y14751D01*
X1016765Y14690D01*
X1017050Y14557D01*
X1017345Y14385D01*
X1017619Y14171D01*
X1017751Y14060D01*
X1017863Y13928D01*
X1017873Y13917D01*
X1017883Y13897D01*
X1017914Y13857D01*
X1017954Y13806D01*
X1017995Y13735D01*
X1018046Y13653D01*
X1018096Y13552D01*
X1018147Y13450D01*
X1018198Y13328D01*
X1018249Y13186D01*
X1018299Y13044D01*
X1018340Y12891D01*
X1018381Y12729D01*
X1018411Y12546D01*
X1018421Y12363D01*
X1018432Y12170D01*
Y12160D01*
Y12129D01*
Y12089D01*
X1018421Y12028D01*
Y11946D01*
X1018411Y11855D01*
X1018401Y11753D01*
X1018381Y11652D01*
X1018330Y11408D01*
X1018259Y11144D01*
X1018157Y10869D01*
X1018025Y10605D01*
Y10595D01*
X1018005Y10575D01*
X1017985Y10534D01*
X1017954Y10494D01*
X1017914Y10433D01*
X1017863Y10361D01*
X1017731Y10209D01*
X1017578Y10036D01*
X1017385Y9853D01*
X1017172Y9671D01*
X1016918Y9508D01*
X1016898Y9498D01*
X1016836Y9467D01*
X1016796Y9447D01*
X1016735Y9427D01*
X1016674Y9396D01*
X1016593Y9376D01*
X1016511Y9345D01*
X1016410Y9315D01*
X1016308Y9284D01*
X1016186Y9254D01*
X1016064Y9223D01*
X1015922Y9193D01*
X1015780Y9163D01*
X1015617Y9142D01*
X1015607D01*
X1015566Y9132D01*
X1015506D01*
X1015424Y9122D01*
X1015333Y9112D01*
X1015231Y9102D01*
X1014987Y9071D01*
X1014723Y9041D01*
X1014469Y9020D01*
X1014358Y9010D01*
X1014246D01*
X1014154Y9000D01*
X1008129D01*
Y20145D01*
X1014723D01*
X1014835Y20135D01*
D02*
G37*
G36*
X1029445Y17768D02*
X1023664D01*
Y15990D01*
X1029018D01*
Y13714D01*
X1023664D01*
Y11520D01*
X1029608D01*
Y9000D01*
X1020210D01*
Y20145D01*
X1029445D01*
Y17768D01*
D02*
G37*
G36*
X981957Y9000D02*
X978350D01*
X977792Y10839D01*
X973890D01*
X973342Y9000D01*
X969826D01*
X974012Y20145D01*
X977771D01*
X981957Y9000D01*
D02*
G37*
G36*
X901937D02*
X898483D01*
Y20145D01*
X901937D01*
Y9000D01*
D02*
G37*
G36*
X915399D02*
X911792D01*
X911234Y10839D01*
X907332D01*
X906783Y9000D01*
X903268D01*
X907454Y20145D01*
X911213D01*
X915399Y9000D01*
D02*
G37*
G36*
X969186Y17910D02*
X962917Y11398D01*
X969410D01*
Y9000D01*
X958833D01*
Y11306D01*
X965021Y17768D01*
X959433D01*
Y20145D01*
X969186D01*
Y17910D01*
D02*
G37*
G36*
X1061404Y221979D02*
X1056143D01*
Y220361D01*
X1061016D01*
Y218290D01*
X1056143D01*
Y216293D01*
X1061552D01*
Y214000D01*
X1053000D01*
Y224142D01*
X1061404D01*
Y221979D01*
D02*
G37*
G36*
X1072055Y221637D02*
X1068856D01*
Y214000D01*
X1065722D01*
Y221637D01*
X1062523D01*
Y224142D01*
X1072055D01*
Y221637D01*
D02*
G37*
G36*
X1089132Y224309D02*
X1089252D01*
X1089400Y224300D01*
X1089557Y224290D01*
X1089733Y224272D01*
X1089908Y224253D01*
X1090103Y224235D01*
X1090482Y224170D01*
X1090676Y224133D01*
X1090861Y224087D01*
X1091036Y224041D01*
X1091194Y223976D01*
X1091203D01*
X1091231Y223958D01*
X1091277Y223939D01*
X1091332Y223911D01*
X1091397Y223874D01*
X1091480Y223828D01*
X1091665Y223717D01*
X1091878Y223569D01*
X1092090Y223393D01*
X1092303Y223181D01*
X1092497Y222931D01*
X1092506Y222922D01*
X1092516Y222903D01*
X1092543Y222857D01*
X1092571Y222811D01*
X1092608Y222746D01*
X1092645Y222663D01*
X1092691Y222571D01*
X1092738Y222469D01*
X1092784Y222358D01*
X1092830Y222238D01*
X1092904Y221970D01*
X1092960Y221674D01*
X1092969Y221517D01*
X1092978Y221360D01*
Y221350D01*
Y221322D01*
Y221267D01*
X1092969Y221202D01*
X1092960Y221119D01*
X1092950Y221017D01*
X1092932Y220907D01*
X1092913Y220786D01*
X1092886Y220657D01*
X1092849Y220518D01*
X1092802Y220370D01*
X1092747Y220213D01*
X1092682Y220065D01*
X1092617Y219899D01*
X1092525Y219741D01*
X1092432Y219584D01*
X1092423Y219575D01*
X1092405Y219547D01*
X1092377Y219501D01*
X1092321Y219436D01*
X1092266Y219363D01*
X1092183Y219261D01*
X1092090Y219159D01*
X1091980Y219039D01*
X1091850Y218900D01*
X1091711Y218762D01*
X1091545Y218604D01*
X1091369Y218447D01*
X1091166Y218272D01*
X1090953Y218096D01*
X1090713Y217911D01*
X1090454Y217726D01*
X1090445Y217717D01*
X1090417Y217698D01*
X1090371Y217670D01*
X1090315Y217633D01*
X1090250Y217587D01*
X1090167Y217532D01*
X1089992Y217402D01*
X1089807Y217273D01*
X1089613Y217134D01*
X1089446Y217005D01*
X1089381Y216949D01*
X1089317Y216903D01*
X1089307Y216894D01*
X1089270Y216857D01*
X1089206Y216811D01*
X1089123Y216737D01*
X1089030Y216653D01*
X1088910Y216552D01*
X1088781Y216432D01*
X1088642Y216293D01*
X1093043D01*
Y214000D01*
X1084592D01*
Y214018D01*
X1084602Y214056D01*
X1084611Y214120D01*
X1084629Y214213D01*
X1084648Y214324D01*
X1084675Y214453D01*
X1084712Y214601D01*
X1084759Y214758D01*
X1084805Y214934D01*
X1084870Y215119D01*
X1084944Y215313D01*
X1085017Y215516D01*
X1085119Y215720D01*
X1085221Y215932D01*
X1085341Y216145D01*
X1085471Y216348D01*
X1085480Y216358D01*
X1085508Y216395D01*
X1085554Y216459D01*
X1085619Y216542D01*
X1085702Y216653D01*
X1085813Y216774D01*
X1085942Y216922D01*
X1086090Y217088D01*
X1086266Y217273D01*
X1086469Y217467D01*
X1086700Y217680D01*
X1086950Y217911D01*
X1087227Y218151D01*
X1087532Y218410D01*
X1087874Y218678D01*
X1088235Y218956D01*
X1088253Y218965D01*
X1088290Y218993D01*
X1088355Y219048D01*
X1088438Y219104D01*
X1088531Y219187D01*
X1088642Y219270D01*
X1088771Y219372D01*
X1088901Y219473D01*
X1089169Y219695D01*
X1089428Y219936D01*
X1089548Y220047D01*
X1089650Y220158D01*
X1089742Y220259D01*
X1089816Y220352D01*
Y220361D01*
X1089835Y220370D01*
X1089853Y220398D01*
X1089872Y220435D01*
X1089927Y220527D01*
X1089992Y220648D01*
X1090056Y220786D01*
X1090112Y220934D01*
X1090149Y221101D01*
X1090167Y221258D01*
Y221267D01*
Y221276D01*
X1090158Y221332D01*
X1090149Y221424D01*
X1090121Y221535D01*
X1090084Y221655D01*
X1090019Y221785D01*
X1089936Y221924D01*
X1089816Y222053D01*
X1089798Y222071D01*
X1089751Y222108D01*
X1089677Y222155D01*
X1089585Y222219D01*
X1089455Y222284D01*
X1089307Y222330D01*
X1089141Y222367D01*
X1088956Y222386D01*
X1088901D01*
X1088864Y222376D01*
X1088771Y222367D01*
X1088642Y222339D01*
X1088503Y222303D01*
X1088355Y222238D01*
X1088207Y222155D01*
X1088069Y222044D01*
X1088050Y222025D01*
X1088013Y221979D01*
X1087985Y221942D01*
X1087958Y221887D01*
X1087921Y221831D01*
X1087884Y221766D01*
X1087847Y221692D01*
X1087810Y221600D01*
X1087773Y221507D01*
X1087736Y221397D01*
X1087699Y221276D01*
X1087671Y221147D01*
X1087643Y221008D01*
X1087616Y220851D01*
X1084796Y221073D01*
Y221082D01*
X1084805Y221128D01*
X1084814Y221184D01*
X1084823Y221267D01*
X1084842Y221369D01*
X1084870Y221489D01*
X1084897Y221618D01*
X1084934Y221757D01*
X1085008Y222053D01*
X1085119Y222358D01*
X1085239Y222663D01*
X1085313Y222802D01*
X1085397Y222931D01*
X1085406Y222941D01*
X1085415Y222959D01*
X1085443Y222996D01*
X1085480Y223042D01*
X1085526Y223098D01*
X1085582Y223162D01*
X1085646Y223236D01*
X1085720Y223310D01*
X1085803Y223393D01*
X1085896Y223477D01*
X1086108Y223643D01*
X1086358Y223810D01*
X1086645Y223958D01*
X1086654D01*
X1086682Y223976D01*
X1086728Y223995D01*
X1086793Y224013D01*
X1086876Y224041D01*
X1086978Y224069D01*
X1087098Y224105D01*
X1087227Y224142D01*
X1087384Y224170D01*
X1087551Y224207D01*
X1087736Y224235D01*
X1087930Y224263D01*
X1088152Y224281D01*
X1088374Y224300D01*
X1088623Y224318D01*
X1089021D01*
X1089132Y224309D01*
D02*
G37*
G36*
X35178Y213500D02*
X32034D01*
Y217605D01*
X28613D01*
Y213500D01*
X25479D01*
Y223642D01*
X28613D01*
Y220092D01*
X32034D01*
Y223642D01*
X35178D01*
Y213500D01*
D02*
G37*
G36*
X13404Y221479D02*
X8144D01*
Y219861D01*
X13016D01*
Y217790D01*
X8144D01*
Y215793D01*
X13552D01*
Y213500D01*
X5000D01*
Y223642D01*
X13404D01*
Y221479D01*
D02*
G37*
G36*
X24055Y221137D02*
X20856D01*
Y213500D01*
X17722D01*
Y221137D01*
X14523D01*
Y223642D01*
X24055D01*
Y221137D01*
D02*
G37*
G36*
X43184Y213500D02*
X40337D01*
Y220259D01*
X40327Y220249D01*
X40309Y220240D01*
X40272Y220212D01*
X40216Y220175D01*
X40161Y220129D01*
X40087Y220074D01*
X40004Y220018D01*
X39911Y219953D01*
X39708Y219824D01*
X39477Y219676D01*
X39236Y219537D01*
X38996Y219408D01*
X38987D01*
X38968Y219389D01*
X38931Y219380D01*
X38876Y219352D01*
X38820Y219325D01*
X38737Y219288D01*
X38654Y219251D01*
X38552Y219214D01*
X38441Y219168D01*
X38321Y219112D01*
X38182Y219066D01*
X38044Y219010D01*
X37887Y218955D01*
X37729Y218899D01*
X37378Y218789D01*
Y221100D01*
X37397Y221109D01*
X37443Y221118D01*
X37517Y221146D01*
X37619Y221183D01*
X37739Y221229D01*
X37877Y221285D01*
X38025Y221340D01*
X38192Y221414D01*
X38367Y221488D01*
X38552Y221571D01*
X38922Y221766D01*
X39283Y221978D01*
X39449Y222089D01*
X39606Y222209D01*
X39615Y222219D01*
X39643Y222237D01*
X39680Y222274D01*
X39736Y222330D01*
X39800Y222385D01*
X39884Y222468D01*
X39967Y222551D01*
X40059Y222653D01*
X40161Y222764D01*
X40263Y222884D01*
X40364Y223023D01*
X40466Y223162D01*
X40568Y223310D01*
X40669Y223476D01*
X40854Y223818D01*
X43184D01*
Y213500D01*
D02*
G37*
G36*
X59202Y19974D02*
X52626D01*
X51933Y17951D01*
X58024D01*
X57145Y15362D01*
X51055D01*
X50211Y12866D01*
X56972D01*
X56001Y10000D01*
X45311D01*
X49610Y22678D01*
X60115D01*
X59202Y19974D01*
D02*
G37*
G36*
X69442Y22666D02*
X69615D01*
X69800Y22655D01*
X70008Y22643D01*
X70436Y22597D01*
X70886Y22551D01*
X71094Y22516D01*
X71302Y22470D01*
X71487Y22424D01*
X71661Y22366D01*
X71672D01*
X71695Y22354D01*
X71742Y22331D01*
X71800Y22308D01*
X71869Y22273D01*
X71950Y22227D01*
X72123Y22100D01*
X72319Y21950D01*
X72504Y21742D01*
X72597Y21626D01*
X72678Y21499D01*
X72759Y21360D01*
X72817Y21210D01*
Y21199D01*
X72828Y21176D01*
X72840Y21129D01*
X72863Y21060D01*
X72874Y20979D01*
X72886Y20875D01*
X72909Y20771D01*
X72920Y20632D01*
Y20494D01*
Y20332D01*
Y20170D01*
X72897Y19985D01*
X72874Y19789D01*
X72828Y19592D01*
X72782Y19373D01*
X72712Y19153D01*
Y19142D01*
X72701Y19107D01*
X72678Y19049D01*
X72643Y18980D01*
X72608Y18887D01*
X72562Y18772D01*
X72504Y18656D01*
X72447Y18529D01*
X72296Y18240D01*
X72112Y17940D01*
X71892Y17628D01*
X71638Y17327D01*
X71626Y17316D01*
X71603Y17292D01*
X71568Y17258D01*
X71511Y17200D01*
X71441Y17131D01*
X71360Y17061D01*
X71268Y16980D01*
X71164Y16888D01*
X70921Y16691D01*
X70644Y16484D01*
X70320Y16276D01*
X69973Y16091D01*
X69962D01*
X69950Y16079D01*
X69916Y16067D01*
X69869Y16044D01*
X69800Y16010D01*
X69731Y15986D01*
X69650Y15952D01*
X69557Y15917D01*
X69326Y15836D01*
X69072Y15755D01*
X68760Y15663D01*
X68425Y15582D01*
X68436D01*
X68448Y15570D01*
X68483Y15559D01*
X68529Y15547D01*
X68633Y15501D01*
X68772Y15443D01*
X68910Y15362D01*
X69049Y15293D01*
X69188Y15201D01*
X69292Y15120D01*
X69303Y15108D01*
X69326Y15085D01*
X69361Y15039D01*
X69407Y14981D01*
X69453Y14889D01*
X69523Y14773D01*
X69604Y14623D01*
X69685Y14449D01*
X69696Y14426D01*
X69719Y14369D01*
X69765Y14276D01*
X69812Y14160D01*
X69858Y14033D01*
X69904Y13906D01*
X69939Y13779D01*
X69962Y13664D01*
X70632Y10000D01*
X66206D01*
X65420Y13872D01*
Y13883D01*
X65408Y13906D01*
Y13941D01*
X65397Y13987D01*
X65362Y14126D01*
X65316Y14276D01*
X65270Y14438D01*
X65200Y14600D01*
X65120Y14738D01*
X65085Y14796D01*
X65039Y14842D01*
X65027Y14854D01*
X64981Y14889D01*
X64911Y14935D01*
X64808Y14993D01*
X64692Y15050D01*
X64542Y15097D01*
X64368Y15131D01*
X64183Y15143D01*
X63837D01*
X62092Y10000D01*
X58162D01*
X62461Y22678D01*
X69292D01*
X69442Y22666D01*
D02*
G37*
G36*
X99513Y19974D02*
X92937D01*
X92244Y17951D01*
X98334D01*
X97456Y15362D01*
X91365D01*
X90522Y12866D01*
X97283D01*
X96312Y10000D01*
X85622D01*
X89921Y22678D01*
X100426D01*
X99513Y19974D01*
D02*
G37*
G36*
X32055Y19546D02*
X28056D01*
X24820Y10000D01*
X20902D01*
X24138Y19546D01*
X20140D01*
X21203Y22678D01*
X33118D01*
X32055Y19546D01*
D02*
G37*
G36*
X1083178Y214000D02*
X1080034D01*
Y218105D01*
X1076613D01*
Y214000D01*
X1073479D01*
Y224142D01*
X1076613D01*
Y220592D01*
X1080034D01*
Y224142D01*
X1083178D01*
Y214000D01*
D02*
G37*
G36*
X134623Y22886D02*
X134716D01*
X134820Y22875D01*
X134924D01*
X135190Y22851D01*
X135478Y22805D01*
X135802Y22759D01*
X136137Y22690D01*
X136496Y22597D01*
X136854Y22482D01*
X137212Y22343D01*
X137570Y22181D01*
X137894Y21985D01*
X138206Y21753D01*
X138483Y21488D01*
X138599Y21337D01*
X138715Y21187D01*
X138726Y21164D01*
X138761Y21106D01*
X138807Y21014D01*
X138876Y20875D01*
X138946Y20702D01*
X139015Y20494D01*
X139084Y20240D01*
X139154Y19951D01*
X139200Y19639D01*
X139235Y19280D01*
X139246Y18887D01*
X139235Y18460D01*
X139188Y17997D01*
X139107Y17512D01*
X138980Y16980D01*
X138899Y16715D01*
X138807Y16426D01*
Y16414D01*
X138795Y16403D01*
X138784Y16368D01*
X138772Y16333D01*
X138726Y16218D01*
X138668Y16056D01*
X138587Y15871D01*
X138506Y15651D01*
X138391Y15409D01*
X138275Y15143D01*
X138137Y14854D01*
X137986Y14565D01*
X137825Y14265D01*
X137640Y13952D01*
X137455Y13652D01*
X137247Y13352D01*
X137039Y13063D01*
X136808Y12785D01*
X136796Y12774D01*
X136750Y12728D01*
X136680Y12647D01*
X136588Y12554D01*
X136472Y12427D01*
X136334Y12288D01*
X136172Y12138D01*
X135987Y11976D01*
X135779Y11803D01*
X135559Y11618D01*
X135317Y11433D01*
X135063Y11248D01*
X134797Y11063D01*
X134508Y10890D01*
X134207Y10728D01*
X133895Y10566D01*
X133872Y10555D01*
X133814Y10532D01*
X133722Y10497D01*
X133606Y10439D01*
X133444Y10381D01*
X133260Y10324D01*
X133040Y10243D01*
X132797Y10173D01*
X132531Y10104D01*
X132231Y10035D01*
X131931Y9965D01*
X131595Y9908D01*
X131249Y9850D01*
X130879Y9815D01*
X130509Y9792D01*
X130116Y9780D01*
X129908D01*
X129758Y9792D01*
X129584Y9804D01*
X129376Y9815D01*
X129145Y9838D01*
X128891Y9861D01*
X128637Y9908D01*
X128359Y9942D01*
X128082Y10000D01*
X127805Y10069D01*
X127527Y10150D01*
X127273Y10243D01*
X127019Y10347D01*
X126788Y10462D01*
X126776Y10474D01*
X126741Y10497D01*
X126672Y10532D01*
X126603Y10589D01*
X126510Y10670D01*
X126395Y10751D01*
X126279Y10867D01*
X126164Y10994D01*
X126025Y11133D01*
X125898Y11294D01*
X125771Y11468D01*
X125644Y11664D01*
X125528Y11872D01*
X125424Y12103D01*
X125331Y12358D01*
X125251Y12623D01*
Y12647D01*
X125239Y12693D01*
X125227Y12774D01*
X125204Y12889D01*
X125193Y13039D01*
X125170Y13213D01*
Y13409D01*
X125158Y13641D01*
X125170Y13895D01*
X125181Y14172D01*
X125216Y14484D01*
X125262Y14808D01*
X125320Y15154D01*
X125412Y15524D01*
X125516Y15917D01*
X125644Y16322D01*
Y16333D01*
X125655Y16356D01*
X125667Y16403D01*
X125690Y16460D01*
X125724Y16530D01*
X125759Y16622D01*
X125794Y16726D01*
X125840Y16830D01*
X125898Y16957D01*
X125956Y17096D01*
X126094Y17397D01*
X126268Y17732D01*
X126464Y18090D01*
X126684Y18471D01*
X126926Y18876D01*
X127204Y19269D01*
X127504Y19673D01*
X127839Y20078D01*
X128198Y20459D01*
X128590Y20829D01*
X129007Y21164D01*
X129018D01*
X129030Y21187D01*
X129064Y21210D01*
X129111Y21233D01*
X129168Y21280D01*
X129238Y21326D01*
X129319Y21372D01*
X129423Y21430D01*
X129642Y21569D01*
X129908Y21707D01*
X130209Y21869D01*
X130555Y22031D01*
X130937Y22193D01*
X131353Y22354D01*
X131792Y22493D01*
X132266Y22632D01*
X132774Y22736D01*
X133294Y22828D01*
X133849Y22875D01*
X134415Y22898D01*
X134554D01*
X134623Y22886D01*
D02*
G37*
G36*
X18892Y19974D02*
X12316D01*
X11622Y17951D01*
X17713D01*
X16834Y15362D01*
X10744D01*
X9900Y12866D01*
X16661D01*
X15690Y10000D01*
X5000D01*
X9299Y22678D01*
X19805D01*
X18892Y19974D01*
D02*
G37*
G36*
X1037634Y20135D02*
X1037786D01*
X1037959Y20125D01*
X1038142Y20115D01*
X1038538Y20074D01*
X1038945Y20034D01*
X1039148Y20003D01*
X1039341Y19963D01*
X1039524Y19922D01*
X1039686Y19871D01*
X1039697D01*
X1039727Y19861D01*
X1039768Y19841D01*
X1039829Y19820D01*
X1039900Y19790D01*
X1039981Y19749D01*
X1040174Y19638D01*
X1040387Y19505D01*
X1040621Y19323D01*
X1040733Y19221D01*
X1040845Y19109D01*
X1040946Y18987D01*
X1041048Y18855D01*
X1041058Y18845D01*
X1041068Y18825D01*
X1041099Y18784D01*
X1041129Y18723D01*
X1041170Y18652D01*
X1041210Y18561D01*
X1041261Y18469D01*
X1041312Y18347D01*
X1041353Y18225D01*
X1041403Y18083D01*
X1041444Y17941D01*
X1041485Y17778D01*
X1041546Y17433D01*
X1041556Y17240D01*
X1041566Y17047D01*
Y17037D01*
Y17006D01*
Y16955D01*
X1041556Y16894D01*
Y16813D01*
X1041546Y16711D01*
X1041535Y16610D01*
X1041515Y16498D01*
X1041464Y16244D01*
X1041393Y15980D01*
X1041292Y15706D01*
X1041160Y15441D01*
Y15431D01*
X1041139Y15411D01*
X1041119Y15381D01*
X1041088Y15330D01*
X1041048Y15269D01*
X1040997Y15208D01*
X1040875Y15055D01*
X1040723Y14883D01*
X1040530Y14700D01*
X1040316Y14517D01*
X1040072Y14354D01*
X1040052Y14344D01*
X1039991Y14314D01*
X1039890Y14263D01*
X1039758Y14202D01*
X1039585Y14131D01*
X1039381Y14060D01*
X1039138Y13978D01*
X1038863Y13907D01*
X1038874D01*
X1038894Y13897D01*
X1038924Y13887D01*
X1038965Y13877D01*
X1039067Y13836D01*
X1039209Y13785D01*
X1039351Y13714D01*
X1039493Y13653D01*
X1039635Y13572D01*
X1039758Y13501D01*
X1039768Y13491D01*
X1039798Y13470D01*
X1039839Y13430D01*
X1039900Y13379D01*
X1039981Y13298D01*
X1040072Y13196D01*
X1040184Y13064D01*
X1040306Y12912D01*
X1040326Y12891D01*
X1040367Y12840D01*
X1040428Y12759D01*
X1040509Y12658D01*
X1040591Y12546D01*
X1040662Y12434D01*
X1040743Y12322D01*
X1040794Y12221D01*
X1042470Y9000D01*
X1038579D01*
X1036730Y12404D01*
Y12414D01*
X1036720Y12434D01*
X1036699Y12465D01*
X1036669Y12505D01*
X1036608Y12627D01*
X1036527Y12759D01*
X1036425Y12901D01*
X1036323Y13044D01*
X1036212Y13166D01*
X1036161Y13216D01*
X1036110Y13257D01*
X1036090Y13267D01*
X1036049Y13298D01*
X1035968Y13338D01*
X1035866Y13389D01*
X1035734Y13440D01*
X1035592Y13481D01*
X1035429Y13511D01*
X1035257Y13521D01*
X1034962D01*
Y9000D01*
X1031507D01*
Y20145D01*
X1037502D01*
X1037634Y20135D01*
D02*
G37*
G36*
X1064358Y37133D02*
X1064487Y37124D01*
X1064626Y37105D01*
X1064783Y37078D01*
X1064949Y37050D01*
X1065125Y37013D01*
X1065310Y36967D01*
X1065504Y36902D01*
X1065689Y36837D01*
X1065874Y36754D01*
X1066049Y36652D01*
X1066216Y36542D01*
X1066373Y36412D01*
X1066382Y36403D01*
X1066410Y36375D01*
X1066447Y36338D01*
X1066493Y36283D01*
X1066558Y36209D01*
X1066623Y36125D01*
X1066697Y36024D01*
X1066771Y35913D01*
X1066835Y35793D01*
X1066909Y35654D01*
X1066974Y35506D01*
X1067039Y35340D01*
X1067085Y35173D01*
X1067122Y34997D01*
X1067150Y34803D01*
X1067159Y34609D01*
Y34600D01*
Y34572D01*
Y34526D01*
X1067150Y34461D01*
X1067141Y34378D01*
X1067131Y34295D01*
X1067113Y34193D01*
X1067085Y34082D01*
X1067020Y33842D01*
X1066974Y33712D01*
X1066919Y33583D01*
X1066854Y33453D01*
X1066780Y33324D01*
X1066697Y33194D01*
X1066595Y33074D01*
Y33065D01*
X1066577Y33056D01*
X1066530Y33000D01*
X1066438Y32926D01*
X1066318Y32825D01*
X1066170Y32714D01*
X1065975Y32603D01*
X1065754Y32492D01*
X1065504Y32390D01*
X1065513D01*
X1065550Y32381D01*
X1065606Y32362D01*
X1065680Y32344D01*
X1065772Y32307D01*
X1065874Y32270D01*
X1065994Y32233D01*
X1066114Y32178D01*
X1066373Y32057D01*
X1066641Y31900D01*
X1066891Y31706D01*
X1067011Y31604D01*
X1067113Y31484D01*
X1067122Y31475D01*
X1067131Y31456D01*
X1067159Y31419D01*
X1067196Y31373D01*
X1067233Y31308D01*
X1067279Y31235D01*
X1067325Y31142D01*
X1067372Y31050D01*
X1067418Y30939D01*
X1067464Y30809D01*
X1067510Y30680D01*
X1067547Y30541D01*
X1067584Y30393D01*
X1067612Y30227D01*
X1067621Y30060D01*
X1067630Y29885D01*
Y29875D01*
Y29848D01*
Y29811D01*
X1067621Y29755D01*
Y29681D01*
X1067612Y29598D01*
X1067603Y29506D01*
X1067584Y29413D01*
X1067538Y29191D01*
X1067473Y28951D01*
X1067381Y28701D01*
X1067261Y28461D01*
Y28452D01*
X1067242Y28433D01*
X1067224Y28396D01*
X1067196Y28359D01*
X1067159Y28304D01*
X1067113Y28239D01*
X1066992Y28100D01*
X1066854Y27943D01*
X1066678Y27777D01*
X1066484Y27610D01*
X1066253Y27462D01*
X1066234Y27453D01*
X1066179Y27425D01*
X1066142Y27407D01*
X1066087Y27388D01*
X1066031Y27361D01*
X1065957Y27342D01*
X1065883Y27314D01*
X1065791Y27287D01*
X1065698Y27259D01*
X1065587Y27231D01*
X1065476Y27203D01*
X1065347Y27176D01*
X1065217Y27148D01*
X1065069Y27129D01*
X1065060D01*
X1065023Y27120D01*
X1064968D01*
X1064894Y27111D01*
X1064811Y27102D01*
X1064718Y27092D01*
X1064496Y27065D01*
X1064256Y27037D01*
X1064025Y27018D01*
X1063923Y27009D01*
X1063821D01*
X1063738Y27000D01*
X1058255D01*
Y37142D01*
X1064256D01*
X1064358Y37133D01*
D02*
G37*
G36*
X1027690Y27000D02*
X1024546D01*
Y37142D01*
X1027690D01*
Y27000D01*
D02*
G37*
G36*
X1078437Y9000D02*
X1075195D01*
X1071020Y15127D01*
Y9000D01*
X1067779D01*
Y20145D01*
X1070989D01*
X1075195Y13968D01*
Y20145D01*
X1078437D01*
Y9000D01*
D02*
G37*
G36*
X1051441Y27000D02*
X1048492D01*
X1044692Y32575D01*
Y27000D01*
X1041743D01*
Y37142D01*
X1044664D01*
X1048492Y31521D01*
Y37142D01*
X1051441D01*
Y27000D01*
D02*
G37*
G36*
X934896Y20328D02*
X935038D01*
X935221Y20308D01*
X935424Y20298D01*
X935658Y20267D01*
X935902Y20237D01*
X936156Y20186D01*
X936430Y20135D01*
X936705Y20064D01*
X936979Y19983D01*
X937253Y19881D01*
X937517Y19770D01*
X937771Y19638D01*
X938005Y19485D01*
X938015Y19475D01*
X938056Y19445D01*
X938117Y19394D01*
X938208Y19323D01*
X938300Y19231D01*
X938422Y19119D01*
X938543Y18987D01*
X938686Y18835D01*
X938828Y18662D01*
X938980Y18469D01*
X939123Y18256D01*
X939275Y18022D01*
X939417Y17758D01*
X939559Y17484D01*
X939681Y17189D01*
X939803Y16864D01*
X936766Y16193D01*
Y16203D01*
X936755Y16214D01*
X936735Y16275D01*
X936705Y16366D01*
X936664Y16478D01*
X936613Y16600D01*
X936552Y16722D01*
X936491Y16833D01*
X936430Y16935D01*
X936420Y16955D01*
X936379Y16996D01*
X936319Y17067D01*
X936227Y17158D01*
X936125Y17260D01*
X936003Y17362D01*
X935872Y17453D01*
X935719Y17545D01*
X935699Y17555D01*
X935648Y17575D01*
X935556Y17616D01*
X935445Y17656D01*
X935313Y17687D01*
X935150Y17727D01*
X934977Y17748D01*
X934784Y17758D01*
X934734D01*
X934673Y17748D01*
X934591D01*
X934490Y17727D01*
X934378Y17707D01*
X934256Y17677D01*
X934114Y17636D01*
X933971Y17585D01*
X933829Y17524D01*
X933677Y17453D01*
X933524Y17362D01*
X933382Y17250D01*
X933240Y17128D01*
X933108Y16976D01*
X932986Y16813D01*
Y16803D01*
X932966Y16783D01*
X932945Y16742D01*
X932915Y16681D01*
X932874Y16610D01*
X932834Y16508D01*
X932793Y16407D01*
X932752Y16275D01*
X932712Y16132D01*
X932671Y15970D01*
X932630Y15787D01*
X932590Y15584D01*
X932559Y15370D01*
X932539Y15137D01*
X932529Y14883D01*
X932519Y14608D01*
Y14588D01*
Y14527D01*
Y14436D01*
X932529Y14314D01*
X932539Y14161D01*
X932549Y13989D01*
X932570Y13795D01*
X932590Y13602D01*
X932651Y13176D01*
X932752Y12759D01*
X932823Y12556D01*
X932895Y12373D01*
X932976Y12211D01*
X933077Y12068D01*
X933088Y12058D01*
X933108Y12038D01*
X933138Y12007D01*
X933179Y11967D01*
X933240Y11906D01*
X933311Y11855D01*
X933392Y11794D01*
X933484Y11733D01*
X933586Y11662D01*
X933707Y11601D01*
X933839Y11550D01*
X933982Y11499D01*
X934134Y11449D01*
X934297Y11418D01*
X934469Y11398D01*
X934652Y11388D01*
X934744D01*
X934815Y11398D01*
X934896Y11408D01*
X934998Y11418D01*
X935099Y11438D01*
X935211Y11459D01*
X935455Y11520D01*
X935699Y11621D01*
X935821Y11682D01*
X935943Y11753D01*
X936044Y11845D01*
X936146Y11936D01*
X936156Y11946D01*
X936166Y11967D01*
X936197Y11997D01*
X936227Y12038D01*
X936268Y12099D01*
X936319Y12170D01*
X936369Y12251D01*
X936430Y12353D01*
X936491Y12454D01*
X936552Y12576D01*
X936613Y12708D01*
X936674Y12861D01*
X936735Y13013D01*
X936786Y13186D01*
X936837Y13369D01*
X936888Y13562D01*
X939905Y12637D01*
Y12627D01*
X939895Y12576D01*
X939874Y12515D01*
X939844Y12424D01*
X939814Y12312D01*
X939773Y12190D01*
X939722Y12048D01*
X939671Y11896D01*
X939539Y11560D01*
X939367Y11205D01*
X939174Y10849D01*
X938940Y10514D01*
X938930Y10504D01*
X938909Y10473D01*
X938869Y10433D01*
X938828Y10372D01*
X938757Y10301D01*
X938686Y10229D01*
X938594Y10138D01*
X938493Y10036D01*
X938381Y9935D01*
X938259Y9833D01*
X938127Y9721D01*
X937985Y9620D01*
X937660Y9417D01*
X937314Y9234D01*
X937304D01*
X937273Y9213D01*
X937213Y9193D01*
X937141Y9163D01*
X937050Y9132D01*
X936928Y9102D01*
X936796Y9061D01*
X936644Y9020D01*
X936481Y8980D01*
X936288Y8939D01*
X936085Y8909D01*
X935872Y8878D01*
X935638Y8848D01*
X935394Y8827D01*
X935130Y8817D01*
X934855Y8807D01*
X934683D01*
X934551Y8817D01*
X934398Y8827D01*
X934215Y8837D01*
X934022Y8848D01*
X933799Y8878D01*
X933575Y8898D01*
X933332Y8939D01*
X932834Y9031D01*
X932580Y9091D01*
X932336Y9163D01*
X932102Y9244D01*
X931879Y9335D01*
X931868Y9345D01*
X931828Y9366D01*
X931767Y9396D01*
X931685Y9437D01*
X931584Y9498D01*
X931472Y9569D01*
X931340Y9660D01*
X931198Y9762D01*
X931046Y9884D01*
X930893Y10016D01*
X930731Y10168D01*
X930558Y10341D01*
X930385Y10524D01*
X930222Y10727D01*
X930060Y10951D01*
X929897Y11184D01*
X929887Y11205D01*
X929867Y11245D01*
X929816Y11316D01*
X929765Y11428D01*
X929704Y11560D01*
X929633Y11713D01*
X929562Y11896D01*
X929481Y12109D01*
X929399Y12343D01*
X929328Y12607D01*
X929257Y12881D01*
X929196Y13186D01*
X929146Y13511D01*
X929105Y13857D01*
X929074Y14212D01*
X929064Y14598D01*
Y14608D01*
Y14629D01*
Y14669D01*
Y14720D01*
X929074Y14781D01*
Y14862D01*
X929085Y14954D01*
Y15055D01*
X929095Y15167D01*
X929105Y15289D01*
X929146Y15553D01*
X929186Y15848D01*
X929247Y16163D01*
X929328Y16498D01*
X929420Y16854D01*
X929542Y17199D01*
X929684Y17555D01*
X929847Y17900D01*
X930050Y18235D01*
X930273Y18550D01*
X930527Y18845D01*
X930548Y18865D01*
X930598Y18906D01*
X930680Y18987D01*
X930802Y19079D01*
X930954Y19190D01*
X931137Y19323D01*
X931350Y19455D01*
X931604Y19597D01*
X931879Y19729D01*
X932194Y19871D01*
X932539Y19993D01*
X932905Y20105D01*
X933311Y20196D01*
X933738Y20278D01*
X934205Y20318D01*
X934693Y20339D01*
X934835D01*
X934896Y20328D01*
D02*
G37*
G36*
X1049592D02*
X1049765Y20318D01*
X1049958Y20308D01*
X1050172Y20298D01*
X1050385Y20278D01*
X1050619Y20257D01*
X1051076Y20196D01*
X1051299Y20156D01*
X1051513Y20115D01*
X1051706Y20064D01*
X1051889Y20003D01*
X1051899D01*
X1051929Y19983D01*
X1051980Y19973D01*
X1052041Y19942D01*
X1052122Y19902D01*
X1052214Y19861D01*
X1052315Y19810D01*
X1052427Y19749D01*
X1052671Y19597D01*
X1052925Y19424D01*
X1053179Y19211D01*
X1053412Y18957D01*
X1053423Y18947D01*
X1053443Y18926D01*
X1053474Y18886D01*
X1053514Y18835D01*
X1053565Y18764D01*
X1053626Y18683D01*
X1053687Y18581D01*
X1053758Y18469D01*
X1053829Y18347D01*
X1053900Y18215D01*
X1053981Y18073D01*
X1054053Y17910D01*
X1054134Y17748D01*
X1054205Y17565D01*
X1054327Y17179D01*
X1051005Y16589D01*
Y16600D01*
X1050994Y16620D01*
X1050984Y16651D01*
X1050964Y16691D01*
X1050913Y16803D01*
X1050842Y16945D01*
X1050740Y17098D01*
X1050619Y17260D01*
X1050476Y17413D01*
X1050303Y17555D01*
X1050293D01*
X1050283Y17565D01*
X1050253Y17585D01*
X1050212Y17606D01*
X1050172Y17636D01*
X1050110Y17656D01*
X1049968Y17727D01*
X1049785Y17788D01*
X1049572Y17839D01*
X1049328Y17880D01*
X1049054Y17890D01*
X1048942D01*
X1048871Y17880D01*
X1048769Y17870D01*
X1048658Y17849D01*
X1048536Y17819D01*
X1048404Y17788D01*
X1048261Y17748D01*
X1048119Y17697D01*
X1047967Y17636D01*
X1047824Y17555D01*
X1047672Y17463D01*
X1047530Y17362D01*
X1047388Y17240D01*
X1047255Y17098D01*
X1047245Y17087D01*
X1047225Y17057D01*
X1047195Y17016D01*
X1047154Y16945D01*
X1047103Y16864D01*
X1047042Y16762D01*
X1046981Y16630D01*
X1046920Y16488D01*
X1046859Y16325D01*
X1046798Y16142D01*
X1046737Y15939D01*
X1046687Y15716D01*
X1046646Y15472D01*
X1046616Y15208D01*
X1046595Y14913D01*
X1046585Y14608D01*
Y14588D01*
Y14527D01*
Y14436D01*
X1046595Y14314D01*
X1046605Y14161D01*
X1046626Y13989D01*
X1046646Y13806D01*
X1046666Y13602D01*
X1046748Y13176D01*
X1046798Y12962D01*
X1046870Y12749D01*
X1046941Y12546D01*
X1047032Y12353D01*
X1047134Y12170D01*
X1047255Y12018D01*
X1047266Y12007D01*
X1047286Y11987D01*
X1047327Y11946D01*
X1047377Y11896D01*
X1047449Y11835D01*
X1047540Y11774D01*
X1047632Y11703D01*
X1047753Y11631D01*
X1047875Y11560D01*
X1048018Y11489D01*
X1048170Y11428D01*
X1048343Y11367D01*
X1048525Y11316D01*
X1048729Y11276D01*
X1048932Y11256D01*
X1049156Y11245D01*
X1049257D01*
X1049369Y11256D01*
X1049511Y11266D01*
X1049674Y11286D01*
X1049867Y11316D01*
X1050060Y11357D01*
X1050253Y11408D01*
X1050263D01*
X1050273Y11418D01*
X1050303Y11428D01*
X1050344Y11438D01*
X1050395Y11459D01*
X1050456Y11489D01*
X1050598Y11550D01*
X1050781Y11621D01*
X1050984Y11723D01*
X1051218Y11845D01*
X1051462Y11987D01*
Y13044D01*
X1049156D01*
Y15360D01*
X1054479D01*
Y10595D01*
X1054459Y10585D01*
X1054408Y10554D01*
X1054327Y10494D01*
X1054225Y10433D01*
X1054083Y10341D01*
X1053931Y10250D01*
X1053758Y10138D01*
X1053565Y10026D01*
X1053362Y9914D01*
X1053138Y9793D01*
X1052691Y9559D01*
X1052458Y9457D01*
X1052224Y9356D01*
X1051990Y9264D01*
X1051767Y9183D01*
X1051756D01*
X1051716Y9163D01*
X1051645Y9152D01*
X1051563Y9122D01*
X1051452Y9091D01*
X1051309Y9061D01*
X1051157Y9031D01*
X1050984Y9000D01*
X1050791Y8959D01*
X1050578Y8929D01*
X1050344Y8898D01*
X1050100Y8868D01*
X1049836Y8837D01*
X1049562Y8827D01*
X1049277Y8807D01*
X1048790D01*
X1048658Y8817D01*
X1048485Y8827D01*
X1048292Y8848D01*
X1048068Y8868D01*
X1047835Y8888D01*
X1047581Y8929D01*
X1047327Y8970D01*
X1047052Y9020D01*
X1046788Y9091D01*
X1046514Y9163D01*
X1046250Y9254D01*
X1045996Y9356D01*
X1045752Y9477D01*
X1045742Y9488D01*
X1045701Y9508D01*
X1045630Y9549D01*
X1045549Y9610D01*
X1045437Y9681D01*
X1045325Y9762D01*
X1045183Y9864D01*
X1045041Y9985D01*
X1044888Y10118D01*
X1044726Y10270D01*
X1044563Y10433D01*
X1044411Y10615D01*
X1044248Y10809D01*
X1044096Y11022D01*
X1043943Y11245D01*
X1043811Y11489D01*
X1043801Y11509D01*
X1043781Y11550D01*
X1043750Y11621D01*
X1043710Y11723D01*
X1043649Y11855D01*
X1043598Y12007D01*
X1043537Y12180D01*
X1043476Y12373D01*
X1043405Y12597D01*
X1043344Y12830D01*
X1043293Y13084D01*
X1043242Y13359D01*
X1043192Y13643D01*
X1043161Y13938D01*
X1043141Y14243D01*
X1043131Y14568D01*
Y14578D01*
Y14588D01*
Y14649D01*
X1043141Y14751D01*
Y14872D01*
X1043151Y15035D01*
X1043171Y15218D01*
X1043192Y15421D01*
X1043222Y15655D01*
X1043263Y15889D01*
X1043314Y16142D01*
X1043374Y16407D01*
X1043446Y16681D01*
X1043537Y16945D01*
X1043639Y17219D01*
X1043750Y17484D01*
X1043882Y17738D01*
X1043893Y17758D01*
X1043913Y17799D01*
X1043964Y17870D01*
X1044025Y17961D01*
X1044106Y18073D01*
X1044197Y18205D01*
X1044309Y18347D01*
X1044441Y18500D01*
X1044584Y18662D01*
X1044756Y18835D01*
X1044929Y19008D01*
X1045132Y19170D01*
X1045346Y19343D01*
X1045579Y19505D01*
X1045823Y19648D01*
X1046087Y19790D01*
X1046097Y19800D01*
X1046138Y19810D01*
X1046209Y19841D01*
X1046290Y19871D01*
X1046412Y19922D01*
X1046544Y19963D01*
X1046707Y20013D01*
X1046890Y20064D01*
X1047103Y20115D01*
X1047327Y20166D01*
X1047581Y20217D01*
X1047845Y20257D01*
X1048139Y20288D01*
X1048454Y20318D01*
X1048790Y20328D01*
X1049135Y20339D01*
X1049440D01*
X1049592Y20328D01*
D02*
G37*
G36*
X1012360Y34979D02*
X1007100D01*
Y33361D01*
X1011972D01*
Y31290D01*
X1007100D01*
Y29293D01*
X1012508D01*
Y27000D01*
X1003956D01*
Y37142D01*
X1012360D01*
Y34979D01*
D02*
G37*
G36*
X997882Y37133D02*
X997993D01*
X998131Y37124D01*
X998279Y37115D01*
X998446Y37096D01*
X998621Y37078D01*
X998797Y37050D01*
X999167Y36985D01*
X999537Y36893D01*
X999703Y36828D01*
X999870Y36763D01*
X999879D01*
X999906Y36745D01*
X999953Y36726D01*
X1000008Y36699D01*
X1000082Y36652D01*
X1000165Y36606D01*
X1000258Y36551D01*
X1000369Y36495D01*
X1000591Y36338D01*
X1000822Y36153D01*
X1001053Y35940D01*
X1001275Y35691D01*
X1001284Y35682D01*
X1001302Y35663D01*
X1001330Y35617D01*
X1001367Y35571D01*
X1001413Y35506D01*
X1001460Y35423D01*
X1001524Y35330D01*
X1001580Y35229D01*
X1001645Y35118D01*
X1001719Y34988D01*
X1001783Y34859D01*
X1001848Y34711D01*
X1001977Y34406D01*
X1002079Y34064D01*
Y34054D01*
X1002088Y34027D01*
X1002107Y33971D01*
X1002116Y33907D01*
X1002135Y33814D01*
X1002162Y33712D01*
X1002181Y33601D01*
X1002209Y33472D01*
X1002227Y33333D01*
X1002246Y33176D01*
X1002273Y33019D01*
X1002292Y32843D01*
X1002320Y32483D01*
X1002329Y32104D01*
Y32085D01*
Y32030D01*
Y31946D01*
X1002320Y31835D01*
Y31697D01*
X1002310Y31540D01*
X1002301Y31364D01*
X1002283Y31179D01*
X1002264Y30976D01*
X1002236Y30772D01*
X1002172Y30356D01*
X1002125Y30143D01*
X1002079Y29949D01*
X1002014Y29755D01*
X1001950Y29580D01*
Y29570D01*
X1001931Y29543D01*
X1001913Y29496D01*
X1001885Y29432D01*
X1001848Y29358D01*
X1001802Y29265D01*
X1001746Y29163D01*
X1001682Y29053D01*
X1001534Y28821D01*
X1001358Y28563D01*
X1001155Y28313D01*
X1000923Y28073D01*
X1000914Y28063D01*
X1000896Y28045D01*
X1000859Y28017D01*
X1000813Y27980D01*
X1000748Y27925D01*
X1000674Y27869D01*
X1000591Y27814D01*
X1000498Y27749D01*
X1000295Y27610D01*
X1000054Y27481D01*
X999796Y27361D01*
X999657Y27314D01*
X999518Y27268D01*
X999509D01*
X999472Y27259D01*
X999416Y27240D01*
X999342Y27231D01*
X999250Y27203D01*
X999148Y27185D01*
X999028Y27157D01*
X998899Y27139D01*
X998760Y27111D01*
X998603Y27083D01*
X998298Y27046D01*
X997974Y27009D01*
X997651Y27000D01*
X993000D01*
Y37142D01*
X997780D01*
X997882Y37133D01*
D02*
G37*
G36*
X993733Y9000D02*
X990492D01*
X986316Y15127D01*
Y9000D01*
X983075D01*
Y20145D01*
X986285D01*
X990492Y13968D01*
Y20145D01*
X993733D01*
Y9000D01*
D02*
G37*
G36*
X1018656Y37309D02*
X1018814Y37300D01*
X1018999Y37281D01*
X1019211Y37253D01*
X1019433Y37226D01*
X1019664Y37189D01*
X1019905Y37142D01*
X1020154Y37078D01*
X1020404Y37013D01*
X1020644Y36930D01*
X1020875Y36828D01*
X1021088Y36717D01*
X1021292Y36588D01*
X1021301Y36578D01*
X1021338Y36551D01*
X1021384Y36514D01*
X1021458Y36449D01*
X1021532Y36375D01*
X1021624Y36273D01*
X1021726Y36162D01*
X1021828Y36033D01*
X1021939Y35876D01*
X1022040Y35709D01*
X1022142Y35524D01*
X1022244Y35312D01*
X1022327Y35090D01*
X1022401Y34840D01*
X1022466Y34572D01*
X1022512Y34286D01*
X1019563Y34119D01*
Y34128D01*
X1019553Y34147D01*
Y34184D01*
X1019535Y34230D01*
X1019526Y34286D01*
X1019507Y34350D01*
X1019452Y34498D01*
X1019387Y34665D01*
X1019304Y34831D01*
X1019193Y34988D01*
X1019063Y35118D01*
X1019045Y35127D01*
X1018999Y35164D01*
X1018906Y35219D01*
X1018795Y35275D01*
X1018638Y35330D01*
X1018462Y35386D01*
X1018259Y35423D01*
X1018019Y35432D01*
X1017926D01*
X1017834Y35423D01*
X1017713Y35404D01*
X1017575Y35377D01*
X1017445Y35330D01*
X1017307Y35275D01*
X1017196Y35192D01*
X1017187Y35182D01*
X1017150Y35155D01*
X1017113Y35099D01*
X1017057Y35034D01*
X1017011Y34951D01*
X1016965Y34859D01*
X1016928Y34748D01*
X1016918Y34628D01*
Y34618D01*
Y34591D01*
X1016928Y34544D01*
X1016946Y34480D01*
X1016974Y34415D01*
X1017011Y34341D01*
X1017066Y34267D01*
X1017140Y34193D01*
X1017150Y34184D01*
X1017187Y34156D01*
X1017260Y34119D01*
X1017307Y34101D01*
X1017362Y34073D01*
X1017427Y34045D01*
X1017501Y34017D01*
X1017584Y33980D01*
X1017686Y33953D01*
X1017787Y33916D01*
X1017917Y33888D01*
X1018046Y33851D01*
X1018194Y33823D01*
X1018204D01*
X1018222Y33814D01*
X1018250D01*
X1018287Y33805D01*
X1018333Y33795D01*
X1018388Y33777D01*
X1018527Y33749D01*
X1018703Y33703D01*
X1018897Y33657D01*
X1019110Y33601D01*
X1019341Y33546D01*
X1019572Y33481D01*
X1019821Y33407D01*
X1020312Y33250D01*
X1020543Y33176D01*
X1020764Y33093D01*
X1020968Y33000D01*
X1021144Y32917D01*
X1021153Y32908D01*
X1021181Y32899D01*
X1021227Y32871D01*
X1021292Y32834D01*
X1021366Y32788D01*
X1021449Y32741D01*
X1021643Y32603D01*
X1021846Y32446D01*
X1022068Y32252D01*
X1022262Y32030D01*
X1022355Y31909D01*
X1022438Y31789D01*
X1022447Y31780D01*
X1022457Y31762D01*
X1022475Y31725D01*
X1022503Y31669D01*
X1022530Y31614D01*
X1022567Y31540D01*
X1022604Y31447D01*
X1022641Y31355D01*
X1022678Y31244D01*
X1022715Y31133D01*
X1022780Y30874D01*
X1022826Y30596D01*
X1022845Y30449D01*
Y30291D01*
Y30282D01*
Y30245D01*
Y30199D01*
X1022835Y30125D01*
X1022826Y30042D01*
X1022817Y29940D01*
X1022799Y29829D01*
X1022780Y29700D01*
X1022752Y29570D01*
X1022715Y29432D01*
X1022669Y29274D01*
X1022614Y29127D01*
X1022549Y28969D01*
X1022484Y28812D01*
X1022392Y28655D01*
X1022299Y28498D01*
X1022290Y28489D01*
X1022272Y28461D01*
X1022244Y28424D01*
X1022198Y28359D01*
X1022142Y28294D01*
X1022077Y28211D01*
X1022003Y28128D01*
X1021911Y28036D01*
X1021809Y27934D01*
X1021698Y27832D01*
X1021569Y27730D01*
X1021440Y27629D01*
X1021292Y27527D01*
X1021134Y27425D01*
X1020968Y27333D01*
X1020792Y27250D01*
X1020783D01*
X1020746Y27231D01*
X1020691Y27213D01*
X1020617Y27185D01*
X1020524Y27148D01*
X1020404Y27111D01*
X1020275Y27074D01*
X1020127Y27037D01*
X1019951Y27000D01*
X1019766Y26963D01*
X1019572Y26926D01*
X1019350Y26889D01*
X1019119Y26861D01*
X1018878Y26843D01*
X1018620Y26834D01*
X1018351Y26824D01*
X1018176D01*
X1018102Y26834D01*
X1018028D01*
X1017935Y26843D01*
X1017723Y26852D01*
X1017482Y26880D01*
X1017214Y26907D01*
X1016937Y26944D01*
X1016641Y27000D01*
X1016336Y27065D01*
X1016040Y27148D01*
X1015744Y27240D01*
X1015467Y27351D01*
X1015208Y27490D01*
X1014967Y27638D01*
X1014866Y27721D01*
X1014764Y27814D01*
X1014755Y27823D01*
X1014718Y27860D01*
X1014672Y27915D01*
X1014607Y27998D01*
X1014533Y28091D01*
X1014441Y28211D01*
X1014348Y28350D01*
X1014256Y28507D01*
X1014154Y28683D01*
X1014052Y28868D01*
X1013960Y29080D01*
X1013877Y29302D01*
X1013793Y29543D01*
X1013729Y29801D01*
X1013682Y30069D01*
X1013645Y30347D01*
X1016622Y30541D01*
Y30532D01*
X1016632Y30513D01*
Y30467D01*
X1016641Y30421D01*
X1016650Y30356D01*
X1016669Y30291D01*
X1016706Y30125D01*
X1016761Y29949D01*
X1016826Y29764D01*
X1016909Y29580D01*
X1017011Y29422D01*
X1017020Y29413D01*
X1017029Y29395D01*
X1017066Y29367D01*
X1017103Y29330D01*
X1017150Y29284D01*
X1017214Y29228D01*
X1017288Y29173D01*
X1017371Y29117D01*
X1017464Y29062D01*
X1017566Y29006D01*
X1017676Y28951D01*
X1017806Y28905D01*
X1017935Y28868D01*
X1018083Y28840D01*
X1018231Y28821D01*
X1018398Y28812D01*
X1018462D01*
X1018509Y28821D01*
X1018564D01*
X1018629Y28831D01*
X1018777Y28849D01*
X1018943Y28886D01*
X1019119Y28942D01*
X1019285Y29025D01*
X1019433Y29127D01*
X1019452Y29145D01*
X1019489Y29182D01*
X1019553Y29247D01*
X1019618Y29339D01*
X1019683Y29441D01*
X1019747Y29570D01*
X1019784Y29709D01*
X1019803Y29857D01*
Y29875D01*
X1019794Y29922D01*
X1019784Y29996D01*
X1019757Y30088D01*
X1019720Y30199D01*
X1019655Y30319D01*
X1019572Y30439D01*
X1019452Y30560D01*
X1019433Y30578D01*
X1019415Y30587D01*
X1019378Y30615D01*
X1019332Y30643D01*
X1019276Y30670D01*
X1019202Y30707D01*
X1019119Y30754D01*
X1019017Y30800D01*
X1018906Y30846D01*
X1018777Y30892D01*
X1018629Y30939D01*
X1018462Y30994D01*
X1018278Y31050D01*
X1018065Y31096D01*
X1017843Y31151D01*
X1017834D01*
X1017824Y31161D01*
X1017787D01*
X1017750Y31170D01*
X1017704Y31188D01*
X1017649Y31198D01*
X1017510Y31235D01*
X1017334Y31281D01*
X1017140Y31336D01*
X1016928Y31401D01*
X1016706Y31475D01*
X1016465Y31558D01*
X1016216Y31651D01*
X1015735Y31863D01*
X1015504Y31983D01*
X1015282Y32104D01*
X1015079Y32242D01*
X1014903Y32381D01*
X1014894Y32390D01*
X1014866Y32418D01*
X1014820Y32464D01*
X1014764Y32520D01*
X1014699Y32594D01*
X1014625Y32686D01*
X1014542Y32797D01*
X1014468Y32917D01*
X1014385Y33047D01*
X1014302Y33194D01*
X1014228Y33361D01*
X1014163Y33527D01*
X1014108Y33721D01*
X1014062Y33916D01*
X1014034Y34119D01*
X1014025Y34341D01*
Y34350D01*
Y34378D01*
Y34415D01*
X1014034Y34470D01*
X1014043Y34544D01*
X1014052Y34628D01*
X1014062Y34720D01*
X1014080Y34822D01*
X1014135Y35044D01*
X1014219Y35293D01*
X1014265Y35423D01*
X1014330Y35561D01*
X1014394Y35691D01*
X1014477Y35820D01*
X1014487Y35830D01*
X1014496Y35848D01*
X1014524Y35885D01*
X1014561Y35931D01*
X1014607Y35996D01*
X1014672Y36061D01*
X1014736Y36135D01*
X1014820Y36218D01*
X1014912Y36301D01*
X1015005Y36393D01*
X1015125Y36486D01*
X1015245Y36569D01*
X1015374Y36662D01*
X1015522Y36754D01*
X1015670Y36837D01*
X1015837Y36911D01*
X1015846Y36920D01*
X1015883Y36930D01*
X1015929Y36948D01*
X1016003Y36976D01*
X1016096Y37004D01*
X1016207Y37041D01*
X1016336Y37078D01*
X1016493Y37115D01*
X1016659Y37152D01*
X1016844Y37189D01*
X1017048Y37226D01*
X1017270Y37253D01*
X1017510Y37281D01*
X1017769Y37300D01*
X1018046Y37318D01*
X1018518D01*
X1018656Y37309D01*
D02*
G37*
G36*
X1035419D02*
X1035576Y37300D01*
X1035752Y37290D01*
X1035946Y37281D01*
X1036140Y37263D01*
X1036353Y37244D01*
X1036769Y37189D01*
X1036972Y37152D01*
X1037166Y37115D01*
X1037342Y37069D01*
X1037508Y37013D01*
X1037518D01*
X1037545Y36995D01*
X1037591Y36985D01*
X1037647Y36957D01*
X1037721Y36920D01*
X1037804Y36883D01*
X1037897Y36837D01*
X1037998Y36782D01*
X1038220Y36643D01*
X1038451Y36486D01*
X1038682Y36292D01*
X1038895Y36061D01*
X1038904Y36051D01*
X1038923Y36033D01*
X1038951Y35996D01*
X1038988Y35950D01*
X1039034Y35885D01*
X1039089Y35811D01*
X1039145Y35719D01*
X1039210Y35617D01*
X1039274Y35506D01*
X1039339Y35386D01*
X1039413Y35256D01*
X1039478Y35108D01*
X1039552Y34960D01*
X1039616Y34794D01*
X1039727Y34443D01*
X1036704Y33907D01*
Y33916D01*
X1036695Y33934D01*
X1036685Y33962D01*
X1036667Y33999D01*
X1036621Y34101D01*
X1036556Y34230D01*
X1036464Y34369D01*
X1036353Y34517D01*
X1036223Y34655D01*
X1036066Y34785D01*
X1036057D01*
X1036048Y34794D01*
X1036020Y34813D01*
X1035983Y34831D01*
X1035946Y34859D01*
X1035890Y34877D01*
X1035761Y34942D01*
X1035594Y34997D01*
X1035400Y35044D01*
X1035178Y35081D01*
X1034929Y35090D01*
X1034827D01*
X1034762Y35081D01*
X1034670Y35071D01*
X1034568Y35053D01*
X1034457Y35025D01*
X1034337Y34997D01*
X1034208Y34960D01*
X1034078Y34914D01*
X1033940Y34859D01*
X1033810Y34785D01*
X1033671Y34702D01*
X1033542Y34609D01*
X1033412Y34498D01*
X1033292Y34369D01*
X1033283Y34360D01*
X1033265Y34332D01*
X1033237Y34295D01*
X1033200Y34230D01*
X1033154Y34156D01*
X1033098Y34064D01*
X1033043Y33943D01*
X1032987Y33814D01*
X1032932Y33666D01*
X1032876Y33500D01*
X1032821Y33315D01*
X1032775Y33111D01*
X1032738Y32889D01*
X1032710Y32649D01*
X1032691Y32381D01*
X1032682Y32104D01*
Y32085D01*
Y32030D01*
Y31946D01*
X1032691Y31835D01*
X1032701Y31697D01*
X1032719Y31540D01*
X1032738Y31373D01*
X1032756Y31188D01*
X1032830Y30800D01*
X1032876Y30606D01*
X1032941Y30412D01*
X1033006Y30227D01*
X1033089Y30051D01*
X1033181Y29885D01*
X1033292Y29746D01*
X1033302Y29737D01*
X1033320Y29718D01*
X1033357Y29681D01*
X1033403Y29635D01*
X1033468Y29580D01*
X1033551Y29524D01*
X1033634Y29459D01*
X1033745Y29395D01*
X1033856Y29330D01*
X1033986Y29265D01*
X1034124Y29210D01*
X1034282Y29154D01*
X1034448Y29108D01*
X1034633Y29071D01*
X1034818Y29053D01*
X1035021Y29043D01*
X1035114D01*
X1035215Y29053D01*
X1035345Y29062D01*
X1035493Y29080D01*
X1035668Y29108D01*
X1035844Y29145D01*
X1036020Y29191D01*
X1036029D01*
X1036038Y29200D01*
X1036066Y29210D01*
X1036103Y29219D01*
X1036149Y29237D01*
X1036205Y29265D01*
X1036334Y29321D01*
X1036500Y29385D01*
X1036685Y29478D01*
X1036898Y29589D01*
X1037120Y29718D01*
Y30680D01*
X1035021D01*
Y32788D01*
X1039866D01*
Y28452D01*
X1039847Y28442D01*
X1039801Y28415D01*
X1039727Y28359D01*
X1039635Y28304D01*
X1039505Y28220D01*
X1039367Y28137D01*
X1039210Y28036D01*
X1039034Y27934D01*
X1038849Y27832D01*
X1038645Y27721D01*
X1038239Y27508D01*
X1038026Y27416D01*
X1037813Y27324D01*
X1037601Y27240D01*
X1037397Y27166D01*
X1037388D01*
X1037351Y27148D01*
X1037286Y27139D01*
X1037213Y27111D01*
X1037111Y27083D01*
X1036981Y27055D01*
X1036843Y27028D01*
X1036685Y27000D01*
X1036510Y26963D01*
X1036316Y26935D01*
X1036103Y26907D01*
X1035881Y26880D01*
X1035641Y26852D01*
X1035391Y26843D01*
X1035132Y26824D01*
X1034688D01*
X1034568Y26834D01*
X1034411Y26843D01*
X1034235Y26861D01*
X1034032Y26880D01*
X1033819Y26898D01*
X1033588Y26935D01*
X1033357Y26972D01*
X1033107Y27018D01*
X1032867Y27083D01*
X1032617Y27148D01*
X1032377Y27231D01*
X1032146Y27324D01*
X1031924Y27434D01*
X1031915Y27444D01*
X1031878Y27462D01*
X1031813Y27499D01*
X1031739Y27555D01*
X1031637Y27620D01*
X1031536Y27693D01*
X1031406Y27786D01*
X1031277Y27897D01*
X1031138Y28017D01*
X1030990Y28156D01*
X1030842Y28304D01*
X1030704Y28470D01*
X1030556Y28646D01*
X1030417Y28840D01*
X1030278Y29043D01*
X1030158Y29265D01*
X1030149Y29284D01*
X1030130Y29321D01*
X1030103Y29385D01*
X1030066Y29478D01*
X1030010Y29598D01*
X1029964Y29737D01*
X1029908Y29894D01*
X1029853Y30069D01*
X1029788Y30273D01*
X1029733Y30486D01*
X1029687Y30717D01*
X1029640Y30966D01*
X1029594Y31225D01*
X1029566Y31493D01*
X1029548Y31771D01*
X1029539Y32067D01*
Y32076D01*
Y32085D01*
Y32141D01*
X1029548Y32233D01*
Y32344D01*
X1029557Y32492D01*
X1029576Y32658D01*
X1029594Y32843D01*
X1029622Y33056D01*
X1029659Y33268D01*
X1029705Y33500D01*
X1029761Y33740D01*
X1029825Y33990D01*
X1029908Y34230D01*
X1030001Y34480D01*
X1030103Y34720D01*
X1030223Y34951D01*
X1030232Y34970D01*
X1030250Y35007D01*
X1030297Y35071D01*
X1030352Y35155D01*
X1030426Y35256D01*
X1030509Y35377D01*
X1030611Y35506D01*
X1030731Y35645D01*
X1030861Y35793D01*
X1031018Y35950D01*
X1031175Y36107D01*
X1031360Y36255D01*
X1031554Y36412D01*
X1031767Y36560D01*
X1031989Y36689D01*
X1032229Y36819D01*
X1032238Y36828D01*
X1032275Y36837D01*
X1032340Y36865D01*
X1032414Y36893D01*
X1032525Y36939D01*
X1032645Y36976D01*
X1032793Y37022D01*
X1032960Y37069D01*
X1033154Y37115D01*
X1033357Y37161D01*
X1033588Y37207D01*
X1033829Y37244D01*
X1034097Y37272D01*
X1034383Y37300D01*
X1034688Y37309D01*
X1035003Y37318D01*
X1035280D01*
X1035419Y37309D01*
D02*
G37*
G36*
X175937Y10000D02*
X173089D01*
Y16759D01*
X173080Y16749D01*
X173061Y16740D01*
X173024Y16712D01*
X172969Y16675D01*
X172913Y16629D01*
X172839Y16574D01*
X172756Y16518D01*
X172663Y16453D01*
X172460Y16324D01*
X172229Y16176D01*
X171989Y16037D01*
X171748Y15908D01*
X171739D01*
X171721Y15890D01*
X171684Y15880D01*
X171628Y15853D01*
X171572Y15825D01*
X171489Y15788D01*
X171406Y15751D01*
X171304Y15714D01*
X171194Y15668D01*
X171073Y15612D01*
X170935Y15566D01*
X170796Y15510D01*
X170639Y15455D01*
X170481Y15399D01*
X170130Y15288D01*
Y17600D01*
X170149Y17609D01*
X170195Y17618D01*
X170269Y17646D01*
X170371Y17683D01*
X170491Y17729D01*
X170630Y17785D01*
X170777Y17840D01*
X170944Y17914D01*
X171119Y17988D01*
X171304Y18071D01*
X171674Y18266D01*
X172035Y18478D01*
X172201Y18589D01*
X172358Y18709D01*
X172368Y18719D01*
X172395Y18737D01*
X172432Y18774D01*
X172488Y18830D01*
X172553Y18885D01*
X172636Y18968D01*
X172719Y19051D01*
X172811Y19153D01*
X172913Y19264D01*
X173015Y19384D01*
X173116Y19523D01*
X173218Y19662D01*
X173320Y19810D01*
X173422Y19976D01*
X173607Y20318D01*
X175937D01*
Y10000D01*
D02*
G37*
G36*
X1065747Y17768D02*
X1059966D01*
Y15990D01*
X1065320D01*
Y13714D01*
X1059966D01*
Y11520D01*
X1065909D01*
Y9000D01*
X1056511D01*
Y20145D01*
X1065747D01*
Y17768D01*
D02*
G37*
G36*
X165221Y10000D02*
X161828D01*
X158000Y20142D01*
X161273D01*
X163557Y12838D01*
X165812Y20142D01*
X168993D01*
X165221Y10000D01*
D02*
G37*
G36*
X927175Y9000D02*
X923933D01*
X919758Y15127D01*
Y9000D01*
X916517D01*
Y20145D01*
X919727D01*
X923933Y13968D01*
Y20145D01*
X927175D01*
Y9000D01*
D02*
G37*
G36*
X1075332Y31244D02*
Y27000D01*
X1072189D01*
Y31244D01*
X1068241Y37142D01*
X1071717D01*
X1073760Y33721D01*
X1075804Y37142D01*
X1079271D01*
X1075332Y31244D01*
D02*
G37*
%LPC*%
G36*
X946875Y17727D02*
X946773D01*
X946702Y17717D01*
X946611Y17707D01*
X946509Y17687D01*
X946397Y17666D01*
X946275Y17636D01*
X946143Y17595D01*
X946011Y17545D01*
X945879Y17484D01*
X945737Y17413D01*
X945595Y17331D01*
X945462Y17230D01*
X945330Y17118D01*
X945209Y16986D01*
X945198Y16976D01*
X945178Y16955D01*
X945147Y16904D01*
X945107Y16844D01*
X945066Y16762D01*
X945005Y16661D01*
X944955Y16539D01*
X944893Y16407D01*
X944833Y16244D01*
X944782Y16061D01*
X944721Y15868D01*
X944680Y15645D01*
X944640Y15401D01*
X944609Y15137D01*
X944589Y14852D01*
X944579Y14547D01*
Y14527D01*
Y14476D01*
Y14385D01*
X944589Y14273D01*
X944599Y14131D01*
X944609Y13978D01*
X944629Y13795D01*
X944660Y13613D01*
X944731Y13216D01*
X944782Y13013D01*
X944843Y12810D01*
X944914Y12617D01*
X944995Y12434D01*
X945087Y12271D01*
X945198Y12119D01*
X945209Y12109D01*
X945229Y12089D01*
X945259Y12048D01*
X945310Y12007D01*
X945381Y11946D01*
X945452Y11885D01*
X945544Y11825D01*
X945645Y11753D01*
X945767Y11682D01*
X945889Y11621D01*
X946031Y11560D01*
X946184Y11499D01*
X946346Y11459D01*
X946519Y11418D01*
X946712Y11398D01*
X946905Y11388D01*
X947007D01*
X947088Y11398D01*
X947179Y11408D01*
X947291Y11428D01*
X947403Y11449D01*
X947535Y11479D01*
X947667Y11520D01*
X947810Y11560D01*
X947952Y11621D01*
X948094Y11692D01*
X948236Y11774D01*
X948378Y11875D01*
X948500Y11987D01*
X948622Y12109D01*
X948632Y12119D01*
X948653Y12139D01*
X948683Y12190D01*
X948714Y12251D01*
X948764Y12333D01*
X948815Y12434D01*
X948866Y12556D01*
X948927Y12708D01*
X948988Y12871D01*
X949039Y13054D01*
X949090Y13267D01*
X949140Y13511D01*
X949171Y13765D01*
X949201Y14050D01*
X949222Y14365D01*
X949232Y14700D01*
Y14720D01*
Y14771D01*
Y14852D01*
X949222Y14954D01*
X949212Y15086D01*
X949201Y15238D01*
X949181Y15401D01*
X949151Y15574D01*
X949080Y15949D01*
X949029Y16142D01*
X948958Y16336D01*
X948886Y16518D01*
X948805Y16691D01*
X948704Y16854D01*
X948592Y16996D01*
X948582Y17006D01*
X948561Y17026D01*
X948531Y17067D01*
X948480Y17108D01*
X948409Y17169D01*
X948338Y17230D01*
X948246Y17291D01*
X948145Y17362D01*
X948023Y17433D01*
X947901Y17494D01*
X947759Y17555D01*
X947606Y17616D01*
X947433Y17656D01*
X947261Y17697D01*
X947078Y17717D01*
X946875Y17727D01*
D02*
G37*
G36*
X891625Y13653D02*
X889725D01*
Y11398D01*
X891553D01*
X891615Y11408D01*
X891696D01*
X891777Y11418D01*
X891970Y11438D01*
X892173Y11479D01*
X892376Y11530D01*
X892570Y11611D01*
X892661Y11662D01*
X892732Y11713D01*
X892752Y11723D01*
X892793Y11774D01*
X892844Y11845D01*
X892915Y11936D01*
X892986Y12058D01*
X893037Y12200D01*
X893077Y12373D01*
X893098Y12556D01*
Y12566D01*
Y12576D01*
X893088Y12637D01*
X893077Y12729D01*
X893057Y12840D01*
X893006Y12962D01*
X892945Y13095D01*
X892854Y13227D01*
X892732Y13348D01*
X892712Y13359D01*
X892661Y13399D01*
X892570Y13450D01*
X892509Y13470D01*
X892438Y13501D01*
X892356Y13531D01*
X892265Y13562D01*
X892153Y13582D01*
X892041Y13602D01*
X891919Y13623D01*
X891777Y13643D01*
X891625Y13653D01*
D02*
G37*
G36*
X891381Y17890D02*
X889725D01*
Y15777D01*
X891350D01*
X891411Y15787D01*
X891493D01*
X891655Y15807D01*
X891848Y15848D01*
X892031Y15889D01*
X892194Y15960D01*
X892275Y16000D01*
X892336Y16051D01*
X892346Y16061D01*
X892387Y16102D01*
X892438Y16163D01*
X892498Y16254D01*
X892559Y16366D01*
X892610Y16508D01*
X892651Y16671D01*
X892661Y16854D01*
Y16864D01*
Y16874D01*
Y16935D01*
X892641Y17026D01*
X892620Y17128D01*
X892580Y17250D01*
X892529Y17382D01*
X892448Y17504D01*
X892336Y17616D01*
X892326Y17626D01*
X892275Y17656D01*
X892194Y17707D01*
X892082Y17758D01*
X891929Y17799D01*
X891736Y17849D01*
X891635Y17870D01*
X891513Y17880D01*
X891381Y17890D01*
D02*
G37*
G36*
X107071Y20101D02*
X105765D01*
X104795Y17269D01*
X105858D01*
X105939Y17281D01*
X106031D01*
X106147Y17292D01*
X106262Y17304D01*
X106390Y17316D01*
X106667Y17362D01*
X106956Y17431D01*
X107233Y17535D01*
X107360Y17593D01*
X107476Y17662D01*
X107487D01*
X107499Y17685D01*
X107568Y17732D01*
X107672Y17824D01*
X107800Y17940D01*
X107938Y18078D01*
X108065Y18252D01*
X108192Y18448D01*
X108285Y18668D01*
Y18679D01*
X108296Y18691D01*
Y18726D01*
X108308Y18772D01*
X108331Y18876D01*
X108354Y19026D01*
Y19176D01*
X108343Y19350D01*
X108308Y19523D01*
X108227Y19685D01*
X108216Y19708D01*
X108169Y19754D01*
X108088Y19812D01*
X108031Y19858D01*
X107961Y19893D01*
X107880Y19928D01*
X107788Y19974D01*
X107672Y20008D01*
X107545Y20031D01*
X107407Y20066D01*
X107245Y20078D01*
X107071Y20101D01*
D02*
G37*
G36*
X148076Y20124D02*
X146146D01*
X145267Y17535D01*
X146978D01*
X147047Y17547D01*
X147163Y17558D01*
X147313Y17581D01*
X147509Y17605D01*
X147613Y17628D01*
X147740Y17651D01*
X147879Y17674D01*
X148029Y17708D01*
X148053D01*
X148099Y17720D01*
X148180Y17743D01*
X148284Y17789D01*
X148399Y17836D01*
X148526Y17905D01*
X148665Y17997D01*
X148792Y18102D01*
X148804Y18113D01*
X148850Y18159D01*
X148919Y18229D01*
X148989Y18321D01*
X149070Y18425D01*
X149162Y18552D01*
X149231Y18691D01*
X149301Y18841D01*
Y18853D01*
X149312Y18864D01*
X149324Y18899D01*
Y18945D01*
X149347Y19049D01*
X149370Y19188D01*
Y19338D01*
X149359Y19500D01*
X149312Y19650D01*
X149231Y19789D01*
X149220Y19800D01*
X149174Y19847D01*
X149093Y19893D01*
X149023Y19928D01*
X148954Y19962D01*
X148873Y19985D01*
X148781Y20020D01*
X148665Y20043D01*
X148549Y20078D01*
X148399Y20089D01*
X148249Y20112D01*
X148076Y20124D01*
D02*
G37*
G36*
X1000367Y17626D02*
X999514D01*
Y11530D01*
X1000530D01*
X1000621Y11540D01*
X1000723D01*
X1000835Y11550D01*
X1000956Y11560D01*
X1001200Y11591D01*
X1001454Y11631D01*
X1001698Y11682D01*
X1001800Y11723D01*
X1001891Y11763D01*
X1001901D01*
X1001911Y11774D01*
X1001962Y11814D01*
X1002054Y11875D01*
X1002155Y11957D01*
X1002267Y12078D01*
X1002389Y12221D01*
X1002501Y12393D01*
X1002602Y12597D01*
Y12607D01*
X1002613Y12627D01*
X1002623Y12658D01*
X1002643Y12708D01*
X1002663Y12780D01*
X1002684Y12861D01*
X1002714Y12952D01*
X1002734Y13064D01*
X1002755Y13196D01*
X1002785Y13338D01*
X1002805Y13491D01*
X1002826Y13674D01*
X1002846Y13857D01*
X1002856Y14070D01*
X1002867Y14293D01*
Y14537D01*
Y14547D01*
Y14557D01*
Y14619D01*
Y14710D01*
X1002856Y14822D01*
X1002846Y14974D01*
X1002836Y15137D01*
X1002816Y15319D01*
X1002795Y15513D01*
X1002724Y15909D01*
X1002684Y16112D01*
X1002623Y16315D01*
X1002551Y16498D01*
X1002480Y16671D01*
X1002389Y16833D01*
X1002287Y16965D01*
X1002277Y16976D01*
X1002257Y16996D01*
X1002226Y17026D01*
X1002176Y17067D01*
X1002115Y17118D01*
X1002033Y17179D01*
X1001942Y17230D01*
X1001830Y17301D01*
X1001708Y17362D01*
X1001566Y17413D01*
X1001404Y17473D01*
X1001231Y17524D01*
X1001038Y17565D01*
X1000835Y17595D01*
X1000611Y17616D01*
X1000367Y17626D01*
D02*
G37*
G36*
X1013504Y13653D02*
X1011604D01*
Y11398D01*
X1013433D01*
X1013494Y11408D01*
X1013575D01*
X1013656Y11418D01*
X1013849Y11438D01*
X1014053Y11479D01*
X1014256Y11530D01*
X1014449Y11611D01*
X1014540Y11662D01*
X1014612Y11713D01*
X1014632Y11723D01*
X1014672Y11774D01*
X1014723Y11845D01*
X1014794Y11936D01*
X1014865Y12058D01*
X1014916Y12200D01*
X1014957Y12373D01*
X1014977Y12556D01*
Y12566D01*
Y12576D01*
X1014967Y12637D01*
X1014957Y12729D01*
X1014937Y12840D01*
X1014886Y12962D01*
X1014825Y13095D01*
X1014733Y13227D01*
X1014612Y13348D01*
X1014591Y13359D01*
X1014540Y13399D01*
X1014449Y13450D01*
X1014388Y13470D01*
X1014317Y13501D01*
X1014236Y13531D01*
X1014144Y13562D01*
X1014032Y13582D01*
X1013921Y13602D01*
X1013799Y13623D01*
X1013656Y13643D01*
X1013504Y13653D01*
D02*
G37*
G36*
X1013260Y17890D02*
X1011604D01*
Y15777D01*
X1013230D01*
X1013291Y15787D01*
X1013372D01*
X1013534Y15807D01*
X1013727Y15848D01*
X1013910Y15889D01*
X1014073Y15960D01*
X1014154Y16000D01*
X1014215Y16051D01*
X1014225Y16061D01*
X1014266Y16102D01*
X1014317Y16163D01*
X1014378Y16254D01*
X1014439Y16366D01*
X1014490Y16508D01*
X1014530Y16671D01*
X1014540Y16854D01*
Y16864D01*
Y16874D01*
Y16935D01*
X1014520Y17026D01*
X1014500Y17128D01*
X1014459Y17250D01*
X1014408Y17382D01*
X1014327Y17504D01*
X1014215Y17616D01*
X1014205Y17626D01*
X1014154Y17656D01*
X1014073Y17707D01*
X1013961Y17758D01*
X1013809Y17799D01*
X1013616Y17849D01*
X1013514Y17870D01*
X1013392Y17880D01*
X1013260Y17890D01*
D02*
G37*
G36*
X975851Y17250D02*
X974632Y13247D01*
X977070D01*
X975851Y17250D01*
D02*
G37*
G36*
X909293D02*
X908074Y13247D01*
X910512D01*
X909293Y17250D01*
D02*
G37*
G36*
X67454Y20124D02*
X65524D01*
X64646Y17535D01*
X66356D01*
X66425Y17547D01*
X66541Y17558D01*
X66691Y17581D01*
X66888Y17605D01*
X66992Y17628D01*
X67119Y17651D01*
X67257Y17674D01*
X67408Y17708D01*
X67431D01*
X67477Y17720D01*
X67558Y17743D01*
X67662Y17789D01*
X67778Y17836D01*
X67905Y17905D01*
X68043Y17997D01*
X68171Y18102D01*
X68182Y18113D01*
X68228Y18159D01*
X68298Y18229D01*
X68367Y18321D01*
X68448Y18425D01*
X68540Y18552D01*
X68610Y18691D01*
X68679Y18841D01*
Y18853D01*
X68691Y18864D01*
X68702Y18899D01*
Y18945D01*
X68725Y19049D01*
X68748Y19188D01*
Y19338D01*
X68737Y19500D01*
X68691Y19650D01*
X68610Y19789D01*
X68598Y19800D01*
X68552Y19847D01*
X68471Y19893D01*
X68402Y19928D01*
X68332Y19962D01*
X68252Y19985D01*
X68159Y20020D01*
X68043Y20043D01*
X67928Y20078D01*
X67778Y20089D01*
X67627Y20112D01*
X67454Y20124D01*
D02*
G37*
G36*
X133398Y19928D02*
X133283D01*
X133202Y19916D01*
X133086Y19904D01*
X132971Y19881D01*
X132832Y19858D01*
X132682Y19823D01*
X132508Y19777D01*
X132335Y19719D01*
X132162Y19650D01*
X131965Y19569D01*
X131780Y19477D01*
X131584Y19361D01*
X131399Y19234D01*
X131202Y19084D01*
X131191Y19072D01*
X131156Y19049D01*
X131110Y18991D01*
X131041Y18922D01*
X130948Y18830D01*
X130856Y18714D01*
X130740Y18575D01*
X130625Y18425D01*
X130498Y18240D01*
X130359Y18032D01*
X130220Y17812D01*
X130081Y17558D01*
X129943Y17281D01*
X129816Y16980D01*
X129677Y16657D01*
X129550Y16310D01*
X129538Y16287D01*
X129527Y16229D01*
X129492Y16125D01*
X129457Y15998D01*
X129411Y15836D01*
X129365Y15663D01*
X129319Y15455D01*
X129284Y15247D01*
X129215Y14796D01*
X129192Y14565D01*
X129180Y14334D01*
X129192Y14114D01*
X129215Y13906D01*
X129261Y13721D01*
X129330Y13548D01*
Y13536D01*
X129353Y13513D01*
X129376Y13467D01*
X129411Y13421D01*
X129469Y13352D01*
X129527Y13282D01*
X129608Y13213D01*
X129700Y13132D01*
X129804Y13051D01*
X129920Y12982D01*
X130058Y12912D01*
X130209Y12843D01*
X130370Y12797D01*
X130555Y12751D01*
X130763Y12728D01*
X130983Y12716D01*
X131110D01*
X131191Y12728D01*
X131306Y12739D01*
X131434Y12762D01*
X131572Y12785D01*
X131734Y12820D01*
X131907Y12866D01*
X132081Y12912D01*
X132266Y12982D01*
X132451Y13063D01*
X132647Y13155D01*
X132844Y13271D01*
X133028Y13398D01*
X133213Y13536D01*
X133225Y13548D01*
X133260Y13571D01*
X133306Y13629D01*
X133375Y13698D01*
X133456Y13791D01*
X133560Y13906D01*
X133664Y14045D01*
X133791Y14218D01*
X133918Y14403D01*
X134057Y14611D01*
X134196Y14854D01*
X134334Y15131D01*
X134485Y15420D01*
X134623Y15744D01*
X134762Y16102D01*
X134901Y16484D01*
X134912Y16507D01*
X134924Y16564D01*
X134958Y16657D01*
X134993Y16772D01*
X135028Y16923D01*
X135074Y17096D01*
X135109Y17281D01*
X135155Y17477D01*
X135213Y17905D01*
X135224Y18125D01*
X135236Y18344D01*
X135224Y18552D01*
X135190Y18749D01*
X135143Y18934D01*
X135074Y19095D01*
Y19107D01*
X135051Y19130D01*
X135028Y19176D01*
X134982Y19223D01*
X134935Y19292D01*
X134866Y19361D01*
X134797Y19431D01*
X134704Y19511D01*
X134589Y19592D01*
X134473Y19662D01*
X134334Y19731D01*
X134184Y19800D01*
X134011Y19847D01*
X133826Y19893D01*
X133618Y19916D01*
X133398Y19928D01*
D02*
G37*
G36*
X1036648Y17900D02*
X1034962D01*
Y15624D01*
X1036466D01*
X1036527Y15634D01*
X1036618Y15645D01*
X1036740Y15665D01*
X1036902Y15685D01*
X1037095Y15726D01*
X1037207Y15746D01*
X1037329Y15777D01*
X1037349D01*
X1037390Y15787D01*
X1037451Y15807D01*
X1037532Y15848D01*
X1037614Y15889D01*
X1037715Y15949D01*
X1037807Y16031D01*
X1037888Y16122D01*
X1037898Y16132D01*
X1037918Y16173D01*
X1037959Y16234D01*
X1038000Y16315D01*
X1038040Y16407D01*
X1038081Y16518D01*
X1038101Y16640D01*
X1038111Y16772D01*
Y16783D01*
Y16793D01*
Y16823D01*
Y16864D01*
X1038091Y16955D01*
X1038071Y17077D01*
X1038030Y17209D01*
X1037969Y17351D01*
X1037878Y17484D01*
X1037766Y17606D01*
X1037746Y17616D01*
X1037695Y17656D01*
X1037654Y17677D01*
X1037604Y17697D01*
X1037543Y17727D01*
X1037471Y17758D01*
X1037390Y17778D01*
X1037299Y17809D01*
X1037197Y17829D01*
X1037075Y17859D01*
X1036943Y17870D01*
X1036801Y17890D01*
X1036648Y17900D01*
D02*
G37*
G36*
X1062924Y35090D02*
X1061417D01*
Y33167D01*
X1062897D01*
X1062952Y33176D01*
X1063026D01*
X1063174Y33194D01*
X1063350Y33231D01*
X1063516Y33268D01*
X1063664Y33333D01*
X1063738Y33370D01*
X1063794Y33416D01*
X1063803Y33426D01*
X1063840Y33463D01*
X1063886Y33518D01*
X1063941Y33601D01*
X1063997Y33703D01*
X1064043Y33832D01*
X1064080Y33980D01*
X1064089Y34147D01*
Y34156D01*
Y34165D01*
Y34221D01*
X1064071Y34304D01*
X1064052Y34397D01*
X1064015Y34507D01*
X1063969Y34628D01*
X1063895Y34739D01*
X1063794Y34840D01*
X1063784Y34850D01*
X1063738Y34877D01*
X1063664Y34924D01*
X1063562Y34970D01*
X1063424Y35007D01*
X1063248Y35053D01*
X1063156Y35071D01*
X1063045Y35081D01*
X1062924Y35090D01*
D02*
G37*
G36*
X1063146Y31235D02*
X1061417D01*
Y29182D01*
X1063082D01*
X1063137Y29191D01*
X1063211D01*
X1063285Y29200D01*
X1063461Y29219D01*
X1063646Y29256D01*
X1063830Y29302D01*
X1064006Y29376D01*
X1064089Y29422D01*
X1064154Y29469D01*
X1064173Y29478D01*
X1064210Y29524D01*
X1064256Y29589D01*
X1064321Y29672D01*
X1064385Y29783D01*
X1064432Y29912D01*
X1064469Y30069D01*
X1064487Y30236D01*
Y30245D01*
Y30254D01*
X1064478Y30310D01*
X1064469Y30393D01*
X1064450Y30495D01*
X1064404Y30606D01*
X1064348Y30726D01*
X1064265Y30846D01*
X1064154Y30957D01*
X1064136Y30966D01*
X1064089Y31003D01*
X1064006Y31050D01*
X1063951Y31068D01*
X1063886Y31096D01*
X1063812Y31123D01*
X1063729Y31151D01*
X1063627Y31170D01*
X1063525Y31188D01*
X1063415Y31207D01*
X1063285Y31225D01*
X1063146Y31235D01*
D02*
G37*
G36*
X996911Y34850D02*
X996134D01*
Y29302D01*
X997059D01*
X997142Y29311D01*
X997234D01*
X997336Y29321D01*
X997447Y29330D01*
X997669Y29358D01*
X997900Y29395D01*
X998122Y29441D01*
X998214Y29478D01*
X998298Y29515D01*
X998307D01*
X998316Y29524D01*
X998362Y29561D01*
X998446Y29616D01*
X998538Y29690D01*
X998640Y29801D01*
X998751Y29931D01*
X998852Y30088D01*
X998945Y30273D01*
Y30282D01*
X998954Y30301D01*
X998963Y30328D01*
X998982Y30375D01*
X999000Y30439D01*
X999019Y30513D01*
X999047Y30596D01*
X999065Y30698D01*
X999084Y30818D01*
X999111Y30948D01*
X999130Y31087D01*
X999148Y31253D01*
X999167Y31419D01*
X999176Y31614D01*
X999185Y31817D01*
Y32039D01*
Y32048D01*
Y32057D01*
Y32113D01*
Y32196D01*
X999176Y32298D01*
X999167Y32436D01*
X999158Y32584D01*
X999139Y32751D01*
X999121Y32926D01*
X999056Y33287D01*
X999019Y33472D01*
X998963Y33657D01*
X998899Y33823D01*
X998834Y33980D01*
X998751Y34128D01*
X998658Y34248D01*
X998649Y34258D01*
X998631Y34276D01*
X998603Y34304D01*
X998557Y34341D01*
X998501Y34387D01*
X998427Y34443D01*
X998344Y34489D01*
X998242Y34554D01*
X998131Y34609D01*
X998002Y34655D01*
X997854Y34711D01*
X997697Y34757D01*
X997521Y34794D01*
X997336Y34822D01*
X997133Y34840D01*
X996911Y34850D01*
D02*
G37*
%LPD*%
D31*
X773414Y59000D02*
G03*
X773414Y59000I-1414J0D01*
G01*
D34*
X374700Y220000D02*
G03*
X374700Y220000I-700J0D01*
G01*
X246700Y202000D02*
G03*
X246700Y202000I-700J0D01*
G01*
D35*
X265500Y158500D02*
X304500D01*
X302500D02*
Y173500D01*
X304500Y158500D02*
Y173500D01*
X265500Y158500D02*
Y173500D01*
X304500D01*
X1057670Y179250D02*
X1058400D01*
X1064960Y172690D01*
X1050030Y181050D02*
X1065580D01*
X1051748Y172690D02*
X1064960D01*
X1057870Y179780D02*
Y191930D01*
X1051561Y173141D02*
X1057670Y179250D01*
X1057620Y163070D02*
Y172190D01*
X1051561Y173141D02*
X1051748Y172690D01*
X1051550Y77530D02*
X1067230D01*
X1100000Y47500D02*
Y202500D01*
X1059650Y77020D02*
X1066740Y69930D01*
X1052050D02*
X1066740D01*
X1059390Y78030D02*
Y85880D01*
X1059140Y77020D02*
X1059650D01*
X1052050Y69930D02*
X1059140Y77020D01*
X1059900Y60570D02*
Y69680D01*
X980000Y202500D02*
X1100000D01*
X894200D02*
X950000D01*
X980000Y47500D02*
X1100000D01*
X894200D02*
Y202500D01*
Y47500D02*
X950000D01*
X395000Y50500D02*
X434000D01*
X397000Y35500D02*
Y50500D01*
X395000Y35500D02*
Y50500D01*
X434000Y35500D02*
Y50500D01*
X395000Y35500D02*
X434000D01*
X395000Y31500D02*
X434000D01*
X397000Y16500D02*
Y31500D01*
X395000Y16500D02*
Y31500D01*
X434000Y16500D02*
Y31500D01*
X395000Y16500D02*
X434000D01*
X680500Y236000D02*
X681500D01*
X680500Y214000D02*
X681500D01*
X680500D02*
Y236000D01*
X681500Y214000D02*
Y236000D01*
X41600Y70750D02*
X42330D01*
X48252Y77310D02*
X48439Y76859D01*
X40100Y180320D02*
Y189430D01*
X40610Y164120D02*
Y171970D01*
X32770Y172470D02*
X48450D01*
X40860Y172980D02*
X47950Y180070D01*
X40350Y172980D02*
X40860D01*
X33260Y180070D02*
X40350Y172980D01*
X33260Y180070D02*
X47950D01*
X0Y47500D02*
Y202500D01*
X120000D01*
X150000D02*
X205800D01*
Y47500D02*
Y202500D01*
X150000Y47500D02*
X205800D01*
X0D02*
X120000D01*
X35040Y77310D02*
X48252D01*
X35040D02*
X41600Y70750D01*
X42330D02*
X48439Y76859D01*
X34420Y68950D02*
X49970D01*
X42380Y77810D02*
Y86930D01*
X42130Y58070D02*
Y70220D01*
X788000Y37000D02*
Y53000D01*
X810000D01*
X788000Y37000D02*
X810000D01*
Y53000D01*
X831750Y18750D02*
X867250D01*
Y61250D01*
X831750Y18750D02*
Y61250D01*
X867250D01*
X313750Y224000D02*
X326250D01*
X293750Y198000D02*
X306250D01*
X104000Y222900D02*
Y244900D01*
X94500Y242900D02*
Y244900D01*
Y222900D02*
Y224900D01*
X123500Y242900D02*
Y244900D01*
Y222900D02*
Y224900D01*
X94500Y244900D02*
X123500D01*
X94500Y222900D02*
X123500D01*
X148900Y246700D02*
X199700D01*
X148900Y221300D02*
Y246700D01*
Y221300D02*
X199700D01*
Y246700D01*
X334000Y208500D02*
X342000D01*
X345000Y230000D02*
Y238000D01*
X275000Y184000D02*
Y192000D01*
X278000Y214000D02*
X286000D01*
X267000Y50000D02*
X275000D01*
X394000Y137000D02*
Y145000D01*
X825000Y200000D02*
X833000D01*
X706000Y105000D02*
Y113000D01*
X838900Y223300D02*
Y248700D01*
X915200D01*
X838900Y223300D02*
X915200D01*
Y248700D01*
X619000Y247500D02*
X637000D01*
X619000Y216500D02*
X637000D01*
X619000D02*
Y217000D01*
X637000Y216500D02*
Y217000D01*
X619000Y247000D02*
Y247500D01*
X637000Y247000D02*
Y247500D01*
X313500Y126500D02*
X366500D01*
X313500Y73500D02*
X366500D01*
Y126500D01*
X313500Y73500D02*
Y126500D01*
X733500Y123500D02*
X786500D01*
X733500Y176500D02*
X786500D01*
X733500Y123500D02*
Y176500D01*
X786500Y123500D02*
Y176500D01*
D86*
X663650Y239000D02*
G03*
X663650Y239000I-1250J0D01*
G01*
X785750Y28000D02*
G03*
X785750Y28000I-1250J0D01*
G01*
X642219Y124540D02*
G03*
X642219Y124540I-1250J0D01*
G01*
X656962Y134546D02*
G03*
X656962Y134546I-1250J0D01*
G01*
X375750Y149650D02*
G03*
X375750Y149650I-1250J0D01*
G01*
X361250Y120000D02*
G03*
X361250Y120000I-1250J0D01*
G01*
X726750Y100350D02*
G03*
X726750Y100350I-1250J0D01*
G01*
X741250Y130000D02*
G03*
X741250Y130000I-1250J0D01*
G01*
D87*
X828500Y55500D02*
G03*
X828500Y55500I-1000J0D01*
G01*
X1052014Y156017D02*
X1049475Y153477D01*
Y148399D01*
X1052014Y145860D01*
X1062171D01*
X1064710Y148399D01*
Y153477D01*
X1062171Y156017D01*
X1057093D01*
Y150938D01*
X1052005Y90690D02*
X1054544D01*
X1059622Y95768D01*
X1054544Y100847D01*
X1052005D01*
X1059622Y95768D02*
X1067240D01*
X47986Y93983D02*
X50525Y96523D01*
Y101601D01*
X47986Y104140D01*
X37829D01*
X35290Y101601D01*
Y96523D01*
X37829Y93983D01*
X42908D01*
Y99062D01*
X47995Y159310D02*
X45456D01*
X40377Y154232D01*
X45456Y149153D01*
X47995D01*
X40377Y154232D02*
X32760D01*
D88*
X647400Y216500D02*
G03*
X647400Y216500I-500J0D01*
G01*
D89*
X417500Y256500D02*
X492500D01*
Y206500D02*
Y222500D01*
X417500Y206500D02*
Y222500D01*
X492500Y246500D02*
Y256500D01*
X417500Y246500D02*
Y256500D01*
X376000Y190000D02*
Y191500D01*
X392000Y190000D02*
Y191500D01*
Y218500D02*
Y220000D01*
X378500D02*
X392000D01*
X377000Y218500D02*
X378500Y220000D01*
X376000Y190000D02*
X392000D01*
X244000Y230500D02*
Y232000D01*
X228000Y230500D02*
Y232000D01*
Y202000D02*
Y203500D01*
Y202000D02*
X241500D01*
X243000Y203500D01*
X228000Y232000D02*
X244000D01*
D90*
X510000Y228000D02*
Y232000D01*
Y240000D02*
Y244000D01*
X868000Y187000D02*
X872000D01*
X248000Y45000D02*
Y49000D01*
X448000Y42000D02*
Y46000D01*
Y22000D02*
Y26000D01*
X647000Y206000D02*
Y210000D01*
X677000Y241000D02*
Y245000D01*
X588586Y223586D02*
X591414Y226414D01*
X592000Y240000D02*
Y244000D01*
X707000Y223000D02*
X711000D01*
X595586Y32414D02*
X598414Y29586D01*
X604586Y23414D02*
X607414Y20586D01*
X776000Y42500D02*
X780000D01*
X790000Y13000D02*
Y17000D01*
X805000Y80000D02*
X809000D01*
X852500Y8000D02*
Y12000D01*
X852000Y80000D02*
Y84000D01*
Y68000D02*
Y72000D01*
X392000Y179000D02*
Y183000D01*
X382000Y227000D02*
Y231000D01*
Y239000D02*
Y243000D01*
X417000Y179000D02*
Y183000D01*
X281000Y239000D02*
Y243000D01*
X254000Y239000D02*
Y243000D01*
X238000Y179000D02*
Y183000D01*
X218000Y188000D02*
X222000D01*
X215000Y239000D02*
Y243000D01*
X238000Y191000D02*
Y195000D01*
X228000Y93000D02*
X232000D01*
X390000Y59000D02*
Y63000D01*
X284000Y53000D02*
X288000D01*
X228000Y119000D02*
X232000D01*
X362000Y29000D02*
Y33000D01*
X382000Y159000D02*
Y163000D01*
X248000Y85000D02*
Y89000D01*
Y97000D02*
Y101000D01*
Y111000D02*
Y115000D01*
X284000Y26000D02*
X288000D01*
X248000Y123000D02*
Y127000D01*
X407000Y75500D02*
Y79500D01*
X248000Y59000D02*
Y63000D01*
Y137000D02*
Y141000D01*
Y149000D02*
Y153000D01*
X852000Y109000D02*
Y113000D01*
Y97000D02*
Y101000D01*
Y123000D02*
Y127000D01*
X868000Y131000D02*
X872000D01*
X852000Y135000D02*
Y139000D01*
Y161000D02*
Y165000D01*
Y149000D02*
Y153000D01*
X868000Y157000D02*
X872000D01*
X852000Y175000D02*
Y179000D01*
X812000Y197000D02*
X816000D01*
X852000Y187000D02*
Y191000D01*
X332000Y26000D02*
X336000D01*
X320000D02*
X324000D01*
X308000D02*
X312000D01*
X296000D02*
X300000D01*
X248000Y71000D02*
Y75000D01*
X273000Y145000D02*
X277000D01*
X812000Y224000D02*
X816000D01*
X800000D02*
X804000D01*
X788000D02*
X792000D01*
X776000D02*
X780000D01*
X764000D02*
X768000D01*
X742000D02*
X746000D01*
X710000Y187000D02*
Y191000D01*
X693000Y170500D02*
Y174500D01*
X718000Y87000D02*
Y91000D01*
X248000Y161000D02*
Y165000D01*
X616500Y208000D02*
Y212000D01*
X777000Y70000D02*
Y74000D01*
X11665Y239247D02*
X5000D01*
Y234248D01*
X8332Y235914D01*
X9998D01*
X11665Y234248D01*
Y230916D01*
X9998Y229250D01*
X6666D01*
X5000Y230916D01*
X14997Y234248D02*
X21661D01*
X24994Y230916D02*
X26660Y229250D01*
X29992D01*
X31658Y230916D01*
Y237581D01*
X29992Y239247D01*
X26660D01*
X24994Y237581D01*
Y235914D01*
X26660Y234248D01*
X31658D01*
X34990Y239247D02*
Y232582D01*
X38323Y229250D01*
X41655Y232582D01*
Y239247D01*
X44987D02*
Y229250D01*
X49985D01*
X51652Y230916D01*
Y237581D01*
X49985Y239247D01*
X44987D01*
X61648Y237581D02*
X59982Y239247D01*
X56650D01*
X54984Y237581D01*
Y230916D01*
X56650Y229250D01*
X59982D01*
X61648Y230916D01*
X927664Y237331D02*
X925998Y238997D01*
X922666D01*
X921000Y237331D01*
Y230666D01*
X922666Y229000D01*
X925998D01*
X927664Y230666D01*
Y233998D01*
X924332D01*
X930997Y229000D02*
Y238997D01*
X937661Y229000D01*
Y238997D01*
X940994D02*
Y229000D01*
X945992D01*
X947658Y230666D01*
Y237331D01*
X945992Y238997D01*
X940994D01*
X873829Y217819D02*
X880493D01*
X877161D01*
Y207822D01*
X883826Y217819D02*
X890490Y207822D01*
Y217819D02*
X883826Y207822D01*
X843000Y208000D02*
Y217997D01*
X847998D01*
X849665Y216331D01*
Y212998D01*
X847998Y211332D01*
X843000D01*
X846332D02*
X849665Y208000D01*
X852997Y217997D02*
X859661Y208000D01*
Y217997D02*
X852997Y208000D01*
X376000Y25997D02*
X382664D01*
X379332D01*
Y16000D01*
X385997D02*
X389329D01*
X387663D01*
Y25997D01*
X385997Y24331D01*
X373000Y45997D02*
X379664D01*
X376332D01*
Y36000D01*
X382997Y44331D02*
X384663Y45997D01*
X387995D01*
X389661Y44331D01*
Y37666D01*
X387995Y36000D01*
X384663D01*
X382997Y37666D01*
Y44331D01*
M02*
