M48
;Layer_Color=9474304
;FILE_FORMAT=4:4
METRIC,LZ
;TYPE=PLATED
T1F00S00C0.2000
T2F00S00C0.6000
T3F00S00C0.8500
T4F00S00C0.9000
T5F00S00C1.1000
T6F00S00C1.6000
T7F00S00C2.2000
;TYPE=NON_PLATED
T8F00S00C0.7000
T9F00S00C3.3000
T10F00S00C3.3001
%
T01
X00774Y00015
Y00027
X00816Y00029
X00825
X00659Y00027
X00645Y00031
X00633Y00019
X00510048Y00015752
X00464Y00024
X00334Y0001
X00322
X0031
X00298
X00271Y00014
X00262
X00271Y00023
Y00032
X00221Y0004
X0023Y00078
X0022Y000985
Y001135
X0023Y00134
X00231Y00163
X0022Y00172
X00255Y00175
Y00184
Y00193
X002625Y00205
X002705
X002705Y0021375
X002625
Y00231
X002715
X00239Y00241
X0023
X0021Y0021375
X00265Y00125
Y00116
Y00096
Y00087
X00081Y00234
X00067
X002955Y00224
Y00215
X003045
Y00224
X003155Y00241
X003245
Y00207
Y00198
X003155
Y00207
X003495Y0020825
X003575
Y00217
X003495
X00365Y00229
Y00238
X004Y00225
X004225Y0019
X00432
X00441
X00452
X00461
X0045448Y00176851
X00455894Y00167659
X00446702Y00169073
X00448116Y00159881
X00472925Y00137021
X00484239Y00148335
X00495553Y00159648
X00504038Y00168134
X00521009Y00185104
X00528787Y00192882
X00540808Y00204903
X00559192
X00566264Y00197832
X00573335Y00190761
X00587477Y00176619
X00594548Y00169548
X00601619Y00162477
X00610104Y00153991
X00624246Y00139849
X0062566Y00111565
X00632732Y00118636
X00615761Y00101665
X00589952Y0010909
X00581113Y00100251
X00566264Y00110151
X00581113Y00125
X00565556Y00140556
X00534444
X00518887Y00125
X00534444Y00109444
X0055Y00093887
X00588891Y00074795
X00573335Y00059239
X00563435Y0004934
X00537979Y00047925
X00523837Y00062067
X00512523Y00073381
X00505452Y00080452
X00498381Y00087523
X00484239Y00101665
X00467268Y00118636
X00457015Y00081513
X00447823Y00080099
X00449237Y00089291
X00440045Y00087877
X00408Y001
Y001125
X004Y00118
Y00107
X004015Y00129
X00376Y00141
Y00181
X0036Y00168
X003475
X00341Y0016
X00354
X00312Y00166
X003045Y00181
X002955
X00296Y001505
X00286
Y001395
X00296
X0032Y001175
Y00104
Y00095
Y00085
X0035Y00091
X00349Y00042
X00358
X003675
X00405Y00061
X00464086Y00044036
X00487775Y00050754
X00494492Y00044036
X00607276Y00041561
X00612225Y00050754
X00621418Y0004934
X00620004Y00058532
X00629196Y00057118
X00627782Y0006631
X00636974Y00064896
X0063556Y00074088
X00644752Y00072674
X00653591Y0009212
X00660309Y00098837
X00667026Y00105555
X0066738Y00091766
X00664Y00062
X00659Y00035
X00616468Y00032369
X00678Y00116
X00657834Y00153638
X00651823Y00159648
X00645813Y00165659
X00639803Y00171669
X00631317Y00209853
X00655Y00218
X00665Y00208
X00675
X00655Y00242
X00575456Y00241673
X00526Y00242
X00599851Y00208085
X0055Y00156113
X00692Y0015
Y001375
X007Y00143
Y00132
X00698492Y00121465
X00724Y00109
X00722Y00071
X00712
X00702
X00704Y00034
X00695
X00686
X00713
X00721
X0073
X00739
X00748
X00742Y00071
X0074Y00082
X007525
X00759Y0009
X00746
X00761Y00072
X00793Y00048
X00807Y00096
X00836Y00082
Y0007
X00835Y00125
Y00134
Y00151
Y0016
X0087Y00172
X0088Y00175
Y00166
Y001515
Y001365
X0087Y00116
Y00203
X0088Y001935
X00829Y00218
X00802Y0024
X0079
X00778
X00766
X00734Y002295
X007325Y00208
X00742
X00751
X0075Y00159
X0078Y00155
Y00146
Y001325
Y00165
X00695Y00189
X00709Y00239
T02
X0042Y00235
X0049
T03
X0043Y00208
X0048
T04
X0016889Y0009332
X001689Y0011865
Y0014405
Y0016945
X001943Y0015675
X001943Y0013135
Y0010595
Y0008055
X00187Y00234
X001616
X00323Y00184
X00342
X008516Y00236
X00877
X009024
X009057Y0016945
Y0014405
Y0011865
X009057Y0009325
X009311Y0008055
Y0010595
Y0013135
X0093111Y0015668
T05
X000648Y000587
Y000841
X0006484Y001659
X000648Y001913
X010352
Y001659
X0103516Y000841
X010352Y000587
T06
X001359Y0004755
Y0020245
X009641
Y0004755
T07
X0055Y00125
T08
X00677Y00034
X00757
T09
X001054Y0018215
X009946Y0006785
T10
X001054Y0006785
X009946Y0018215
M30
